<?xml version="1.0" encoding="UTF-8"?>
<svg version="1.1" xmlns="http://www.w3.org/2000/svg" width="579" height="303">
<path d="M0 0 C5.27812226 2.41812974 8.07193306 8.83598717 10.67138672 13.71508789 C11.58642326 15.41623829 12.59046401 17.06935166 13.62060547 18.70336914 C14.80810547 20.82836914 14.80810547 20.82836914 14.80810547 23.82836914 C15.46810547 23.82836914 16.12810547 23.82836914 16.80810547 23.82836914 C18.4069174 26.15996987 19.65002846 28.40335077 20.63623047 31.05493164 C22.12434542 34.5768037 24.06503756 37.76495577 26.05810547 41.01586914 C26.4599707 41.6793335 26.86183594 42.34279785 27.27587891 43.02636719 C29.02724654 45.91668467 30.79042633 48.79956162 32.55810547 51.67993164 C35.47610719 56.46727822 38.07557897 61.30853719 40.53857422 66.34399414 C42.24295965 69.67934532 44.17464241 72.84934662 46.12841797 76.04321289 C48.49158961 79.96168122 50.74654224 83.93951986 53.00463867 87.91918945 C54.47162331 90.50143635 55.95111833 93.05301182 57.54638672 95.55883789 C58.80810547 97.82836914 58.80810547 97.82836914 58.80810547 100.82836914 C59.46810547 100.82836914 60.12810547 100.82836914 60.80810547 100.82836914 C62.45407972 103.22874826 63.7005709 105.54877926 64.74560547 108.26586914 C65.79619373 111.03347231 65.79619373 111.03347231 67.93310547 114.01586914 C69.80810547 116.82836914 69.80810547 116.82836914 69.80810547 118.82836914 C71.00048828 118.78196289 72.19287109 118.73555664 73.42138672 118.68774414 C74.98776794 118.65022603 76.55417623 118.61382591 78.12060547 118.57836914 C78.90628906 118.54485352 79.69197266 118.51133789 80.50146484 118.47680664 C81.63745117 118.4574707 81.63745117 118.4574707 82.79638672 118.43774414 C83.84113159 118.40632324 83.84113159 118.40632324 84.90698242 118.37426758 C86.80810547 118.82836914 86.80810547 118.82836914 88.40563965 120.26611328 C90.54844655 124.18094632 90.20121184 127.88559815 90.14868164 132.27856445 C90.14911972 133.23499847 90.1495578 134.1914325 90.15000916 135.17684937 C90.1479198 138.33693889 90.12458144 141.49649733 90.10107422 144.65649414 C90.0954788 146.84795848 90.09120845 149.03942657 90.08821106 151.230896 C90.0767581 156.99807094 90.04728682 162.76501913 90.01409912 168.53210449 C89.98340809 174.4172865 89.96970778 180.30250516 89.95458984 186.18774414 C89.92241774 197.73471875 89.87121575 209.28152509 89.80810547 220.82836914 C87.28652736 222.0891582 85.60986284 221.91103838 82.79248047 221.85571289 C81.78830078 221.8434668 80.78412109 221.8312207 79.74951172 221.81860352 C77.63745965 221.78370425 75.52547102 221.74470334 73.41357422 221.70141602 C68.0580032 221.64327763 63.86384606 221.85398678 58.80810547 223.82836914 C58.14810547 223.49836914 57.48810547 223.16836914 56.80810547 222.82836914 C56.80810547 223.48836914 56.80810547 224.14836914 56.80810547 224.82836914 C55.48810547 224.82836914 54.16810547 224.82836914 52.80810547 224.82836914 C52.80810547 224.16836914 52.80810547 223.50836914 52.80810547 222.82836914 C50.49810547 222.82836914 48.18810547 222.82836914 45.80810547 222.82836914 C45.80810547 223.48836914 45.80810547 224.14836914 45.80810547 224.82836914 C37.75060764 225.60812699 30.91099326 221.5641553 24.46044922 217.23071289 C23.64253906 216.53655273 23.64253906 216.53655273 22.80810547 215.82836914 C22.80810547 215.16836914 22.80810547 214.50836914 22.80810547 213.82836914 C22.14810547 213.49836914 21.48810547 213.16836914 20.80810547 212.82836914 C20.14810547 212.49836914 19.48810547 212.16836914 18.80810547 211.82836914 C18.80810547 211.16836914 18.80810547 210.50836914 18.80810547 209.82836914 C17.81810547 209.49836914 16.82810547 209.16836914 15.80810547 208.82836914 C11.650274 203.99195984 9.36002213 198.16226987 8.80810547 191.82836914 C9.13810547 191.16836914 9.46810547 190.50836914 9.80810547 189.82836914 C9.14810547 189.82836914 8.48810547 189.82836914 7.80810547 189.82836914 C7.80810547 199.72836914 7.80810547 209.62836914 7.80810547 219.82836914 C0.34858508 223.55812934 -8.8518972 220.82836914 -17.19189453 220.82836914 C-17.19189453 196.40836914 -17.19189453 171.98836914 -17.19189453 146.82836914 C5.80810547 146.82836914 5.80810547 146.82836914 7.80810547 147.82836914 C7.80810547 158.38836914 7.80810547 168.94836914 7.80810547 179.82836914 C8.46810547 179.82836914 9.12810547 179.82836914 9.80810547 179.82836914 C9.56060547 179.18899414 9.31310547 178.54961914 9.05810547 177.89086914 C8.52489614 171.35905489 12.92597115 164.87514376 16.80810547 159.82836914 C17.46810547 159.82836914 18.12810547 159.82836914 18.80810547 159.82836914 C19.13810547 159.16836914 19.46810547 158.50836914 19.80810547 157.82836914 C23.2278454 152.47573272 28.18645118 149.53092097 33.80810547 146.82836914 C37.68310547 146.07836914 37.68310547 146.07836914 40.80810547 145.82836914 C41.44748047 145.47774414 42.08685547 145.12711914 42.74560547 144.76586914 C46.88565595 142.88402801 51.56770141 143.41490112 55.80810547 144.82836914 C55.80810547 145.48836914 55.80810547 146.14836914 55.80810547 146.82836914 C56.55060547 146.62211914 57.29310547 146.41586914 58.05810547 146.20336914 C60.80810547 145.82836914 60.80810547 145.82836914 64.80810547 147.82836914 C65.13810547 140.89836914 65.46810547 133.96836914 65.80810547 126.82836914 C46.66810547 126.82836914 27.52810547 126.82836914 7.80810547 126.82836914 C7.80810547 131.11836914 7.80810547 135.40836914 7.80810547 139.82836914 C7.14810547 140.81836914 6.48810547 141.80836914 5.80810547 142.82836914 C5.14810547 142.82836914 4.48810547 142.82836914 3.80810547 142.82836914 C3.80810547 143.48836914 3.80810547 144.14836914 3.80810547 144.82836914 C-2.13189453 144.82836914 -8.07189453 144.82836914 -14.19189453 144.82836914 C-14.19189453 144.16836914 -14.19189453 143.50836914 -14.19189453 142.82836914 C-14.85189453 142.82836914 -15.51189453 142.82836914 -16.19189453 142.82836914 C-17.522714 140.16673019 -17.28822859 137.73589803 -17.32910156 134.8112793 C-17.5200903 125.61971458 -18.95045222 119.54525982 -24.19189453 111.82836914 C-25.47771129 109.71240184 -26.7484401 107.58719688 -28.00439453 105.45336914 C-28.8803125 104.01864258 -28.8803125 104.01864258 -29.77392578 102.55493164 C-31.14729971 99.91411897 -31.78154819 97.75941444 -32.19189453 94.82836914 C-32.85189453 94.82836914 -33.51189453 94.82836914 -34.19189453 94.82836914 C-34.76037109 93.81258789 -35.32884766 92.79680664 -35.91455078 91.75024414 C-39.52395481 85.31144439 -43.13960413 78.88022096 -46.87939453 72.51586914 C-50.10474514 67.0164234 -53.16286992 61.43767397 -56.19189453 55.82836914 C-57.25400904 53.89065779 -58.316505 51.95315548 -59.37939453 50.01586914 C-60.11222656 48.65848633 -60.11222656 48.65848633 -60.85986328 47.27368164 C-61.93791445 45.29461996 -63.05855499 43.33879648 -64.19189453 41.39086914 C-65.19189453 38.82836914 -65.19189453 38.82836914 -64.61767578 36.90649414 C-62.64922922 34.03741587 -60.3658453 32.78896143 -57.37939453 31.01586914 C-56.80406982 30.67185059 -56.22874512 30.32783203 -55.63598633 29.97338867 C-50.69377109 27.04770476 -45.64652239 24.32124778 -40.55517578 21.66430664 C-36.97448715 19.70969147 -33.49590547 17.62189784 -30.00415039 15.51391602 C-24.8145188 12.40347097 -19.57241983 9.38825798 -14.31689453 6.39086914 C-13.20314453 5.74182617 -12.08939453 5.0927832 -10.94189453 4.42407227 C-9.87197266 3.8162793 -8.80205078 3.20848633 -7.69970703 2.58227539 C-6.73693848 2.02870361 -5.77416992 1.47513184 -4.78222656 0.90478516 C-2.19189453 -0.17163086 -2.19189453 -0.17163086 0 0 Z M45.80810547 165.82836914 C45.80810547 166.48836914 45.80810547 167.14836914 45.80810547 167.82836914 C44.47779297 167.92118164 44.47779297 167.92118164 43.12060547 168.01586914 C38.19889669 169.22308073 36.03130366 172.08516398 33.19091797 176.13305664 C30.57041825 181.24081034 30.78693403 187.58600557 32.49951172 193.02368164 C34.68357226 197.24558946 37.65304376 199.6642745 41.80810547 201.82836914 C43.12810547 201.82836914 44.44810547 201.82836914 45.80810547 201.82836914 C45.80810547 202.48836914 45.80810547 203.14836914 45.80810547 203.82836914 C48.8184229 204.76260559 49.67460814 204.87286825 52.80810547 203.82836914 C52.80810547 203.16836914 52.80810547 202.50836914 52.80810547 201.82836914 C53.67435547 201.80774414 54.54060547 201.78711914 55.43310547 201.76586914 C60.71181866 200.29955992 63.15826641 196.48029166 65.97216797 191.95727539 C67.04411488 189.22731715 67.00269819 187.00126333 66.93310547 184.07836914 C66.91505859 183.09352539 66.89701172 182.10868164 66.87841797 181.09399414 C66.85521484 180.34633789 66.83201172 179.59868164 66.80810547 178.82836914 C66.14810547 178.82836914 65.48810547 178.82836914 64.80810547 178.82836914 C64.76685547 178.10649414 64.72560547 177.38461914 64.68310547 176.64086914 C63.49083667 172.80857658 61.17452701 170.81726647 57.80810547 168.82836914 C54.5837742 167.95443115 54.5837742 167.95443115 51.80810547 167.82836914 C51.80810547 167.16836914 51.80810547 166.50836914 51.80810547 165.82836914 C49.82810547 165.82836914 47.84810547 165.82836914 45.80810547 165.82836914 Z M29.80810547 183.82836914 C30.80810547 185.82836914 30.80810547 185.82836914 30.80810547 185.82836914 Z " fill="#854DCD" transform="translate(260.19189453125,71.171630859375)"/>
<path d="M0 0 C3.65728821 2.67787883 5.92861755 5.04421171 8.125 9 C9.00671875 10.57201172 9.00671875 10.57201172 9.90625 12.17578125 C10.60472202 13.45021662 11.30257918 14.72498906 12 16 C12.90580254 17.6395702 13.81208443 19.27887563 14.71875 20.91796875 C16.60321814 24.33091474 18.48065225 27.74757321 20.3515625 31.16796875 C25.39722038 40.45334386 25.39722038 40.45334386 30.75 49.5625 C33.37943791 53.91118577 35.89095989 58.31741411 38.375 62.75 C38.94939819 63.77407959 38.94939819 63.77407959 39.53540039 64.81884766 C41.05359084 67.526558 42.57122006 70.2345826 44.08837891 72.94287109 C48.86314398 81.46320563 48.86314398 81.46320563 54.125 89.6875 C56.77580782 93.57157136 59.02664163 97.58710514 61.24609375 101.73046875 C66.88104047 112.23481264 72.69598346 122.62363195 78.88818359 132.80981445 C81.00616132 136.30452471 83.02049656 139.82902294 84.9375 143.4375 C87.89139439 148.96253063 91.21358999 154.23549592 94.57397461 159.51928711 C96.54218257 162.62159971 98.43987782 165.66763376 100 169 C102.41173024 174.05281812 105.27360012 178.64246751 108.47851562 183.23242188 C109.55078125 184.87890625 109.55078125 184.87890625 111 188 C110.3683521 190.53706092 109.85400369 192.14599631 108 194 C105.4460282 194.13229477 102.91837278 194.19981766 100.36254883 194.22460938 C99.5624942 194.23599945 98.76243958 194.24738953 97.93814087 194.25912476 C89.55682497 194.3698661 81.17461826 194.41722722 72.79272461 194.45996094 C68.81442098 194.48223241 64.83705602 194.52398961 60.85913086 194.58300781 C56.05976976 194.65408027 51.26129184 194.69079101 46.4614315 194.70307922 C44.63253736 194.71348446 42.80367015 194.73591999 40.97507668 194.77067566 C38.41048083 194.81689302 35.84934393 194.81888231 33.28442383 194.81054688 C32.53145523 194.83414276 31.77848663 194.85773865 31.00270081 194.88204956 C27.88749513 194.8331562 25.60913199 194.52023007 23.20650578 192.46826363 C20.57272083 189.4426951 18.32541148 186.25181303 16.48828125 182.6796875 C14.76454887 179.42811709 12.98530327 176.23471098 11.10546875 173.0703125 C10.62529297 172.255625 10.14511719 171.4409375 9.65039062 170.6015625 C8.65981169 168.92458775 7.66488569 167.2501745 6.66601562 165.578125 C6.19228516 164.77117187 5.71855469 163.96421875 5.23046875 163.1328125 C4.80145264 162.40980957 4.37243652 161.68680664 3.93041992 160.94189453 C3 159 3 159 3 156 C2.34 156 1.68 156 1 156 C0.14341797 154.45119141 0.14341797 154.45119141 -0.73046875 152.87109375 C-10.72802169 134.81925698 -20.83715317 116.83681035 -31.33105469 99.06787109 C-34.08596895 94.38226532 -36.70142958 89.69354793 -39.08129883 84.80737305 C-40.56593434 81.88662984 -42.31442219 79.1436319 -44.0625 76.375 C-46.6141041 72.32965454 -48.8647368 68.27608698 -51 64 C-52.29026633 61.84072472 -53.60364827 59.69512667 -54.9375 57.5625 C-55.64502735 56.41827536 -56.35206354 55.27374687 -57.05859375 54.12890625 C-58.16831677 52.34039893 -59.28255938 50.55463632 -60.41015625 48.77734375 C-62.4625741 45.4302107 -63.85226426 42.94172221 -63 39 C-61.125 36.6875 -61.125 36.6875 -59 35 C-58.34 35 -57.68 35 -57 35 C-57 34.34 -57 33.68 -57 33 C-55.85144531 32.3709375 -54.70289063 31.741875 -53.51953125 31.09375 C-45.3134477 26.57907333 -37.22523612 21.97272994 -29.28515625 17.00390625 C-24.84364647 14.2946381 -20.30941131 11.76607675 -15.76513672 9.234375 C-10.4427934 6.26521846 -5.19636412 3.18527127 0 0 Z " fill="#854CCD" transform="translate(331,4)"/>
<path d="M0 0 C0.99 0.66 1.98 1.32 3 2 C3 2.66 3 3.32 3 4 C3.66 4 4.32 4 5 4 C6.296875 5.80078125 6.296875 5.80078125 7.75 8.3125 C8.54664063 9.68148437 8.54664063 9.68148437 9.359375 11.078125 C10.93830526 13.89012461 12.47490798 16.72101276 14 19.5625 C15.85216744 23.00155048 17.79391429 26.27704666 20 29.5 C22.20608571 32.72295334 24.14783256 35.99844952 26 39.4375 C26.50789063 40.35144531 27.01578125 41.26539063 27.5390625 42.20703125 C29 45 29 45 30.1484375 47.88671875 C31.50388896 50.91274256 32.48766037 52.81358551 35 55 C38.51287969 55.62378237 41.62741764 55.87849986 45.17529297 55.71533203 C48.83583031 55.58874536 50.6878882 55.77578307 53.69763184 57.9379425 C56.85926909 62.1427935 56.69283737 65.21969679 56.61523438 70.34838867 C56.62078339 71.28224899 56.6263324 72.21610931 56.63204956 73.17826843 C56.64384142 76.2586937 56.61958031 79.33764687 56.59375 82.41796875 C56.59203915 84.55837436 56.59210432 86.69878206 56.59387207 88.83918762 C56.59221924 93.32064914 56.57352324 97.80161016 56.54199219 102.28295898 C56.50224301 108.03690702 56.49795546 113.79020164 56.50545502 119.54426098 C56.50851857 123.96139042 56.49642732 128.37837197 56.47932434 132.79546547 C56.47227804 134.91782008 56.46917177 137.04019146 56.47001648 139.1625576 C56.46822615 142.12194754 56.44691243 145.0805419 56.41992188 148.03979492 C56.42285248 148.92242004 56.42578308 149.80504517 56.42880249 150.7144165 C56.39440918 153.14860535 56.39440918 153.14860535 56 157 C52.61034527 159.25976982 51.55179696 159.22014517 47.59765625 159.125 C46.54255859 159.10953125 45.48746094 159.0940625 44.40039062 159.078125 C42.17903432 159.02613304 39.95768014 158.97405003 37.73632812 158.921875 C36.67994141 158.90640625 35.62355469 158.8909375 34.53515625 158.875 C33.569729 158.85179687 32.60430176 158.82859375 31.60961914 158.8046875 C28.87512709 159.0093459 27.38670943 159.73372603 25 161 C22.25 160.625 22.25 160.625 20 160 C20 160.66 20 161.32 20 162 C18.68 162 17.36 162 16 162 C16 161.34 16 160.68 16 160 C15.01 160 14.02 160 13 160 C13 160.66 13 161.32 13 162 C11.02 162 9.04 162 7 162 C7 161.34 7 160.68 7 160 C5.98486328 160.34611328 5.98486328 160.34611328 4.94921875 160.69921875 C0.94352101 161.10774686 -1.73908459 159.62499002 -5.1875 157.8125 C-5.81591797 157.50763672 -6.44433594 157.20277344 -7.09179688 156.88867188 C-10.56900414 155.11473833 -12.76159236 153.79946833 -14 150 C-14.66 150 -15.32 150 -16 150 C-16 149.34 -16 148.68 -16 148 C-16.99 147.67 -17.98 147.34 -19 147 C-19 146.01 -19 145.02 -19 144 C-19.66 144 -20.32 144 -21 144 C-22.65 141.03 -24.3 138.06 -26 135 C-26.33 142.26 -26.66 149.52 -27 157 C-27.33 157 -27.66 157 -28 157 C-28 133.57 -28 110.14 -28 86 C-27.67 86 -27.34 86 -27 86 C-27 94.58 -27 103.16 -27 112 C-25.68 108.7 -24.36 105.4 -23 102 C-17.44594159 93.17884841 -9.93942111 86.37230359 0 83 C2.7043395 82.46203999 5.23531245 82.19066811 8 82 C8.33 82.33 8.66 82.66 9 83 C14.28562053 83.21735187 14.28562053 83.21735187 19.4375 82.3125 C22 82 22 82 31 85 C31.33 78.07 31.66 71.14 32 64 C29.57245361 64.02618408 27.14490723 64.05236816 24.64379883 64.0793457 C16.62124216 64.16221178 8.59866652 64.21743045 0.57579517 64.25906086 C-4.2883233 64.2851494 -9.15200313 64.32053384 -14.01586914 64.37719727 C-18.71024699 64.43154363 -23.40420306 64.46142613 -28.09887123 64.47438622 C-29.88947502 64.48362141 -31.68005585 64.50165593 -33.47047997 64.52865028 C-35.97976848 64.5649767 -38.48731681 64.56994403 -40.99682617 64.56762695 C-41.73625961 64.58560333 -42.47569305 64.60357971 -43.23753357 64.62210083 C-47.13617655 64.583176 -48.81585197 64.14967731 -51.87910461 61.65983582 C-53.80877253 59.23982025 -55.42926771 56.8305607 -56.8828125 54.09765625 C-57.75544072 52.45918999 -58.67716945 50.84684912 -59.6171875 49.24609375 C-60.17664063 48.27800781 -60.73609375 47.30992187 -61.3125 46.3125 C-61.84488281 45.40113281 -62.37726563 44.48976562 -62.92578125 43.55078125 C-64 41 -64 41 -63.828125 38.74609375 C-63 37 -63 37 -60.4375 35.75 C-59.633125 35.5025 -58.82875 35.255 -58 35 C-58 34.34 -58 33.68 -58 33 C-57.28714844 32.61328125 -56.57429687 32.2265625 -55.83984375 31.828125 C-54.88207031 31.30734375 -53.92429688 30.7865625 -52.9375 30.25 C-51.93589844 29.70601562 -50.93429688 29.16203125 -49.90234375 28.6015625 C-47.57270464 27.31602813 -45.2831337 25.98997025 -43 24.625 C-40 23 -40 23 -37 23 C-37 22.34 -37 21.68 -37 21 C-34.89983377 19.82558465 -32.79541245 18.66035988 -30.6875 17.5 C-30.09259766 17.16613281 -29.49769531 16.83226562 -28.88476562 16.48828125 C-26.04171156 14.93174886 -24.29339012 14 -21 14 C-21 13.34 -21 12.68 -21 12 C-18.06830554 10.32296194 -15.12875476 8.66020482 -12.1875 7 C-11.35412109 6.52304688 -10.52074219 6.04609375 -9.66210938 5.5546875 C-8.85966797 5.10351562 -8.05722656 4.65234375 -7.23046875 4.1875 C-6.49207764 3.76855469 -5.75368652 3.34960938 -4.99291992 2.91796875 C-3 2 -3 2 0 2 C0 1.34 0 0.68 0 0 Z M10 103 C10 103.66 10 104.32 10 105 C8.68 104.67 7.36 104.34 6 104 C6 104.66 6 105.32 6 106 C5.4225 106.2475 4.845 106.495 4.25 106.75 C0.90673592 108.60736894 -1.51919253 110.55757759 -2.75 114.25 C-2.8325 114.8275 -2.915 115.405 -3 116 C-3.66 116 -4.32 116 -5 116 C-5 119.96 -5 123.92 -5 128 C-4.34 128 -3.68 128 -3 128 C-2.938125 128.556875 -2.87625 129.11375 -2.8125 129.6875 C-1.29128805 134.01710324 2.28468402 136.52312268 6 139 C7.32 139 8.64 139 10 139 C10 139.66 10 140.32 10 141 C11.98 141 13.96 141 16 141 C16 140.34 16 139.68 16 139 C17.32 139.33 18.64 139.66 20 140 C20 139.34 20 138.68 20 138 C20.7425 137.773125 21.485 137.54625 22.25 137.3125 C25.5425747 135.7410439 26.97497109 134.00004284 29 131 C29 130.34 29 129.68 29 129 C29.66 129 30.32 129 31 129 C31.8899335 119.68806149 31.8899335 119.68806149 28.3125 111.375 C25.84402035 108.62191917 23.44694609 106.45134572 20 105 C18.68 105 17.36 105 16 105 C16 104.34 16 103.68 16 103 C14.02 103 12.04 103 10 103 Z M-27 115 C-26 119 -26 119 -26 119 Z M-27 125 C-26 128 -26 128 -26 128 Z " fill="#834CCC" transform="translate(186,134)"/>
<path d="M0 0 C0 0.66 0 1.32 0 2 C0.9590625 1.62875 0.9590625 1.62875 1.9375 1.25 C7.72959143 0.77717621 12.14688 3.45237101 16.51171875 7.09765625 C23.07365593 13.42712545 25.09175431 18.06891736 26 27 C21.72115394 29.1103435 17.86135858 29.24128739 13.1875 29.125 C12.14819336 29.11146484 12.14819336 29.11146484 11.08789062 29.09765625 C9.39177605 29.07426157 7.69584129 29.03839641 6 29 C6.66386719 29.17015625 7.32773437 29.3403125 8.01171875 29.515625 C13.18917602 30.93659137 17.06837604 32.18070816 21 36 C21.845625 36.7425 22.69125 37.485 23.5625 38.25 C26.48573294 41.54800639 28.5939978 44.80755707 30 49 C29.6875 51.75 29.6875 51.75 29 54 C29.19464844 54.60457031 29.38929688 55.20914063 29.58984375 55.83203125 C30.42559403 60.24956846 27.22219932 64.32229007 25 68 C20.55048506 73.41157222 14.96699914 77.33003245 8.125 78.875 C5 79 5 79 3 78 C3 78.66 3 79.32 3 80 C0.75067773 80.1954625 -1.49950142 80.38108226 -3.75 80.5625 C-5.62945312 80.71912109 -5.62945312 80.71912109 -7.546875 80.87890625 C-10.39452364 80.97876723 -12.34286067 80.90584295 -15 80 C-15 79.34 -15 78.68 -15 78 C-15.56332031 78.19335938 -16.12664062 78.38671875 -16.70703125 78.5859375 C-21.22496022 79.40178157 -25.12039017 77.17235463 -29 75 C-35.07847364 70.1614604 -37.88298856 66.2730267 -41 59 C-41.33 64.61 -41.66 70.22 -42 76 C-44.57264493 77.28632246 -46.35834815 77.08134796 -49.234375 77.02734375 C-50.28367187 77.01509766 -51.33296875 77.00285156 -52.4140625 76.99023438 C-54.62246537 76.95532403 -56.83080767 76.91632028 -59.0390625 76.87304688 C-64.50613274 76.81623747 -68.84602109 76.96059444 -74 79 C-74.99 78.505 -74.99 78.505 -76 78 C-76 78.66 -76 79.32 -76 80 C-77.65 80 -79.3 80 -81 80 C-81 79.34 -81 78.68 -81 78 C-81.99 78 -82.98 78 -84 78 C-84 78.66 -84 79.32 -84 80 C-85.65 80 -87.3 80 -89 80 C-89 79.34 -89 78.68 -89 78 C-89.72832031 78.19464844 -90.45664062 78.38929688 -91.20703125 78.58984375 C-97.84839232 79.56514852 -104.03960389 75.25133767 -109.1875 71.4375 C-116.48500739 65.27592537 -121.34239573 57.13551467 -124 48 C-123.67 47.34 -123.34 46.68 -123 46 C-123.33 45.34 -123.66 44.68 -124 44 C-124.07116382 41.62597499 -124.08409085 39.24999323 -124.0625 36.875 C-124.05347656 35.59367187 -124.04445313 34.31234375 -124.03515625 32.9921875 C-124.02355469 32.00476563 -124.01195312 31.01734375 -124 30 C-123.34 30 -122.68 30 -122 30 C-121.979375 29.05125 -121.95875 28.1025 -121.9375 27.125 C-120.76701107 18.98103474 -113.28649387 10.9610283 -107 6 C-101.18973535 2.33286575 -95.87957565 0.25016639 -89 0 C-88.505 0.495 -88.505 0.495 -88 1 C-82.66675883 1.18804638 -82.66675883 1.18804638 -77.4375 0.375 C-73.9796842 -0.15697166 -71.32540388 1.00821288 -68 2 C-64.70780572 2.16847091 -64.70780572 2.16847091 -62 2 C-62 1.34 -62 0.68 -62 0 C-56.72 0 -51.44 0 -46 0 C-46 0.66 -46 1.32 -46 2 C-44.68 2.33 -43.36 2.66 -42 3 C-42 19.17 -42 35.34 -42 52 C-41.34 51.67 -40.68 51.34 -40 51 C-38.42937486 50.90427423 -36.8547882 50.8692595 -35.28125 50.8671875 C-34.34925781 50.86589844 -33.41726563 50.86460937 -32.45703125 50.86328125 C-31.48121094 50.86714844 -30.50539063 50.87101562 -29.5 50.875 C-28.52417969 50.87113281 -27.54835938 50.86726563 -26.54296875 50.86328125 C-25.14498047 50.86521484 -25.14498047 50.86521484 -23.71875 50.8671875 C-22.86216797 50.86831543 -22.00558594 50.86944336 -21.12304688 50.87060547 C-19 51 -19 51 -17 52 C-16.4375 53.875 -16.4375 53.875 -16 56 C-15.67 56.99 -15.34 57.98 -15 59 C-6.33644448 60.22504927 -6.33644448 60.22504927 2 58 C2 57.01 2 56.02 2 55 C-0.64 54.34 -3.28 53.68 -6 53 C-6 52.34 -6 51.68 -6 51 C-7.98 51.33 -9.96 51.66 -12 52 C-12 51.34 -12 50.68 -12 50 C-13.65 50.33 -15.3 50.66 -17 51 C-17 50.34 -17 49.68 -17 49 C-18.32 49.33 -19.64 49.66 -21 50 C-21 49.34 -21 48.68 -21 48 C-21.825 47.938125 -22.65 47.87625 -23.5 47.8125 C-28.90097308 46.55870268 -33.14488117 44.39886056 -36.5859375 39.94921875 C-40.25716408 33.80575 -41.72754598 28.51647222 -40.25 21.375 C-37.82078266 14.81611317 -35.24662987 10.59080114 -30 6 C-29.01 6 -28.02 6 -27 6 C-26.67 5.01 -26.34 4.02 -26 3 C-23.96875 2.3046875 -23.96875 2.3046875 -21.5 1.875 C-18.46069634 1.52112584 -18.46069634 1.52112584 -16 0 C-14.06914715 -0.26289978 -12.12922521 -0.46064599 -10.1875 -0.625 C-9.12917969 -0.72039062 -8.07085937 -0.81578125 -6.98046875 -0.9140625 C-4.35673078 -0.98971418 -2.47294346 -0.80235938 0 0 Z M-10 19 C-10 19.66 -10 20.32 -10 21 C-10.804375 21.12375 -11.60875 21.2475 -12.4375 21.375 C-13.7059375 21.684375 -13.7059375 21.684375 -15 22 C-15.33 22.66 -15.66 23.32 -16 24 C-13.03 24.495 -13.03 24.495 -10 25 C-9.67 25.99 -9.34 26.98 -9 28 C-8.67 27.34 -8.34 26.68 -8 26 C-7.278125 26.309375 -6.55625 26.61875 -5.8125 26.9375 C-3.17505085 27.93386968 -0.79060057 28.62289181 2 29 C2.66 28.67 3.32 28.34 4 28 C3.3045656 24.99615946 3.3045656 24.99615946 2 22 C-0.03243548 21.03122943 -0.03243548 21.03122943 -2 21 C-2 20.34 -2 19.68 -2 19 C-4.64 19 -7.28 19 -10 19 Z M-86 21 C-86 21.66 -86 22.32 -86 23 C-87.03125 23.020625 -88.0625 23.04125 -89.125 23.0625 C-93.72473533 24.17533919 -95.04332288 25.66412991 -97.93359375 29.2109375 C-99.25600566 31.08235957 -99.25600566 31.08235957 -99 34 C-99.99 34.495 -99.99 34.495 -101 35 C-101 38.96 -101 42.92 -101 47 C-100.34 47 -99.68 47 -99 47 C-98.79375 47.9075 -98.5875 48.815 -98.375 49.75 C-96.6519728 53.82260976 -94.87933882 54.98274382 -91 57 C-89.68 57 -88.36 57 -87 57 C-87 57.66 -87 58.32 -87 59 C-84.46369751 59.93504239 -83.24602532 60.07794862 -80.6328125 59.25 C-73.4112761 55.6504803 -68.26636158 51.52429722 -65 44 C-64.11470067 37.47091746 -65.59408972 34.28231928 -69.39453125 28.98046875 C-72.66586655 24.83531581 -72.66586655 24.83531581 -77.6875 23.3125 C-78.780625 23.209375 -79.87375 23.10625 -81 23 C-81 22.34 -81 21.68 -81 21 C-82.65 21 -84.3 21 -86 21 Z " fill="#884DCD" transform="translate(475,216)"/>
<path d="M0 0 C0.80824219 0.06703125 1.61648437 0.1340625 2.44921875 0.203125 C5.3125 0.75 5.3125 0.75 8.67895508 2.27246094 C14.43081404 4.46819133 20.24123482 4.07311245 26.3125 3.9375 C28.04693359 3.91719727 28.04693359 3.91719727 29.81640625 3.89648438 C32.64893004 3.86137044 35.48046307 3.81219 38.3125 3.75 C38.33562484 13.25074325 38.3534158 22.75147688 38.36431217 32.25224209 C38.36954069 36.66337004 38.37663777 41.0744788 38.38793945 45.4855957 C38.39876944 49.73901115 38.40477707 53.99240809 38.40737724 58.24583626 C38.40923129 59.87221633 38.41285152 61.49859534 38.41823006 63.12496758 C38.42544198 65.39510193 38.42649088 67.66515885 38.42602539 69.93530273 C38.428246 71.22991928 38.43046661 72.52453583 38.43275452 73.85838318 C38.3125 76.75 38.3125 76.75 37.3125 77.75 C35.73601878 77.82496344 34.1562518 77.83319674 32.578125 77.8125 C31.61132812 77.80476563 30.64453125 77.79703125 29.6484375 77.7890625 C27.60676832 77.76321859 25.5651016 77.73717997 23.5234375 77.7109375 C22.55148438 77.70320313 21.57953125 77.69546875 20.578125 77.6875 C19.24442871 77.67009766 19.24442871 77.67009766 17.88378906 77.65234375 C14.44374585 77.78299484 11.41337389 78.14629497 8.375 79.8125 C5.62628018 81.0619181 3.29384247 80.88551557 0.3125 80.75 C0.3125 80.09 0.3125 79.43 0.3125 78.75 C-1.3375 78.75 -2.9875 78.75 -4.6875 78.75 C-4.6875 79.41 -4.6875 80.07 -4.6875 80.75 C-15.64814245 80.21964633 -24.8597401 75.44253948 -32.6875 67.75 C-39.14631094 59.46430936 -43.50324959 48.71443077 -43.01171875 38.12109375 C-42.46000071 34.08624011 -41.25648118 30.49508985 -39.6875 26.75 C-39.43226562 26.09386719 -39.17703125 25.43773437 -38.9140625 24.76171875 C-35.0651049 15.95149012 -27.56519654 7.63188252 -18.6875 3.75 C-10.74447446 1.22151277 -10.74447446 1.22151277 -7.6875 2.75 C-7.6875 2.09 -7.6875 1.43 -7.6875 0.75 C-4.65024706 -0.26241765 -3.12548791 -0.29439447 0 0 Z M-4.6875 21.75 C-4.6875 22.41 -4.6875 23.07 -4.6875 23.75 C-5.71875 23.770625 -6.75 23.79125 -7.8125 23.8125 C-12.41223533 24.92533919 -13.73082288 26.41412991 -16.62109375 29.9609375 C-17.94350566 31.83235957 -17.94350566 31.83235957 -17.6875 34.75 C-18.6775 35.245 -18.6775 35.245 -19.6875 35.75 C-19.6875 39.38 -19.6875 43.01 -19.6875 46.75 C-19.0275 46.75 -18.3675 46.75 -17.6875 46.75 C-17.625625 47.28625 -17.56375 47.8225 -17.5 48.375 C-16.27570104 51.95372005 -14.30299727 54.00995524 -11.6875 56.75 C-10.6975 56.75 -9.7075 56.75 -8.6875 56.75 C-8.3575 57.41 -8.0275 58.07 -7.6875 58.75 C-6.2025 58.255 -6.2025 58.255 -4.6875 57.75 C-4.6875 58.41 -4.6875 59.07 -4.6875 59.75 C-1.6875 61.08333333 -1.6875 61.08333333 1.3125 59.75 C1.3125 59.09 1.3125 58.43 1.3125 57.75 C2.6325 58.08 3.9525 58.41 5.3125 58.75 C5.3125 58.09 5.3125 57.43 5.3125 56.75 C6.67375 56.5025 6.67375 56.5025 8.0625 56.25 C11.9594948 54.45138701 12.94735149 53.07920749 14.6171875 49.234375 C16.3272365 43.1243123 16.40816531 37.06775355 13.6875 31.3125 C9.24821732 26.52274764 4.87887706 21.88716835 -1.9375 21.625 C-2.845 21.66625 -3.7525 21.7075 -4.6875 21.75 Z " fill="#864BCC" transform="translate(118.6875,215.25)"/>
<path d="M0 0 C23 0 23 0 25 1 C25 12 25 23 25 34 C25.83333333 36.16666667 25.83333333 36.16666667 28 37 C27.34 37.66 26.68 38.32 26 39 C25.75470419 41.57579385 25.62658207 44.05229007 25.5859375 46.6328125 C25.56657135 47.38464813 25.5472052 48.13648376 25.5272522 48.91110229 C25.46740853 51.31561899 25.42105274 53.72018344 25.375 56.125 C25.33682454 57.75392728 25.29777307 59.38283428 25.2578125 61.01171875 C25.16170334 65.00764806 25.07769059 69.00367187 25 73 C17.54047961 76.72976019 8.33999734 74 0 74 C0 49.58 0 25.16 0 0 Z " fill="#8953D2" transform="translate(243,218)"/>
<path d="M0 0 C0.33 0 0.66 0 1 0 C1.01981934 1.14476807 1.03963867 2.28953613 1.06005859 3.46899414 C1.13645228 7.73890208 1.22511637 12.00848417 1.31738281 16.27807617 C1.35553358 18.12176046 1.3904101 19.96551566 1.421875 21.80932617 C1.46782895 24.46819301 1.5257716 27.12657753 1.5859375 29.78515625 C1.59748871 30.60210464 1.60903992 31.41905304 1.62094116 32.26075745 C1.7161337 35.99895836 1.97230606 39.30681014 3.08837891 42.88842773 C4 46 4 46 3 49 C2.67 49 2.34 49 2 49 C1.67 56.26 1.34 63.52 1 71 C0.67 71 0.34 71 0 71 C0 47.57 0 24.14 0 0 Z " fill="#880792" transform="translate(158,220)"/>
<path d="M0 0 C2.64 0 5.28 0 8 0 C8.33 0.99 8.66 1.98 9 3 C5.7 3 2.4 3 -1 3 C-0.67 2.01 -0.34 1.02 0 0 Z " fill="#4C1256" transform="translate(305,215)"/>
<path d="M0 0 C0.66 0 1.32 0 2 0 C1.45773019 3.79588866 -0.20127563 5.47211993 -3 8 C-3.66 7.67 -4.32 7.34 -5 7 C-1.125 1.125 -1.125 1.125 0 0 Z " fill="#8652D8" transform="translate(174,223)"/>
<path d="M0 0 C1.98 0 3.96 0 6 0 C6.33 0.99 6.66 1.98 7 3 C5.02 3 3.04 3 1 3 C0.67 2.01 0.34 1.02 0 0 Z " fill="#4B1555" transform="translate(114,215)"/>
<path d="" fill="#FF00FF" transform="translate(0,0)"/>
<path d="" fill="#000000" transform="translate(0,0)"/>
</svg>
