<?xml version="1.0" encoding="UTF-8"?>
<svg version="1.1" xmlns="http://www.w3.org/2000/svg" width="558" height="177">
<path d="M0 0 C10.00553129 7.70666743 14.99915214 22.25061377 20.59765625 33.25 C21.49182361 35.00177011 22.38611182 36.75347855 23.28051758 38.50512695 C25.47495663 42.80643652 27.66391691 47.11050261 29.84997559 51.41607666 C30.92791736 53.53881924 32.0072087 55.66086895 33.08691406 57.78271484 C39.42916096 70.25697412 45.52930018 82.79079385 51.171875 95.59765625 C52.61642117 98.86115285 54.17677424 102.03251132 55.84765625 105.1875 C61.75590354 116.8398766 63.87523504 127.78559468 60.41015625 140.4375 C58.48871946 146.11447235 56.15543278 150.40984792 52.03515625 154.75 C51.44863281 155.37648437 50.86210937 156.00296875 50.2578125 156.6484375 C41.78617273 164.86021102 32.41818501 166.34595331 21.02636719 166.22290039 C14.42856268 165.98089345 8.93755735 164.81157065 3.03515625 161.75 C2.21144531 161.34910156 1.38773437 160.94820312 0.5390625 160.53515625 C-6.84732651 156.55964267 -12.29367923 150.80930506 -17.96484375 144.75 C-18.95484375 145.595625 -19.94484375 146.44125 -20.96484375 147.3125 C-21.93744141 148.13621094 -21.93744141 148.13621094 -22.9296875 148.9765625 C-24.22331516 150.10383113 -25.49049511 151.26277349 -26.71875 152.4609375 C-38.08993259 163.31636451 -50.93924153 166.37077672 -66.1484375 166.08203125 C-76.16701027 165.60718959 -83.33961759 161.46020503 -90.0546875 154.16015625 C-98.41330734 143.61359503 -99.24867121 132.82359943 -97.96484375 119.75 C-96.78760313 114.01690253 -94.6598179 108.48865538 -91.57910156 103.51098633 C-89.72277274 100.33596778 -88.22638363 97.05310577 -86.75 93.69140625 C-86.14009405 92.32221212 -85.53006418 90.95307319 -84.91992188 89.58398438 C-83.97235909 87.44773683 -83.02656507 85.31073504 -82.08325195 83.17260742 C-81.16444625 81.09338147 -80.23884572 79.01728166 -79.3125 76.94140625 C-78.89823509 75.99425499 -78.89823509 75.99425499 -78.4756012 75.02796936 C-76.65826511 70.96676606 -74.43908267 67.4357565 -71.96484375 63.75 C-70.90026023 61.62878875 -69.88191047 59.48386557 -68.90625 57.3203125 C-68.63521957 56.72628632 -68.36418915 56.13226013 -68.08494568 55.52023315 C-66.94091368 53.01264008 -65.80884324 50.49971078 -64.67651367 47.98681641 C-61.7995649 41.61886 -58.94641697 35.37852949 -55.09301758 29.53027344 C-53.12913172 26.43123521 -51.6109795 23.11681302 -50.02734375 19.8125 C-44.45437723 8.53614415 -39.74452266 0.39439502 -27.65234375 -4.625 C-17.42065648 -6.35918428 -8.86093322 -5.63717422 0 0 Z M-36.85107422 25.08276367 C-40.36385749 31.08434517 -43.4073585 37.32083894 -46.46484375 43.5625 C-47.12595133 44.90060333 -47.78765989 46.23840988 -48.44995117 47.57592773 C-49.73162609 50.16579254 -51.01040958 52.75704831 -52.28662109 55.34960938 C-53.95887175 58.73789962 -55.65159572 62.11498167 -57.35571289 65.48730469 C-61.99721093 74.67931511 -66.40657435 83.98219441 -70.80273438 93.29345703 C-71.85609694 95.52012387 -72.91691069 97.74303459 -73.98046875 99.96484375 C-75.68562503 103.54052122 -77.33830256 107.1377575 -78.96484375 110.75 C-79.47273438 111.86761719 -79.980625 112.98523438 -80.50390625 114.13671875 C-83.85644604 122.0498364 -85.76801309 129.55558297 -83.30078125 138.03125 C-80.40085652 144.58760156 -75.43163252 150.09452537 -68.71484375 152.75 C-60.95894643 154.89778695 -53.90047872 153.5833201 -46.96484375 149.75 C-39.88749031 145.46069489 -33.47476914 140.95836664 -27.96484375 134.75 C-29.42648544 130.52056873 -31.57216811 127.34547706 -34.21484375 123.75 C-44.40569098 109.46309363 -48.5249184 95.12831147 -46.96484375 77.75 C-45.40282439 70.00280332 -40.23904154 65.21957902 -33.96484375 60.75 C-26.71457331 56.15302002 -16.64650391 56.66949411 -8.5 58.21875 C-6.4878264 58.88814637 -4.79672418 59.68410497 -2.96484375 60.75 C-2.2790625 61.14058594 -1.59328125 61.53117187 -0.88671875 61.93359375 C5.38939079 66.0363098 8.45727265 71.64210757 10.64453125 78.72265625 C13.50640369 93.57577421 7.9160502 108.37882926 0.03515625 120.75 C-2.81699022 124.86537285 -5.84993521 128.82987701 -8.96484375 132.75 C-1.00524959 142.60473563 9.0489605 151.89482918 22.03515625 153.75 C29.1943728 153.83700437 34.6713378 151.89747328 39.91796875 146.98828125 C44.91618962 141.66590798 47.50034428 136.72288892 48.47265625 129.5 C47.33226796 119.72524323 42.82633777 110.70803382 38.97265625 101.75 C38.53711426 100.73421875 38.10157227 99.7184375 37.65283203 98.671875 C37.23114746 97.70765625 36.80946289 96.7434375 36.375 95.75 C35.99722412 94.88375 35.61944824 94.0175 35.23022461 93.125 C34.13109021 90.75216818 34.13109021 90.75216818 32.60351562 88.89990234 C30.44426246 85.94000455 29.06883481 82.68812786 27.6015625 79.3515625 C27.28235336 78.63898285 26.96314423 77.9264032 26.63426208 77.19223022 C25.27548505 74.15887349 23.92823321 71.12044509 22.58081055 68.08203125 C21.59219667 65.85735089 20.5970676 63.63566576 19.6015625 61.4140625 C19.30351212 60.73574371 19.00546173 60.05742493 18.69837952 59.35855103 C16.82751368 55.18720519 14.60994981 51.54393535 12.03515625 47.75 C11.17825748 46.05426768 10.36357489 44.33637769 9.59765625 42.59765625 C9.17742187 41.65599609 8.7571875 40.71433594 8.32421875 39.74414062 C7.89882812 38.77669922 7.4734375 37.80925781 7.03515625 36.8125 C4.29469668 30.60494386 1.53252449 24.5708513 -1.96484375 18.75 C-2.62484375 18.75 -3.28484375 18.75 -3.96484375 18.75 C-4.23296875 18.15703125 -4.50109375 17.5640625 -4.77734375 16.953125 C-6.76524585 13.26504347 -9.3396837 10.83964106 -12.96484375 8.75 C-25.51168918 5.46537868 -31.19868338 15.67289456 -36.85107422 25.08276367 Z M-31.77734375 76.8125 C-35.3602569 82.65830567 -34.703507 89.66563052 -33.1640625 96.09375 C-30.20701775 105.11730923 -25.81596561 113.26626174 -19.96484375 120.75 C-18.97484375 121.08 -17.98484375 121.41 -16.96484375 121.75 C-4.46186614 103.54095926 -4.46186614 103.54095926 -1.52734375 82.6875 C-4.04682918 77.53898629 -7.47725664 72.85290747 -12.96484375 70.75 C-20.89284879 69.72007789 -26.32493343 70.60803308 -31.77734375 76.8125 Z " fill="#844CCD" transform="translate(107.96484375,7.25)"/>
<path d="M0 0 C0.75410156 0.00451172 1.50820313 0.00902344 2.28515625 0.01367188 C4.14847127 0.02546501 6.01174555 0.04340058 7.875 0.0625 C10.31302084 6.67587149 10.10324645 13.01498062 10 20 C9.99097656 21.16080078 9.98195313 22.32160156 9.97265625 23.51757812 C9.94921162 26.36610108 9.91639522 29.21419078 9.875 32.0625 C10.53886719 31.85028809 11.20273437 31.63807617 11.88671875 31.41943359 C12.76972656 31.14437988 13.65273438 30.86932617 14.5625 30.5859375 C15.43261719 30.31185059 16.30273438 30.03776367 17.19921875 29.75537109 C26.20606019 27.42312511 34.83497889 29.54248944 43 33.625 C43.61875 34.099375 44.2375 34.57375 44.875 35.0625 C44.875 35.7225 44.875 36.3825 44.875 37.0625 C45.514375 37.330625 46.15375 37.59875 46.8125 37.875 C48.875 39.0625 48.875 39.0625 49.875 42.0625 C50.865 42.3925 51.855 42.7225 52.875 43.0625 C54.0078125 44.76953125 54.0078125 44.76953125 55 46.875 C55.49886719 47.90560547 55.49886719 47.90560547 56.0078125 48.95703125 C59.5834813 57.63849739 59.53052944 70.83798455 56.4375 79.625 C52.22432675 88.12578419 45.68006138 94.63001845 36.875 98.0625 C33.01186909 99.33577409 29.08997509 99.28274949 25.0625 99.3125 C24.37607422 99.333125 23.68964844 99.35375 22.98242188 99.375 C17.89774873 99.41348381 14.42856117 98.32439967 9.875 96.0625 C8.885 97.0525 8.885 97.0525 7.875 98.0625 C4.98367823 98.23429052 2.20057935 98.2947947 -0.6875 98.25 C-1.48091797 98.24935547 -2.27433594 98.24871094 -3.09179688 98.24804688 C-8.98474478 98.20275522 -8.98474478 98.20275522 -10.125 97.0625 C-10.2202822 94.07951786 -10.25052175 91.11973655 -10.23852539 88.13647461 C-10.23867142 87.19998581 -10.23881744 86.26349701 -10.2389679 85.29862976 C-10.23826837 82.18734461 -10.23047415 79.07611851 -10.22265625 75.96484375 C-10.22079221 73.81392957 -10.21936824 71.66301497 -10.21836853 69.51210022 C-10.21454225 63.83868242 -10.20471102 58.16529005 -10.19366455 52.49188232 C-10.1834528 46.70748234 -10.17887142 40.92307827 -10.17382812 35.13867188 C-10.16308885 23.77993672 -10.14601111 12.42122047 -10.125 1.0625 C-6.93675432 -0.53162284 -3.49603338 -0.03924735 0 0 Z M8.875 53.0625 C8.01491294 56.63358147 8.22643078 60.27484314 8.25 63.9375 C8.21777344 64.93136719 8.18554688 65.92523438 8.15234375 66.94921875 C8.06443127 72.17222068 8.06443127 72.17222068 10.08349609 76.83691406 C14.55997 80.8220502 19.12719325 81.3556648 24.875 81.0625 C29.48966686 80.2198217 32.7167986 78.60928932 35.8125 75.0625 C39.18710822 70.15397896 39.53108899 65.85482852 38.875 60.0625 C37.54837263 55.50721323 35.62951303 52.17146311 31.5625 49.625 C23.37735757 45.72399595 15.56231335 46.97662801 8.875 53.0625 Z " fill="#844CCD" transform="translate(496.125,32.9375)"/>
<path d="M0 0 C1.12535156 0.00580078 1.12535156 0.00580078 2.2734375 0.01171875 C3.02367187 0.00785156 3.77390625 0.00398438 4.546875 0 C10.14682697 0.01010822 10.14682697 0.01010822 11.2734375 1.13671875 C11.43315727 3.51010514 11.5326808 5.85790147 11.58984375 8.234375 C11.61062485 8.94323349 11.63140594 9.65209198 11.65281677 10.38243103 C11.71838348 12.6545918 11.7772298 14.92687139 11.8359375 17.19921875 C11.87911599 18.73634058 11.92273005 20.27345025 11.96679688 21.81054688 C12.07407199 25.58581465 12.17531887 29.36120235 12.2734375 33.13671875 C13.26923828 32.71120728 13.26923828 32.71120728 14.28515625 32.27709961 C15.16816406 31.90979736 16.05117188 31.54249512 16.9609375 31.1640625 C17.83105469 30.79788818 18.70117188 30.43171387 19.59765625 30.05444336 C27.28524658 27.41779627 34.91009973 29.26957838 42.2734375 32.13671875 C45.3984375 33.69921875 45.3984375 33.69921875 47.2734375 35.13671875 C47.2734375 35.79671875 47.2734375 36.45671875 47.2734375 37.13671875 C47.87027344 37.40355469 48.46710938 37.67039063 49.08203125 37.9453125 C51.32273353 39.16351962 52.65256834 40.30037834 54.3359375 42.19921875 C54.82191406 42.72644531 55.30789063 43.25367188 55.80859375 43.796875 C59.84688154 50.2473667 60.8054483 57.09109724 60.7109375 64.57421875 C60.70481445 65.4038916 60.69869141 66.23356445 60.69238281 67.08837891 C60.44522999 76.78247309 57.62168874 83.67375971 50.81640625 90.625 C43.24690027 97.76905366 35.27856348 99.65946998 25.05297852 99.55224609 C19.8671346 99.3596024 15.88885353 98.44442677 11.2734375 96.13671875 C10.2834375 97.12671875 10.2834375 97.12671875 9.2734375 98.13671875 C6.52858157 98.2817957 3.88863207 98.32324298 1.1484375 98.26171875 C0.39433594 98.25269531 -0.35976563 98.24367188 -1.13671875 98.234375 C-3.00013504 98.21078745 -4.86338843 98.17491594 -6.7265625 98.13671875 C-6.74968382 85.5067639 -6.76747651 72.87681405 -6.77837467 60.24684238 C-6.78360396 54.38289711 -6.79070244 48.51896626 -6.80200195 42.6550293 C-6.8128292 37.00110163 -6.81883899 31.34718788 -6.82143974 25.69325066 C-6.82329429 23.53098265 -6.82691545 21.36871544 -6.83229256 19.20645332 C-6.83950083 16.18913218 -6.84055353 13.17186932 -6.84008789 10.15454102 C-6.84368317 9.25111465 -6.84727844 8.34768829 -6.85098267 7.41688538 C-6.83853231 0.01234392 -6.83853231 0.01234392 0 0 Z M13.2734375 51.13671875 C9.84664539 54.56351086 10.90434065 59.36594262 10.8984375 64.01171875 C10.87394531 65.01847656 10.84945313 66.02523437 10.82421875 67.0625 C10.69750625 72.77307642 10.69750625 72.77307642 13.1328125 77.75 C18.35190878 81.13098391 22.77000791 81.46256344 28.8046875 80.671875 C33.75914071 79.59788752 37.09055269 77.7011793 40.2109375 73.57421875 C42.07774844 67.53453631 42.15466039 61.68762712 40.0859375 55.69921875 C36.28566722 50.32642283 32.36593275 48.29410923 25.98046875 47.18359375 C21.28010623 47.10220219 17.32359797 48.86239787 13.2734375 51.13671875 Z " fill="#844CCD" transform="translate(354.7265625,32.86328125)"/>
<path d="M0 0 C0.33 -0.66 0.66 -1.32 1 -2 C6.94 -2 12.88 -2 19 -2 C19 20.11 19 42.22 19 65 C13.39 65 7.78 65 2 65 C1.67 64.01 1.34 63.02 1 62 C0.5359375 62.28875 0.071875 62.5775 -0.40625 62.875 C-8.53595972 67.24320224 -18.2573413 67.4770954 -27.11328125 65.19921875 C-31.17086371 63.64230933 -34.6846333 61.84494305 -38 59 C-38 58.34 -38 57.68 -38 57 C-38.90878906 56.61714844 -38.90878906 56.61714844 -39.8359375 56.2265625 C-44.50807105 53.57845793 -46.52279405 48.29527328 -48.3125 43.4375 C-50.44773452 33.02823173 -50.22079438 21.1241893 -44.7109375 11.82421875 C-39.17465001 3.96387475 -32.61590918 -1.41793476 -23.125 -3.6875 C-14.62721036 -4.53727896 -7.74135727 -3.87067863 0 0 Z M-26.25 20.3125 C-29.64722972 25.52967421 -30.43677027 29.74434482 -29.52734375 35.82421875 C-28.51965718 39.98185891 -26.73407788 42.76576718 -23.23828125 45.25390625 C-18.59996926 47.86922165 -14.28028038 49.04791692 -9 48 C-5.84122359 46.7749441 -2.42926358 45.42926358 0 43 C0.28006266 39.21575935 0.23180637 35.41837268 0.25 31.625 C0.270625 30.55765625 0.29125 29.4903125 0.3125 28.390625 C0.31765625 27.36710937 0.3228125 26.34359375 0.328125 25.2890625 C0.3374707 24.34756348 0.34681641 23.40606445 0.35644531 22.43603516 C-0.06398062 19.56274064 -0.73741077 18.74948839 -3 17 C-10.63907401 12.60174527 -20.24274879 14.1383807 -26.25 20.3125 Z " fill="#844CCD" transform="translate(250,66)"/>
<path d="M0 0 C2.01131272 1.69671372 3.91672338 3.34104322 5.66015625 5.3125 C5.66015625 5.9725 5.66015625 6.6325 5.66015625 7.3125 C6.32015625 7.3125 6.98015625 7.3125 7.66015625 7.3125 C10.95706645 14.56570244 10.80030851 22.03280783 10.7578125 29.83984375 C10.75639755 30.82876114 10.7549826 31.81767853 10.75352478 32.83656311 C10.74795713 35.97440704 10.73541065 39.11217787 10.72265625 42.25 C10.71763707 44.38606667 10.71307489 46.52213447 10.70898438 48.65820312 C10.69799831 53.87632675 10.68129261 59.09440815 10.66015625 64.3125 C7.51434202 64.34138514 4.36856156 64.35925923 1.22265625 64.375 C0.32482422 64.38337891 -0.57300781 64.39175781 -1.49804688 64.40039062 C-2.77905273 64.40522461 -2.77905273 64.40522461 -4.0859375 64.41015625 C-4.87669678 64.41539307 -5.66745605 64.42062988 -6.48217773 64.42602539 C-8.33984375 64.3125 -8.33984375 64.3125 -9.33984375 63.3125 C-9.44626899 61.9526075 -9.48601253 60.58739037 -9.49755859 59.22338867 C-9.50782074 58.35546188 -9.51808289 57.4875351 -9.52865601 56.5933075 C-9.53595734 55.64857071 -9.54325867 54.70383392 -9.55078125 53.73046875 C-9.57885327 51.74673659 -9.60751776 49.76301274 -9.63671875 47.77929688 C-9.67798457 44.63891866 -9.7148547 41.49869504 -9.74121094 38.3581543 C-9.76879879 35.33609577 -9.81467684 32.3147525 -9.86328125 29.29296875 C-9.86653412 28.35430466 -9.86978699 27.41564056 -9.87313843 26.4485321 C-9.9355693 21.38060625 -9.9355693 21.38060625 -11.74804688 16.7355957 C-15.00791054 13.82121759 -18.02730818 14.3125 -22.33984375 14.3125 C-25.30984375 15.6325 -28.27984375 16.9525 -31.33984375 18.3125 C-31.66984375 33.4925 -31.99984375 48.6725 -32.33984375 64.3125 C-38.27984375 64.3125 -44.21984375 64.3125 -50.33984375 64.3125 C-51.70830392 61.57557966 -51.46703998 59.39746471 -51.46923828 56.33398438 C-51.47239044 55.07928345 -51.4755426 53.82458252 -51.47879028 52.53186035 C-51.47700044 51.15665655 -51.47494948 49.78145306 -51.47265625 48.40625 C-51.47332961 47.00142398 -51.47429991 45.59659808 -51.47555542 44.19177246 C-51.47703086 41.24616386 -51.47488276 38.30058555 -51.47021484 35.35498047 C-51.46451764 31.57518858 -51.46779746 27.79546769 -51.47378731 24.01567841 C-51.47739705 21.11439476 -51.47625243 18.21312802 -51.47365952 15.31184387 C-51.47299139 13.91795341 -51.47381468 12.52406142 -51.47613907 11.13017273 C-51.4786723 9.18378732 -51.47412814 7.23739654 -51.46923828 5.29101562 C-51.46844269 4.18230103 -51.46764709 3.07358643 -51.46682739 1.93127441 C-51.33984375 -0.6875 -51.33984375 -0.6875 -50.33984375 -2.6875 C-47.71457186 -2.74132106 -45.09039662 -2.78108313 -42.46484375 -2.8125 C-41.71847656 -2.82925781 -40.97210938 -2.84601562 -40.203125 -2.86328125 C-38.24789914 -2.8808959 -36.29242354 -2.79070189 -34.33984375 -2.6875 C-33.67984375 -2.0275 -33.01984375 -1.3675 -32.33984375 -0.6875 C-31.45296875 -1.161875 -30.56609375 -1.63625 -29.65234375 -2.125 C-20.30445986 -6.53437919 -8.50348809 -6.13273264 0 0 Z " fill="#864ECF" transform="translate(470.33984375,66.6875)"/>
<path d="M0 0 C0 5.94 0 11.88 0 18 C-4.296875 17.8046875 -4.296875 17.8046875 -8.59375 17.609375 C-12.96990347 17.91428916 -12.96990347 17.91428916 -20 22 C-20.33 37.18 -20.66 52.36 -21 68 C-27.27 68 -33.54 68 -40 68 C-40 45.89 -40 23.78 -40 1 C-34.39 1 -28.78 1 -23 1 C-22.34 1.66 -21.68 2.32 -21 3 C-20.45472656 2.71125 -19.90945313 2.4225 -19.34765625 2.125 C-12.78865606 -1.10404625 -7.0669305 -2.3556435 0 0 Z " fill="#844CCD" transform="translate(343,63)"/>
<path d="M0 0 C6.27 0 12.54 0 19 0 C19.93451244 14.97988828 19.96912085 29.75252572 19.5625 44.75 C19.50908824 46.92316054 19.45635039 49.09633775 19.40429688 51.26953125 C19.27726488 56.51324468 19.14123608 61.75665072 19 67 C12.73 67 6.46 67 0 67 C0 44.89 0 22.78 0 0 Z " fill="#844CCE" transform="translate(276,64)"/>
<path d="M0 0 C4.21968485 3.54837135 5.57339482 5.72305335 6.1875 11.25 C6.02681098 15.50022461 4.47994473 18.03656633 1.75 21.3125 C-2.70242574 24.28078383 -7.02776513 23.94619224 -12.25 23.3125 C-15.86691275 21.21469061 -16.93291409 20.26375774 -18.25 16.3125 C-18.73420096 11.18473242 -19.09808044 6.79664077 -16.5 2.25 C-11.29045309 -2.23599873 -6.38110003 -3.31326348 0 0 Z " fill="#844CCD" transform="translate(292.25,34.6875)"/>
</svg>
