<?xml version="1.0" encoding="UTF-8"?>
<svg version="1.1" xmlns="http://www.w3.org/2000/svg" width="600" height="353">
<path d="M0 0 C3.87474457 -0.11668214 7.74903396 -0.18741231 11.625 -0.25 C13.26662109 -0.30027344 13.26662109 -0.30027344 14.94140625 -0.3515625 C21.28883012 -0.42850097 25.21877383 -0.35091582 30 4 C32.92675987 7.70722917 33.3259948 10.32740781 33 15 C33.66 15.33 34.32 15.66 35 16 C35.78063365 18.34190096 36.42056313 20.60705843 37 23 C37.29970703 24.18529297 37.29970703 24.18529297 37.60546875 25.39453125 C39.13195202 31.73609597 39.13195202 31.73609597 38 34 C38.66 34 39.32 34 40 34 C39.67 35.32 39.34 36.64 39 38 C39.66 38 40.32 38 41 38 C41.144375 39.051875 41.28875 40.10375 41.4375 41.1875 C41.97661538 44.84150427 42.60440816 48.41763264 43.5 52 C43.87161462 53.48645848 44.17337776 54.99073008 44.4375 56.5 C44.86828831 58.97885363 44.86828831 58.97885363 46.0625 60.875 C47 63 47 63 46.9375 66.625 C46.958125 67.73875 46.97875 68.8525 47 70 C47.99 70.66 48.98 71.32 50 72 C51.33333333 77.33333333 51.33333333 77.33333333 50 80 C50.66 80 51.32 80 52 80 C53.125 86.75 53.125 86.75 52 89 C52.66 89 53.32 89 54 89 C54.22786458 90.98567708 54.45572917 92.97135417 54.68359375 94.95703125 C54.97170735 97.19396393 54.97170735 97.19396393 56 100 C55.67 100.66 55.34 101.32 55 102 C55.66 102 56.32 102 57 102 C57.12375 103.2375 57.2475 104.475 57.375 105.75 C57.76564686 108.9198202 58.40426156 111.20745773 60 114 C60.36784131 115.3242287 60.71202981 116.65613912 61 118 C61.66 118 62.32 118 63 118 C63.144375 116.700625 63.28875 115.40125 63.4375 114.0625 C63.875 110.125 63.875 110.125 65 109 C65.23075082 107.65252916 65.41153063 106.29622435 65.5625 104.9375 C65.706875 103.638125 65.85125 102.33875 66 101 C66.66 101 67.32 101 68 101 C67.7215625 99.88625 67.7215625 99.88625 67.4375 98.75 C67.00796892 96.05009037 67.14877026 94.55368923 68 92 C68.66 92 69.32 92 70 92 C69.7215625 91.1646875 69.7215625 91.1646875 69.4375 90.3125 C68.91625645 87.55735553 69.2042131 85.67673775 70 83 C70.66 82.67 71.32 82.34 72 82 C72 80.68 72 79.36 72 78 C72.375 75.3125 72.375 75.3125 73 73 C73.66 72.67 74.32 72.34 75 72 C74.979375 70.700625 74.95875 69.40125 74.9375 68.0625 C74.91600546 66.70834367 74.92851801 65.35243917 75 64 C75.33 63.67 75.66 63.34 76 63 C76.26261703 60.99754518 76.52227589 58.9945565 76.75390625 56.98828125 C77.13772766 53.88724796 77.93273341 51.18498311 79 48.25 C80.16556516 44.46191324 80.59258049 40.93838856 81 37 C81.66 37 82.32 37 83 37 C82.814375 36.443125 82.62875 35.88625 82.4375 35.3125 C81.92448835 32.600867 82.3359276 30.65628961 83 28 C83.66 28 84.32 28 85 28 C84.690625 27.195625 84.690625 27.195625 84.375 26.375 C83.8610512 23.1199909 84.73315156 21.00043053 86 18 C86.99 17.505 86.99 17.505 88 17 C87.938125 15.96875 87.87625 14.9375 87.8125 13.875 C88.01992375 9.58824256 88.5736542 7.52211487 91 4 C96.93276166 -0.34278154 101.839484 -0.61595477 109.0625 -0.5 C110.02994141 -0.51546875 110.99738281 -0.5309375 111.99414062 -0.546875 C119.11384158 -0.50788964 122.59931492 0.72076796 127.75 5.6875 C129.35586385 8.65834813 129.9356031 11.57730383 130.5703125 14.87890625 C130.99058031 17.17436697 130.99058031 17.17436697 132 20 C131.67 20.66 131.34 21.32 131 22 C131.66 22 132.32 22 133 22 C134.125 28.75 134.125 28.75 133 31 C133.66 31 134.32 31 135 31 C134.67 32.65 134.34 34.3 134 36 C134.66 36 135.32 36 136 36 C136.2165625 37.85625 136.2165625 37.85625 136.4375 39.75 C136.9360895 43.69716689 137.74030238 47.22090713 139 51 C140.55882201 55.67646602 141.23256109 59.97678146 141.62109375 64.87890625 C141.9064753 67.29276146 141.9064753 67.29276146 144 70 C145.22222222 74.55555556 145.22222222 74.55555556 144 77 C144.66 77 145.32 77 146 77 C146.12375 78.216875 146.2475 79.43375 146.375 80.6875 C146.6828811 83.20332845 147.03144318 85.07664275 148 87.4375 C149.22167543 90.5680433 149.47093695 93.48429839 149.75390625 96.81640625 C150.11750323 100.04260804 150.97415964 102.92247893 152 106 C153.31303962 109.93911886 154.13721389 113.61864925 154.5625 117.75 C154.64628906 118.54921875 154.73007812 119.3484375 154.81640625 120.171875 C154.87699219 120.77515625 154.93757812 121.3784375 155 122 C155.66 122 156.32 122 157 122 C157.185625 120.14375 157.185625 120.14375 157.375 118.25 C157.76868662 115.03301794 158.5543896 112.89122081 160 110 C160.46464605 107.3360293 160.73058518 104.69414817 161 102 C161.66 102 162.32 102 163 102 C162.67 100.68 162.34 99.36 162 98 C162.66 98 163.32 98 164 98 C163.67 96.68 163.34 95.36 163 94 C163.66 94 164.32 94 165 94 C164.80664062 93.43667969 164.61328125 92.87335938 164.4140625 92.29296875 C163.90944373 89.4985233 164.41845126 87.96714214 165.375 85.3125 C165.65085937 84.52488281 165.92671875 83.73726563 166.2109375 82.92578125 C167 81 167 81 168 80 C168.23022438 77.99375897 168.45980778 75.98743815 168.68359375 73.98046875 C169.04958393 71.68964134 169.96672488 70.06655024 171 68 C171.25602657 65.9837908 171.5098723 63.96695026 171.71875 61.9453125 C172.08058847 59.44259643 173.04280815 57.33315513 174 55 C174.3813074 52.67402489 174.72460254 50.34087842 175 48 C175.66 48 176.32 48 177 48 C176.79375 47.46375 176.5875 46.9275 176.375 46.375 C175.86068505 43.11767196 176.85389948 41.07637508 178 38 C179.18884303 34.01387926 180.20403699 30.07931043 181 26 C181.95877548 21.69846675 183.02676543 17.94646913 185 14 C185.1546875 12.576875 185.1546875 12.576875 185.3125 11.125 C186.21973877 7.00118739 188.07527077 4.99274619 191 2 C195.79150868 -0.99469293 201.02295633 -0.4071095 206.5 -0.4375 C208.06814453 -0.48680664 208.06814453 -0.48680664 209.66796875 -0.53710938 C217.26963594 -0.59064224 217.26963594 -0.59064224 220.6953125 2.1796875 C222.11515899 5.2489365 222.47798059 7.19690701 222.375 10.5625 C222.36210937 11.49191406 222.34921875 12.42132813 222.3359375 13.37890625 C221.99418257 16.04538951 221.27354758 17.66516277 220 20 C219.835 20.99 219.67 21.98 219.5 23 C219.02832209 25.83006746 218.25968845 27.4806231 217 30 C216.6451046 31.99628664 216.31421071 33.99690671 216 36 C215.38920411 38.35322136 214.69881642 40.67061194 214 43 C213.34 43 212.68 43 212 43 C212.33 43.99 212.66 44.98 213 46 C212.44140625 48.04296875 212.44140625 48.04296875 211.5625 50.1875 C211.27503906 50.90292969 210.98757813 51.61835937 210.69140625 52.35546875 C210.46324219 52.89816406 210.23507812 53.44085938 210 54 C209.34 54 208.68 54 208 54 C208.0309375 55.36125 208.0309375 55.36125 208.0625 56.75 C208.00919095 59.52207043 207.78973181 61.39388503 207 64 C206.690625 65.155 206.38125 66.31 206.0625 67.5 C205 71 205 71 203.9375 73.0625 C202.6920403 75.63645004 202.45947711 78.18570268 202 81 C201.3530635 82.6744239 200.69040574 84.34302621 200 86 C200 86.66 200 87.32 200 88 C199.34 88 198.68 88 198 88 C198.33 88.99 198.66 89.98 199 91 C198.03542166 92.35917857 197.03145371 93.69084721 196 95 C194.87241478 98.77213759 194.29962234 102.69283821 193.59765625 106.5625 C193.00942486 108.96156136 192.12429212 110.81462897 191 113 C190.61709538 114.99110401 190.27395385 116.99100513 190 119 C189.34 119 188.68 119 188 119 C188.19078125 119.58394531 188.3815625 120.16789062 188.578125 120.76953125 C189.15708369 123.83050731 188.04625017 125.96046403 186.8984375 128.77734375 C185.96836472 131.07826293 185.15857061 133.39540912 184.375 135.75 C184.13523437 136.46671875 183.89546875 137.1834375 183.6484375 137.921875 C183.21295557 139.31751587 182.82263683 140.72798317 182.4765625 142.1484375 C182 144 182 144 181 145.875 C179.74195594 148.54834362 179.42510443 151.08499817 179 154 C178.07981111 158.9076741 176.0076864 163.86354977 172 167 C171.34 167 170.68 167 170 167 C169.67 167.66 169.34 168.32 169 169 C166.41481976 171.58518024 159.28355426 170.28349398 155.8125 170.3125 C154.67490234 170.34150391 153.53730469 170.37050781 152.36523438 170.40039062 C141.68101953 170.4814734 141.68101953 170.4814734 137 166 C137 165.34 137 164.68 137 164 C136.484375 163.566875 135.96875 163.13375 135.4375 162.6875 C134.963125 162.130625 134.48875 161.57375 134 161 C134.3125 158.3125 134.3125 158.3125 135 156 C134.34 156 133.68 156 133 156 C132.855625 154.7625 132.71125 153.525 132.5625 152.25 C132.21034185 149.4277748 131.75714014 146.74463301 131 144 C130.7834375 142.7625 130.7834375 142.7625 130.5625 141.5 C130.12423239 139.03106886 130.12423239 139.03106886 128.99609375 137.12890625 C127.60394187 134.15352283 127.56245729 131.36342937 127.34375 128.12109375 C127.10252039 125.70479457 127.10252039 125.70479457 125 123 C123.77777778 118.44444444 123.77777778 118.44444444 125 116 C124.34 116 123.68 116 123 116 C122.61936779 113.6739143 122.28730055 111.33944736 122 109 C122.33 108.67 122.66 108.34 123 108 C122.34 107.67 121.68 107.34 121 107 C121.33 105.35 121.66 103.7 122 102 C121.34 102 120.68 102 120 102 C120.495 100.02 120.495 100.02 121 98 C120.34 98 119.68 98 119 98 C119.33 96.35 119.66 94.7 120 93 C119.34 93 118.68 93 118 93 C117.7834375 91.14375 117.7834375 91.14375 117.5625 89.25 C117.21034185 86.4277748 116.75714014 83.74463301 116 81 C115.66666667 79.33333333 115.33333333 77.66666667 115 76 C114.37198755 72.94965384 113.80949355 71.71424032 112 69 C111.64159778 66.67038557 111.31151288 64.33634657 111 62 C110.40817249 59.63727778 109.71337077 57.33034452 109 55 C109.33 54.67 109.66 54.34 110 54 C109.34 53.67 108.68 53.34 108 53 C108 53.99 108 54.98 108 56 C107.34 56 106.68 56 106 56 C106.495 57.98 106.495 57.98 107 60 C106.34 60 105.68 60 105 60 C105.495 62.475 105.495 62.475 106 65 C105.34 65 104.68 65 104 65 C104.20625 65.556875 104.4125 66.11375 104.625 66.6875 C105.11883489 69.73281515 104.20120995 71.15502906 103 74 C102.43494897 76.3611061 101.94170601 78.72900472 101.46484375 81.109375 C101 83 101 83 100 84 C99.81617544 85.41223948 99.67765727 86.83051044 99.5625 88.25 C99.20307307 91.87279522 98.38298282 94.62897938 97 98 C96.56581305 100.65872504 96.29768384 103.32084543 96 106 C95.69830934 107.34084736 95.38482319 108.6806062 95 110 C94.34 110 93.68 110 93 110 C93.2784375 111.11375 93.2784375 111.11375 93.5625 112.25 C93.99203108 114.94990963 93.85122974 116.44631077 93 119 C92.34 119 91.68 119 91 119 C91.20625 119.61875 91.4125 120.2375 91.625 120.875 C91.74875 121.57625 91.8725 122.2775 92 123 C91.34 123.66 90.68 124.32 90 125 C90 125.99 90 126.98 90 128 C89.59989872 130.60065834 89.17591016 132.66887499 87.9375 135 C86.79035058 137.44725209 86.92779988 139.32859547 87 142 C86.67 142.33 86.34 142.66 86 143 C85.73843302 144.9944482 85.47998039 146.98949877 85.25390625 148.98828125 C84.99387939 151.04849406 84.58147676 153.00636538 84 155 C83.34 155 82.68 155 82 155 C82.20625 155.556875 82.4125 156.11375 82.625 156.6875 C83.13764024 159.84878147 82.56786783 161.20510517 81 164 C76.82142087 168.15530014 73.76057226 170.12570965 67.87890625 170.1328125 C66.35233398 170.13474609 66.35233398 170.13474609 64.79492188 170.13671875 C63.72822266 170.13285156 62.66152344 170.12898437 61.5625 170.125 C59.96825195 170.13080078 59.96825195 170.13080078 58.34179688 170.13671875 C56.81329102 170.13478516 56.81329102 170.13478516 55.25390625 170.1328125 C54.31877197 170.13168457 53.3836377 170.13055664 52.42016602 170.12939453 C49.05726184 169.94959637 47.34196889 169.30288673 44.8125 167.0625 C43 165 43 165 43 163 C42.34 162.67 41.68 162.34 41 162 C39.56319678 159.71801841 38.98817506 157.92567178 38.5625 155.25 C38.09056133 152.52324324 37.4787316 150.57799877 36.4375 148.0625 C34.92760299 144.27323922 34.91994311 141.08290126 35 137 C34.34 136.01 33.68 135.02 33 134 C31.22752913 130.78739656 30.13711966 127.48242896 29 124 C28.649375 123.175 28.29875 122.35 27.9375 121.5 C27 119 27 119 26.5625 116.1875 C25.97706131 112.8700141 24.96880794 110.04233178 23.71875 106.9296875 C22.54381479 103.77524189 21.96860903 100.77633937 21.5 97.4375 C21.1072157 94.02767813 21.1072157 94.02767813 20 91 C20 90.01 20 89.02 20 88 C19.5359375 87.55011719 19.071875 87.10023437 18.59375 86.63671875 C16.51106229 84.49788014 16.18451019 82.70129597 15.5 79.8125 C14.61911061 76.30748747 13.68027401 72.93340182 12.375 69.5625 C10.90291049 65.7484499 10.06740922 62.48029066 9.5 58.4375 C9.1072157 55.02767813 9.1072157 55.02767813 8 52 C7.855625 51.360625 7.71125 50.72125 7.5625 50.0625 C6.95754832 47.84434384 6.05173413 46.04160155 5 44 C3.8125 41.375 3.8125 41.375 3 39 C3.33 38.34 3.66 37.68 4 37 C3.34 37 2.68 37 2 37 C1.63883954 35.5225254 1.28624952 34.04295325 0.9375 32.5625 C0.74027344 31.73878906 0.54304687 30.91507813 0.33984375 30.06640625 C0.22769531 29.38449219 0.11554688 28.70257813 0 28 C0.33 27.67 0.66 27.34 1 27 C0.34 26.67 -0.32 26.34 -1 26 C-1.59765625 24.07421875 -1.59765625 24.07421875 -2.0625 21.6875 C-2.21847656 20.90761719 -2.37445313 20.12773438 -2.53515625 19.32421875 C-2.76525391 18.17373047 -2.76525391 18.17373047 -3 17 C-3.32529853 15.66468365 -3.65593093 14.33060338 -4 13 C-4.33 13 -4.66 13 -5 13 C-5 10.36 -5 7.72 -5 5 C-4.01 4.67 -3.02 4.34 -2 4 C-0.79117904 1.99983534 -0.79117904 1.99983534 0 0 Z M89 10 C90 12 90 12 90 12 Z M220 14 C221 16 221 16 221 16 Z M183 22 C184 24 184 24 184 24 Z M182 26 C183 29 183 29 183 29 Z M108 46 C109 48 109 48 109 48 Z M107 51 C108 53 108 53 108 53 Z M140 62 C141 64 141 64 141 64 Z M169 76 C170 79 170 79 170 79 Z M100 77 C101 79 101 79 101 79 Z M153 117 C154 120 154 120 154 120 Z M60 122 C61 125 61 125 61 125 Z M156 126 C157 129 157 129 157 129 Z M128 127 C129 130 129 130 129 130 Z M129 131 C130 135 130 135 130 135 Z M84 145 C85 147 85 147 85 147 Z " fill="#864BCC" transform="translate(199,17)"/>
<path d="M0 0 C4.20773916 0.36817718 6.19530635 1.34737337 9.75 3.578125 C10.95036495 4.30665052 12.15373687 5.03023466 13.359375 5.75 C14.03548828 6.15412109 14.71160156 6.55824219 15.40820312 6.97460938 C20.19225038 9.73970091 25.10237409 12.27158855 30 14.828125 C31.02480469 15.36856445 32.04960938 15.90900391 33.10546875 16.46582031 C34.06582031 16.96694336 35.02617188 17.46806641 36.015625 17.984375 C36.87961914 18.43619141 37.74361328 18.88800781 38.63378906 19.35351562 C40.66445879 20.46756293 40.66445879 20.46756293 42.75 20.328125 C42.75 20.988125 42.75 21.648125 42.75 22.328125 C43.43320313 22.43382812 44.11640625 22.53953125 44.8203125 22.6484375 C48.30713303 23.45737986 51.34894242 24.76223315 54.625 26.203125 C55.79804687 26.71617187 56.97109375 27.22921875 58.1796875 27.7578125 C59.35789062 28.27601563 60.53609375 28.79421875 61.75 29.328125 C67.45330872 31.83218126 73.2343553 34.06908805 79.0625 36.265625 C85.23825351 38.59669123 91.38754794 40.96592704 97.48657227 43.4921875 C100.47612024 44.59629841 103.48723628 45.21338321 106.60546875 45.8359375 C109.40320421 46.47804072 111.97968605 47.48589015 114.64453125 48.5390625 C117.86077616 49.74440846 121.14951515 50.67893337 124.4453125 51.640625 C126.22958132 52.17288146 127.99486148 52.76901344 129.75 53.390625 C133.23146205 54.47858189 136.71680554 55.1435768 140.296875 55.82421875 C142.36609187 56.24926489 144.40765993 56.80575583 146.4375 57.390625 C149.74631732 58.41704881 149.74631732 58.41704881 153.25 58.765625 C156.15172317 59.23197337 157.96251497 59.76348382 160.5625 60.953125 C162.1403125 61.63375 162.1403125 61.63375 163.75 62.328125 C164.41 61.998125 165.07 61.668125 165.75 61.328125 C168.11060586 61.99755054 170.36060443 62.86978121 172.65625 63.734375 C174.78411482 64.59201316 174.78411482 64.59201316 176.75 63.328125 C177.33523437 63.62589844 177.92046875 63.92367187 178.5234375 64.23046875 C181.21860758 65.55914032 183.38604218 65.70129748 186.375 65.890625 C191.55555556 66.23090278 191.55555556 66.23090278 193.75 67.328125 C194.554375 67.328125 195.35875 67.328125 196.1875 67.328125 C198.75 67.328125 198.75 67.328125 201.75 68.328125 C205.35525633 68.85146866 208.79729357 69.328125 212.4375 69.328125 C215.01012514 69.328125 217.23563844 69.78933324 219.75 70.328125 C223.50288699 70.9206861 226.94389925 71.328125 230.75 71.328125 C232.25193934 71.45240519 233.75217651 71.59891519 235.25 71.765625 C236.37921875 71.88744141 236.37921875 71.88744141 237.53125 72.01171875 C239.75 72.328125 239.75 72.328125 241.90625 72.92578125 C243.83279124 73.54824012 243.83279124 73.54824012 245.75 72.328125 C247.81530698 72.39167291 249.87866686 72.52780434 251.9375 72.703125 C253.04480469 72.79335938 254.15210938 72.88359375 255.29296875 72.9765625 C257.51820946 73.20285817 259.73844723 73.49125504 261.9453125 73.85546875 C267.11794838 74.4980652 272.22977326 74.51885786 277.4375 74.515625 C279.04226196 74.5165918 279.04226196 74.5165918 280.67944336 74.51757812 C287.13466397 74.47428421 293.14779414 74.0868967 299.47265625 72.77734375 C303.22874238 72.03643482 306.94773426 71.78522938 310.65625 72.90234375 C313.18915224 73.41743021 314.76979687 73.00763271 317.25 72.328125 C320.57016431 71.41849094 322.45179007 71.42094146 325.75 72.328125 C326.348125 72.01875 326.94625 71.709375 327.5625 71.390625 C330.64884326 69.89154399 333.34652219 70.26944435 336.75 70.328125 C338.75349261 70.01647059 340.75326516 69.68048997 342.75 69.328125 C344.39469129 69.15054205 346.04068981 68.98484561 347.6875 68.828125 C352.69067849 68.34733908 357.65037923 67.79470739 362.5625 66.703125 C364.75 66.328125 364.75 66.328125 366.75 67.328125 C366.75 66.668125 366.75 66.008125 366.75 65.328125 C367.61625 65.369375 368.4825 65.410625 369.375 65.453125 C372.89991551 65.32257257 375.46715027 64.56831267 378.75 63.328125 C381.75 62.328125 381.75 62.328125 383.75 62.328125 C385.08841672 62.01582776 386.42139075 61.67981568 387.75 61.328125 C389.85618396 60.77060572 391.56884536 60.328125 393.75 60.328125 C399.52607993 59.33552626 405.12347632 57.96493189 410.75 56.328125 C412.22762622 56.00842042 413.70691668 55.69634272 415.1875 55.390625 C418.90432731 54.58920383 422.32348763 53.44016144 425.85546875 52.046875 C428.76289372 50.94385192 431.75748334 50.16812968 434.75 49.328125 C436.16876377 48.85520374 437.58530794 48.37559048 439 47.890625 C443.34226256 46.41841954 447.73406604 45.22259914 452.171875 44.07421875 C454.79843235 43.31410897 457.22419141 42.37758068 459.75 41.328125 C461.24157582 40.72504744 462.73384026 40.12367186 464.2265625 39.5234375 C465.05712158 39.18868408 465.88768066 38.85393066 466.7434082 38.5090332 C469.41566024 37.43681036 472.09221015 36.37590043 474.76953125 35.31640625 C477.62244512 34.18667159 480.44483447 33.02746804 483.26171875 31.80859375 C490.55987073 28.76515241 490.55987073 28.76515241 494.6875 30.328125 C495.698125 30.988125 496.70875 31.648125 497.75 32.328125 C498.9875 33.1015625 498.9875 33.1015625 500.25 33.890625 C502.35280136 37.30767722 501.88622113 39.88851449 501.5 43.79296875 C499.57719546 50.29244869 494.2476472 53.26457399 488.8125 56.640625 C488.0488916 57.12281494 487.2852832 57.60500488 486.49853516 58.10180664 C484.95767128 59.07271552 483.41440791 60.03982779 481.86865234 61.00292969 C480.08557579 62.11822578 478.31646687 63.25580822 476.55078125 64.3984375 C469.54722366 68.86799762 462.28970859 72.77808102 454.9375 76.640625 C453.9582959 77.15681396 452.9790918 77.67300293 451.97021484 78.20483398 C446.64664499 80.96733755 441.39756474 83.31683159 435.75 85.328125 C433.42329356 86.36956995 431.12584481 87.45519233 428.828125 88.55859375 C426.75 89.328125 426.75 89.328125 422.75 89.328125 C422.75 89.988125 422.75 90.648125 422.75 91.328125 C420.48117913 92.16731898 418.21022973 92.99964224 415.9375 93.828125 C415.29490234 94.06660156 414.65230469 94.30507813 413.99023438 94.55078125 C411.10066261 95.59881246 408.84923939 96.328125 405.75 96.328125 C404.265 97.318125 404.265 97.318125 402.75 98.328125 C401.42851173 98.70569308 400.09164079 99.0299826 398.75 99.328125 C392.04951953 101.20425953 385.35163128 103.12758124 378.75 105.328125 C378.09 104.998125 377.43 104.668125 376.75 104.328125 C376.75 104.988125 376.75 105.648125 376.75 106.328125 C370 107.453125 370 107.453125 367.75 106.328125 C367.75 106.988125 367.75 107.648125 367.75 108.328125 C366.533125 108.4725 365.31625 108.616875 364.0625 108.765625 C360.92149234 109.15825096 357.84565483 109.65879423 354.75 110.328125 C353.8425 110.493125 352.935 110.658125 352 110.828125 C349.79154394 111.10762257 349.79154394 111.10762257 348.75 112.328125 C346.75041636 112.36893283 344.74954746 112.37066856 342.75 112.328125 C342.75 112.658125 342.75 112.988125 342.75 113.328125 C340.77 113.328125 338.79 113.328125 336.75 113.328125 C336.75 113.658125 336.75 113.988125 336.75 114.328125 C334.11 114.328125 331.47 114.328125 328.75 114.328125 C328.75 114.658125 328.75 114.988125 328.75 115.328125 C327.08388095 115.370846 325.41617115 115.36876332 323.75 115.328125 C323.42 114.998125 323.09 114.668125 322.75 114.328125 C322.42 114.988125 322.09 115.648125 321.75 116.328125 C316.30072464 117.60348732 316.30072464 117.60348732 313.75 116.328125 C313.151875 116.6375 312.55375 116.946875 311.9375 117.265625 C309.3736061 118.51094489 307.56458835 118.48449102 304.75 118.328125 C304.75 117.668125 304.75 117.008125 304.75 116.328125 C304.09 116.658125 303.43 116.988125 302.75 117.328125 C300.07691386 117.57417043 297.4294493 117.75766478 294.75 117.890625 C293.50259033 117.9532251 293.50259033 117.9532251 292.22998047 118.01708984 C275.82087629 118.75084245 259.37534665 118.62312325 242.98291016 117.59619141 C240.9070677 117.47194631 238.82848957 117.39475703 236.75 117.328125 C236.42 117.658125 236.09 117.988125 235.75 118.328125 C232.48101414 118.5510104 230.18153617 118.5027944 227.125 117.265625 C224.40905638 116.19354199 223.45706861 116.48800026 220.75 117.328125 C220.09 116.998125 219.43 116.668125 218.75 116.328125 C218.75 115.668125 218.75 115.008125 218.75 114.328125 C217.76 114.823125 217.76 114.823125 216.75 115.328125 C213.1875 115.453125 213.1875 115.453125 209.75 115.328125 C209.42 114.998125 209.09 114.668125 208.75 114.328125 C207.945625 114.328125 207.14125 114.328125 206.3125 114.328125 C203.75 114.328125 203.75 114.328125 201.75 113.328125 C199.15751328 113.05636682 196.56551489 112.88239932 193.96484375 112.70703125 C193.23394531 112.58199219 192.50304687 112.45695312 191.75 112.328125 C191.42 111.668125 191.09 111.008125 190.75 110.328125 C189.43 110.658125 188.11 110.988125 186.75 111.328125 C186.75 110.668125 186.75 110.008125 186.75 109.328125 C184.275 109.823125 184.275 109.823125 181.75 110.328125 C181.75 109.668125 181.75 109.008125 181.75 108.328125 C179.275 108.823125 179.275 108.823125 176.75 109.328125 C176.75 108.668125 176.75 108.008125 176.75 107.328125 C175.63625 107.6065625 175.63625 107.6065625 174.5 107.890625 C171.78100146 108.32319295 170.28815599 108.32525771 167.75 107.328125 C167.42 106.668125 167.09 106.008125 166.75 105.328125 C165.43 105.328125 164.11 105.328125 162.75 105.328125 C161.38678922 105.08217142 160.03120919 104.78969956 158.6875 104.453125 C158.01589844 104.29070312 157.34429687 104.12828125 156.65234375 103.9609375 C154.75 103.328125 154.75 103.328125 151.75 101.328125 C148.8409659 100.44696529 145.86492645 99.98404652 142.875 99.453125 C138.73843561 98.64524972 135.47962549 97.32304096 131.75 95.328125 C130.97269531 95.17472656 130.19539062 95.02132812 129.39453125 94.86328125 C126.63214524 94.30427551 124.33915558 93.43776311 121.75 92.328125 C120.71230469 91.8846875 119.67460937 91.44125 118.60546875 90.984375 C118.01040527 90.72785156 117.4153418 90.47132813 116.80224609 90.20703125 C114.41103202 89.1829567 112.0122876 88.17755668 109.61328125 87.171875 C107.76287531 86.39096974 105.91261567 85.60971772 104.0625 84.828125 C103.18400391 84.46074219 102.30550781 84.09335937 101.40039062 83.71484375 C87.02268178 77.60080678 87.02268178 77.60080678 83.75 74.328125 C81.68398747 73.22133257 79.62903946 72.28146002 77.44140625 71.4375 C70.5394535 68.59257318 64.06762984 64.63682681 57.79296875 60.61328125 C54.59814285 58.60353418 51.31889329 56.73635824 48.046875 54.85546875 C45.75 53.328125 45.75 53.328125 43.765625 51.26953125 C41.50389201 49.09107912 39.65536228 48.45822866 36.75 47.328125 C34.73199852 45.94567176 32.75460153 44.50281987 30.8125 43.015625 C29.76578125 42.21511719 28.7190625 41.41460937 27.640625 40.58984375 C20.15372671 34.73185171 20.15372671 34.73185171 17.75 32.328125 C15.4339261 30.84049292 13.11053796 29.36529922 10.78125 27.8984375 C8.75 26.328125 8.75 26.328125 7.75 23.328125 C6.42661368 22.64192469 5.09050052 21.98026039 3.75 21.328125 C2.69047095 20.49621856 1.64973514 19.64003225 0.625 18.765625 C-1.97238036 16.36806082 -1.97238036 16.36806082 -4.25 15.328125 C-5.24210039 12.45924871 -5.41224969 9.7230622 -5.4375 6.703125 C-5.45167969 5.92710937 -5.46585938 5.15109375 -5.48046875 4.3515625 C-5.05867055 0.64831731 -3.49590081 0.35295152 0 0 Z " fill="#854CCC" transform="translate(28.25,229.671875)"/>
<path d="M0 0 C1.24974609 -0.00386719 2.49949219 -0.00773438 3.78710938 -0.01171875 C22.84240113 0.00830783 37.88341793 3.16767249 52.2109375 16.69921875 C59.37913702 24.50878349 63.92019574 33.8032915 63.54296875 44.4375 C63.50816406 44.994375 63.47335938 45.55125 63.4375 46.125 C64.0975 46.455 64.7575 46.785 65.4375 47.125 C66.17945231 50.09280926 66.58416405 52.41726428 65.9593811 55.43218994 C65.36227984 58.5131221 65.35171527 61.32193873 65.39990234 64.45996094 C65.41677094 65.71766296 65.43363953 66.97536499 65.45101929 68.2711792 C65.47489718 69.63391574 65.49904287 70.99664761 65.5234375 72.359375 C65.54522077 73.76230368 65.5666697 75.16523759 65.58779907 76.56817627 C65.63317884 79.50010947 65.682396 82.43194611 65.734375 85.36376953 C65.80084529 89.12888771 65.85802053 92.89407962 65.91240501 96.6593895 C65.95514321 99.5521062 66.00258908 102.44473064 66.05150223 105.33734894 C66.07444962 106.72646054 66.09595301 108.11559675 66.11600876 109.50475311 C66.14467266 111.43911769 66.18030967 113.37337521 66.21630859 115.30761719 C66.23486908 116.40950378 66.25342957 117.51139038 66.27255249 118.64666748 C66.16043226 121.06746147 66.16043226 121.06746147 67.4375 122.125 C67.67279412 129.41911765 67.67279412 129.41911765 66.4375 133.125 C67.0975 133.125 67.7575 133.125 68.4375 133.125 C68.1075 134.775 67.7775 136.425 67.4375 138.125 C68.0975 138.125 68.7575 138.125 69.4375 138.125 C69.70304688 138.80046875 69.96859375 139.4759375 70.2421875 140.171875 C70.77199219 141.50992188 70.77199219 141.50992188 71.3125 142.875 C71.83457031 144.19757813 71.83457031 144.19757813 72.3671875 145.546875 C73.37931714 148.0962419 73.37931714 148.0962419 74.59765625 150.32421875 C75.685508 152.6567753 75.13825393 153.71129202 74.4375 156.125 C74.7675 157.115 75.0975 158.105 75.4375 159.125 C71.34078622 163.61816995 66.72315938 167.10313973 61.4375 170.125 C60.7775 170.125 60.1175 170.125 59.4375 170.125 C59.4375 170.785 59.4375 171.445 59.4375 172.125 C52.8125 174.25 52.8125 174.25 49.4375 173.125 C49.4375 172.465 49.4375 171.805 49.4375 171.125 C48.85226563 171.04636719 48.26703125 170.96773437 47.6640625 170.88671875 C43.27439885 169.38499171 40.89655317 164.87567706 38.4375 161.125 C37.0625 157.6875 37.0625 157.6875 36.4375 155.125 C36.1075 154.465 35.7775 153.805 35.4375 153.125 C34.7775 153.455 34.1175 153.785 33.4375 154.125 C32.7775 153.795 32.1175 153.465 31.4375 153.125 C31.4375 154.445 31.4375 155.765 31.4375 157.125 C26.02006677 162.66555671 19.36707673 166.70073548 12.4375 170.125 C11.4475 170.125 10.4575 170.125 9.4375 170.125 C9.1075 170.785 8.7775 171.445 8.4375 172.125 C5.00077049 174.37209237 1.4428064 174.59599727 -2.5625 175.125 C-2.8925 175.455 -3.2225 175.785 -3.5625 176.125 C-5.22858987 176.16884447 -6.89630554 176.1646713 -8.5625 176.125 C-9.5525 176.125 -10.5425 176.125 -11.5625 176.125 C-11.5625 176.455 -11.5625 176.785 -11.5625 177.125 C-13.85391286 177.17884521 -16.14568188 177.21772087 -18.4375 177.25 C-19.71367188 177.27320313 -20.98984375 177.29640625 -22.3046875 177.3203125 C-25.5625 177.125 -25.5625 177.125 -27.5625 175.125 C-30.16530568 175.44541397 -30.16530568 175.44541397 -32.5625 176.125 C-32.5625 175.465 -32.5625 174.805 -32.5625 174.125 C-33.12324219 174.32351562 -33.68398437 174.52203125 -34.26171875 174.7265625 C-39.26779653 175.59348938 -44.56533125 172.3642504 -48.734375 169.77734375 C-50.77185223 168.3334291 -52.79182286 166.89567714 -54.5625 165.125 C-55.26375 164.650625 -55.965 164.17625 -56.6875 163.6875 C-63.33962472 157.75843231 -68.23073301 149.74239974 -70.5625 141.125 C-70.66015625 138.33203125 -70.66015625 138.33203125 -70.5625 136.125 C-70.8925 136.125 -71.2225 136.125 -71.5625 136.125 C-71.63735655 132.23245958 -71.50223036 128.88392143 -70.5625 125.125 C-70.8925 124.135 -71.2225 123.145 -71.5625 122.125 C-71.7920082 115.58401639 -71.7920082 115.58401639 -70.5625 113.125 C-70.38460937 111.79662109 -70.38460937 111.79662109 -70.203125 110.44140625 C-69.46933311 106.64269093 -68.05228235 103.4791364 -66.3125 100.0625 C-66.02503906 99.46373047 -65.73757812 98.86496094 -65.44140625 98.24804688 C-63.37259532 94.12397617 -60.94801497 91.22883162 -57.5625 88.125 C-56.96308594 87.52816406 -56.36367188 86.93132812 -55.74609375 86.31640625 C-48.7934832 79.83041386 -40.57296381 75.97562816 -31.5625 73.125 C-30.469375 72.774375 -29.37625 72.42375 -28.25 72.0625 C-20.37232612 70.05970156 -12.46722769 69.96694801 -4.375 70 C-3.41658203 69.99613281 -2.45816406 69.99226563 -1.47070312 69.98828125 C3.28635652 69.99485632 7.76040905 70.16246824 12.4375 71.125 C14.4165947 71.45876037 16.39576164 71.79209263 18.375 72.125 C19.35339844 72.29 20.33179688 72.455 21.33984375 72.625 C24.70029265 73.16741798 28.066575 73.65247985 31.4375 74.125 C31.293125 73.18398437 31.14875 72.24296875 31 71.2734375 C30.814375 70.02820313 30.62875 68.78296875 30.4375 67.5 C30.251875 66.27023438 30.06625 65.04046875 29.875 63.7734375 C29.48232017 60.49876816 29.27931856 57.41715124 29.4375 54.125 C29.7675 53.795 30.0975 53.465 30.4375 53.125 C29.7775 52.795 29.1175 52.465 28.4375 52.125 C28.355 51.114375 28.2725 50.10375 28.1875 49.0625 C27.72742477 44.69629585 25.4654697 42.11849782 22.71484375 38.82421875 C21.4375 37.125 21.4375 37.125 21.4375 35.125 C19.7875 34.795 18.1375 34.465 16.4375 34.125 C16.4375 33.465 16.4375 32.805 16.4375 32.125 C15.48875 32.16625 14.54 32.2075 13.5625 32.25 C10.4375 32.125 10.4375 32.125 8.4375 30.125 C8.4375 30.455 8.4375 30.785 8.4375 31.125 C4.72150809 31.32586443 3.66541555 31.2769437 0.4375 29.125 C-2.20356542 28.80769144 -2.20356542 28.80769144 -5.0625 28.875 C-6.0215625 28.86984375 -6.980625 28.8646875 -7.96875 28.859375 C-10.79872897 28.94517391 -10.79872897 28.94517391 -13.5625 31.125 C-16.125 31.25 -16.125 31.25 -18.5625 31.125 C-20.74602762 31.125 -22.44829321 31.58134683 -24.5625 32.125 C-25.3875 32.269375 -26.2125 32.41375 -27.0625 32.5625 C-29.52030985 33.11550722 -31.36714222 33.91376812 -33.5625 35.125 C-34.5525 35.62 -34.5525 35.62 -35.5625 36.125 C-36.5525 35.63 -36.5525 35.63 -37.5625 35.125 C-38.0575 36.115 -38.0575 36.115 -38.5625 37.125 C-44.37066053 40.12531684 -50.07840363 41.64469656 -56.5625 42.125 C-57.0575 40.64 -57.0575 40.64 -57.5625 39.125 C-58.5525 38.795 -59.5425 38.465 -60.5625 38.125 C-60.5625 17.36313291 -60.5625 17.36313291 -57.15820312 13.55664062 C-54.38411265 11.06776875 -51.24160598 9.75284855 -47.8125 8.375 C-47.10311279 8.07698486 -46.39372559 7.77896973 -45.6628418 7.47192383 C-40.68507922 5.43404024 -35.86302561 4.08083249 -30.5625 3.125 C-29.35871704 2.62782471 -29.35871704 2.62782471 -28.13061523 2.12060547 C-19.59590111 -1.1881277 -8.99311888 -0.02791449 0 0 Z M60.4375 34.125 C61.4375 36.125 61.4375 36.125 61.4375 36.125 Z M61.4375 37.125 C62.4375 39.125 62.4375 39.125 62.4375 39.125 Z M9.4375 96.125 C9.4375 96.455 9.4375 96.785 9.4375 97.125 C8.78676514 97.11976318 8.13603027 97.11452637 7.46557617 97.10913086 C4.51872726 97.08835062 1.57189377 97.0753365 -1.375 97.0625 C-2.39916016 97.05412109 -3.42332031 97.04574219 -4.47851562 97.03710938 C-5.46142578 97.03388672 -6.44433594 97.03066406 -7.45703125 97.02734375 C-8.36300049 97.02210693 -9.26896973 97.01687012 -10.20239258 97.01147461 C-13.75361363 97.1822947 -16.4718471 98.49382208 -19.5625 100.125 C-20.696875 100.7025 -21.83125 101.28 -23 101.875 C-26.80273136 104.05729551 -28.93855276 106.62640367 -31.5625 110.125 C-32.160625 110.805625 -32.75875 111.48625 -33.375 112.1875 C-34.87176556 114.62959117 -34.79691607 116.31200716 -34.5625 119.125 C-34.8925 119.125 -35.2225 119.125 -35.5625 119.125 C-35.5625 121.765 -35.5625 124.405 -35.5625 127.125 C-35.2325 127.125 -34.9025 127.125 -34.5625 127.125 C-34.48773438 127.69347656 -34.41296875 128.26195312 -34.3359375 128.84765625 C-33.28034811 135.04665667 -31.19780596 138.86712354 -26.5625 143.125 C-23.60872502 145.49480013 -23.60872502 145.49480013 -19.5625 145.125 C-19.2325 145.785 -18.9025 146.445 -18.5625 147.125 C-15.72857074 147.20674796 -12.89705181 147.26584985 -10.0625 147.3125 C-9.27101563 147.33763672 -8.47953125 147.36277344 -7.6640625 147.38867188 C-2.00190961 147.45828851 2.2998902 146.46883107 7.4375 144.125 C8.35917969 143.72539062 9.28085938 143.32578125 10.23046875 142.9140625 C17.3268781 139.46425828 21.57983477 135.3227108 26.4375 129.125 C27.0975 128.465 27.7575 127.805 28.4375 127.125 C28.60431109 124.04152174 28.60431109 124.04152174 28.4375 121.125 C29.4275 120.63 29.4275 120.63 30.4375 120.125 C30.39625 119.3825 30.355 118.64 30.3125 117.875 C30.4375 115.125 30.4375 115.125 31.49609375 113.2734375 C32.72286496 110.47375217 32.30716428 108.9487101 31.625 106 C31.43292969 105.13117188 31.24085938 104.26234375 31.04296875 103.3671875 C30.51345267 101.11142655 30.51345267 101.11142655 29.4375 99.125 C28.0453125 99.186875 28.0453125 99.186875 26.625 99.25 C23.4375 99.125 23.4375 99.125 20.4375 97.125 C19.633125 97.29 18.82875 97.455 18 97.625 C14.96159044 98.2178604 14.03818087 97.64953706 11.4375 96.125 C10.7775 96.125 10.1175 96.125 9.4375 96.125 Z M-34.5625 132.125 C-33.5625 134.125 -33.5625 134.125 -33.5625 134.125 Z " fill="#864BCD" transform="translate(115.5625,13.875)"/>
<path d="M0 0 C1.29808594 -0.00386719 2.59617187 -0.00773438 3.93359375 -0.01171875 C24.4168777 0.00895056 24.4168777 0.00895056 32.125 3.125 C32.88425781 3.39183594 33.64351562 3.65867187 34.42578125 3.93359375 C41.49359283 6.51833213 47.43412732 9.67731937 52.125 15.6875 C53.85452297 21.6327352 54.30468779 28.27697077 52.46875 34.265625 C50.7778984 37.26834422 49.08682114 38.13821576 45.875 39.25 C41.22850473 39.09511682 37.93794742 37.7568637 34.125 35.125 C33.795 34.465 33.465 33.805 33.125 33.125 C30.80146015 32.69514306 30.80146015 32.69514306 28.125 32.5625 C23.22118321 32.22118321 23.22118321 32.22118321 22.125 31.125 C19.63246285 30.37723886 17.76164741 30.125 15.125 30.125 C6.79166667 30.125 -1.54166667 30.125 -9.875 30.125 C-10.49375 30.434375 -11.1125 30.74375 -11.75 31.0625 C-13.81280015 32.09390007 -15.63600486 32.61942045 -17.875 33.125 C-21.91120153 34.47040051 -22.72667306 36.54445509 -24.875 40.125 C-25.205 41.115 -25.535 42.105 -25.875 43.125 C-26.535 43.785 -27.195 44.445 -27.875 45.125 C-27.58200977 46.79922986 -27.24809899 48.46678227 -26.875 50.125 C-27.37 51.115 -27.37 51.115 -27.875 52.125 C-27.215 52.125 -26.555 52.125 -25.875 52.125 C-25.2871875 53.48625 -25.2871875 53.48625 -24.6875 54.875 C-19.93485737 63.39697989 -9.54189487 66.10751653 -0.6875 68.75 C0.02792969 68.94851562 0.74335938 69.14703125 1.48046875 69.3515625 C4.57519832 70.25666805 7.62283219 71.27566964 10.6784668 72.30419922 C13.10057132 73.11680429 15.5284951 73.90998401 17.95703125 74.703125 C31.3248654 79.14493087 43.45509965 83.38693117 52.125 95.125 C52.59550781 95.72441406 53.06601562 96.32382813 53.55078125 96.94140625 C57.45535637 102.08991681 60.73395627 107.42648105 60.125 114.125 C60.455 114.125 60.785 114.125 61.125 114.125 C61.167721 115.79111905 61.16563832 117.45882885 61.125 119.125 C60.795 119.455 60.465 119.785 60.125 120.125 C60.08419217 122.12458364 60.08245644 124.12545254 60.125 126.125 C60.455 126.125 60.785 126.125 61.125 126.125 C61.25 131.875 61.25 131.875 60.125 134.125 C59.93550781 135.47658203 59.93550781 135.47658203 59.7421875 136.85546875 C59.0655254 140.44006483 57.88036971 143.18081622 56.25 146.4375 C55.73695313 147.48550781 55.22390625 148.53351563 54.6953125 149.61328125 C53.125 152.125 53.125 152.125 50.125 153.125 C49.11132604 155.07591705 49.11132604 155.07591705 48.3984375 156.98828125 C46.66729906 159.89298286 44.49206165 161.35335944 41.75 163.3125 C40.79351563 164.00730469 39.83703125 164.70210937 38.8515625 165.41796875 C36.4330245 166.93215371 34.84768444 167.5470998 32.125 168.125 C31.403125 168.74375 30.68125 169.3625 29.9375 170 C25.523567 173.3349716 20.63870381 175.38150039 15.0625 174.8125 C14.1034375 174.4721875 14.1034375 174.4721875 13.125 174.125 C13.125 174.785 13.125 175.445 13.125 176.125 C11.805 175.795 10.485 175.465 9.125 175.125 C8.795 175.785 8.465 176.445 8.125 177.125 C6.12545254 177.16754356 4.12458364 177.16580783 2.125 177.125 C1.795 176.795 1.465 176.465 1.125 176.125 C-1.38636104 176.02524968 -3.86403415 175.98617817 -6.375 176 C-7.07753906 175.99613281 -7.78007812 175.99226562 -8.50390625 175.98828125 C-11.97928808 175.68109069 -11.97928808 175.68109069 -14.875 177.125 C-17.20797433 177.16592937 -19.54205225 177.16741723 -21.875 177.125 C-21.875 176.465 -21.875 175.805 -21.875 175.125 C-24.185 175.455 -26.495 175.785 -28.875 176.125 C-29.205 175.465 -29.535 174.805 -29.875 174.125 C-31.195 174.455 -32.515 174.785 -33.875 175.125 C-33.875 174.465 -33.875 173.805 -33.875 173.125 C-34.44863281 173.31449219 -35.02226562 173.50398437 -35.61328125 173.69921875 C-42.72426443 175.03790125 -53.08676164 168.98382558 -58.875 165.125 C-58.875 164.135 -58.875 163.145 -58.875 162.125 C-60.195 162.125 -61.515 162.125 -62.875 162.125 C-65.47572384 157.60650102 -66.30683763 154.26621765 -66.3125 149.0625 C-66.33183594 147.87527344 -66.35117187 146.68804687 -66.37109375 145.46484375 C-65.79018865 141.55402597 -64.66710539 139.87550978 -61.875 137.125 C-61.215 137.125 -60.555 137.125 -59.875 137.125 C-59.875 136.465 -59.875 135.805 -59.875 135.125 C-54.59745155 135.66352535 -50.57462561 136.77518719 -45.875 139.125 C-45.38 140.115 -45.38 140.115 -44.875 141.125 C-43.25097025 141.39567162 -41.62375668 141.65412966 -39.98828125 141.84375 C-35.58790514 142.42938231 -30.86364201 143.130679 -26.875 145.125 C-26.05 145.125 -25.225 145.125 -24.375 145.125 C-21.875 145.125 -21.875 145.125 -19.875 146.125 C-16.08854069 146.366784 -12.29331789 146.31019823 -8.5 146.3125 C-7.44554687 146.32474609 -6.39109375 146.33699219 -5.3046875 146.34960938 C-3.78101563 146.35250977 -3.78101563 146.35250977 -2.2265625 146.35546875 C-1.29666504 146.35957764 -0.36676758 146.36368652 0.59130859 146.36791992 C3.25505977 146.1125304 4.82308615 145.43957641 7.125 144.125 C8.57739013 143.66815729 10.03613376 143.23111438 11.5 142.8125 C16.05112651 141.32045029 18.77376913 139.55796821 22.125 136.125 C23.45798974 133.50681544 23.45798974 133.50681544 24.125 131.125 C24.455 130.795 24.785 130.465 25.125 130.125 C25.54639417 126.12985909 25.81119572 122.39446207 23.875 118.8125 C23.2975 118.255625 22.72 117.69875 22.125 117.125 C21.54621094 116.49464844 20.96742188 115.86429687 20.37109375 115.21484375 C14.65217768 109.89376532 6.71676674 106.76459925 -0.9375 105.546875 C-3.17792792 105.05903989 -4.90636179 104.29600031 -6.875 103.125 C-7.205 102.465 -7.535 101.805 -7.875 101.125 C-10.09797513 100.73191577 -10.09797513 100.73191577 -12.6875 100.625 C-16.33120692 100.40971451 -18.67040754 99.83538764 -21.875 98.125 C-23.4296799 97.66047561 -24.99306872 97.22444412 -26.5625 96.8125 C-40.20443029 92.7919311 -51.20325838 83.83804535 -58.125 71.5 C-59.81882389 68.38301479 -61.17113875 65.60605293 -61.875 62.125 C-62.04 61.526875 -62.205 60.92875 -62.375 60.3125 C-65.25911753 47.69448579 -63.97149585 37.61859588 -57.44140625 26.44921875 C-52.10980588 18.53824064 -45.29370471 11.7142578 -36.875 7.125 C-35.885 7.125 -34.895 7.125 -33.875 7.125 C-33.545 6.465 -33.215 5.805 -32.875 5.125 C-31.125 4.08984375 -31.125 4.08984375 -28.875 3.0625 C-28.153125 2.72089844 -27.43125 2.37929688 -26.6875 2.02734375 C-18.17262396 -0.70451231 -8.83287257 -0.02615856 0 0 Z M-59.875 33.125 C-58.875 35.125 -58.875 35.125 -58.875 35.125 Z M-59.875 63.125 C-58.875 65.125 -58.875 65.125 -58.875 65.125 Z M-58.875 66.125 C-57.875 68.125 -57.875 68.125 -57.875 68.125 Z " fill="#854BCC" transform="translate(494.875,13.875)"/>
<path d="M0 0 C0.99 0 1.98 0 3 0 C13.67183463 1.5374677 13.67183463 1.5374677 18 5 C18 5.66 18 6.32 18 7 C18.66 7 19.32 7 20 7 C21.18975795 10.56927385 21.12478155 13.79946972 21.09765625 17.51171875 C21.0962413 18.23994339 21.09482635 18.96816803 21.09336853 19.71846008 C21.08777659 22.04151539 21.07522562 24.36447388 21.0625 26.6875 C21.05748396 28.26367048 21.05292123 29.83984248 21.04882812 31.41601562 C21.0378098 35.27738098 21.02055074 39.13867408 21 43 C20.34 43 19.68 43 19 43 C19.19207031 43.56332031 19.38414062 44.12664062 19.58203125 44.70703125 C20.08862272 47.4861826 19.61235688 49.03565918 18.6875 51.6875 C18.42324219 52.47511719 18.15898438 53.26273437 17.88671875 54.07421875 C17 56 17 56 15 57 C14.896875 57.804375 14.79375 58.60875 14.6875 59.4375 C13.87467829 63.64939434 12.17953314 66.82089932 10.203125 70.59765625 C8.83829099 73.322893 7.91994404 76.09863802 7 79 C6.34 79.99 5.68 80.98 5 82 C4.34 82 3.68 82 3 82 C2.90332031 82.56460938 2.80664062 83.12921875 2.70703125 83.7109375 C1.83890657 86.52155109 0.49534809 88.31002535 -1.3125 90.625 C-1.90675781 91.40101563 -2.50101563 92.17703125 -3.11328125 92.9765625 C-5.00241299 95.00258785 -6.5195762 95.858049 -9 97 C-9.28875 97.598125 -9.5775 98.19625 -9.875 98.8125 C-11.57757941 102.12307107 -14.01704287 103.83589385 -17 106 C-21.27777778 107.36111111 -21.27777778 107.36111111 -24 106 C-24 105.34 -24 104.68 -24 104 C-24.66 104 -25.32 104 -26 104 C-25.85851011 102.3954444 -25.71164314 100.79136233 -25.5625 99.1875 C-25.48128906 98.29417969 -25.40007813 97.40085937 -25.31640625 96.48046875 C-24.87071862 92.98649779 -23.61743125 90.14683178 -22.125 87 C-20.14790046 82.61754831 -18.90990496 78.21840633 -17.71875 73.5703125 C-17.09796928 71.35034667 -16.3783883 69.3481809 -15.4375 67.25 C-13.4028905 62.65001329 -12.17137602 57.88073341 -11 53 C-10.34 53 -9.68 53 -9 53 C-9.33 51.35 -9.66 49.7 -10 48 C-9.34 48 -8.68 48 -8 48 C-8.33 47.34 -8.66 46.68 -9 46 C-9.039992 44.00039988 -9.04346799 41.99952758 -9 40 C-8.67 40 -8.34 40 -8 40 C-7.79936772 36.38861896 -7.97326879 34.04009681 -10 31 C-13.89369343 27.49567591 -16.97389002 26.95086687 -22.0625 27.0625 C-26 27 -26 27 -29 25 C-33.9915868 24.50084132 -39.14246955 24.70465855 -44 26 C-44 26.33 -44 26.66 -44 27 C-48.66666667 27 -53.33333333 27 -58 27 C-58 27.33 -58 27.66 -58 28 C-61.66666667 28 -65.33333333 28 -69 28 C-69 28.33 -69 28.66 -69 29 C-71.26979665 29.10794277 -73.54105196 29.18556176 -75.8125 29.25 C-77.07707031 29.29640625 -78.34164063 29.3428125 -79.64453125 29.390625 C-83 29 -83 29 -84.953125 27.140625 C-86 25 -86 25 -85.9375 22.5 C-83.21841767 15.24911378 -73.93820283 10.85495061 -67.3046875 7.73046875 C-62.62126846 5.8184307 -57.89317535 4.29253689 -53 3 C-51.824375 2.649375 -50.64875 2.29875 -49.4375 1.9375 C-45.25620835 0.79714773 -41.33801382 0 -37 0 C-35.7315625 -0.2165625 -35.7315625 -0.2165625 -34.4375 -0.4375 C-22.75398015 -2.3493487 -11.60417969 -2.38909582 0 0 Z M13 59 C14 61 14 61 14 61 Z M-12 60 C-11 62 -11 62 -11 62 Z " fill="#854ACC" transform="translate(556,220)"/>
<path d="M0 0 C0.99 0.33 1.98 0.66 3 1 C1.37660195 2.70884005 -0.29319053 4.37446717 -2 6 C-2.66 6 -3.32 6 -4 6 C-3.6875 4.125 -3.6875 4.125 -3 2 C-2.01 1.34 -1.02 0.68 0 0 Z " fill="#AB44D6" transform="translate(293,19)"/>
<path d="M0 0 C0.33 0 0.66 0 1 0 C1 2.31 1 4.62 1 7 C0.67 7 0.34 7 0 7 C0 4.69 0 2.38 0 0 Z " fill="#C285D4" transform="translate(421,22)"/>
<path d="M0 0 C0.99 1.485 0.99 1.485 2 3 C1.01 3.495 1.01 3.495 0 4 C0 2.68 0 1.36 0 0 Z " fill="#906EA1" transform="translate(179,56)"/>
<path d="M0 0 C1.65 0 3.3 0 5 0 C5 0.33 5 0.66 5 1 C3.35 1 1.7 1 0 1 C0 0.67 0 0.34 0 0 Z " fill="#FF00FF" transform="translate(108,43)"/>
<path d="M0 0 C1 4 1 4 1 4 Z " fill="#9515AA" transform="translate(314,94)"/>
<path d="" fill="#B89CE2" transform="translate(0,0)"/>
<path d="" fill="#9C00E2" transform="translate(0,0)"/>
<path d="M0 0 C3 1 3 1 3 1 Z " fill="#7F55D4" transform="translate(484,115)"/>
<path d="" fill="#9C2AC6" transform="translate(0,0)"/>
<path d="" fill="#2A2AAA" transform="translate(0,0)"/>
<path d="" fill="#AA6AE9" transform="translate(0,0)"/>
<path d="" fill="#9C2AE2" transform="translate(0,0)"/>
<path d="" fill="#63478D" transform="translate(0,0)"/>
<path d="" fill="#5500AA" transform="translate(0,0)"/>
<path d="M0 0 C3 1 3 1 3 1 Z " fill="#AA00AA" transform="translate(129,46)"/>
<path d="" fill="#E247E2" transform="translate(0,0)"/>
<path d="" fill="#B847B8" transform="translate(0,0)"/>
<path d="" fill="#FF00FF" transform="translate(0,0)"/>
<path d="" fill="#FF40FF" transform="translate(0,0)"/>
<path d="M0 0 C2 1 2 1 2 1 Z " fill="#7F407F" transform="translate(108,302)"/>
<path d="" fill="#BF40BF" transform="translate(0,0)"/>
<path d="" fill="#7F407F" transform="translate(0,0)"/>
<path d="M0 0 C2 1 2 1 2 1 Z " fill="#BF40BF" transform="translate(526,47)"/>
<path d="" fill="#FF00FF" transform="translate(0,0)"/>
<path d="" fill="#8080FF" transform="translate(0,0)"/>
<path d="" fill="#FF00FF" transform="translate(0,0)"/>
<path d="" fill="#FF00FF" transform="translate(0,0)"/>
<path d="" fill="#8080FF" transform="translate(0,0)"/>
<path d="" fill="#FF00FF" transform="translate(0,0)"/>
<path d="" fill="#000000" transform="translate(0,0)"/>
</svg>
