<?xml version="1.0" encoding="UTF-8"?>
<svg version="1.1" xmlns="http://www.w3.org/2000/svg" width="512" height="512">
<path d="M0 0 C5.4521357 2.53134872 6.4759981 4.71399714 10 10 C10 19.9 10 29.8 10 40 C83.92 40 157.84 40 234 40 C234 30.1 234 20.2 234 10 C239.17241379 2.24137931 239.17241379 2.24137931 244 0 C249.5997712 -0.75381535 254.33499991 -0.77303575 259.5 1.625 C263.24659426 5.18426454 265.76361343 8.21184997 266.45410156 13.43505859 C266.42268066 15.27318115 266.42268066 15.27318115 266.390625 17.1484375 C266.38496521 17.80582916 266.37930542 18.46322083 266.37347412 19.14053345 C266.35126275 21.21946191 266.3011042 23.29660163 266.25 25.375 C266.22991489 26.79294368 266.21166765 28.21091465 266.1953125 29.62890625 C266.15145067 33.08650877 266.08253437 36.54307951 266 40 C267.03664795 39.98334541 267.03664795 39.98334541 268.09423828 39.96635437 C274.68196017 39.86519447 281.2694581 39.78955768 287.85778809 39.74093914 C291.24310055 39.7151012 294.62775909 39.68019381 298.01269531 39.62280273 C321.9694331 39.24654207 341.39079755 41.16638627 359.6171875 58.42578125 C373.10553394 72.99761782 378.31088556 89.10968188 378.27415466 108.67321777 C378.27861116 110.17014918 378.28392655 111.66707823 378.29002339 113.16400385 C378.30416488 117.26523041 378.30586741 121.36638104 378.30542648 125.46762848 C378.30707812 129.89593564 378.32015124 134.32421184 378.33161926 138.75250244 C378.35444287 148.43047989 378.36238724 158.10843537 378.36744571 167.78643608 C378.37070622 173.83437805 378.3772309 179.88231369 378.3844471 185.93025208 C378.40401067 202.6892247 378.42041594 219.44819143 378.42332363 236.20717621 C378.4235112 237.27908074 378.42369877 238.35098528 378.42389202 239.45537177 C378.42425827 241.62820975 378.42462196 243.80104773 378.42498314 245.97388572 C378.42516595 247.0524253 378.42534876 248.13096489 378.42553711 249.2421875 C378.42580793 250.8619817 378.42580793 250.8619817 378.42608423 252.51449901 C378.42962385 270.0016573 378.45663409 287.48869229 378.494035 304.97580785 C378.53216407 322.94786218 378.55148145 340.91985542 378.55178314 358.89195108 C378.55236673 368.97520415 378.56079454 379.05831017 378.58978081 389.14152527 C378.61435642 397.72970435 378.62153608 406.31768276 378.60653328 414.90588754 C378.59938925 419.28264808 378.60011272 423.65901288 378.62294388 428.03572845 C378.64369863 432.05313187 378.640782 436.06983947 378.62006903 440.0872367 C378.61660532 441.53007749 378.62134963 442.9729702 378.63577347 444.41574305 C378.81072998 463.14358066 372.56374277 479.89989728 359.57421875 493.6171875 C344.46072072 507.60692012 327.97513368 512.30818449 307.80822754 512.27415466 C306.14630439 512.27861013 304.48438336 512.28392519 302.82246542 512.29002339 C298.26517777 512.3041771 293.70795841 512.30586718 289.15065193 512.30542648 C284.2315442 512.30707703 279.3124644 512.32014811 274.39337158 512.33161926 C263.64104819 512.35445105 252.88874457 512.36238809 242.13640022 512.36744571 C235.41841972 512.37070519 228.70044492 512.37722923 221.98246765 512.3844471 C203.3705692 512.40401154 184.75867606 512.42041637 166.14676666 512.42332363 C164.95615768 512.4235112 163.76554869 512.42369877 162.53886065 512.42389202 C160.12535063 512.42425827 157.71184062 512.42462197 155.29833061 512.42498314 C153.50130149 512.42525735 153.50130149 512.42525735 151.66796875 512.42553711 C149.86873767 512.42580793 149.86873767 512.42580793 148.03315848 512.42608423 C128.60604779 512.42962433 109.17904806 512.45663719 89.75197583 512.494035 C69.79110033 512.53215183 49.83027982 512.55148136 29.86936712 512.55178314 C18.66829314 512.55236699 7.46735149 512.5608121 -3.73368835 512.58978081 C-13.27340446 512.61433994 -22.81293999 512.62154705 -32.35267919 512.60653328 C-37.21548899 512.59938267 -42.07794252 512.60014177 -46.94071198 512.62294388 C-51.40219391 512.64366285 -55.86304861 512.64081414 -60.3245247 512.62006903 C-61.92887127 512.61659865 -63.53326431 512.62137874 -65.13755006 512.63577347 C-84.39132796 512.79724119 -101.37359877 507.06211869 -115.6171875 493.57421875 C-129.11048122 478.9970375 -134.31375902 462.88389332 -134.26742554 443.31332397 C-134.27116529 441.81496757 -134.27576811 440.31661312 -134.28115618 438.81826174 C-134.29336167 434.71316975 -134.29312861 430.60815941 -134.29076743 426.50305343 C-134.29035864 422.07069764 -134.30140447 417.63836781 -134.31088257 413.20602417 C-134.32748072 404.52620147 -134.3329916 395.84640593 -134.33410732 387.16656868 C-134.33505848 380.10833216 -134.33917215 373.05010458 -134.34550858 365.99187088 C-134.36311872 345.96719047 -134.37234795 325.94253148 -134.37084763 305.91784327 C-134.37076772 304.83877823 -134.3706878 303.7597132 -134.37060547 302.64794922 C-134.37052371 301.5675618 -134.37044195 300.48717438 -134.37035771 299.37404795 C-134.36954515 281.87262381 -134.38867579 264.3712858 -134.4168822 246.86988656 C-134.44563589 228.88654222 -134.45942109 210.90323984 -134.45769465 192.91987193 C-134.45703155 182.82888249 -134.46248872 172.73798331 -134.48405075 162.64701462 C-134.50229537 154.05367293 -134.50658307 145.46046241 -134.4930319 136.8671097 C-134.48651845 132.48660147 -134.48632602 128.10634465 -134.5037384 123.7258606 C-134.51954669 119.70740904 -134.51652721 115.68940662 -134.49917014 111.67096551 C-134.49611717 110.22547181 -134.49966765 108.77994394 -134.51089029 107.33449058 C-134.6521517 87.83204867 -128.29562825 72.20362238 -115 58 C-101.35835773 44.86616844 -84.854803 39.46917801 -66.23828125 39.70703125 C-64.96647507 39.71127609 -63.69466888 39.71552094 -62.38432312 39.71989441 C-59.04197301 39.73373588 -55.70026659 39.76057357 -52.35809326 39.79400635 C-48.93214405 39.82497942 -45.5061277 39.83845724 -42.08007812 39.85351562 C-35.38654471 39.88642309 -28.69330941 39.93650012 -22 40 C-22.0314209 38.68394775 -22.0314209 38.68394775 -22.06347656 37.34130859 C-22.131926 34.06483317 -22.18193051 30.78912488 -22.21972656 27.51220703 C-22.23975843 26.09802205 -22.26699248 24.68391903 -22.30175781 23.27001953 C-22.35065489 21.22928581 -22.37305123 19.1896531 -22.390625 17.1484375 C-22.4220459 15.31031494 -22.4220459 15.31031494 -22.45410156 13.43505859 C-21.76361343 8.21184997 -19.24659426 5.18426454 -15.5 1.625 C-10.33499991 -0.77303575 -5.5997712 -0.75381535 0 0 Z M-93 83 C-107.35819663 99.64245519 -102 123.84550716 -102 144 C45.84 144 193.68 144 346 144 C348.5388378 111.720518 348.5388378 111.720518 336.546875 82.4453125 C326.19045136 72.76885607 314.67345574 71.83003999 301.15625 71.90234375 C299.64170227 71.90446617 299.64170227 71.90446617 298.09655762 71.90663147 C294.89767389 71.91219219 291.69886228 71.9247373 288.5 71.9375 C286.32031352 71.94252008 284.14062593 71.9470821 281.9609375 71.95117188 C276.64060074 71.96214872 271.32030552 71.97884732 266 72 C265.98598145 72.95253662 265.98598145 72.95253662 265.97167969 73.92431641 C265.91771267 76.825308 265.83411873 79.72473244 265.75 82.625 C265.73582031 83.62402344 265.72164063 84.62304688 265.70703125 85.65234375 C265.50648031 91.70898213 265.03465694 95.38420999 261 100 C255.77740143 104.05630398 250.34659858 103.77397544 244 103 C238.93805921 100.60223857 237.97785351 98.96308918 235 94 C234.67 86.74 234.34 79.48 234 72 C160.08 72 86.16 72 10 72 C9.67 79.26 9.34 86.52 9 94 C4.24385102 101.13422347 4.24385102 101.13422347 0 103 C-5.54808604 103.82885269 -10.47140883 103.7240695 -15.5625 101.3125 C-20.6670698 96.46970301 -21.37081672 92.58042915 -21.61914062 85.74023438 C-21.64169922 84.73283203 -21.66425781 83.72542969 -21.6875 82.6875 C-21.72166016 81.66076172 -21.75582031 80.63402344 -21.79101562 79.57617188 C-21.87323409 77.05089037 -21.94246936 74.5259446 -22 72 C-28.34965542 71.9489001 -34.69925696 71.91410009 -41.04907227 71.89013672 C-43.2050169 71.88013683 -45.36094818 71.86653253 -47.5168457 71.84912109 C-50.63235796 71.82460653 -53.74768946 71.81345647 -56.86328125 71.8046875 C-57.81270096 71.79436493 -58.76212067 71.78404236 -59.74031067 71.77340698 C-72.59094732 71.77129722 -83.48993647 73.91260596 -93 83 Z M-102 176 C-102.04125 220.323125 -102.0825 264.64625 -102.125 310.3125 C-102.14320801 324.30825439 -102.16141602 338.30400879 -102.18017578 352.72387695 C-102.1868646 365.26827191 -102.1868646 365.26827191 -102.19088745 377.81266785 C-102.19275092 383.40053493 -102.20008052 388.98836193 -102.21115112 394.57621765 C-102.22390883 401.02520428 -102.22966556 407.47415253 -102.2268899 413.92315186 C-102.2256884 417.21997088 -102.22867935 420.51668714 -102.23843026 423.81349432 C-102.24840696 427.35138427 -102.24596924 430.88906113 -102.24050903 434.42695618 C-102.24633436 435.4451755 -102.25215969 436.46339483 -102.25816154 437.51246929 C-102.20464799 450.45108464 -100.16304212 461.41076987 -91 471 C-79.80991858 480.65418789 -66.72173655 480.14958974 -52.68571472 480.13371277 C-51.1192252 480.13558245 -49.55273615 480.13788378 -47.98624784 480.14057809 C-43.69295599 480.14668303 -39.39968365 480.14656404 -35.10638845 480.14538372 C-30.47164383 480.14517938 -25.83690541 480.15070158 -21.2021637 480.15544128 C-12.12630369 480.16374108 -3.05045017 480.16649582 6.02541331 480.16705366 C13.40356208 480.16752911 20.78170871 480.1695853 28.1598568 480.17275429 C49.08513119 480.18155879 70.01040047 480.18617395 90.93567673 480.18542381 C92.62714443 480.18536388 92.62714443 480.18536388 94.3527832 480.18530273 C95.48180739 480.18526185 96.61083158 480.18522097 97.77406862 480.18517885 C116.07287404 480.18477237 134.37165888 480.19434298 152.67045835 480.2084411 C171.46626246 480.22280772 190.26205654 480.22971114 209.05786628 480.22884732 C219.60759995 480.22851547 230.15731206 480.23125761 240.70704079 480.24202538 C249.68874047 480.25113408 258.67040879 480.25330254 267.65211109 480.24651595 C272.2326791 480.24325272 276.81318696 480.243187 281.39374924 480.2518692 C285.5914184 480.25974369 289.78897981 480.25829308 293.98664638 480.24958507 C295.50072532 480.24805218 297.01481235 480.24985824 298.52888177 480.25544515 C313.17450417 480.30588455 325.96485365 479.5446954 337 469 C345.68818367 458.92960529 346.15646826 447.55608816 346.12025452 434.78771973 C346.12111053 433.68098907 346.12196655 432.57425842 346.12284851 431.43399048 C346.12449979 427.72485733 346.11898638 424.01576963 346.11352539 420.30664062 C346.11321898 417.60234224 346.1133083 414.89804654 346.11389065 412.19374847 C346.11442129 405.68895525 346.10981384 399.18417589 346.10338932 392.67938623 C346.09617781 385.15181603 346.09539394 377.6242541 346.09460449 370.09667969 C346.08935821 350.2311176 346.07539705 330.36555859 346.0625 310.5 C346.041875 266.115 346.02125 221.73 346 176 C198.16 176 50.32 176 -102 176 Z " fill="#854CCE" transform="translate(134,0)"/>
</svg>
