<?xml version="1.0" encoding="UTF-8"?>
<svg version="1.1" xmlns="http://www.w3.org/2000/svg" width="512" height="512">
<path d="M0 0 C1.22369987 -0.00480972 1.22369987 -0.00480972 2.47212094 -0.0097166 C5.20526676 -0.01801676 7.93819345 -0.01209223 10.67134285 -0.00622082 C12.65087564 -0.00924149 14.63040727 -0.01313055 16.60993683 -0.01781338 C22.04952137 -0.02811295 27.48904014 -0.02590656 32.92863011 -0.02163279 C38.7951353 -0.01916913 44.6616245 -0.02817525 50.52812386 -0.03567028 C62.02116471 -0.04842928 73.51418221 -0.05020948 85.00722896 -0.04787002 C94.34766309 -0.04608806 103.68809074 -0.04779674 113.0285244 -0.05209446 C114.37057133 -0.05269686 115.71261826 -0.05329806 117.05466519 -0.05389806 C119.07701538 -0.05480532 121.09936558 -0.05571398 123.12171578 -0.05663041 C141.92406511 -0.06505978 160.72641186 -0.06939575 179.52876282 -0.06522369 C180.59193859 -0.06498913 180.59193859 -0.06498913 181.67659266 -0.06474983 C185.26896887 -0.06394405 188.86134507 -0.06309828 192.45372127 -0.06223653 C193.16717515 -0.06206544 193.88062904 -0.06189435 194.61570274 -0.06171808 C196.05847962 -0.06137142 197.50125651 -0.06102289 198.94403339 -0.06067249 C221.39434064 -0.05531512 243.84460861 -0.06324622 266.29490852 -0.08170605 C291.51979231 -0.10242301 316.74465176 -0.11314935 341.96954453 -0.10913056 C344.65928912 -0.10873522 347.34903371 -0.10837367 350.03877831 -0.10803318 C350.70105823 -0.10794245 351.36333815 -0.10785172 352.04568716 -0.10775824 C362.04240829 -0.10659238 372.03909661 -0.11327584 382.03581047 -0.1238451 C393.40524162 -0.13574391 404.77461496 -0.13718062 416.14404689 -0.12505493 C421.94561147 -0.11915576 427.74707024 -0.11809556 433.54862785 -0.13005733 C438.85960119 -0.14088043 444.1703799 -0.13785533 449.481344 -0.12379565 C451.40254722 -0.12113887 453.32376552 -0.12354592 455.24495398 -0.13153151 C457.85795442 -0.14163872 460.47027845 -0.13321467 463.08325195 -0.12025452 C463.82769371 -0.12756386 464.57213547 -0.13487321 465.33913606 -0.14240405 C471.51530786 -0.07898474 477.93228313 1.02966108 482.82371712 5.00838184 C483.26715462 5.60521778 483.71059212 6.20205372 484.16746712 6.81697559 C484.63152962 7.41638966 485.09559212 8.01580372 485.57371712 8.63338184 C487.85267716 12.01112619 487.79533228 14.32002486 487.80168819 18.38438416 C487.80614604 19.70077289 487.81060388 21.01716162 487.81519681 22.37344092 C487.81510751 23.84836814 487.81491763 25.32329535 487.81463814 26.79822254 C487.81793567 28.35413528 487.821661 29.91004716 487.82577962 31.46595794 C487.83582044 35.75772113 487.83951975 40.04947034 487.84216893 44.34124362 C487.84606585 48.96375016 487.85564463 53.58624556 487.86438179 58.208745 C487.88416405 69.38045381 487.89421486 80.55216355 487.90310958 91.72388551 C487.90748979 96.98141061 487.91285731 102.2389347 487.91809845 107.49645901 C487.93511286 124.96806822 487.94960763 142.4396768 487.95684719 159.91129303 C487.95875717 164.44748085 487.96067749 168.98366866 487.96263313 173.51985645 C487.96311687 174.64734166 487.96360061 175.77482687 487.96409901 176.93647829 C487.97240149 195.20605729 487.99774113 213.47557085 488.03021381 231.74512126 C488.06326215 250.49099542 488.08129396 269.2368363 488.08449143 287.98273975 C488.08665865 298.51234671 488.0954381 309.04185827 488.12095261 319.57143688 C488.14262926 328.53804751 488.15072502 337.50453957 488.14098582 346.47117343 C488.13643224 351.04722434 488.13838863 355.62303049 488.15774727 360.19904804 C488.17531648 364.3882153 488.17443226 368.57695809 488.15884998 372.76612947 C488.15646437 374.28166713 488.16084669 375.79723371 488.17267863 377.31272706 C488.27655371 391.49606428 488.27655371 391.49606428 483.66746712 397.25447559 C479.37224914 400.58546096 475.94484373 402.38154884 470.51031685 402.37473011 C469.24200775 402.37679211 469.24200775 402.37679211 467.94807625 402.37889576 C467.02378822 402.37530048 466.0995002 402.37170521 465.14720345 402.36800098 C463.68351074 402.36822002 463.68351074 402.36822002 462.19024849 402.36844349 C458.95997596 402.36774597 455.72976085 402.35996104 452.49949837 402.35213184 C450.26176167 402.35026709 448.02402456 402.34884346 445.78628731 402.34784412 C439.8926042 402.34402344 433.99894568 402.33419695 428.10527229 402.32314014 C422.09280416 402.31291641 416.08033206 402.30834444 410.06785774 402.30330372 C398.26771672 402.2925743 386.46759396 402.27550323 374.66746712 402.25447559 C374.67794075 403.3240752 374.68841438 404.39367481 374.6992054 405.49568653 C374.73544118 409.4689597 374.75838062 413.44221828 374.7773304 417.41560841 C374.78737982 419.1343834 374.80102156 420.85314134 374.81834602 422.57185841 C374.84264102 425.044232 374.8539608 427.51637929 374.86277962 429.98885059 C374.87310219 430.75566151 374.88342476 431.52247242 374.89406013 432.31252003 C374.89551784 439.2646111 374.89551784 439.2646111 372.66746712 442.25447559 C369.11522647 444.03059592 367.15850489 444.65306985 363.30027962 443.62166309 C359.86048825 442.26074875 356.55369664 440.69189113 353.23777962 439.05525684 C352.08922493 438.50418262 352.08922493 438.50418262 350.91746712 437.94197559 C350.24199837 437.59521778 349.56652962 437.24845997 348.87059212 436.89119434 C342.47255345 435.04211579 336.22612501 439.15564183 330.67723274 441.99080372 C326.83618828 443.80636932 325.13051125 444.32675338 320.78856087 443.64900684 C317.66746712 442.25447559 317.66746712 442.25447559 315.66746712 439.25447559 C315.49553638 436.4246436 315.43538275 433.69565686 315.47215462 430.86775684 C315.47639946 429.64224361 315.47639946 429.64224361 315.48073006 428.39197254 C315.49192171 425.783491 315.51702421 423.17535329 315.54246712 420.56697559 C315.55249824 418.79810035 315.56162386 417.02921971 315.56981087 415.26033497 C315.5918577 410.92491611 315.62638042 406.58975414 315.66746712 402.25447559 C314.9785828 402.25599447 314.28969849 402.25751336 313.57993889 402.25907826 C272.75411071 402.34858403 231.92829392 402.41721852 191.10238737 402.45873691 C186.20074061 402.46373976 181.29909405 402.46891705 176.39744759 402.47420216 C175.42161504 402.4752514 174.44578249 402.47630064 173.44037926 402.47738168 C157.63832896 402.4947885 141.83633685 402.52632773 126.03432107 402.56308678 C109.82086815 402.60048846 93.60744571 402.62270981 77.39395142 402.63082957 C67.38875914 402.63631894 57.38373134 402.65365877 47.37858969 402.68614146 C40.51836031 402.70727979 33.658216 402.71367718 26.79795641 402.7084811 C22.83948164 402.70591826 18.88129434 402.7098562 14.92287064 402.73129749 C11.29670411 402.75079549 7.67101775 402.75172493 4.04482889 402.73807117 C2.11609871 402.73558693 0.18737399 402.75280987 -1.74127388 402.77080083 C-8.31885704 402.72544567 -14.092717 402.59939885 -19.33253288 398.25447559 C-24.82386058 392.50590265 -25.0468323 386.46506568 -24.96072197 378.84132862 C-24.96781636 377.71025503 -24.97491074 376.57918145 -24.98222011 375.4138329 C-24.99978639 371.63347749 -24.98170086 367.854152 -24.9636364 364.07381153 C-24.96601828 361.35992601 -24.97586835 358.64607884 -24.98531914 355.93220997 C-25.00366966 349.33312459 -24.99520196 342.73433588 -24.97723091 336.13525984 C-24.96319302 330.77314458 -24.95931465 325.41110973 -24.96267319 320.04897785 C-24.96315063 319.28521696 -24.96362807 318.52145607 -24.96411998 317.73455091 C-24.96514632 316.18293409 -24.96620168 314.63131728 -24.96728574 313.0797005 C-24.97584696 299.3699959 -24.95919408 285.66043443 -24.92945671 271.95076466 C-24.90059805 258.64601607 -24.89354717 245.34147348 -24.9089489 232.03670216 C-24.92570287 217.54395721 -24.92975527 203.05130999 -24.91223854 188.55856252 C-24.91039415 187.01394511 -24.90855942 185.4693277 -24.90673447 183.92471027 C-24.90582238 183.16473859 -24.90491029 182.40476691 -24.90397056 181.62176578 C-24.89836188 176.26347658 -24.9016752 170.90523506 -24.90827942 165.54694843 C-24.9160036 159.02105539 -24.90929258 152.49536524 -24.88410438 145.96951315 C-24.87159014 142.63924779 -24.86762675 139.30956276 -24.87664604 135.97924519 C-24.88529108 132.3723902 -24.8694674 128.76646496 -24.84719658 125.159688 C-24.85543735 124.10289459 -24.86367811 123.04610118 -24.8721686 121.95728374 C-24.79161922 114.92543472 -24.79161922 114.92543472 -22.5191164 111.60414982 C-19.28083914 109.60531496 -17.05516487 109.72267102 -13.33253288 110.25447559 C-11.14621925 111.61027622 -11.14621925 111.61027622 -9.33253288 114.25447559 C-8.72110257 117.85093233 -8.78655022 121.42116542 -8.81355095 125.06166553 C-8.80605324 126.17311939 -8.79855553 127.28457325 -8.79083061 128.42970753 C-8.77043085 132.1791003 -8.77870956 135.92789469 -8.78663445 139.67732716 C-8.78005559 142.40118085 -8.76747298 145.12499923 -8.75513649 147.84883213 C-8.72887226 154.41604417 -8.72314187 160.98311479 -8.72455524 167.55037282 C-8.72530602 175.14567209 -8.7005686 182.74074704 -8.6757946 190.33601856 C-8.62298997 210.39212549 -8.60489306 230.44831162 -8.58253288 250.50447559 C-8.50003288 295.30197559 -8.41753288 340.09947559 -8.33253288 386.25447559 C98.58746712 386.25447559 205.50746712 386.25447559 315.66746712 386.25447559 C315.66746712 381.63447559 315.66746712 377.01447559 315.66746712 372.25447559 C314.11564893 372.25631918 312.56383074 372.25816277 310.96498775 372.26006222 C274.14458008 372.30335912 237.32417595 372.33634721 200.50374814 372.35660625 C195.97376705 372.35910773 191.44378602 372.36169636 186.91380501 372.36433887 C186.0119509 372.3648635 185.11009679 372.36538812 184.18091377 372.36592864 C169.56993346 372.37463601 154.95896886 372.39040781 140.34799788 372.40878119 C125.36062025 372.42747099 110.37325086 372.43859037 95.38586205 372.44265258 C86.13463079 372.44539955 76.88344391 372.45408192 67.63222631 372.47030853 C61.29204494 372.48086406 54.95188658 372.48407947 48.61169706 372.48147835 C44.95139053 372.48019482 41.29116169 372.48219016 37.63086891 372.49288654 C33.6651595 372.50439102 29.6995519 372.50046083 25.73382759 372.49498463 C24.57332541 372.50081031 23.41282323 372.50663599 22.21715432 372.51263821 C21.15521362 372.50865611 20.09327291 372.50467402 18.99915218 372.50057125 C17.62589361 372.50171041 17.62589361 372.50171041 16.22489244 372.50287259 C12.34011278 372.12555264 9.67555016 371.25414754 6.87856233 368.48049682 C5.3602251 365.6897576 5.29149653 363.81100605 5.2899437 360.63813591 C5.28212045 359.48721807 5.27429721 358.33630022 5.2662369 357.15050608 C5.27292907 355.88544605 5.27962123 354.62038603 5.28651619 353.31699085 C5.28306028 351.96003894 5.27829616 350.60308983 5.27233446 349.24614662 C5.25978535 345.51364315 5.2660125 341.78136913 5.27529311 338.04886472 C5.28206738 334.0249276 5.27161041 330.00103055 5.26335335 325.97710133 C5.24999608 318.09248488 5.25290271 310.20795399 5.26159127 302.32333416 C5.26836006 295.91614195 5.26928803 289.50897375 5.26601982 283.10177898 C5.26556012 282.19067071 5.26510042 281.27956244 5.26462679 280.34084482 C5.26366764 278.49006661 5.262695 276.6392884 5.26170902 274.7885102 C5.25314916 257.42321765 5.26299834 240.05797257 5.27911012 222.6926878 C5.29251159 207.78707179 5.29018777 192.88152588 5.27635384 177.97591114 C5.26030465 160.67528867 5.25397557 143.37470785 5.26319063 126.07407898 C5.26414629 124.22971531 5.26508941 122.38535164 5.26601982 120.54098797 C5.26648265 119.6334792 5.26694547 118.72597044 5.26742233 117.7909614 C5.27001437 111.3907386 5.26563656 104.99054217 5.25858116 98.59032345 C5.25017321 90.79153809 5.25243133 82.99284334 5.26842339 75.19406838 C5.27631598 71.21372169 5.27938099 67.23352613 5.26947594 63.2531805 C5.26054872 59.61072339 5.26542904 55.96855777 5.28140859 52.32612716 C5.28635706 50.38148067 5.27654214 48.436814 5.2662369 46.49218851 C5.27406014 45.33866292 5.28188339 44.18513733 5.2899437 42.99665642 C5.29043075 42.0012994 5.29091781 41.00594238 5.29141963 39.98042303 C5.73558229 36.76071248 6.7669685 34.86965748 8.66746712 32.25447559 C11.61012914 30.78314458 14.57954461 31.11492539 17.80526733 31.12304783 C18.92632304 31.11996888 18.92632304 31.11996888 20.07002634 31.11682773 C22.60039673 31.11112659 25.13071322 31.11261879 27.66108894 31.1140337 C29.48312669 31.11145185 31.30516386 31.1084392 33.12720025 31.1050303 C38.15445755 31.09693595 43.18170059 31.09516938 48.20896363 31.09443283 C53.62282907 31.09258651 59.03668703 31.08504136 64.45054817 31.07829762 C76.29742693 31.06469687 88.14430231 31.05868697 99.99118757 31.05428696 C107.38276396 31.05152768 114.77433903 31.04729094 122.16591454 31.04278278 C142.61507968 31.03058824 163.06424377 31.02028903 183.51341248 31.01690769 C184.82302016 31.01668813 186.13262784 31.01646856 187.48192061 31.01624234 C188.79472958 31.01602406 190.10753855 31.01580578 191.46012962 31.01558089 C194.12055071 31.01513742 196.78097181 31.01469086 199.4413929 31.01424122 C200.76106438 31.01401979 202.08073587 31.01379836 203.4403974 31.01357022 C224.83531997 31.00975307 246.23020785 30.99216072 267.62511729 30.9688817 C289.5700421 30.94519614 311.51494982 30.93270713 333.45988762 30.93153977 C345.78963709 30.93062148 358.11934222 30.92483038 370.44907951 30.90672016 C380.94591456 30.8913569 391.44269158 30.88617633 401.93953572 30.89445826 C407.29894409 30.89837809 412.65823548 30.8973705 418.01762962 30.88340092 C422.91898139 30.87074161 427.82012732 30.87178878 432.72147848 30.88399163 C434.49940736 30.88596254 436.27735044 30.88280659 438.05525933 30.87414727 C440.46308821 30.86315771 442.87017737 30.87046849 445.27798462 30.8825388 C446.32504602 30.87114601 446.32504602 30.87114601 447.39326018 30.85952306 C450.3958075 30.89224985 452.4219361 31.1177852 455.06680977 32.59022164 C458.54486616 36.20646662 457.81295757 40.86396276 457.80790901 45.55400562 C457.8123657 46.83887778 457.8123657 46.83887778 457.81691241 48.14970696 C457.82561026 51.03083104 457.82710857 53.91191363 457.82859993 56.79304981 C457.83322729 58.85431984 457.83825183 60.91558902 457.8436451 62.97685719 C457.85677791 68.58427412 457.86321562 74.19167907 457.86765575 79.79910898 C457.87058469 83.30028635 457.87468913 86.80146043 457.87915993 90.30263615 C457.89283637 101.25099322 457.90250265 112.19934279 457.90636182 123.14770782 C457.91084491 135.79746825 457.92840387 148.44712076 457.95736241 161.09684837 C457.97895603 170.86760903 457.98906484 180.63833927 457.99040294 190.40912354 C457.99145251 196.24825029 457.99739279 202.08727561 458.01522255 207.9263773 C458.0316634 213.41747704 458.03387813 218.90839866 458.02508354 224.3995142 C458.02431106 226.41634313 458.02868352 228.43318148 458.03854179 230.44998646 C458.05119959 233.20053096 458.04541816 235.95043868 458.03495979 238.70097828 C458.0470444 239.90171114 458.0470444 239.90171114 458.05937314 241.12670124 C458.01888295 245.67116108 457.51346258 248.6519174 454.66746712 252.25447559 C451.77885002 253.69878414 449.87099011 253.63136065 446.66746712 253.25447559 C445.01746712 251.60447559 443.36746712 249.95447559 441.66746712 248.25447559 C441.66746712 181.92447559 441.66746712 115.59447559 441.66746712 47.25447559 C303.06746712 47.25447559 164.46746712 47.25447559 21.66746712 47.25447559 C21.66746712 149.22447559 21.66746712 251.19447559 21.66746712 356.25447559 C118.68746712 356.25447559 215.70746712 356.25447559 315.66746712 356.25447559 C315.66746712 345.36447559 315.66746712 334.47447559 315.66746712 323.25447559 C314.67746712 323.58447559 313.68746712 323.91447559 312.66746712 324.25447559 C306.18031021 324.62873465 300.88747319 324.17848086 295.85496712 319.81697559 C292.85049692 316.29745337 291.20257945 313.84115271 290.66746712 309.25447559 C290.85360204 307.31219812 291.04066969 305.36998108 291.24022102 303.42903614 C291.71951092 297.54882249 291.80054945 293.06372122 287.84715462 288.39119434 C285.08546555 285.5562137 282.08522328 283.04193423 279.04979134 280.50838184 C276.43600207 278.13741369 275.77774808 276.10338254 275.33152962 272.66853809 C275.22738513 265.23262165 276.38097501 261.69305888 281.60887337 256.22322559 C287.06303892 250.67865951 287.06303892 250.67865951 289.40965462 249.03181934 C291.53536738 246.02809479 290.88995097 242.53619469 290.72996712 239.00447559 C290.44673557 232.09844685 290.34378738 226.0062016 295.04246712 220.44197559 C298.69240338 217.40036204 301.49925631 216.0503296 306.22996712 215.62947559 C307.55254524 215.49412403 307.55254524 215.49412403 308.90184212 215.35603809 C311.66746712 215.25447559 311.66746712 215.25447559 314.30809212 215.65291309 C318.16264435 216.16009102 321.0877843 216.41388421 324.35594368 214.01521778 C327.90804978 210.81851974 331.10319123 207.31470452 334.19456673 203.67488575 C337.45329919 200.53228581 340.61797369 199.94144329 345.04246712 199.87947559 C352.88765633 200.05635652 356.78658926 204.1450819 362.05418587 209.47322559 C363.66746712 211.25447559 363.66746712 211.25447559 364.89402962 213.46541309 C366.66310548 215.63373523 366.66310548 215.63373523 370.17918587 215.57478809 C371.57177512 215.52585206 372.96384312 215.45993417 374.35496712 215.37947559 C388.06938803 215.00745011 388.06938803 215.00745011 394.04246712 219.62947559 C396.92954311 222.51655159 398.56523558 224.42422002 398.79588509 228.55354786 C398.75092903 229.38426807 398.70597298 230.21498829 398.65965462 231.07088184 C397.91776757 242.20303319 397.91776757 242.20303319 402.29246712 251.93806934 C404.35593477 253.88372436 406.44693408 255.39087162 408.78465462 257.03572559 C412.58051914 259.95720398 414.26324338 262.87668893 415.06590462 267.59822559 C414.98536474 275.00789421 412.92246468 279.12377511 407.72996712 284.44197559 C405.73991671 286.38601328 403.93224019 288.08931981 401.56956673 289.56306934 C399.46743098 291.0960238 399.46743098 291.0960238 399.18504524 293.51936817 C399.19181282 294.82103931 399.19181282 294.82103931 399.19871712 296.14900684 C399.18453743 297.10484669 399.17035774 298.06068653 399.15574837 299.04549122 C399.16351542 301.04809556 399.17132738 303.05069973 399.17918587 305.05330372 C399.08916208 311.14627709 398.65140407 314.56346586 394.66746712 319.25447559 C394.25496712 319.83197559 393.84246712 320.40947559 393.41746712 321.00447559 C387.53853892 325.20371002 381.53726702 324.01778669 374.66746712 323.25447559 C374.66746712 334.14447559 374.66746712 345.03447559 374.66746712 356.25447559 C396.77746712 356.25447559 418.88746712 356.25447559 441.66746712 356.25447559 C441.6094593 350.97060841 441.55145149 345.68674122 441.49168587 340.24275684 C441.46613473 336.89311673 441.44206512 333.54359694 441.42332649 330.19392872 C441.39344909 324.87832624 441.35812438 319.56315482 441.29026985 314.2478838 C441.23589932 309.96198463 441.2060361 305.67654776 441.1930809 301.39033031 C441.18384996 299.7560209 441.16582357 298.1217365 441.13881683 296.48762417 C441.10245697 294.19621937 441.09752429 291.90671867 441.09984016 289.6150713 C441.08873711 288.3115723 441.07763405 287.00807331 441.06619453 285.66507435 C441.82304865 281.37197037 443.27177929 279.90258497 446.66746712 277.25447559 C450.17159331 276.68237336 451.89151196 276.81406861 454.97996712 278.56697559 C458.47537015 282.06237863 457.82807962 286.51790164 457.84446907 291.13484669 C457.85104027 291.93679966 457.85761147 292.73875263 457.86438179 293.56500721 C457.88409553 296.21931013 457.89577189 298.87355657 457.90574837 301.52791309 C457.90982389 302.43462379 457.91389942 303.3413345 457.91809845 304.27552128 C457.93894904 309.07286571 457.95325623 313.8701816 457.96263313 318.66756153 C457.97370716 323.62313867 458.0081213 328.57826798 458.04780483 333.53368664 C458.07393962 337.34439909 458.08232207 341.15500419 458.08591461 344.96579838 C458.09078718 346.79264959 458.10242022 348.61949579 458.12095261 350.4462595 C458.14528206 353.00297394 458.14439089 355.55852085 458.13743782 358.11531544 C458.15665291 359.24544811 458.15665291 359.24544811 458.17625618 360.39841175 C458.14073372 363.98406787 457.756434 366.10716866 455.88809395 369.2006731 C451.81984065 372.96329933 447.64236548 372.39581257 442.32859993 372.36800098 C441.23044708 372.36822002 441.23044708 372.36822002 440.11010933 372.36844349 C437.6969065 372.36774836 435.28378142 372.35997467 432.87059212 372.35213184 C431.19479095 372.35026625 429.51898924 372.34884301 427.84318733 372.34784412 C423.43732886 372.34403012 419.03150346 372.33420936 414.62565804 372.32314014 C410.1278802 372.31290203 405.630097 372.30834136 401.13231087 372.30330372 C392.31067943 372.29258609 383.4890812 372.27499832 374.66746712 372.25447559 C374.66746712 376.87447559 374.66746712 381.49447559 374.66746712 386.25447559 C406.67746712 386.25447559 438.68746712 386.25447559 471.66746712 386.25447559 C471.68949475 339.53488769 471.70796575 292.81530466 471.71853245 246.09571306 C471.71978322 240.58548285 471.72107753 235.07525266 471.72239876 229.56502247 C471.72266107 228.46799147 471.72292338 227.37096047 471.72319364 226.2406861 C471.72755011 208.45585451 471.73543753 190.67102613 471.74461991 172.88619645 C471.7539571 154.65004688 471.75952286 136.413899 471.76155561 118.17774713 C471.7629307 106.91658803 471.76728056 95.65543803 471.77538358 84.39428173 C471.78065184 76.68190846 471.78227123 68.96953991 471.78096849 61.25716497 C471.78032524 56.80132465 471.78134123 52.34550026 471.78667259 47.88966274 C471.79151117 43.81615197 471.79180271 39.74266797 471.78836601 35.669156 C471.78794077 34.18999103 471.78923265 32.71082445 471.7923503 31.23166271 C471.79632267 29.23182774 471.79361991 27.23198276 471.79051495 25.23214626 C471.79089467 24.11804681 471.79127439 23.00394737 471.79166561 21.85608733 C471.84382959 19.2704886 471.84382959 19.2704886 470.66746712 17.25447559 C312.92746712 17.25447559 155.18746712 17.25447559 -7.33253288 17.25447559 C-8.71810591 20.02562165 -8.46489922 22.28392656 -8.47437859 25.38484669 C-8.48141304 26.67313374 -8.48844749 27.96142078 -8.49569511 29.28874683 C-8.49751101 29.97932556 -8.4993269 30.66990429 -8.50119781 31.38140965 C-8.50836045 33.54188474 -8.52402509 35.70213234 -8.5425396 37.86253834 C-8.59501986 44.00552219 -8.64299021 50.14838174 -8.65846062 56.29158497 C-8.66854206 60.04832693 -8.69786932 63.80449714 -8.73978043 67.56101322 C-8.75209323 68.99228179 -8.75721115 70.42363111 -8.75498199 71.8549509 C-8.7526295 73.85846699 -8.77698418 75.8619605 -8.80250359 77.86531544 C-8.80836983 79.0051186 -8.81423607 80.14492176 -8.82028008 81.31926441 C-9.44655787 84.90783932 -10.44091804 86.0954091 -13.33253288 88.25447559 C-17.18394895 88.80467789 -19.32547841 88.98946905 -22.51893425 86.65874195 C-24.9661898 83.41444408 -24.83983571 81.32899264 -24.85011101 77.28621387 C-24.85712029 76.59301044 -24.86412956 75.89980701 -24.87135124 75.18559742 C-24.88892919 72.89825112 -24.87730797 70.6121466 -24.86378288 68.32478809 C-24.8664785 66.73061861 -24.87036151 65.13645074 -24.87537956 63.54228687 C-24.88127481 60.2015616 -24.87271353 56.86126435 -24.85401726 53.52058887 C-24.83126419 49.24768385 -24.84432668 44.97578586 -24.86830711 40.70291805 C-24.88279632 37.41023207 -24.87814429 34.11778276 -24.86779594 30.82508945 C-24.86513533 29.25029219 -24.86837496 27.67547315 -24.87771416 26.10070133 C-24.88792776 23.89373553 -24.87231314 21.68837341 -24.85011101 19.48152637 C-24.84692863 18.2278426 -24.84374626 16.97415882 -24.84046745 15.68248463 C-24.08540798 10.58664979 -21.64916014 7.53551833 -18.02003288 4.00447559 C-12.42060982 0.35833964 -6.52090802 -0.03827013 0 0 Z M343.21434212 217.60994434 C342.62137337 218.21451466 342.02840462 218.81908497 341.41746712 219.44197559 C340.78453743 220.08006153 340.15160774 220.71814747 339.49949837 221.37556934 C338.0142065 222.89886441 336.55538055 224.44793435 335.10496712 226.00447559 C329.35091214 231.31591096 324.3098183 231.6390692 316.85496712 231.37947559 C315.14022146 231.33632137 313.42537236 231.29704129 311.71043587 231.26228809 C310.58157967 231.22579151 310.58157967 231.22579151 309.42991829 231.18855762 C307.63978163 231.05543292 307.63978163 231.05543292 306.66746712 232.25447559 C306.67506088 235.93745044 306.74512294 239.60941654 306.88231087 243.28963184 C307.00206804 249.91982447 305.99340562 254.67009948 301.41746712 259.75447559 C300.50996712 260.57947559 299.60246712 261.40447559 298.66746712 262.25447559 C297.39133871 263.5199917 296.12067618 264.79103857 294.85496712 266.06697559 C293.79246712 267.12947559 292.72996712 268.19197559 291.66746712 269.25447559 C292.57548332 270.38646913 293.49430537 271.50979922 294.41746712 272.62947559 C294.92793587 273.25595997 295.43840462 273.88244434 295.96434212 274.52791309 C297.75554894 276.34376955 299.38099265 277.1759499 301.66746712 278.25447559 C302.72996712 279.94197559 302.72996712 279.94197559 303.66746712 282.25447559 C304.17793587 283.25220997 304.68840462 284.24994434 305.21434212 285.27791309 C307.18648107 289.8711964 307.00098815 294.2684458 306.85496712 299.19197559 C306.84143196 300.0666045 306.8278968 300.94123341 306.81395149 301.84236622 C306.77890821 303.98000646 306.72511253 306.11732543 306.66746712 308.25447559 C307.95781868 308.21967091 309.24817024 308.18486622 310.57762337 308.14900684 C312.29505818 308.12085217 314.01250718 308.09355382 315.72996712 308.06697559 C316.57752571 308.04183887 317.4250843 308.01670216 318.29832649 307.99080372 C325.18095159 307.91108219 329.81001923 308.83528659 335.21434212 313.41072559 C335.94137337 314.18416309 336.66840462 314.95760059 337.41746712 315.75447559 C338.15481087 316.52791309 338.89215462 317.30135059 339.65184212 318.09822559 C340.31699837 318.80978809 340.98215462 319.52135059 341.66746712 320.25447559 C342.66305217 321.25887113 343.6611181 322.26086518 344.66746712 323.25447559 C347.99570729 320.53391973 351.11704745 317.95059458 353.79246712 314.56697559 C356.77464229 310.88895954 360.09036631 309.18099496 364.66746712 308.25447559 C366.10845142 308.17681476 367.5525534 308.14651192 368.99559212 308.15681934 C370.19442024 308.16165333 370.19442024 308.16165333 371.41746712 308.16658497 C372.65496712 308.17915333 372.65496712 308.17915333 373.91746712 308.19197559 C374.75793587 308.19648731 375.59840462 308.20099903 376.46434212 308.20564747 C378.53208113 308.21739599 380.59978336 308.23533037 382.66746712 308.25447559 C382.67681282 307.69051075 382.68615852 307.12654591 382.69578743 306.54549122 C382.75004198 303.94765567 382.83357395 301.3515164 382.91746712 298.75447559 C382.9316468 297.86760059 382.94582649 296.98072559 382.96043587 296.06697559 C383.23972021 288.47044141 384.9499821 282.69900772 390.46434212 277.28572559 C391.43887337 276.45041309 392.41340462 275.61510059 393.41746712 274.75447559 C394.40231087 273.89853809 395.38715462 273.04260059 396.40184212 272.16072559 C397.14949837 271.53166309 397.89715462 270.90260059 398.66746712 270.25447559 C395.51927259 266.24768256 392.41620352 263.0731109 388.31590462 260.03963184 C383.22344522 254.52481207 383.15922937 247.93112599 382.97996712 240.81697559 C382.94580696 239.89465137 382.9116468 238.97232716 382.87645149 238.02205372 C382.79463717 235.76631609 382.7252759 233.5109344 382.66746712 231.25447559 C381.38871712 231.30088184 380.10996712 231.34728809 378.79246712 231.39510059 C377.08415733 231.43264586 375.37582203 231.46904305 373.66746712 231.50447559 C372.40869759 231.55474903 372.40869759 231.55474903 371.12449837 231.60603809 C364.38159518 231.71057923 359.2636773 230.42606204 354.12498665 225.89412403 C352.76413932 224.48885452 351.49505767 222.99653247 350.22996712 221.50447559 C348.72091875 219.74430315 347.20351427 217.99113709 345.66746712 216.25447559 C344.45814637 216.14079091 344.45814637 216.14079091 343.21434212 217.60994434 Z M352.66746712 337.25447559 C348.73057034 339.22292398 343.95793937 338.72043661 339.66746712 338.25447559 C337.2700091 337.17585499 335.72325939 335.94127951 333.66746712 334.25447559 C333.00746712 334.25447559 332.34746712 334.25447559 331.66746712 334.25447559 C331.66746712 363.62447559 331.66746712 392.99447559 331.66746712 423.25447559 C334.63746712 421.93447559 337.60746712 420.61447559 340.66746712 419.25447559 C348.20327648 418.29754742 350.90409746 420.14912773 358.66746712 423.25447559 C358.66746712 393.55447559 358.66746712 363.85447559 358.66746712 333.25447559 C356.50394724 333.25447559 354.2751756 335.96046632 352.66746712 337.25447559 Z " fill="#854CCE" transform="translate(24.33253288269043,33.745524406433105)"/>
<path d="M0 0 C1.11757624 -0.00384115 2.23515247 -0.00768229 3.38659465 -0.01163983 C5.23602615 -0.01034011 5.23602615 -0.01034011 7.1228199 -0.00901413 C9.0814782 -0.01347081 9.0814782 -0.01347081 11.07970536 -0.01801753 C14.71178179 -0.02609641 18.34383847 -0.02787759 21.97592282 -0.028615 C25.89011813 -0.03046398 29.80430314 -0.03801048 33.71849251 -0.04475021 C42.28035958 -0.05833982 50.84222197 -0.06435908 59.40409803 -0.06876087 C64.74788163 -0.07152193 70.09166341 -0.075759 75.43544579 -0.08026505 C90.22464764 -0.09245796 105.01384804 -0.1027576 119.80305481 -0.10614014 C121.22321345 -0.10646949 121.22321345 -0.10646949 122.67206217 -0.10680549 C123.62112393 -0.10702377 124.57018569 -0.10724204 125.54800689 -0.10746694 C127.47122947 -0.10791041 129.39445206 -0.10835697 131.31767464 -0.10880661 C132.27166331 -0.10902804 133.22565198 -0.10924947 134.2085494 -0.10947761 C149.67293388 -0.11342718 165.13727129 -0.13088593 180.60163759 -0.15416613 C196.47052273 -0.17786294 212.33938423 -0.19034121 228.20828736 -0.19150805 C237.12142254 -0.1924257 246.03449636 -0.19820047 254.94761467 -0.21632767 C262.5359758 -0.23170605 270.12425663 -0.23686249 277.71263038 -0.22858956 C281.5856408 -0.22467516 285.45848938 -0.22565101 289.33148003 -0.23964691 C293.52701833 -0.25467007 297.72218981 -0.24654292 301.91774178 -0.23606491 C303.14623466 -0.24412132 304.37472755 -0.25217772 305.6404475 -0.26047826 C307.32463509 -0.25059349 307.32463509 -0.25059349 309.04284668 -0.24050903 C310.01140591 -0.24110612 310.97996513 -0.24170321 311.97787464 -0.24231839 C315.18948942 0.20734567 317.04122713 1.22477528 319.64726448 3.13142776 C321.64726448 6.13142776 321.64726448 6.13142776 321.45976448 9.63142776 C320.42027409 14.10923254 320.42027409 14.10923254 317.64726448 16.13142776 C315.18895012 16.50977659 315.18895012 16.50977659 312.19803143 16.51453781 C311.05893812 16.52359445 309.91984481 16.53265109 308.74623352 16.54198217 C306.86076031 16.53399029 306.86076031 16.53399029 304.93719673 16.52583694 C303.59276822 16.53072329 302.24834391 16.53691191 300.90392679 16.54429483 C297.20145148 16.56075019 293.49918832 16.55836516 289.79668915 16.55291986 C285.80682623 16.55025653 281.81702075 16.5647683 277.82718086 16.57701492 C270.00761164 16.59810048 262.18811652 16.602608 254.36852223 16.60082704 C248.01468985 16.59952101 241.66088064 16.60331538 235.30705261 16.61075211 C233.47901406 16.61285123 231.65097551 16.61494883 229.82293695 16.61704493 C228.91316099 16.61808845 228.00338502 16.61913198 227.06604009 16.62020713 C209.84814845 16.63912201 192.63029939 16.63805544 175.41240167 16.6312378 C159.64983634 16.62566104 143.88743348 16.64649124 128.12490613 16.67959827 C111.95204033 16.71330436 95.77925243 16.72850748 79.60635084 16.72388124 C70.52162711 16.72163347 61.43705357 16.7269245 52.35235977 16.75177383 C44.61862496 16.77274722 36.88512268 16.77641854 29.15137846 16.75747424 C25.20346183 16.74829184 21.25597921 16.7472491 17.30809593 16.7678299 C13.69632326 16.78645071 10.0853427 16.78213823 6.47360104 16.75928408 C4.54306166 16.75307662 2.61249213 16.77156171 0.68203884 16.7908206 C-0.45966221 16.77901526 -1.60136327 16.76720992 -2.77766132 16.75504684 C-3.76482685 16.75531923 -4.75199237 16.75559161 -5.769072 16.75587225 C-9.37920297 15.8833413 -10.44654646 14.24073046 -12.35273552 11.13142776 C-12.29096036 7.54846866 -12.12113716 5.17924818 -9.97773552 2.25642776 C-6.73952595 0.01459037 -3.80463841 0.00489806 0 0 Z " fill="#854CCE" transform="translate(101.35273551940918,172.86857223510742)"/>
<path d="M0 0 C0.92798053 -0.00905664 1.85596105 -0.01811328 2.8120622 -0.02744436 C3.82810154 -0.02211644 4.84414087 -0.01678851 5.89096928 -0.01129913 C6.97300052 -0.01739024 8.05503177 -0.02348134 9.16985184 -0.02975702 C12.80804012 -0.04645181 16.4458809 -0.04160187 20.08409977 -0.03681183 C22.68738515 -0.04414835 25.29066726 -0.05273335 27.89394474 -0.06247711 C34.23849202 -0.08354266 40.58294794 -0.08807134 46.92752605 -0.08628923 C52.08376874 -0.08498222 57.23998289 -0.08878259 62.39622021 -0.09621429 C63.88078262 -0.09831346 65.36534504 -0.10041106 66.84990746 -0.10250711 C67.58878593 -0.10355064 68.32766439 -0.10459417 69.08893312 -0.10566932 C83.06637434 -0.12457606 97.04376309 -0.1235201 111.02121181 -0.11669999 C123.81168463 -0.11112357 136.6019572 -0.13195331 149.39238321 -0.16506046 C162.52216535 -0.19878255 175.65185152 -0.2139677 188.78167778 -0.20934343 C196.15448029 -0.20709731 203.52709769 -0.21236263 210.89986324 -0.23723602 C217.83152273 -0.26042195 224.76275804 -0.25768449 231.69442463 -0.2373085 C234.24178419 -0.23388587 236.7891715 -0.23904098 239.33649349 -0.25329208 C242.8076191 -0.27137493 246.27731028 -0.2588153 249.74839115 -0.23834991 C251.26910407 -0.25712669 251.26910407 -0.25712669 252.82053846 -0.27628279 C257.48537152 -0.21710524 259.69183783 -0.12201544 263.54784584 2.69538879 C265.38317204 5.38311005 265.38317204 5.38311005 265.38317204 9.00811005 C264.43773444 12.19896191 264.01945756 13.48498447 261.38317204 15.38311005 C259.03577055 16.55681079 257.65735401 16.50942905 255.04088116 16.5117445 C254.12323282 16.51496895 253.20558448 16.51819339 252.26012862 16.52151555 C251.24536338 16.51996695 250.23059814 16.51841834 249.18508244 16.51682281 C248.11222158 16.51908837 247.03936072 16.52135393 245.93398893 16.52368814 C242.31498844 16.53005202 238.69602518 16.52919725 235.07701969 16.52837372 C232.49211421 16.53136372 229.90720917 16.53476588 227.32230473 16.53855133 C221.01526967 16.54686927 214.70824396 16.54960669 208.40120389 16.55016371 C203.27590251 16.55063835 198.15060423 16.55269051 193.02530384 16.55586433 C178.50361125 16.56467422 163.98192606 16.56928322 149.46023078 16.56853386 C148.67683265 16.5684939 147.89343451 16.56845395 147.08629704 16.56841278 C146.30194559 16.5683719 145.51759415 16.56833102 144.70947449 16.5682889 C131.9958669 16.56788239 119.28228892 16.57745232 106.5686899 16.59155115 C93.523742 16.6059036 80.47880855 16.61282195 67.43385255 16.61195737 C60.10638547 16.611625 52.77894943 16.61438967 45.45148945 16.62513542 C38.56183701 16.63517412 31.67225126 16.63491663 24.78259563 16.62761879 C22.24933305 16.62656913 19.71606643 16.62895827 17.18281078 16.63497925 C13.73353846 16.64264838 10.28449597 16.63808809 6.83522892 16.63034821 C5.82492512 16.63549177 4.81462133 16.64063533 3.77370226 16.64593476 C2.85083843 16.64133596 1.9279746 16.63673717 0.9771452 16.63199902 C0.18081665 16.63221638 -0.6155119 16.63243375 -1.43597162 16.63265771 C-3.90445675 16.3501977 -5.50102831 15.66787676 -7.61682796 14.38311005 C-9.69841816 11.70677979 -9.61270387 10.26557337 -9.49182796 6.82061005 C-8.61682796 3.38311005 -8.61682796 3.38311005 -6.85069221 1.69221067 C-4.31324171 0.20520087 -2.91850435 0.00572638 0 0 Z " fill="#844DCE" transform="translate(98.61682796478271,127.61688995361328)"/>
<path d="M0 0 C3.32100499 2.34605584 3.96971195 3.87328713 4.92553711 7.87207031 C5.14242303 9.43858685 5.3419655 11.00756827 5.52734375 12.578125 C5.64300186 13.42236023 5.75865997 14.26659546 5.87782288 15.13641357 C6.2470691 17.83908888 6.59452771 20.54387379 6.9375 23.25 C9.47430148 44.30377695 9.47430148 44.30377695 17 64 C19.55492549 63.63191751 20.69686977 63.3771504 22.34375 61.328125 C22.7253125 60.64234375 23.106875 59.9565625 23.5 59.25 C24.13808594 58.17298828 24.13808594 58.17298828 24.7890625 57.07421875 C25.18867188 56.38972656 25.58828125 55.70523438 26 55 C28.37388986 51.28090589 29.18897966 50.21723759 33.5 49.0625 C37.02200642 48.99960703 38.18035934 49.06866077 41 51 C42.265625 53.3125 42.265625 53.3125 43.25 56 C43.58515625 56.886875 43.9203125 57.77375 44.265625 58.6875 C45 61 45 61 45 63 C48.19771889 64.0659063 50.51522244 64.13721109 53.87670898 64.15771484 C55.08483749 64.16797699 56.292966 64.17823914 57.53770447 64.18881226 C58.84397293 64.19611359 60.15024139 64.20341492 61.49609375 64.2109375 C62.8498669 64.22390261 64.20363214 64.23771886 65.55738831 64.25234985 C71.30519572 64.31389894 77.05297955 64.36802511 82.80102539 64.40136719 C86.31895555 64.42232127 89.83649652 64.4576265 93.35420418 64.50212479 C95.34383516 64.52314946 97.33361312 64.52833215 99.323349 64.53329468 C100.53462967 64.54986115 101.74591034 64.56642761 102.99389648 64.58349609 C104.05962387 64.59158295 105.12535126 64.5996698 106.22337341 64.60800171 C109.37415275 65.0528221 110.74300287 65.78787233 113 68 C114.27660161 71.82980483 114.18425101 73.53498554 112.6875 77.3125 C111 80 111 80 109 81 C107.0769912 81.10659126 105.15028669 81.14884103 103.22436523 81.16113281 C102.0122789 81.17074036 100.80019257 81.1803479 99.55137634 81.19024658 C97.57494896 81.1966214 97.57494896 81.1966214 95.55859375 81.203125 C94.19295755 81.20887977 92.82732136 81.21463746 91.46168518 81.22039795 C88.59253565 81.23091348 85.72341415 81.23675117 82.85424805 81.24023438 C79.19831584 81.24569205 75.54276119 81.26965834 71.88694668 81.29820633 C69.06172149 81.3169496 66.23658464 81.32204467 63.41130257 81.32357025 C61.41457414 81.32802793 59.41789322 81.34662652 57.42124939 81.36553955 C48.18250922 81.34307361 40.75696235 80.25471643 33 75 C32.52949219 75.34933594 32.05898437 75.69867188 31.57421875 76.05859375 C30.95160156 76.51363281 30.32898438 76.96867187 29.6875 77.4375 C29.07261719 77.88996094 28.45773438 78.34242188 27.82421875 78.80859375 C23.30219852 81.76194743 18.19942036 81.56893353 13 81 C6.29170557 78.67108269 2.83251268 73.77734212 -0.25 67.6875 C-0.83934683 66.46120526 -1.42480568 65.23299634 -2 64 C-2.37125 65.134375 -2.7425 66.26875 -3.125 67.4375 C-3.74820318 69.29227137 -4.3735957 71.14630728 -5 73 C-5.22526367 73.67530762 -5.45052734 74.35061523 -5.68261719 75.04638672 C-6.44591351 77.32579907 -7.22204526 79.60055285 -8 81.875 C-8.2489502 82.62450928 -8.49790039 83.37401855 -8.75439453 84.14624023 C-10.01779602 87.80365104 -11.02725331 90.49181867 -14 93 C-17.07131211 93.67874301 -19.91356611 93.57176743 -23 93 C-25.6875 91.0625 -25.6875 91.0625 -27 88 C-26.42213904 82.60956662 -24.53668205 77.31602182 -22.89379883 72.16918945 C-18.43291114 58.13205509 -15.45290811 44.16068301 -14.23046875 29.4765625 C-14.13666679 28.36111305 -14.13666679 28.36111305 -14.04096985 27.22312927 C-13.73299084 23.48985589 -13.45360957 19.75709037 -13.21411133 16.01879883 C-13.11173993 14.63621201 -13.00913017 13.25364281 -12.90625 11.87109375 C-12.82697266 10.64318115 -12.74769531 9.41526855 -12.66601562 8.15014648 C-11.89635486 4.50977519 -10.88306553 3.27630138 -8 1 C-5.15916359 -0.42041821 -3.14522722 -0.31452272 0 0 Z " fill="#854CCE" transform="translate(119,266)"/>
<path d="M0 0 C0.76251088 -0.00367669 1.52502176 -0.00735338 2.31063902 -0.01114148 C4.87935078 -0.02220165 7.44802212 -0.02602607 10.01675415 -0.02983093 C11.8529015 -0.03609373 13.68904758 -0.04274036 15.52519226 -0.04974365 C20.52311248 -0.0671683 25.52102312 -0.07770899 30.5189662 -0.08594918 C33.63904583 -0.09109529 36.75912246 -0.09717114 39.87919998 -0.10346031 C49.63420918 -0.12251483 59.38921078 -0.13674649 69.14423501 -0.14507228 C80.41814455 -0.15485246 91.69185814 -0.18119126 102.9656986 -0.22157317 C111.6714636 -0.25169046 120.37717228 -0.2665369 129.08298838 -0.26985329 C134.28665959 -0.27220843 139.49012154 -0.28122918 144.69373703 -0.30631447 C149.58734396 -0.32952411 154.48060279 -0.33385719 159.37425041 -0.32355309 C161.17219765 -0.32305591 162.97016161 -0.32942965 164.76805687 -0.34310913 C167.21924665 -0.36071867 169.66917223 -0.35377692 172.12036133 -0.34057617 C172.83495305 -0.35154542 173.54954478 -0.36251466 174.2857908 -0.37381631 C177.6454953 -0.33001121 179.39966146 -0.07275995 182.10149574 1.99406147 C184.16878091 4.801137 184.61613006 6.66649298 184.68716431 10.14717102 C182.55672952 14.71238841 182.55672952 14.71238841 179.68716431 16.14717102 C177.24030068 16.24908799 174.82164149 16.29056201 172.37432861 16.28761292 C171.61181774 16.29058404 170.84930686 16.29355516 170.06368959 16.29661632 C167.49497359 16.30532498 164.92630408 16.30681338 162.35757446 16.30830383 C160.52142741 16.31293045 158.68528131 16.31795489 156.84913635 16.323349 C151.85121209 16.33648946 146.85330126 16.34292107 141.85536242 16.34735966 C138.73528263 16.35028752 135.61520655 16.35439176 132.49512863 16.35886383 C122.74011712 16.37254263 112.98511404 16.38220761 103.2300936 16.38606572 C91.95621975 16.39054861 80.68246702 16.40810564 69.40863001 16.43706632 C60.70286421 16.45865646 51.99713254 16.46876856 43.29134023 16.47010684 C38.08771005 16.47115672 32.88419366 16.4771033 27.68059158 16.49492645 C22.78702639 16.51136124 17.89366109 16.51358506 13.0000782 16.50478745 C11.20213728 16.50401462 9.40418582 16.50839194 7.60627174 16.5182457 C5.15526313 16.530893 2.70497022 16.52512819 0.25396729 16.5146637 C-0.46062444 16.5227201 -1.17521617 16.53077651 -1.91146219 16.53907704 C-4.94191245 16.508733 -7.04322035 16.29368928 -9.72716713 14.83514023 C-12.26031528 12.13856405 -12.250525 9.7611915 -12.31283569 6.14717102 C-9.43633397 -0.15373751 -6.38227614 -0.00163639 0 0 Z " fill="#854CCE" transform="translate(101.31283569335938,218.8528289794922)"/>
<path d="M0 0 C7.70829835 8.05867554 10.13750329 15.56634096 10.02734375 26.484375 C9.44637718 33.58689591 6.62107177 40.08579497 1.68359375 45.26953125 C-6.07587584 51.71224237 -13.77201203 53.78310914 -23.765625 53.32421875 C-32.18648261 52.23857007 -38.61996113 48.19287167 -44.25 41.875 C-49.50197397 33.61756116 -49.94744418 25.44275539 -49.25 15.875 C-47.47359916 8.74909493 -43.1019782 2.46084971 -37.00390625 -1.6328125 C-24.71890653 -8.69315717 -11.78448679 -7.70524136 0 0 Z M-32.125 16.0625 C-33.73047982 20.07619956 -33.92667379 23.61195511 -33.25 27.875 C-31.05873223 32.25753554 -28.83325461 35.04169816 -24.25 36.875 C-19.54334747 37.58099788 -16.1911873 37.32816426 -11.875 35.25 C-7.92793083 31.67884218 -6.48285828 28.70460078 -5.8125 23.4375 C-6.46866597 18.09443426 -8.32518093 14.57983975 -12.4375 10.9375 C-20.32034688 7.95953562 -26.60299329 9.62015884 -32.125 16.0625 Z " fill="#854CCE" transform="translate(389.25,280.125)"/>
</svg>
