<?xml version="1.0" encoding="UTF-8"?>
<svg version="1.1" xmlns="http://www.w3.org/2000/svg" width="600" height="209">
<path d="M0 0 C4.12494151 -0.05784708 8.24977944 -0.09354407 12.375 -0.125 C13.550625 -0.14175781 14.72625 -0.15851562 15.9375 -0.17578125 C17.61972656 -0.18544922 17.61972656 -0.18544922 19.3359375 -0.1953125 C20.37282715 -0.20578613 21.4097168 -0.21625977 22.47802734 -0.22705078 C25 -0 25 -0 27 2 C29.57061311 2.64767793 29.57061311 2.64767793 32 3 C32 2.34 32 1.68 32 1 C38.37589109 -0.20748147 44.68406472 -0.25815616 51.14794922 -0.29516602 C52.54225836 -0.3066638 53.93652425 -0.32708119 55.33056641 -0.35668945 C63.99982124 -0.54024713 71.20869733 -0.08973763 79 4 C79.71607422 4.35602295 80.43214844 4.7120459 81.16992188 5.07885742 C83.17718481 6.09962292 85.15280162 7.16327844 87.125 8.25 C88.13046875 8.79527344 88.13046875 8.79527344 89.15625 9.3515625 C90.77349249 10.22949414 92.38715718 11.11401168 94 12 C94 12.66 94 13.32 94 14 C94.78375 14.20625 95.5675 14.4125 96.375 14.625 C101.24911629 16.47380273 105.80229506 18.89322403 110 22 C110.33 22.99 110.66 23.98 111 25 C111.66 25.33 112.32 25.66 113 26 C113.99 25.505 113.99 25.505 115 25 C114.67 24.34 114.34 23.68 114 23 C118.75096713 18.66528074 123.6851323 14.58471485 128.75 10.625 C129.58180786 9.96395264 129.58180786 9.96395264 130.43041992 9.28955078 C133.25984786 7.10070772 135.49682614 5.70390877 139 5 C139.33 4.34 139.66 3.68 140 3 C145.75721095 0.08284177 151.75235385 -0.85476995 158 1 C158.33 1.66 158.66 2.32 159 3 C159.99 3.33 160.98 3.66 162 4 C162.80078125 5.7421875 162.80078125 5.7421875 163.3125 7.875 C163.58513672 8.92300781 163.58513672 8.92300781 163.86328125 9.9921875 C164 12 164 12 162 15 C161.62599214 17.32716 161.29235267 19.66117862 161 22 C160.67 22.99 160.34 23.98 160 25 C171.29398741 19.61909501 181.42598217 13.58001184 191.00390625 5.50390625 C193 4 193 4 195 4 C195 3.34 195 2.68 195 2 C196.98 1.34 198.96 0.68 201 0 C201.79860731 5.24799087 200.83129446 7.71978009 197.75 12.0625 C196.50320519 13.71076274 195.25349722 15.35682865 194 17 C193.34 18.0725 192.68 19.145 192 20.25 C189.84848158 23.20833782 187.54712392 25.25842546 184.73046875 27.55859375 C182.79001766 29.13057005 182.79001766 29.13057005 180.375 31.625 C178.02566492 33.97433508 175.70914751 36.0750794 173 38 C172.01 38 171.02 38 170 38 C169.67 38.99 169.34 39.98 169 41 C166.68020619 42.03101947 164.34570085 43.02936517 162 44 C160.9805881 44.98020375 159.97753644 45.97803008 159 47 C156.66894426 48.16552787 154.55021733 48.92963485 151.95922852 49.26098633 C147.36560311 49.91128425 144.6862877 50.7456502 141.78515625 54.4765625 C140.8516689 55.8420011 139.94423517 57.2255843 139.0625 58.625 C137.41366405 61.1175851 135.73365516 63.56399224 134 66 C133.34 66 132.68 66 132 66 C131.93039062 66.55171875 131.86078125 67.1034375 131.7890625 67.671875 C130.68426108 70.93158612 128.73252055 72.7571535 126.375 75.25 C125.53710938 76.14203125 124.69921875 77.0340625 123.8359375 77.953125 C123.37977051 78.43700684 122.92360352 78.92088867 122.45361328 79.41943359 C120.89085303 81.11867945 119.39238855 82.86384801 117.890625 84.6171875 C113.44335675 89.72192012 108.69583431 94.52614817 103.91992188 99.3203125 C102.36383845 100.88623211 100.81874506 102.46251689 99.2734375 104.0390625 C98.27409552 105.04492502 97.27411806 106.05015666 96.2734375 107.0546875 C95.38060059 107.95687012 94.48776367 108.85905273 93.56787109 109.78857422 C91.05962849 111.94864852 89.07378656 112.89101282 86 114 C85.31513275 115.32407669 84.65129797 116.65909241 84 118 C82.11114201 119.92729405 80.19572518 121.38681416 78 123 C77.01 123 76.02 123 75 123 C75 123.66 75 124.32 75 125 C73.948125 125.61875 72.89625 126.2375 71.8125 126.875 C66.47758362 130.53199913 65.07286719 136.11734587 63 142 C62.60554687 143.02996094 62.21109375 144.05992187 61.8046875 145.12109375 C59.68991277 150.41697507 59.68991277 150.41697507 59 156 C58.34 156 57.68 156 57 156 C57.20625 156.5775 57.4125 157.155 57.625 157.75 C58.08979923 160.53879535 57.29883111 161.56469167 56 164 C56.33 164.66 56.66 165.32 57 166 C61.84884416 163.22923191 64.56859481 160.22690873 67.703125 155.609375 C68.13109375 155.07828125 68.5590625 154.5471875 69 154 C69.66 154 70.32 154 71 154 C71.268125 153.278125 71.53625 152.55625 71.8125 151.8125 C72.99901362 149.00233617 74.27485639 146.51583443 76 144 C76.66 144 77.32 144 78 144 C78.10441406 143.27296875 78.20882812 142.5459375 78.31640625 141.796875 C79.06223902 138.74535349 80.16707204 136.82989013 81.9375 134.25 C82.46214844 133.47140625 82.98679687 132.6928125 83.52734375 131.890625 C85 130 85 130 87 129 C87.70151152 127.6846659 88.36525925 126.34882408 89 125 C89.99 123.515 89.99 123.515 91 122 C91.66 122 92.32 122 93 122 C93.08894531 121.18982422 93.08894531 121.18982422 93.1796875 120.36328125 C94.36001481 116.96281447 96.68282769 114.74071672 99.125 112.1875 C99.62563965 111.65560059 100.1262793 111.12370117 100.64208984 110.57568359 C101.63934341 109.51990048 102.64008101 108.46739572 103.64453125 107.41845703 C104.7640905 106.24687215 105.86850873 105.06083877 106.96875 103.87109375 C111.16962646 99.44233955 115.84292228 96.23176871 121 93 C122.2065625 92.1028125 122.2065625 92.1028125 123.4375 91.1875 C127.41263883 89.34536249 131.63152332 88.8508325 136 89 C138.17578125 89.91796875 138.17578125 89.91796875 140 91 C142.85037698 92.58459029 142.85037698 92.58459029 146 93 C146 92.34 146 91.68 146 91 C152.6 91 159.2 91 166 91 C166 92.32 166 93.64 166 95 C166.66 95 167.32 95 168 95 C166.25079291 101.64698693 162.57979777 107.61602587 158.43359375 113.0546875 C157.01084705 114.98528112 156.02916936 116.83794654 155 119 C149.41693584 129.59273253 143.75742263 140.25194477 137.25 150.3125 C134.68083333 154.32736724 132.82117025 158.60477347 131 163 C136.25711477 160.52606364 138.74565804 156.59870488 142 152 C143.56179544 149.94852048 145.13191077 147.90364298 146.703125 145.859375 C148.01667611 143.97609088 149.02616279 142.07629443 150 140 C150.66 140 151.32 140 152 140 C152.33 139.34 152.66 138.68 153 138 C153.66 137.01 154.32 136.02 155 135 C157.875 134.5625 157.875 134.5625 161 135 C163.1953125 137.02734375 163.1953125 137.02734375 165 139 C163.87540329 140.77108948 162.75030797 142.54186236 161.625 144.3125 C160.99851562 145.29863281 160.37203125 146.28476563 159.7265625 147.30078125 C158.50348387 149.21287929 157.2590644 151.1114034 156 153 C155.34 153 154.68 153 154 153 C153.74863281 153.721875 153.49726562 154.44375 153.23828125 155.1875 C147.35734952 168.54482127 131.21013128 183.33851517 118 189 C114.02205425 190.10355914 110.98697393 190.32899131 107 189 C106.33333333 187.66666667 105.66666667 186.33333333 105 185 C104.01 184.67 103.02 184.34 102 184 C101.67 182.35 101.34 180.7 101 179 C100.45730469 179.40992188 99.91460937 179.81984375 99.35546875 180.2421875 C98.64003906 180.78101563 97.92460937 181.31984375 97.1875 181.875 C96.47980469 182.40867188 95.77210938 182.94234375 95.04296875 183.4921875 C90.29015544 187 90.29015544 187 87 187 C87 187.66 87 188.32 87 189 C85.68 188.67 84.36 188.34 83 188 C83 188.66 83 189.32 83 190 C80.36 189.67 77.72 189.34 75 189 C75 188.34 75 187.68 75 187 C74.4225 186.773125 73.845 186.54625 73.25 186.3125 C70.347706 184.61949517 68.81191305 182.81853141 67 180 C67.25 177.6875 67.25 177.6875 68 176 C66.05000871 176.19471111 66.05000871 176.19471111 64 177 C63.57267578 177.91652344 63.57267578 177.91652344 63.13671875 178.8515625 C61.7241262 181.52141097 60.21580765 182.50178399 57.6875 184.125 C56.92824219 184.62257812 56.16898438 185.12015625 55.38671875 185.6328125 C51.06100418 188.11071773 46.96276461 189.46056906 42 190 C41.01 189.67 40.02 189.34 39 189 C39 188.34 39 187.68 39 187 C37.8553125 186.62875 37.8553125 186.62875 36.6875 186.25 C33.63985553 184.83249094 32.71458203 183.85011797 31 181 C30.62768555 178.49804688 30.62768555 178.49804688 30.63671875 175.71875 C30.63768555 174.20861328 30.63768555 174.20861328 30.63867188 172.66796875 C30.6628418 171.09982422 30.6628418 171.09982422 30.6875 169.5 C30.68427734 168.45457031 30.68105469 167.40914062 30.67773438 166.33203125 C30.73655201 157.97992777 30.73655201 157.97992777 33 154 C33.69739487 151.67535045 34.10034081 149.39795514 34.5 147 C34.89713977 144.6171614 35.37282611 142.32950303 36 140 C31.89032794 141.49524016 30.70659554 143.78934532 28.6875 147.5625 C25.5486693 153.16564672 22.04529959 158.0333198 18 163 C17.39542969 163.81210938 16.79085937 164.62421875 16.16796875 165.4609375 C11.19913586 172.03882218 5.58107237 177.05916432 -1 182 C-1.63679688 182.47824219 -2.27359375 182.95648438 -2.9296875 183.44921875 C-5.53193679 185.29409698 -6.73276397 186 -10 186 C-10.33 186.66 -10.66 187.32 -11 188 C-14.87918356 189.31745857 -17.88375865 190 -22 190 C-22 189.34 -22 188.68 -22 188 C-22.99 188.33 -23.98 188.66 -25 189 C-25 188.34 -25 187.68 -25 187 C-25.5775 186.938125 -26.155 186.87625 -26.75 186.8125 C-29.93353478 185.66289022 -31.10585921 183.74323838 -33 181 C-34.17832621 177.46502138 -34.18397309 174.24106929 -34.1875 170.5625 C-34.20167969 169.24378906 -34.21585937 167.92507812 -34.23046875 166.56640625 C-34.01624922 163.25144981 -33.62728914 161.7744968 -32 159 C-31.65458149 156.66842508 -31.32205743 154.33491639 -31 152 C-30.37743972 149.98583438 -29.72433347 147.97984481 -29 146 C-28.34 146 -27.68 146 -27 146 C-26.82984375 145.43152344 -26.6596875 144.86304688 -26.484375 144.27734375 C-24.84932263 139.0677886 -22.86690828 134.64636859 -20 130 C-19.34 130 -18.68 130 -18 130 C-17.78085937 129.14535156 -17.56171875 128.29070312 -17.3359375 127.41015625 C-15.73030504 123.31156812 -13.52995275 120.68263801 -10.625 117.4375 C-9.65830022 116.33251563 -8.69214576 115.22705392 -7.7265625 114.12109375 C-7.02793091 113.32928711 -7.02793091 113.32928711 -6.31518555 112.52148438 C-5.1290146 111.14925172 -3.99636919 109.73118967 -2.87109375 108.30859375 C4.23006506 99.54703873 15.71531133 90.99141565 27 89 C32.25524862 88.61072232 35.54537863 89.129244 40 92 C44.37846538 96.73347608 45.13939808 100.0951443 45.125 106.4375 C45.12757813 107.57058594 45.13015625 108.70367187 45.1328125 109.87109375 C44.93744545 114.47371151 43.67051345 118.00132185 41.9375 122.25 C41.57527344 123.14203125 41.21304688 124.0340625 40.83984375 124.953125 C40.56269531 125.62859375 40.28554688 126.3040625 40 127 C40.66 127.33 41.32 127.66 42 128 C42.20625 127.236875 42.4125 126.47375 42.625 125.6875 C44.22395336 121.39939781 46.33269689 117.58427353 48.55859375 113.59375 C49.5819107 111.75233413 50.55787581 109.88424839 51.5 108 C53.43082724 104.13834552 55.51594742 100.36797339 57.59765625 96.5859375 C58.77778537 94.40976626 59.9097763 92.22217845 61 90 C61.66 90 62.32 90 63 90 C63.34804688 88.74316406 63.34804688 88.74316406 63.703125 87.4609375 C65.2259406 83.39703805 67.29970642 80.18027479 69.75 76.625 C70.20246094 75.95871582 70.65492188 75.29243164 71.12109375 74.60595703 C74.2873243 69.96888084 77.54968779 65.43023382 81 61 C81.82745373 59.92496441 82.6542115 58.84939296 83.48046875 57.7734375 C85.22794986 55.49804513 86.97809272 53.22474903 88.73046875 50.953125 C90.50302341 48.64666833 92.26196451 46.3324776 94 44 C93.34 43.67 92.68 43.34 92 43 C92 42.34 92 41.68 92 41 C91.29101562 40.9175 90.58203125 40.835 89.8515625 40.75 C86.33471521 39.82502099 84.24658278 38.21499498 81.375 36 C77.47062775 32.97227849 77.47062775 32.97227849 73 31 C73 30.34 73 29.68 73 29 C72.42765625 28.88269531 71.8553125 28.76539062 71.265625 28.64453125 C68.82159611 27.94924717 66.94467816 26.96246591 64.75 25.6875 C55.43648269 20.39815383 46.78861839 15.9632695 36 15 C35.34 16.65 34.68 18.3 34 20 C34.33 20.33 34.66 20.66 35 21 C35.04063832 22.66617115 35.042721 24.33388095 35 26 C34.34 26 33.68 26 33 26 C33.20625 26.61875 33.4125 27.2375 33.625 27.875 C33.810625 28.926875 33.810625 28.926875 34 30 C33.34 30.66 32.68 31.32 32 32 C31.814375 33.19625 31.62875 34.3925 31.4375 35.625 C29.19998558 46.33064591 22.08154345 56.17722695 15.1875 64.4375 C14.73189697 64.98696289 14.27629395 65.53642578 13.80688477 66.10253906 C11.32149842 68.94794733 9.68565319 70.2794341 6 71 C5.505 72.485 5.505 72.485 5 74 C2 76 2 76 -1 76 C-1.33 76.66 -1.66 77.32 -2 78 C-4.9375 79.1875 -4.9375 79.1875 -8 80 C-8.66 79.67 -9.32 79.34 -10 79 C-10.5775 79.2475 -11.155 79.495 -11.75 79.75 C-14 80 -14 80 -17.0625 77.9375 C-21.15299344 74.15767695 -23.13252524 70.33792467 -23.4375 64.75 C-23.21877091 59.2817727 -21.35028139 54.88297267 -19 50 C-18.53722656 48.9996875 -18.07445312 47.999375 -17.59765625 46.96875 C-11.58296762 34.8511377 -2.65930637 24.33933969 8 16 C7.236875 16.33 6.47375 16.66 5.6875 17 C3 18 3 18 0 18 C0 18.66 0 19.32 0 20 C-0.99 20 -1.98 20 -3 20 C-3 20.66 -3 21.32 -3 22 C-4.02738281 22.5465625 -5.05476563 23.093125 -6.11328125 23.65625 C-9.9401544 25.8479784 -13.0118329 28.46208106 -16.1875 31.5 C-16.74066895 32.02118408 -17.29383789 32.54236816 -17.86376953 33.0793457 C-19.58523083 34.71006217 -21.2941746 36.3529455 -23 38 C-23.81670166 38.78383057 -23.81670166 38.78383057 -24.64990234 39.58349609 C-30.29406586 45.02247947 -35.69408288 50.50391946 -40.375 56.81640625 C-42.09630379 59.12940821 -43.91490554 61.33892788 -45.75 63.5625 C-58.17865244 79.07422901 -68.46288944 96.08402178 -77 114 C-77.43570313 114.91394531 -77.87140625 115.82789062 -78.3203125 116.76953125 C-80.31915794 121.11516929 -81.75053761 125.38660039 -83 130 C-83.33 130.33 -83.66 130.66 -84 131 C-84.23075082 132.34747084 -84.41153063 133.70377565 -84.5625 135.0625 C-84.706875 136.361875 -84.85125 137.66125 -85 139 C-85.66 139 -86.32 139 -87 139 C-86.505 142.465 -86.505 142.465 -86 146 C-86.66 146 -87.32 146 -88 146 C-87.91621094 146.61488281 -87.83242188 147.22976562 -87.74609375 147.86328125 C-87.64425781 148.67152344 -87.54242188 149.47976562 -87.4375 150.3125 C-87.33308594 151.11300781 -87.22867187 151.91351563 -87.12109375 152.73828125 C-87 155 -87 155 -88 158 C-87.34 158 -86.68 158 -86 158 C-85.608125 159.0725 -85.21625 160.145 -84.8125 161.25 C-83.19367859 164.94480998 -81.6115341 166.99359217 -78 169 C-75.14336799 169.43398832 -72.93086338 169.28828164 -70 169 C-69.34 168.34 -68.68 167.68 -68 167 C-66.43143951 166.03798718 -64.84568877 165.10381219 -63.25 164.1875 C-58.27554297 161.24739462 -54.09288753 158.09288753 -50 154 C-49.67 153.67 -49.34 153.34 -49 153 C-48.525625 152.154375 -48.05125 151.30875 -47.5625 150.4375 C-46.7890625 149.2309375 -46.7890625 149.2309375 -46 148 C-45.34 148 -44.68 148 -44 148 C-44 147.01 -44 146.02 -44 145 C-43.34 145 -42.68 145 -42 145 C-41.773125 144.175 -41.54625 143.35 -41.3125 142.5 C-39.75058943 138.33490514 -37.77149893 134.4999057 -35 131 C-34.34 131 -33.68 131 -33 131 C-32.93941406 130.36191406 -32.87882812 129.72382813 -32.81640625 129.06640625 C-32.73261719 128.24011719 -32.64882813 127.41382813 -32.5625 126.5625 C-32.48128906 125.73878906 -32.40007812 124.91507812 -32.31640625 124.06640625 C-32 122 -32 122 -31 121 C-31 120.34 -31 119.68 -31 119 C-30.34 119 -29.68 119 -29 119 C-29.309375 117.700625 -29.309375 117.700625 -29.625 116.375 C-30.04047622 112.63571398 -29.39666276 110.45057859 -28 107 C-28.66 107 -29.32 107 -30 107 C-30 106.34 -30 105.68 -30 105 C-37.3248097 107.4203719 -42.01602782 113.67982215 -45.5 120.375 C-47.1911759 123.8081603 -47.1911759 123.8081603 -47 127 C-47.66 127 -48.32 127 -49 127 C-48.67 128.32 -48.34 129.64 -48 131 C-59.69765897 141.54308484 -59.69765897 141.54308484 -65.125 143.9375 C-67.33631211 145.04494476 -67.33631211 145.04494476 -69.5 148 C-72.85271318 152.02325581 -72.85271318 152.02325581 -76 153 C-76.66 152.67 -77.32 152.34 -78 152 C-78 151.34 -78 150.68 -78 150 C-78.66 149.67 -79.32 149.34 -80 149 C-79.34 149 -78.68 149 -78 149 C-78.20625 147.989375 -78.4125 146.97875 -78.625 145.9375 C-79.03465752 141.63609602 -78.40055713 139.05424432 -77 135 C-76.649375 133.88625 -76.29875 132.7725 -75.9375 131.625 C-75 129 -75 129 -74 128 C-73.7525 126.989375 -73.505 125.97875 -73.25 124.9375 C-72.04073244 120.52184118 -69.88366437 116.5583679 -67 113 C-66.34 113 -65.68 113 -65 113 C-64.87625 112.195625 -64.7525 111.39125 -64.625 110.5625 C-64.41875 109.716875 -64.2125 108.87125 -64 108 C-63.34 107.67 -62.68 107.34 -62 107 C-61.69707031 106.38253906 -61.39414062 105.76507813 -61.08203125 105.12890625 C-58.505121 100.05881208 -52.85201867 96.68137874 -48 94 C-47.13375 93.4225 -46.2675 92.845 -45.375 92.25 C-44.59125 91.8375 -43.8075 91.425 -43 91 C-41.515 91.495 -41.515 91.495 -40 92 C-39.67 91.34 -39.34 90.68 -39 90 C-37.07421875 89.55078125 -37.07421875 89.55078125 -34.6875 89.3125 C-33.51767578 89.18294922 -33.51767578 89.18294922 -32.32421875 89.05078125 C-29.96732659 88.99928613 -28.21323383 89.19606824 -26 90 C-24.75 92.0625 -24.75 92.0625 -24 94 C-23.01 94 -22.02 94 -21 94 C-16.99156468 98.45797947 -17.62194907 103.6157592 -17.75 109.25 C-17.75515625 110.17296875 -17.7603125 111.0959375 -17.765625 112.046875 C-17.84561012 118.84561012 -17.84561012 118.84561012 -19 120 C-19.12246094 121.02609375 -19.24492187 122.0521875 -19.37109375 123.109375 C-20.03043686 127.18829259 -21.29269687 130.56020513 -23.0625 134.25 C-23.36905518 134.8996875 -23.67561035 135.549375 -23.99145508 136.21875 C-26.54066423 141.43657221 -29.65680635 146.02014528 -33.2109375 150.6171875 C-34.79796406 152.73091283 -36.07709671 154.79565182 -37.3125 157.125 C-39 160 -39 160 -42 161 C-43.20882096 163.00016466 -43.20882096 163.00016466 -44 165 C-44.66 165 -45.32 165 -46 165 C-46.2475 165.61875 -46.495 166.2375 -46.75 166.875 C-48.23740369 169.40358627 -49.43678009 169.71839004 -52 171 C-52.4640625 171.9590625 -52.4640625 171.9590625 -52.9375 172.9375 C-54.3794141 175.73650973 -56.29541626 176.45452358 -59 178 C-59.58652344 178.62648437 -60.17304688 179.25296875 -60.77734375 179.8984375 C-67.66269073 186.40866013 -78.47851244 189.56523416 -87.8125 190.1875 C-96.28029606 189.46168891 -104.11693003 185.32973735 -109.8125 179.125 C-112.51476124 175.88108284 -113.9038582 173.11053173 -115 169 C-115.515625 168.154375 -116.03125 167.30875 -116.5625 166.4375 C-119.35481183 161.70271037 -119.16088416 156.77269185 -119.1875 151.375 C-119.20167969 150.06273437 -119.21585937 148.75046875 -119.23046875 147.3984375 C-119 144 -119 144 -117 141 C-117 139.68 -117 138.36 -117 137 C-116.67 136.67 -116.34 136.34 -116 136 C-115.87625 134.989375 -115.7525 133.97875 -115.625 132.9375 C-115.05521658 129.34786448 -114.18472526 126.51158388 -112.81640625 123.1875 C-111.90446653 120.85546355 -111.90446653 120.85546355 -111.15234375 117.7734375 C-109.83472668 113.45879989 -108.03853487 109.63559578 -106 105.625 C-105.64421875 104.90183594 -105.2884375 104.17867188 -104.921875 103.43359375 C-102.25352444 98.12676222 -102.25352444 98.12676222 -100 97 C-99.85296631 96.25468018 -99.70593262 95.50936035 -99.55444336 94.74145508 C-98.92899366 91.6489079 -97.8408954 89.77528242 -96.12890625 87.13671875 C-95.55462891 86.25048828 -94.98035156 85.36425781 -94.38867188 84.45117188 C-93.78603516 83.53916016 -93.18339844 82.62714844 -92.5625 81.6875 C-91.6643457 80.29047852 -91.6643457 80.29047852 -90.74804688 78.86523438 C-87.41206687 73.76600402 -87.41206687 73.76600402 -86 72 C-85.34 72 -84.68 72 -84 72 C-83.90074219 71.42765625 -83.80148437 70.8553125 -83.69921875 70.265625 C-82.8599894 67.54633438 -81.60742917 65.95304772 -79.8125 63.75 C-76.91214541 60.14833016 -74.14391781 56.48975232 -71.45703125 52.7265625 C-69.82689635 50.7948745 -68.05724355 49.45668177 -66 48 C-64.74239508 46.81470523 -64.74239508 46.81470523 -63.25 44.25 C-59.21152813 38.41665175 -54.06177426 34.37287505 -48.5 30.0625 C-45.93688893 28.01756495 -45.93688893 28.01756495 -43.5703125 25.55078125 C-40.82677188 22.82808821 -37.95784379 20.5170173 -34.875 18.1875 C-33.84117187 17.39730469 -32.80734375 16.60710938 -31.7421875 15.79296875 C-29 14 -29 14 -26 14 C-26 13.34 -26 12.68 -26 12 C-23.3168434 10.53316749 -20.62895233 9.07646974 -17.9375 7.625 C-17.18533203 7.2125 -16.43316406 6.8 -15.65820312 6.375 C-11.15754623 3.95906296 -6.96837408 2.20085536 -2 1 C-1.505 1.495 -1.505 1.495 -1 2 C-0.67 1.34 -0.34 0.68 0 0 Z M160 5 C161 7 161 7 161 7 Z M161 7 C162 9 162 9 162 9 Z M146 15 C145.7525 15.78375 145.505 16.5675 145.25 17.375 C143.76764167 20.4879525 143.00113563 20.57554794 140 22 C138.71812563 22.95880034 137.4668707 23.95993957 136.25 25 C135.32960938 25.7734375 135.32960938 25.7734375 134.390625 26.5625 C132.76823624 27.90623252 132.76823624 27.90623252 133 30 C134.15628906 29.96519531 134.15628906 29.96519531 135.3359375 29.9296875 C136.33882812 29.91164063 137.34171875 29.89359375 138.375 29.875 C139.37273437 29.85179687 140.37046875 29.82859375 141.3984375 29.8046875 C144 30 144 30 146 32 C146.5508974 29.87511004 147.03233331 27.79522239 147.375 25.625 C148 23 148 23 149.625 19.8125 C150.07875 18.884375 150.5325 17.95625 151 17 C150.67 16.34 150.34 15.68 150 15 C148.68 15 147.36 15 146 15 Z M160 16 C161 19 161 19 161 19 Z M20 21 C20 21.66 20 22.32 20 23 C19.27039063 23.25007813 18.54078125 23.50015625 17.7890625 23.7578125 C14.76705116 25.10375033 12.81432325 26.65362315 10.375 28.875 C9.24191406 29.89207031 9.24191406 29.89207031 8.0859375 30.9296875 C6.14340786 32.85766636 4.50172275 34.71393798 3 37 C3 37.66 3 38.32 3 39 C2.34 39 1.68 39 1 39 C-1.12455016 41.59907976 -2.79787463 44.5235823 -4.5625 47.375 C-5.32336914 48.53708984 -5.32336914 48.53708984 -6.09960938 49.72265625 C-9.66036253 55.45968863 -10.89941104 60.25786932 -11 67 C-10.01 67 -9.02 67 -8 67 C-7.67 67.66 -7.34 68.32 -7 69 C-7 68.01 -7 67.02 -7 66 C-6.030625 65.731875 -5.06125 65.46375 -4.0625 65.1875 C-2.5465625 64.5996875 -2.5465625 64.5996875 -1 64 C-0.67 63.01 -0.34 62.02 0 61 C0.969375 60.690625 1.93875 60.38125 2.9375 60.0625 C6.03130101 59.36978105 6.03130101 59.36978105 6.91015625 57.3671875 C7.26980469 56.58601563 7.62945312 55.80484375 8 55 C9.88138762 52.05506677 11.78999286 49.1320475 13.72265625 46.22070312 C17.75162199 40.09931859 17.75162199 40.09931859 19 33 C19.66 32.67 20.32 32.34 21 32 C20.67 31.34 20.34 30.68 20 30 C20.66 30 21.32 30 22 30 C22.33 27.03 22.66 24.06 23 21 C22.01 21 21.02 21 20 21 Z M24 22 C25 24 25 24 25 24 Z M23 24 C24 28 24 28 24 28 Z M30 33 C31 35 31 35 31 35 Z M114 50 C113.38125 50.99966797 113.38125 50.99966797 112.75 52.01953125 C109.695706 56.89412993 106.5738582 61.64459698 103.125 66.25 C98.72274346 72.22690984 94.97175218 78.50674352 91.23242188 84.90869141 C89.89773755 87.17353014 88.53670782 89.42117986 87.171875 91.66796875 C86.23941842 93.21604651 85.30712343 94.76422162 84.375 96.3125 C83.92463379 97.04807129 83.47426758 97.78364258 83.01025391 98.54150391 C81.94517365 100.32560794 80.96389474 102.15925828 80 104 C80.33 104.66 80.66 105.32 81 106 C83.04119788 104.38405168 85.04072937 102.7143618 87 101 C87 100.34 87 99.68 87 99 C87.58499268 98.74025391 88.16998535 98.48050781 88.77270508 98.21289062 C91.15469945 96.91575722 92.72918398 95.5143238 94.63671875 93.59375 C95.29607422 92.93246094 95.95542969 92.27117187 96.63476562 91.58984375 C97.31216797 90.90019531 97.98957031 90.21054688 98.6875 89.5 C99.37650391 88.81035156 100.06550781 88.12070313 100.77539062 87.41015625 C104.31169197 84.02035029 104.31169197 84.02035029 107 80 C107.66 80.33 108.32 80.66 109 81 C109.185625 80.319375 109.37125 79.63875 109.5625 78.9375 C111.25293735 75.48312802 113.3774398 73.5202338 116.1328125 70.890625 C118.56746863 68.42540833 120.54772303 65.73358356 122.578125 62.93359375 C124.60043875 60.18346928 126.78967054 57.6003876 129 55 C126.60880279 52.60880279 125.30355083 52.40287205 122 52 C121.01 52.33 120.02 52.66 119 53 C116.3125 51.5625 116.3125 51.5625 114 50 Z M-73 56 C-72.67 56.66 -72.34 57.32 -72 58 C-71.67 57.34 -71.34 56.68 -71 56 C-71.66 56 -72.32 56 -73 56 Z M-12 59 C-11 61 -11 61 -11 61 Z M27.96484375 103.7578125 C22.60160835 107.08364286 22.60160835 107.08364286 19 112 C19.07465842 114.76769439 19.49743098 117.25871442 20 120 C19.34 120.33 18.68 120.66 18 121 C18.99 121 19.98 121 21 121 C21.2475 121.639375 21.495 122.27875 21.75 122.9375 C22.82410942 125.13171217 22.82410942 125.13171217 24.9375 125.9375 C27.05620558 126.22361346 27.05620558 126.22361346 28.53125 124.78515625 C30.2209782 122.73141746 30.82044494 121.04418879 31.5625 118.5 C32.45512475 115.4741534 33.20843526 113.6873471 35 111 C35 110.34 35 109.68 35 109 C34.34 109 33.68 109 33 109 C33.33 107.68 33.66 106.36 34 105 C31.16173582 103.10796538 31.16173582 103.10796538 27.96484375 103.7578125 Z M130 108 C128.35048692 109.7143588 126.87108607 111.50490012 125.38671875 113.36328125 C124 115 124 115 121.6875 116.6875 C119.61223416 118.30159565 119.35261427 119.44354653 119 122 C118.34 122 117.68 122 117 122 C116.67 123.32 116.34 124.64 116 126 C115.34 126 114.68 126 114 126 C112.63362347 127.71801282 112.63362347 127.71801282 111.375 129.875 C110.92898438 130.59429687 110.48296875 131.31359375 110.0234375 132.0546875 C108.84480002 133.92864762 108.84480002 133.92864762 109 136 C108.34 136.33 107.68 136.66 107 137 C105.97784597 138.75682725 104.95804552 140.51600076 104 142.30859375 C103 144 103 144 101 146 C100.18818331 148.27818714 99.53972293 150.58017529 98.87890625 152.90625 C98 155 98 155 95 157 C95.185625 158.918125 95.185625 158.918125 95.375 160.875 C95.44460938 161.59429687 95.51421875 162.31359375 95.5859375 163.0546875 C95.86374749 165.22668245 95.86374749 165.22668245 98 167 C98 166.01 98 165.02 98 164 C98.598125 163.731875 99.19625 163.46375 99.8125 163.1875 C103.22259007 161.33630825 105.25740741 158.80371069 107.375 155.6015625 C107.80296875 154.95703125 108.2309375 154.3125 108.671875 153.6484375 C109.11015625 152.98070312 109.5484375 152.31296875 110 151.625 C110.43828125 150.965 110.8765625 150.305 111.328125 149.625 C115.88453224 143.71294815 115.88453224 143.71294815 118 137 C118.99 136.67 119.98 136.34 121 136 C121.71706982 134.01751285 122.38290413 132.01584651 123 130 C123.66 129.34 124.32 128.68 125 128 C126.03161608 126.01612292 127.03523618 124.01723344 128 122 C128.66 122 129.32 122 130 122 C130.144375 121.071875 130.28875 120.14375 130.4375 119.1875 C131 116 131 116 132 113 C132.99 112.67 133.98 112.34 135 112 C135 111.34 135 110.68 135 110 C135.63903117 108.32254318 136.30341637 106.65438613 137 105 C134.40515323 105 132.13931339 106.74870349 130 108 Z M-107 110 C-106 113 -106 113 -106 113 Z M32 117 C33 119 33 119 33 119 Z M47 119 C48 121 48 121 48 121 Z M31 120 C32 122 32 122 32 122 Z M-84 125 C-83 127 -83 127 -83 127 Z M9 128 C7.07276117 130.11533297 7.07276117 130.11533297 5.3125 132.8125 C4.68988281 133.70582031 4.06726563 134.59914062 3.42578125 135.51953125 C1.75082857 137.95664922 1.75082857 137.95664922 2 141 C1.34 141 0.68 141 0 141 C-0.6708712 142.6232687 -1.33657029 144.24867578 -2 145.875 C-2.37125 146.77992188 -2.7425 147.68484375 -3.125 148.6171875 C-4.11490226 150.88983858 -4.11490226 150.88983858 -4 153 C-4.66 153.33 -5.32 153.66 -6 154 C-5.67 155.32 -5.34 156.64 -5 158 C-5.66 158 -6.32 158 -7 158 C-7.33 159.65 -7.66 161.3 -8 163 C-7.01 163.33 -6.02 163.66 -5 164 C-4.67 164.99 -4.34 165.98 -4 167 C-3.01 166.505 -3.01 166.505 -2 166 C-2 165.34 -2 164.68 -2 164 C-1.26523437 163.75121094 -0.53046875 163.50242188 0.2265625 163.24609375 C9.48772769 159.08509136 16.36563284 148.25338302 20.19140625 139.171875 C20.45824219 138.45515625 20.72507812 137.7384375 21 137 C20.15115234 136.27683594 20.15115234 136.27683594 19.28515625 135.5390625 C18.55167969 134.90742188 17.81820312 134.27578125 17.0625 133.625 C16.33160156 132.99851563 15.60070312 132.37203125 14.84765625 131.7265625 C13 130 13 130 12 128 C11.01 128 10.02 128 9 128 Z M-115 132 C-114 135 -114 135 -114 135 Z M-75 132 C-74 135 -74 135 -74 135 Z M62 137 C63 139 63 139 63 139 Z M-26 144 C-25 146 -25 146 -25 146 Z M72 152 C73 154 73 154 73 154 Z M32 158 C33 160 33 160 33 160 Z M64 162 C64.33 162.66 64.66 163.32 65 164 C65.33 163.34 65.66 162.68 66 162 C65.34 162 64.68 162 64 162 Z M128 162 C129 164 129 164 129 164 Z M-33 169 C-33 170.65 -33 172.3 -33 174 C-32.67 174 -32.34 174 -32 174 C-32 172.35 -32 170.7 -32 169 C-32.33 169 -32.66 169 -33 169 Z M-33 176 C-32 178 -32 178 -32 178 Z " fill="#874ACC" transform="translate(391,7)"/>
<path d="M0 0 C0 0.66 0 1.32 0 2 C0.99 2 1.98 2 3 2 C3 1.34 3 0.68 3 0 C5.98408216 0.13879452 8.22292183 0.28048318 10.4765625 2.3671875 C11.70513744 3.8687791 12.8569189 5.43234592 14 7 C14.495 7.495 14.495 7.495 15 8 C16.49111593 11.45311058 17.23888022 13.21510784 16.125 16.875 C15.568125 17.926875 15.568125 17.926875 15 19 C15.66 19 16.32 19 17 19 C16.4910781 21.54460948 15.9812399 24.08754715 15.4375 26.625 C14.90941879 29.08923328 14.90941879 29.08923328 15 32 C15.78375 31.505 16.5675 31.01 17.375 30.5 C20 29 20 29 22 29 C22.226875 28.38125 22.45375 27.7625 22.6875 27.125 C24.39873685 24.35442606 25.97107345 24.0342676 29 23 C32.22404978 21.33045181 32.22404978 21.33045181 32.6875 18.375 C32.790625 17.59125 32.89375 16.8075 33 16 C33.99 15.67 34.98 15.34 36 15 C36.680625 14.113125 37.36125 13.22625 38.0625 12.3125 C42.52823344 6.67943199 49.39791999 3.49935886 56 1 C56.495 1.495 56.495 1.495 57 2 C57.33 1.34 57.66 0.68 58 0 C59.32 0 60.64 0 62 0 C62 0.66 62 1.32 62 2 C62.99 2 63.98 2 65 2 C65 1.34 65 0.68 65 0 C70.65893033 0.40420931 73.02257794 2.20336985 77 6 C80.40006723 11.10010085 79.53567707 17.0480326 79 23 C78.10292023 26.04522213 76.79759859 28.3995904 75 31 C74.38705078 31.97259766 74.38705078 31.97259766 73.76171875 32.96484375 C71.56658906 36.28812058 69.8752087 38.61599689 66 40 C65.67 40.33 65.34 40.66 65 41 C62.6875 41.3125 62.6875 41.3125 60 41 C57.20964571 38.7522146 56.14089995 37.42269984 55 34 C54.45818854 28.25679849 55.40839444 25.48950695 59 21 C60.29682374 19.63113049 61.61823134 18.2830709 63 17 C53.95356491 22.33507711 47.38275931 30.0989008 42 39 C41.24589844 40.2065625 41.24589844 40.2065625 40.4765625 41.4375 C37.4466063 46.35925627 34.6721813 51.35863508 32.171875 56.5703125 C31.41088738 58.14809349 30.61042356 59.70764835 29.765625 61.2421875 C26.58076844 67.37194567 26.84294061 72.27144813 28 79 C33.4883621 79.27906926 36.3888663 79.25491791 41 76 C41.66 76 42.32 76 43 76 C43.495 74.515 43.495 74.515 44 73 C45.43888875 71.75732336 46.88299671 70.51924358 48.37109375 69.3359375 C50.74701575 67.3873396 52.86006297 65.20107809 55 63 C55.33 62.67 55.66 62.34 56 62 C56.86625 60.63875 56.86625 60.63875 57.75 59.25 C59.92540386 56.10774998 62.30769198 53.69230802 65 51 C65.68268138 49.67479497 66.3507041 48.34187818 67 47 C67.66 46.360625 68.32 45.72125 69 45.0625 C71.11522796 43.15648378 71.11522796 43.15648378 71.85546875 40.71484375 C73.22566701 37.46471477 75.05306058 35.20373256 77.3125 32.5 C78.07175781 31.5821875 78.83101562 30.664375 79.61328125 29.71875 C81.97822458 27.02480473 84.44038101 24.5088174 87 22 C87.92039063 21.07960938 88.84078125 20.15921875 89.7890625 19.2109375 C92.52604167 16.47395833 95.26302083 13.73697917 98 11 C98.52207031 10.44957031 99.04414063 9.89914063 99.58203125 9.33203125 C101.28365615 7.73353514 103.08146198 6.54555731 105.0625 5.3125 C106.10083984 4.65701172 106.10083984 4.65701172 107.16015625 3.98828125 C109 3 109 3 111 3 C111.33 2.34 111.66 1.68 112 1 C116.55687216 -0.08272789 121.52996794 -0.53258242 126 1 C128.3125 2.5625 128.3125 2.5625 130 4 C130.66 3.34 131.32 2.68 132 2 C134.87342061 1.80143028 137.62861988 1.72171054 140.5 1.75 C141.67755859 1.73839844 141.67755859 1.73839844 142.87890625 1.7265625 C148.74669213 1.74669213 148.74669213 1.74669213 151 4 C151.99 4.495 151.99 4.495 153 5 C152.42279122 8.78667415 151.3589373 11.47227751 149.375 14.73828125 C148.56905396 16.08019531 148.56905396 16.08019531 147.74682617 17.44921875 C146.88214722 18.86654297 146.88214722 18.86654297 146 20.3125 C144.80727377 22.2973845 143.61587458 24.283067 142.42578125 26.26953125 C141.54720459 27.73253662 141.54720459 27.73253662 140.65087891 29.22509766 C138.43491973 32.94982288 136.29730175 36.71439119 134.1875 40.5 C133.83196045 41.13599121 133.4764209 41.77198242 133.11010742 42.42724609 C132.41501843 43.67142806 131.72042559 44.91588736 131.02636719 46.16064453 C126.29959113 54.63151295 121.56082235 63.03791345 116 71 C119.02674846 71.34549707 119.02674846 71.34549707 120.68359375 69.390625 C121.26238281 68.68421875 121.84117187 67.9778125 122.4375 67.25 C124.85359933 64.35985587 127.33587752 61.66412248 130 59 C130.66 58.01 131.32 57.02 132 56 C132.66 56 133.32 56 134 56 C134.061875 55.401875 134.12375 54.80375 134.1875 54.1875 C135 52 135 52 137.0625 50.25 C140.95741064 48.59259122 143.78875961 48.78586913 148 49 C148.73828125 50.65234375 148.73828125 50.65234375 149 53 C147.41796875 55.69140625 147.41796875 55.69140625 145.1875 58.5625 C144.45917969 59.51253906 143.73085938 60.46257812 142.98046875 61.44140625 C142.32691406 62.28574219 141.67335938 63.13007812 141 64 C140.34 64.99 139.68 65.98 139 67 C138.01 67.66 137.02 68.32 136 69 C135.31138883 70.32213345 134.6468426 71.6569375 134 73 C130.66461178 77.20620387 127.01297784 81.43290858 123 85 C122.34 85 121.68 85 121 85 C120.5978125 85.8971875 120.5978125 85.8971875 120.1875 86.8125 C118.28837651 90.31088537 116.79963639 91.73345454 113 93 C112.67 93.66 112.34 94.32 112 95 C111.01 95 110.02 95 109 95 C109 95.66 109 96.32 109 97 C104.32600563 100.03178013 100.10063169 100.73362307 94.63671875 100.63671875 C90.5367863 99.64666099 89.06574959 97.22217398 86.92578125 93.75 C86.46751953 92.88375 86.46751953 92.88375 86 92 C85.21625 92.495 84.4325 92.99 83.625 93.5 C81 95 81 95 79 95 C78.34 95.99 77.68 96.98 77 98 C71.8201587 100.65200779 66.68843969 100.54053047 61 100 C56.40503967 98.24022796 54.15381038 95.39045961 52 91 C51.96929158 88.15947083 52.41865184 85.80984946 53 83 C52.32517578 83.51046875 52.32517578 83.51046875 51.63671875 84.03125 C50.2542575 85.07294425 48.86849674 86.11026614 47.48046875 87.14453125 C45.74505388 88.44267623 44.01921923 89.75368247 42.30078125 91.07421875 C32.16946585 98.71862828 24.93557843 101.35515584 12 100 C7.05525551 98.57753926 3.67794667 95.21574862 0.93359375 90.96875 C-0.76500964 87.38675791 -0.92162135 83.91893275 -1 80 C-1.02707031 78.97648437 -1.05414063 77.95296875 -1.08203125 76.8984375 C-1.17309698 70.09334362 -0.55769135 65.17519561 2 58.875 C2.350625 58.00617188 2.70125 57.13734375 3.0625 56.2421875 C3.66218351 54.80794445 4.30477724 53.39044553 5 52 C4.38253906 52.95519531 3.76507813 53.91039062 3.12890625 54.89453125 C-6.06942556 68.99802925 -16.77007056 84.51338037 -31 94 C-31.99 94 -32.98 94 -34 94 C-34.33 94.99 -34.66 95.98 -35 97 C-41.04188094 100.62512857 -47.08474638 100.54566493 -54 100 C-54.66 99.67 -55.32 99.34 -56 99 C-56 98.34 -56 97.68 -56 97 C-56.5775 96.979375 -57.155 96.95875 -57.75 96.9375 C-60.77056428 95.67893155 -61.83472557 93.66464989 -63.31640625 90.828125 C-64.28700055 88.23247852 -63.78678666 86.62262219 -63 84 C-63 82.783125 -63 81.56625 -63 80.3125 C-63 77 -63 77 -62 75 C-62.66 75 -63.32 75 -64 75 C-64 73.68 -64 72.36 -64 71 C-63.34 71 -62.68 71 -62 71 C-62.33 69.68 -62.66 68.36 -63 67 C-62.34 67 -61.68 67 -61 67 C-61.33 66.01 -61.66 65.02 -62 64 C-61.109375 61.29296875 -61.109375 61.29296875 -59.75 58.1875 C-59.28722656 57.12402344 -58.82445313 56.06054688 -58.34765625 54.96484375 C-56.96885469 51.93148032 -55.55499323 48.94630295 -54 46 C-53.34 46 -52.68 46 -52 46 C-51.70029297 44.77990234 -51.70029297 44.77990234 -51.39453125 43.53515625 C-49.55048204 38.86046568 -46.77773872 35.36460692 -43.6875 31.4375 C-43.11837891 30.69564453 -42.54925781 29.95378906 -41.96289062 29.18945312 C-36.80653433 22.54124633 -31.09546632 17.08186167 -24.5625 11.8125 C-23.91990234 11.27947266 -23.27730469 10.74644531 -22.61523438 10.19726562 C-18.84495296 7.15424662 -15.71992032 5.35549994 -11 4 C-10.34 3.34 -9.68 2.68 -9 2 C-5.62485432 0.40124678 -3.83441243 0 0 0 Z M1 14 C-4.86437527 16.81941119 -7.36819902 18.99949376 -10 25 C-10.91691437 27.54459933 -10.91691437 27.54459933 -10 30 C-7.92139407 32.37160091 -5.74758483 34.43499451 -3 36 C-2.01 35.67 -1.02 35.34 0 35 C0.12375 34.195625 0.2475 33.39125 0.375 32.5625 C0.58125 31.716875 0.7875 30.87125 1 30 C1.66 29.67 2.32 29.34 3 29 C2.67 28.34 2.34 27.68 2 27 C2.66 27 3.32 27 4 27 C4.47530891 20.96908865 4.47530891 20.96908865 2.5 15.4375 C2.005 14.963125 1.51 14.48875 1 14 Z M118 17 C118 17.66 118 18.32 118 19 C117.40703125 19.2578125 116.8140625 19.515625 116.203125 19.78125 C113.82339035 21.09769895 112.49021208 22.42580782 110.75 24.5 C110.22921875 25.1084375 109.7084375 25.716875 109.171875 26.34375 C107.80747003 27.93395821 107.80747003 27.93395821 108 30 C107.01 30.33 106.02 30.66 105 31 C103.65501492 32.75906644 103.65501492 32.75906644 102.5 34.875 C100.28576871 38.72151718 100.28576871 38.72151718 98.62109375 40.34375 C96.19565918 42.82178436 94.42191348 45.71597368 92.5625 48.625 C92.16361572 49.24802002 91.76473145 49.87104004 91.35375977 50.51293945 C85.99230165 58.68889 85.99230165 58.68889 84 68 C83.01 68.495 83.01 68.495 82 69 C80.90963072 71.9737344 80.96135834 72.88407501 82 76 C86.13639336 74.40907948 89.23213248 71.39525082 92 68 C92 67.34 92 66.68 92 66 C92.66 66 93.32 66 94 66 C94.54269531 65.04738281 95.08539063 64.09476563 95.64453125 63.11328125 C96.36715839 61.84633756 97.08981627 60.57941141 97.8125 59.3125 C98.16892578 58.68666016 98.52535156 58.06082031 98.89257812 57.41601562 C99.59706121 56.18155444 100.30421878 54.94861536 101.01416016 53.71728516 C101.88047195 52.20821206 102.72881625 50.68885414 103.57421875 49.16796875 C105 47 105 47 108 45 C108 44.01 108 43.02 108 42 C108 41.34 108 40.68 108 40 C108.66 39.67 109.32 39.34 110 39 C111.35542972 36.8113624 112.63167868 34.62592 113.875 32.375 C114.55989583 31.15364583 115.24479167 29.93229167 115.9296875 28.7109375 C116.26709961 28.10217773 116.60451172 27.49341797 116.95214844 26.86621094 C117.67109982 25.58576723 118.40434068 24.31327356 119.14941406 23.04785156 C121.27729461 19.74925753 121.27729461 19.74925753 122 16 C119.9254644 15.8509288 119.9254644 15.8509288 118 17 Z M-11 23 C-10 25 -10 25 -10 25 Z M13 27 C14 29 14 29 14 29 Z M-11 30 C-10 32 -10 32 -10 32 Z M-20 38 C-23.10126817 41.66388762 -25.47726999 45.40005318 -27.75 49.625 C-28.36359375 50.75164062 -28.9771875 51.87828125 -29.609375 53.0390625 C-31.21255341 55.9073655 -31.21255341 55.9073655 -31 59 C-32.33333333 59.66666667 -33.66666667 60.33333333 -35 61 C-35 65.62 -35 70.24 -35 75 C-33.35 75.33 -31.7 75.66 -30 76 C-30 75.34 -30 74.68 -30 74 C-29.319375 73.814375 -28.63875 73.62875 -27.9375 73.4375 C-20.81986286 69.95440097 -14.37243511 62.07550111 -11 55 C-9.66666667 52.33333333 -8.33333333 49.66666667 -7 47 C-7.99 46.67 -8.98 46.34 -10 46 C-10.33 45.34 -10.66 44.68 -11 44 C-12.48909175 42.91344156 -14.01544858 41.87731501 -15.5625 40.875 C-16.38878906 40.33617187 -17.21507813 39.79734375 -18.06640625 39.2421875 C-18.70449219 38.83226562 -19.34257813 38.42234375 -20 38 Z M-58 57 C-57 59 -57 59 -57 59 Z M-59 60 C-58 62 -58 62 -58 62 Z M-36 64 C-35 66 -35 66 -35 66 Z M-37 69 C-36 73 -36 73 -36 73 Z M90 70 C90.33 70.66 90.66 71.32 91 72 C91.33 71.34 91.66 70.68 92 70 C91.34 70 90.68 70 90 70 Z M80 77 C84 78 84 78 84 78 Z M87 90 C88 92 88 92 88 92 Z " fill="#864BCC" transform="translate(131,50)"/>
<path d="M0 0 C1.25039062 0.00322266 2.50078125 0.00644531 3.7890625 0.00976562 C5.74199219 0.02233398 5.74199219 0.02233398 7.734375 0.03515625 C9.05179687 0.03966797 10.36921875 0.04417969 11.7265625 0.04882812 C14.97921241 0.06061309 18.23177084 0.07706614 21.484375 0.09765625 C21.77183594 0.73960937 22.05929688 1.3815625 22.35546875 2.04296875 C23.304482 4.27231832 23.304482 4.27231832 25.546875 4.97265625 C26.18625 5.34390625 26.825625 5.71515625 27.484375 6.09765625 C28.234375 9.22265625 28.234375 9.22265625 28.484375 12.09765625 C28.814375 12.09765625 29.144375 12.09765625 29.484375 12.09765625 C30.2210979 22.04341534 26.58003957 29.64938764 20.27734375 37.2421875 C17.8623234 39.74139157 15.8222181 41.10340511 12.484375 42.09765625 C9.00400163 42.02804878 7.07684737 41.45625795 4.109375 39.66015625 C1.50292275 35.54998156 1.46040564 31.80516638 2.484375 27.09765625 C5.0629785 22.21382554 7.86760579 18.83255135 12.921875 16.53515625 C14.1903125 16.31859375 14.1903125 16.31859375 15.484375 16.09765625 C15.484375 14.44765625 15.484375 12.79765625 15.484375 11.09765625 C11.93918616 12.4952553 11.93918616 12.4952553 8.484375 14.09765625 C7.494375 13.60265625 7.494375 13.60265625 6.484375 13.09765625 C6.484375 13.75765625 6.484375 14.41765625 6.484375 15.09765625 C3.484375 16.09765625 0.484375 17.09765625 -2.515625 18.09765625 C-2.845625 18.75765625 -3.175625 19.41765625 -3.515625 20.09765625 C-6.14143638 21.67314308 -7.38662287 22.09765625 -10.515625 22.09765625 C-10.86560547 22.95423828 -10.86560547 22.95423828 -11.22265625 23.828125 C-12.82520812 26.64106347 -14.75324681 28.29793355 -17.203125 30.41015625 C-25.16058184 37.42138255 -31.90952955 44.78714116 -38.515625 53.09765625 C-39.13695313 53.87496094 -39.75828125 54.65226562 -40.3984375 55.453125 C-55.79359197 74.95595522 -68.8519748 97.00599782 -75.515625 121.09765625 C-75.845625 121.42765625 -76.175625 121.75765625 -76.515625 122.09765625 C-76.79851681 124.35181003 -76.9633369 126.60606281 -77.13671875 128.87109375 C-77.515625 131.09765625 -77.515625 131.09765625 -79.515625 134.09765625 C-79.185625 134.42765625 -78.855625 134.75765625 -78.515625 135.09765625 C-78.41653717 136.88706597 -78.38592121 138.68051133 -78.390625 140.47265625 C-78.38675781 141.93832031 -78.38675781 141.93832031 -78.3828125 143.43359375 C-78.515625 146.09765625 -78.515625 146.09765625 -79.515625 149.09765625 C-78.855625 149.09765625 -78.195625 149.09765625 -77.515625 149.09765625 C-77.556875 149.86078125 -77.598125 150.62390625 -77.640625 151.41015625 C-77.73643324 154.32484041 -77.73643324 154.32484041 -75.515625 157.09765625 C-75.1340625 157.70222656 -74.7525 158.30679688 -74.359375 158.9296875 C-70.05148402 165.27881752 -64.51144152 169.98337516 -56.87109375 171.6875 C-54.76208763 171.92995267 -52.63741797 172.02921132 -50.515625 172.09765625 C-50.515625 172.75765625 -50.515625 173.41765625 -50.515625 174.09765625 C-46.885625 174.09765625 -43.255625 174.09765625 -39.515625 174.09765625 C-39.515625 173.43765625 -39.515625 172.77765625 -39.515625 172.09765625 C-36.17309776 172.02337787 -33.7120336 172.03218672 -30.515625 173.09765625 C-30.515625 172.43765625 -30.515625 171.77765625 -30.515625 171.09765625 C-29.773125 171.11828125 -29.030625 171.13890625 -28.265625 171.16015625 C-25.76033292 171.10321779 -23.91073602 170.75086835 -21.515625 170.09765625 C-17.47992758 169.23899722 -14.51902721 169.03793214 -10.515625 170.09765625 C-10.185625 168.77765625 -9.855625 167.45765625 -9.515625 166.09765625 C-8.195625 166.42765625 -6.875625 166.75765625 -5.515625 167.09765625 C-5.515625 166.43765625 -5.515625 165.77765625 -5.515625 165.09765625 C-4.195625 165.42765625 -2.875625 165.75765625 -1.515625 166.09765625 C-1.185625 165.43765625 -0.855625 164.77765625 -0.515625 164.09765625 C1.41015625 163.71875 1.41015625 163.71875 3.796875 163.53515625 C6.80758274 163.29131381 9.56692849 162.87889716 12.484375 162.09765625 C13.7528125 161.88109375 13.7528125 161.88109375 15.046875 161.66015625 C17.723007 161.19380199 17.723007 161.19380199 20.484375 159.09765625 C21.144375 159.42765625 21.804375 159.75765625 22.484375 160.09765625 C22.484375 159.43765625 22.484375 158.77765625 22.484375 158.09765625 C24.134375 158.42765625 25.784375 158.75765625 27.484375 159.09765625 C27.484375 158.43765625 27.484375 157.77765625 27.484375 157.09765625 C29.134375 157.42765625 30.784375 157.75765625 32.484375 158.09765625 C32.484375 157.43765625 32.484375 156.77765625 32.484375 156.09765625 C35.784375 155.76765625 39.084375 155.43765625 42.484375 155.09765625 C42.484375 154.76765625 42.484375 154.43765625 42.484375 154.09765625 C44.794375 154.09765625 47.104375 154.09765625 49.484375 154.09765625 C49.484375 153.76765625 49.484375 153.43765625 49.484375 153.09765625 C51.48392246 153.05511269 53.48479136 153.05684842 55.484375 153.09765625 C55.814375 153.42765625 56.144375 153.75765625 56.484375 154.09765625 C57.28617188 153.60910156 58.08796875 153.12054688 58.9140625 152.6171875 C63.34518219 150.7312952 66.85917124 150.68829239 71.609375 150.78515625 C72.80626953 150.78032227 72.80626953 150.78032227 74.02734375 150.77539062 C78.04102769 150.81224415 80.9931565 150.91781584 84.484375 153.09765625 C86.00535102 153.09765625 87.52635118 153.0722422 89.046875 153.03515625 C91.484375 153.09765625 91.484375 153.09765625 92.484375 154.09765625 C94.1859375 154.25234375 94.1859375 154.25234375 95.921875 154.41015625 C108.68145164 155.94854492 120.61566131 164.29448729 130.484375 172.09765625 C130.484375 172.75765625 130.484375 173.41765625 130.484375 174.09765625 C131.3815625 174.25234375 131.3815625 174.25234375 132.296875 174.41015625 C134.88404766 175.22326766 135.64825728 176.12029871 137.484375 178.09765625 C139.45813992 179.7974281 141.47215464 181.44316395 143.484375 183.09765625 C143.154375 184.41765625 142.824375 185.73765625 142.484375 187.09765625 C143.474375 186.76765625 144.464375 186.43765625 145.484375 186.09765625 C146.144375 188.07765625 146.804375 190.05765625 147.484375 192.09765625 C142.25310682 192.5190198 139.19174762 191.24983997 134.609375 188.78515625 C125.98918878 183.94696753 125.98918878 183.94696753 116.484375 182.09765625 C116.484375 181.43765625 116.484375 180.77765625 116.484375 180.09765625 C115.55625 180.30390625 114.628125 180.51015625 113.671875 180.72265625 C110.484375 181.09765625 110.484375 181.09765625 107.484375 179.09765625 C102.7729233 178.79851646 99.58024991 178.61087506 95.484375 181.09765625 C94.86820313 181.24847656 94.25203125 181.39929688 93.6171875 181.5546875 C87.2949591 183.16419253 82.26202094 186.79777491 77.484375 191.09765625 C75.109375 190.34765625 75.109375 190.34765625 72.484375 189.09765625 C72.18660156 188.47375 71.88882813 187.84984375 71.58203125 187.20703125 C69.5122826 183.22957832 65.21131473 181.3878515 61.484375 179.09765625 C60.54271484 178.48470703 60.54271484 178.48470703 59.58203125 177.859375 C55.5688429 175.3568199 52.15638985 174.54688845 47.484375 174.09765625 C46.494375 173.76765625 45.504375 173.43765625 44.484375 173.09765625 C42.74610021 173.02705207 41.00519737 173.01342669 39.265625 173.03515625 C38.25113281 173.04289063 37.23664063 173.050625 36.19140625 173.05859375 C35.13308594 173.07148438 34.07476562 173.084375 32.984375 173.09765625 C30.89067666 173.12315806 28.7969178 173.14419341 26.703125 173.16015625 C25.77435547 173.17175781 24.84558594 173.18335938 23.88867188 173.1953125 C21.484375 173.09765625 21.484375 173.09765625 18.484375 172.09765625 C18.484375 172.75765625 18.484375 173.41765625 18.484375 174.09765625 C16.504375 174.09765625 14.524375 174.09765625 12.484375 174.09765625 C12.484375 174.42765625 12.484375 174.75765625 12.484375 175.09765625 C11.618125 175.05640625 10.751875 175.01515625 9.859375 174.97265625 C6.3300543 175.10337183 3.77952727 175.87988259 0.484375 177.09765625 C-0.84639489 177.44108074 -2.17994479 177.77385499 -3.515625 178.09765625 C-4.5675 178.40703125 -5.619375 178.71640625 -6.703125 179.03515625 C-9.5733722 179.83506121 -12.4306981 180.59573635 -15.328125 181.28515625 C-16.07707031 181.46433594 -16.82601562 181.64351562 -17.59765625 181.828125 C-19.515625 182.09765625 -19.515625 182.09765625 -21.515625 181.09765625 C-21.515625 181.75765625 -21.515625 182.41765625 -21.515625 183.09765625 C-24.44573271 183.73861731 -27.27483705 184.17357746 -30.265625 184.47265625 C-33.45100958 184.83394751 -36.19461663 185.62137199 -39.203125 186.72265625 C-42.67464509 187.96591691 -44.92463168 188.37187968 -48.515625 187.09765625 C-48.515625 187.75765625 -48.515625 188.41765625 -48.515625 189.09765625 C-51.155625 188.76765625 -53.795625 188.43765625 -56.515625 188.09765625 C-56.515625 188.75765625 -56.515625 189.41765625 -56.515625 190.09765625 C-58.09886188 190.12484925 -59.68223562 190.14413931 -61.265625 190.16015625 C-62.14734375 190.17175781 -63.0290625 190.18335938 -63.9375 190.1953125 C-66.31523569 190.10524675 -68.22764619 189.68825241 -70.515625 189.09765625 C-71.835625 189.09765625 -73.155625 189.09765625 -74.515625 189.09765625 C-74.515625 188.43765625 -74.515625 187.77765625 -74.515625 187.09765625 C-75.505625 187.42765625 -76.495625 187.75765625 -77.515625 188.09765625 C-80.0048408 187.03416126 -82.32296255 185.92782552 -84.703125 184.66015625 C-85.35732422 184.32177734 -86.01152344 183.98339844 -86.68554688 183.63476562 C-88.30021799 182.79796527 -89.90855263 181.94895879 -91.515625 181.09765625 C-91.515625 180.43765625 -91.515625 179.77765625 -91.515625 179.09765625 C-92.629375 178.75734375 -92.629375 178.75734375 -93.765625 178.41015625 C-97.0581997 176.83870015 -98.49059609 175.09769909 -100.515625 172.09765625 C-100.515625 171.43765625 -100.515625 170.77765625 -100.515625 170.09765625 C-101.505625 169.76765625 -102.495625 169.43765625 -103.515625 169.09765625 C-107.75727767 162.0826153 -107.6661685 155.0807156 -107.6484375 147.140625 C-107.64939423 146.19705643 -107.65035095 145.25348785 -107.65133667 144.28132629 C-107.65201469 142.29700656 -107.65018683 140.31268456 -107.64599609 138.32836914 C-107.64061256 135.27810768 -107.64596913 132.22799147 -107.65234375 129.17773438 C-107.65168349 127.24869759 -107.6504034 125.3196609 -107.6484375 123.390625 C-107.65046173 122.4740361 -107.65248596 121.5574472 -107.65457153 120.61308289 C-107.63059476 114.21262601 -107.63059476 114.21262601 -106.515625 113.09765625 C-106.07229183 111.33331005 -105.66172618 109.56070283 -105.265625 107.78515625 C-103.1542991 99.10181099 -99.68027464 90.98857135 -95.515625 83.09765625 C-94.855625 83.09765625 -94.195625 83.09765625 -93.515625 83.09765625 C-93.020625 82.10765625 -93.020625 82.10765625 -92.515625 81.09765625 C-92.020625 80.10765625 -92.020625 80.10765625 -91.515625 79.09765625 C-91.39832031 78.50726563 -91.28101562 77.916875 -91.16015625 77.30859375 C-90.31424414 74.40685887 -88.85579979 72.24944383 -87.203125 69.72265625 C-86.5740625 68.75972656 -85.945 67.79679687 -85.296875 66.8046875 C-84.7090625 65.91136719 -84.12125 65.01804687 -83.515625 64.09765625 C-83.0928125 63.42089844 -82.67 62.74414062 -82.234375 62.046875 C-81.38240971 60.69470281 -80.45770916 59.38866047 -79.515625 58.09765625 C-78.855625 58.09765625 -78.195625 58.09765625 -77.515625 58.09765625 C-77.28875 57.39125 -77.061875 56.68484375 -76.828125 55.95703125 C-75.22516939 52.46487796 -73.12844346 50.15795517 -70.515625 47.34765625 C-69.62875 46.3834375 -68.741875 45.41921875 -67.828125 44.42578125 C-65.515625 42.09765625 -65.515625 42.09765625 -63.515625 41.09765625 C-63.226875 40.49953125 -62.938125 39.90140625 -62.640625 39.28515625 C-60.70527828 35.52198208 -58.52362533 33.43365636 -54.515625 32.09765625 C-54.185625 31.43765625 -53.855625 30.77765625 -53.515625 30.09765625 C-52.855625 30.09765625 -52.195625 30.09765625 -51.515625 30.09765625 C-51.309375 29.52015625 -51.103125 28.94265625 -50.890625 28.34765625 C-49.01362815 25.27620686 -46.52241855 24.04322854 -43.515625 22.09765625 C-42.76796875 21.32679687 -42.0203125 20.5559375 -41.25 19.76171875 C-38.23224428 16.82156246 -35.12380538 14.65053771 -31.578125 12.41015625 C-30.98322266 12.02021484 -30.38832031 11.63027344 -29.77539062 11.22851562 C-26.11990042 8.89139894 -22.68595508 7.39168514 -18.515625 6.09765625 C-17.49542927 5.11826835 -16.49412695 4.11870176 -15.515625 3.09765625 C-10.23423939 0.66009366 -5.80629908 -0.02639227 0 0 Z M27.484375 18.09765625 C28.484375 20.09765625 28.484375 20.09765625 28.484375 20.09765625 Z M69.484375 153.09765625 C73.484375 154.09765625 73.484375 154.09765625 73.484375 154.09765625 Z M-77.515625 157.09765625 C-76.515625 159.09765625 -76.515625 159.09765625 -76.515625 159.09765625 Z " fill="#874BCD" transform="translate(115.515625,6.90234375)"/>
<path d="M0 0 C2.58396679 -0.08112454 5.16537568 -0.14054748 7.75 -0.1875 C8.47960937 -0.21263672 9.20921875 -0.23777344 9.9609375 -0.26367188 C13.34486604 -0.30981636 15.57858557 -0.25324128 18.515625 1.51171875 C19.25039063 2.24841797 19.25039063 2.24841797 20 3 C18.71246714 7.32152118 17.06735543 10.83881582 14.625 14.625 C14.03976562 15.54539062 13.45453125 16.46578125 12.8515625 17.4140625 C9.35833756 22.29278594 9.35833756 22.29278594 7 24 C4.06499892 24.47503341 1.21296926 24.37775655 -1.75 24.25 C-2.93916016 24.22292969 -2.93916016 24.22292969 -4.15234375 24.1953125 C-6.10208348 24.14833082 -8.05119878 24.07659044 -10 24 C-10.12375 23.360625 -10.2475 22.72125 -10.375 22.0625 C-10.58125 21.381875 -10.7875 20.70125 -11 20 C-11.66 19.67 -12.32 19.34 -13 19 C-7.20033956 8.30390492 -7.20033956 8.30390492 -4 4 C-3.34 4 -2.68 4 -2 4 C-1.34 2.68 -0.68 1.36 0 0 Z " fill="#8B4FCC" transform="translate(295,52)"/>
<path d="M0 0 C1.1765918 -0.00386719 1.1765918 -0.00386719 2.37695312 -0.0078125 C3.59995117 0.00378906 3.59995117 0.00378906 4.84765625 0.015625 C5.65912109 0.00789062 6.47058594 0.00015625 7.30664062 -0.0078125 C8.09232422 -0.00523437 8.87800781 -0.00265625 9.6875 0 C10.75859009 0.00338379 10.75859009 0.00338379 11.85131836 0.00683594 C14.21302184 0.3036942 15.85107376 1.09926524 17.91015625 2.265625 C9.38900712 3.24346179 1.40663678 3.68170509 -7.08984375 2.265625 C-4.0485557 0.23809963 -3.42120813 0.01082538 0 0 Z " fill="#562A9F" transform="translate(182.08984375,157.734375)"/>
<path d="M0 0 C2.79192205 -0.05380578 5.5828141 -0.09357669 8.375 -0.125 C9.1690625 -0.14175781 9.963125 -0.15851562 10.78125 -0.17578125 C12.85492015 -0.19335473 14.92883241 -0.10335168 17 0 C17.66 0.66 18.32 1.32 19 2 C15.00204108 2.95619733 11.29196078 3.1039592 7.1875 3.0625 C6.02605469 3.05347656 4.86460937 3.04445312 3.66796875 3.03515625 C2.78753906 3.02355469 1.90710938 3.01195312 1 3 C0.67 2.01 0.34 1.02 0 0 Z " fill="#342834" transform="translate(263,52)"/>
<path d="M0 0 C5.28 0 10.56 0 16 0 C15.67 0.99 15.34 1.98 15 3 C10.38 3 5.76 3 1 3 C0.67 2.01 0.34 1.02 0 0 Z " fill="#312431" transform="translate(295,52)"/>
<path d="M0 0 C0.721875 0.144375 1.44375 0.28875 2.1875 0.4375 C3.5796875 0.7159375 3.5796875 0.7159375 5 1 C6.66666667 1.33333333 8.33333333 1.66666667 10 2 C10 2.33 10 2.66 10 3 C5.05 3 0.1 3 -5 3 C-5 2.67 -5 2.34 -5 2 C-3.35 2 -1.7 2 0 2 C0 1.34 0 0.68 0 0 Z " fill="#3A1852" transform="translate(290,73)"/>
<path d="M0 0 C0.33 0 0.66 0 1 0 C1 4.62 1 9.24 1 14 C0.34 13.67 -0.32 13.34 -1 13 C-1.02708567 11.39592672 -1.04643483 9.7917215 -1.0625 8.1875 C-1.07410156 7.29417969 -1.08570313 6.40085938 -1.09765625 5.48046875 C-1 3 -1 3 0 0 Z " fill="#8A4CC9" transform="translate(421,170)"/>
<path d="M0 0 C0.33 1.32 0.66 2.64 1 4 C0.34 4 -0.32 4 -1 4 C-1.33 5.32 -1.66 6.64 -2 8 C-2.99 8 -3.98 8 -5 8 C-3.62845496 5.04590299 -2.01136276 2.55991624 0 0 Z " fill="#6948A9" transform="translate(387,34)"/>
<path d="M0 0 C0.66 0.33 1.32 0.66 2 1 C-2.625 6.875 -2.625 6.875 -6 8 C-4.55746343 4.63408134 -2.66735273 2.48952921 0 0 Z " fill="#4B3C87" transform="translate(58,40)"/>
<path d="M0 0 C0.33 0 0.66 0 1 0 C1 2.31 1 4.62 1 7 C0.67 7 0.34 7 0 7 C0 4.69 0 2.38 0 0 Z " fill="#A47FFF" transform="translate(373,112)"/>
<path d="M0 0 C0.66 0 1.32 0 2 0 C2 0.66 2 1.32 2 2 C1.01 1.67 0.02 1.34 -1 1 C-0.67 0.67 -0.34 0.34 0 0 Z " fill="#6E2A6E" transform="translate(102,174)"/>
<path d="M0 0 C0.33 0 0.66 0 1 0 C1 1.65 1 3.3 1 5 C0.67 5 0.34 5 0 5 C0 3.35 0 1.7 0 0 Z " fill="#FF00FF" transform="translate(210,63)"/>
<path d="M0 0 C1 4 1 4 1 4 Z " fill="#FF00FF" transform="translate(129,124)"/>
<path d="M0 0 C1 4 1 4 1 4 Z " fill="#FF00FF" transform="translate(185,80)"/>
<path d="M0 0 C0.33 0.66 0.66 1.32 1 2 C0.34 1.67 -0.32 1.34 -1 1 C-0.67 0.67 -0.34 0.34 0 0 Z " fill="#AA55AA" transform="translate(162,69)"/>
<path d="" fill="#FF40FF" transform="translate(0,0)"/>
<path d="" fill="#BF40FF" transform="translate(0,0)"/>
<path d="" fill="#7F407F" transform="translate(0,0)"/>
<path d="" fill="#FF00FF" transform="translate(0,0)"/>
<path d="" fill="#8080FF" transform="translate(0,0)"/>
<path d="" fill="#8080FF" transform="translate(0,0)"/>
<path d="" fill="#FF00FF" transform="translate(0,0)"/>
<path d="" fill="#000000" transform="translate(0,0)"/>
<path d="" fill="#8080FF" transform="translate(0,0)"/>
<path d="" fill="#FF00FF" transform="translate(0,0)"/>
<path d="" fill="#FF00FF" transform="translate(0,0)"/>
<path d="" fill="#FF00FF" transform="translate(0,0)"/>
<path d="" fill="#FF00FF" transform="translate(0,0)"/>
<path d="" fill="#FF00FF" transform="translate(0,0)"/>
<path d="" fill="#FF00FF" transform="translate(0,0)"/>
<path d="" fill="#FF00FF" transform="translate(0,0)"/>
<path d="" fill="#000000" transform="translate(0,0)"/>
<path d="" fill="#FF00FF" transform="translate(0,0)"/>
<path d="" fill="#FF00FF" transform="translate(0,0)"/>
<path d="" fill="#FF00FF" transform="translate(0,0)"/>
</svg>
