<?xml version="1.0" encoding="UTF-8"?>
<svg version="1.1" xmlns="http://www.w3.org/2000/svg" width="600" height="129">
<path d="M0 0 C0.99 0.66 1.98 1.32 3 2 C3.33763588 4.97294974 3.48913038 7.74742502 3.51171875 10.7265625 C3.53864555 12.02078629 3.53864555 12.02078629 3.56611633 13.34115601 C3.6203852 16.10238731 3.65416757 18.86344418 3.6875 21.625 C3.7206585 23.49481603 3.75514678 25.364609 3.79101562 27.234375 C3.87612096 31.82279109 3.94285254 36.41115396 4 41 C5.093125 40.360625 6.18625 39.72125 7.3125 39.0625 C10.59421807 37.14300452 13.10883905 36 17 36 C17.804375 35.79375 18.60875 35.5875 19.4375 35.375 C22.46520505 34.93192121 23.38386531 35.56534549 26 37 C27.32 37 28.64 37 30 37 C39.2162311 40.11909862 45.11940209 46.13899103 50 54.375 C51.35788322 59.29732667 51.24762579 63.92825707 51 69 C51.66 69 52.32 69 53 69 C53 69.99 53 70.98 53 72 C53.99 72 54.98 72 56 72 C55.505 68.535 55.505 68.535 55 65 C55.66 65 56.32 65 57 65 C56.78085937 64.46246094 56.56171875 63.92492187 56.3359375 63.37109375 C55.85288777 59.96166132 57.07030519 58.09913297 58.625 55.0625 C59.38683594 53.53302734 59.38683594 53.53302734 60.1640625 51.97265625 C63.61895161 46.37867622 67.73762216 43.29275092 73.5 40.25 C74.6034375 39.65703125 75.706875 39.0640625 76.84375 38.453125 C79.6421291 37.16476234 81.96852278 36.42983632 85 36 C85 36.66 85 37.32 85 38 C85.86625 37.505 86.7325 37.01 87.625 36.5 C92.08556044 34.51752869 95.10481417 34.29481457 99.6875 36 C100.450625 36.33 101.21375 36.66 102 37 C102.99 37 103.98 37 105 37 C106.32 37 107.64 37 109 37 C109 37.66 109 38.32 109 39 C109.70125 39.0825 110.4025 39.165 111.125 39.25 C118.58488032 41.19605574 123.48220024 47.03858147 128 53 C129.4375 56.25 129.4375 56.25 130 59 C130.185625 59.86625 130.37125 60.7325 130.5625 61.625 C130.7790625 62.800625 130.7790625 62.800625 131 64 C131.17128418 64.60908203 131.34256836 65.21816406 131.51904297 65.84570312 C132.05328107 68.23865592 132.12949511 70.39267564 132.1328125 72.84375 C132.13410156 73.76027344 132.13539063 74.67679687 132.13671875 75.62109375 C132.13285156 76.57113281 132.12898437 77.52117187 132.125 78.5 C132.12886719 79.45003906 132.13273438 80.40007812 132.13671875 81.37890625 C132.13478516 82.75369141 132.13478516 82.75369141 132.1328125 84.15625 C132.13168457 84.98962891 132.13055664 85.82300781 132.12939453 86.68164062 C131.66589238 94.9862 126.77375437 103.22624563 121 109 C118.25 110.25 118.25 110.25 116 111 C115.67 111.66 115.34 112.32 115 113 C109.26192611 115.61736704 105.2496195 116.20160063 99 116 C97.39125 116.2784375 97.39125 116.2784375 95.75 116.5625 C93 117 93 117 91.13671875 116.5234375 C88.68404738 115.92260027 86.58233757 115.97319913 84.0625 116.0625 C80.24224584 116.11328624 77.4399266 115.83462752 74 114 C74 113.34 74 112.68 74 112 C73.4121875 111.89042969 72.824375 111.78085938 72.21875 111.66796875 C66.29519069 109.88464368 61.86221478 104.21331978 59 99 C56.3716748 92.45865253 54.14455068 86.0094752 56 79 C55.34 79 54.68 79 54 79 C53.17361624 81.89234315 53 83.88742431 53 87 C52.3409159 88.66967972 51.67349161 90.33607955 51 92 C50.9175 92.886875 50.835 93.77375 50.75 94.6875 C49.35562182 100.84600365 45.86752626 106.17693865 41.375 110.5625 C39.16684207 111.89901664 37.48984305 112.4664622 35 113 C34.67 113.66 34.34 114.32 34 115 C30.99984088 116.00005304 29.02576244 116.11575585 25.89453125 116.09765625 C24.91162109 116.09443359 23.92871094 116.09121094 22.91601562 116.08789062 C21.89185547 116.07951172 20.86769531 116.07113281 19.8125 116.0625 C18.25885742 116.05573242 18.25885742 116.05573242 16.67382812 116.04882812 C14.11582734 116.0370401 11.55794267 116.02058515 9 116 C9 115.34 9 114.68 9 114 C8.4225 113.855625 7.845 113.71125 7.25 113.5625 C5.16666667 113.04166667 3.08333333 112.52083333 1 112 C0.67 112.66 0.34 113.32 0 114 C-3.97915159 114.02886984 -7.95827653 114.04675406 -11.9375 114.0625 C-13.64196289 114.07506836 -13.64196289 114.07506836 -15.38085938 114.08789062 C-16.46044922 114.09111328 -17.54003906 114.09433594 -18.65234375 114.09765625 C-20.15269165 114.10551147 -20.15269165 114.10551147 -21.68334961 114.11352539 C-24 114 -24 114 -25 113 C-25.10198212 111.58795112 -25.13517966 110.17085924 -25.14044189 108.75514221 C-25.14615204 107.83951508 -25.15186218 106.92388794 -25.15774536 105.98051453 C-25.15886322 104.96802139 -25.15998108 103.95552826 -25.16113281 102.91235352 C-25.16609772 101.85228088 -25.17106262 100.79220825 -25.17617798 99.70001221 C-25.19084134 96.17630374 -25.19760809 92.65264027 -25.203125 89.12890625 C-25.20887245 86.69131976 -25.21463023 84.25373329 -25.22039795 81.81614685 C-25.23091946 76.69896228 -25.23675477 71.58179348 -25.24023438 66.46459961 C-25.24572536 59.89229469 -25.26976163 53.32019631 -25.29820633 46.74795628 C-25.31678463 41.71151613 -25.32203571 36.67512624 -25.32357025 31.63865471 C-25.32660756 29.21484178 -25.33467203 26.79102996 -25.34775543 24.36725044 C-25.36471757 20.9836851 -25.36295987 17.60063103 -25.35644531 14.21704102 C-25.3656601 13.20657211 -25.37487488 12.19610321 -25.3843689 11.15501404 C-25.37879974 10.23656708 -25.37323059 9.31812012 -25.36749268 8.37184143 C-25.36895924 7.57118035 -25.3704258 6.77051928 -25.3719368 5.94559574 C-25.24919765 5.30354915 -25.12645851 4.66150255 -25 4 C-21.51515015 1.67676677 -19.69247137 1.65782764 -15.5625 1.4375 C-10.33452608 1.14606573 -5.19845073 -0.39988083 0 0 Z M59 57 C60 59 60 59 60 59 Z M9 60 C8.29875 60.66 7.5975 61.32 6.875 62 C4.77201962 63.7862684 4.77201962 63.7862684 5 66 C4.34 66 3.68 66 3 66 C2.85388687 69.37453898 2.76566533 72.74825766 2.6875 76.125 C2.64560547 77.07632813 2.60371094 78.02765625 2.56054688 79.0078125 C2.48176876 83.54543189 2.4298914 86.97978143 5.26953125 90.6796875 C7.91081363 93.43170232 7.91081363 93.43170232 12 93 C12 93.66 12 94.32 12 95 C13.65 95 15.3 95 17 95 C17 94.34 17 93.68 17 93 C17.5775 92.95875 18.155 92.9175 18.75 92.875 C22.64121944 91.36174799 24.19878998 87.60242004 26 84 C26.33 84 26.66 84 27 84 C27.77916092 78.97874074 28.13016601 75.02296004 27 70 C26.34 70 25.68 70 25 70 C25 68.68 25 67.36 25 66 C24.34 66 23.68 66 23 66 C22.731875 65.21625 22.46375 64.4325 22.1875 63.625 C21.15185568 60.71885077 21.15185568 60.71885077 18 59 C18 58.67 18 58.34 18 58 C12.9794171 57.49708619 12.9794171 57.49708619 9 60 Z M49 58 C50 60 50 60 50 60 Z M89 60 C88.67 60.66 88.34 61.32 88 62 C87.34 62 86.68 62 86 62 C86 62.66 86 63.32 86 64 C85.34 64 84.68 64 84 64 C82.13547219 67.72905561 82.68577009 72.1452564 82.625 76.25 C82.58761719 77.19230469 82.55023438 78.13460937 82.51171875 79.10546875 C82.45425251 83.65807215 82.41484078 86.93849865 85.3984375 90.546875 C86.25695312 91.35640625 87.11546875 92.1659375 88 93 C88.66 93.66 89.32 94.32 90 95 C93.89755293 95.44123241 96.23253958 95.42835 99.6875 93.5 C102.23751378 90.74322834 103.66528334 88.10414868 105.203125 84.70703125 C106 83 106 83 107 82 C107.09879565 80.189715 107.12971514 78.37547273 107.125 76.5625 C107.12757813 75.57378906 107.13015625 74.58507812 107.1328125 73.56640625 C107.17228415 71.01090924 107.17228415 71.01090924 106 69 C105.34 69 104.68 69 104 69 C103.67 67.02 103.34 65.04 103 63 C102.01 62.67 101.02 62.34 100 62 C99.67 61.34 99.34 60.68 99 60 C97.11499729 57.68436913 97.11499729 57.68436913 94 57.75 C90.88500271 57.68436913 90.88500271 57.68436913 89 60 Z M82 64 C83 66 83 66 83 66 Z M1 68 C1 74.27 1 80.54 1 87 C1.33 87 1.66 87 2 87 C2 80.73 2 74.46 2 68 C1.67 68 1.34 68 1 68 Z M81 71 C81 74.63 81 78.26 81 82 C81.33 82 81.66 82 82 82 C82 78.37 82 74.74 82 71 C81.67 71 81.34 71 81 71 Z M82 87 C83 89 83 89 83 89 Z M49 93 C50 95 50 95 50 95 Z " fill="#864BCD" transform="translate(306,3)"/>
<path d="M0 0 C0.33 1.32 0.66 2.64 1 4 C1.66 4 2.32 4 3 4 C3.33 23.47 3.66 42.94 4 63 C6.64 58.71 9.28 54.42 12 50 C18.03514508 40.48304046 18.03514508 40.48304046 22 38 C24.54956055 37.64355469 24.54956055 37.64355469 27.38671875 37.671875 C28.40701172 37.67703125 29.42730469 37.6821875 30.47851562 37.6875 C31.53748047 37.708125 32.59644531 37.72875 33.6875 37.75 C34.75806641 37.75515625 35.82863281 37.7603125 36.93164062 37.765625 C44.84592209 37.84592209 44.84592209 37.84592209 46 39 C46.90214982 44.30013016 45.77581254 46.79234362 42.6875 51.1875 C41.4737145 52.80333605 40.24516296 54.4082178 39 56 C36.72514354 58.92404899 35.26396533 61.49978831 34 65 C33.34 65 32.68 65 32 65 C31.731875 65.928125 31.46375 66.85625 31.1875 67.8125 C30 71 30 71 28.3125 72.625 C27.879375 73.07875 27.44625 73.5325 27 74 C27.46466885 77.33980737 28.92780003 79.78915805 30.6875 82.625 C31.21988281 83.49382812 31.75226562 84.36265625 32.30078125 85.2578125 C32.86152344 86.16273437 33.42226563 87.06765625 34 88 C35.12945865 89.83058987 36.25466087 91.66381473 37.375 93.5 C37.87773438 94.3146875 38.38046875 95.129375 38.8984375 95.96875 C40 98 40 98 40 100 C40.66 100 41.32 100 42 100 C45.33031797 105.09954939 46.23998753 107.75282471 46 114 C42.10638175 114.31376324 38.2110577 114.56842028 34.3125 114.8125 C33.20970703 114.90208984 32.10691406 114.99167969 30.97070312 115.08398438 C22.78334819 115.55395339 22.78334819 115.55395339 18.9453125 112.83984375 C18.30335938 111.90269531 17.66140625 110.96554688 17 110 C16.40316406 109.14921875 15.80632813 108.2984375 15.19140625 107.421875 C14.38509766 106.09929687 14.38509766 106.09929687 13.5625 104.75 C10.47483081 99.75962239 7.27354634 94.87039822 4 90 C3.67 96.93 3.34 103.86 3 111 C2.34 111 1.68 111 1 111 C1 111.99 1 112.98 1 114 C-2.95831809 114.02892857 -6.91660917 114.04677427 -10.875 114.0625 C-12.56689453 114.07506836 -12.56689453 114.07506836 -14.29296875 114.08789062 C-15.36933594 114.09111328 -16.44570313 114.09433594 -17.5546875 114.09765625 C-18.54968262 114.10289307 -19.54467773 114.10812988 -20.56982422 114.11352539 C-23 114 -23 114 -25 113 C-25.07002065 98.82274308 -25.12275469 84.64551289 -25.15543652 70.46811867 C-25.17111899 63.88558598 -25.1924044 57.30316913 -25.22631836 50.72070312 C-25.25881965 44.37298818 -25.27683354 38.02538493 -25.28463173 31.67759323 C-25.29019186 29.25098282 -25.30104877 26.8243788 -25.31719017 24.3978157 C-25.33884154 21.00937751 -25.34197206 17.62140593 -25.34057617 14.23291016 C-25.351362 13.22087021 -25.36214783 12.20883026 -25.3732605 11.16612244 C-25.36913651 10.24623032 -25.36501251 9.3263382 -25.36076355 8.37857056 C-25.36352893 7.57661066 -25.36629431 6.77465076 -25.36914349 5.94838905 C-25.24732614 5.30542067 -25.12550879 4.66245228 -25 4 C-21.51515015 1.67676677 -19.69247137 1.65782764 -15.5625 1.4375 C-10.27911896 1.14297705 -5.26969966 -0.14638055 0 0 Z " fill="#8B4BCF" transform="translate(546,3)"/>
<path d="M0 0 C0.99 0.66 1.98 1.32 3 2 C3.99 2 4.98 2 6 2 C8.02323613 2.95211112 10.02699884 3.94773272 12 5 C12 5.66 12 6.32 12 7 C13.98491642 6.73323796 13.98491642 6.73323796 16 6 C16.33 5.01 16.66 4.02 17 3 C20.62484999 2.91318524 24.24943443 2.85967279 27.875 2.8125 C29.42380859 2.77479492 29.42380859 2.77479492 31.00390625 2.73632812 C31.99003906 2.72666016 32.97617188 2.71699219 33.9921875 2.70703125 C34.90339355 2.6913208 35.81459961 2.67561035 36.75341797 2.65942383 C37.49479004 2.77181396 38.23616211 2.8842041 39 3 C41.4637226 6.69558391 41.24787072 8.5239515 41.24291992 12.93408203 C41.24481827 13.6351709 41.24671661 14.33625977 41.24867249 15.05859375 C41.25237628 17.37511386 41.24168363 19.69132028 41.23046875 22.0078125 C41.22927683 23.61538659 41.22882381 25.22296138 41.2290802 26.83053589 C41.22751613 30.19810348 41.21923091 33.56556464 41.20581055 36.93310547 C41.1887935 41.25890012 41.18499702 45.58457809 41.18575573 49.9104023 C41.18548443 53.22855756 41.18001019 56.5466871 41.17275429 59.86483383 C41.16956322 61.460507 41.1675992 63.05618309 41.16686058 64.65185928 C41.16470317 66.87619292 41.15597289 69.10040031 41.14526367 71.32470703 C41.14145187 72.59251007 41.13764008 73.86031311 41.13371277 75.16653442 C41 78 41 78 40 79 C38.31614925 79.09934776 36.62818403 79.1308005 34.94140625 79.1328125 C33.91595703 79.13410156 32.89050781 79.13539062 31.83398438 79.13671875 C30.21459961 79.13091797 30.21459961 79.13091797 28.5625 79.125 C27.48677734 79.12886719 26.41105469 79.13273437 25.30273438 79.13671875 C24.27599609 79.13542969 23.24925781 79.13414063 22.19140625 79.1328125 C21.24467041 79.13168457 20.29793457 79.13055664 19.32250977 79.12939453 C17 79 17 79 15 78 C15 77.01 15 76.02 15 75 C14.34 75 13.68 75 13 75 C12.505 76.485 12.505 76.485 12 78 C9.9375 78.6875 9.9375 78.6875 8 79 C8 79.66 8 80.32 8 81 C4.22918278 81.02899599 0.45839417 81.04679729 -3.3125 81.0625 C-4.9202832 81.07506836 -4.9202832 81.07506836 -6.56054688 81.08789062 C-7.58857422 81.09111328 -8.61660156 81.09433594 -9.67578125 81.09765625 C-10.62364502 81.10289307 -11.57150879 81.10812988 -12.5480957 81.11352539 C-15 81 -15 81 -18 80 C-18 79.34 -18 78.68 -18 78 C-19.32 77.67 -20.64 77.34 -22 77 C-22 76.34 -22 75.68 -22 75 C-22.59554687 74.92265625 -23.19109375 74.8453125 -23.8046875 74.765625 C-26.74149487 73.74140037 -27.47831569 72.35365791 -29.125 69.75 C-29.62257813 68.98171875 -30.12015625 68.2134375 -30.6328125 67.421875 C-33.42343284 62.4784904 -34.24041284 58.90043552 -34.125 53.1875 C-34.10695312 52.02605469 -34.08890625 50.86460938 -34.0703125 49.66796875 C-34.04710937 48.78753906 -34.02390625 47.90710938 -34 47 C-34.66 47 -35.32 47 -36 47 C-37.38680665 42.83958005 -37.8509286 38.80196645 -35.9375 34.75 C-35.628125 34.1725 -35.31875 33.595 -35 33 C-35.495 31.515 -35.495 31.515 -36 30 C-35.34 29.01 -34.68 28.02 -34 27 C-33.75753217 23.79620876 -33.75753217 23.79620876 -33.875 20.3125 C-33.89304687 19.13300781 -33.91109375 17.95351563 -33.9296875 16.73828125 C-33.95289062 15.83464844 -33.97609375 14.93101563 -34 14 C-33.01 14.66 -32.02 15.32 -31 16 C-30.5875 15.48050781 -30.175 14.96101563 -29.75 14.42578125 C-24.21759942 7.74491358 -18.51407598 3.22987704 -10 1 C-9.34 1 -8.68 1 -8 1 C-5.01413769 0.00471256 -3.10857 -0.23314275 0 0 Z M-33 23 C-32 25 -32 25 -32 25 Z M-1 23 C-1 23.66 -1 24.32 -1 25 C-1.78375 25.61875 -2.5675 26.2375 -3.375 26.875 C-5.92145145 28.93641307 -6.98407422 29.95222265 -8 33 C-8.16750414 35.66709069 -8.16750414 35.66709069 -8 38 C-8.66 38 -9.32 38 -10 38 C-10 40.31 -10 42.62 -10 45 C-9.34 45 -8.68 45 -8 45 C-8.103125 46.03125 -8.20625 47.0625 -8.3125 48.125 C-7.90244435 53.20969006 -6.63665525 54.5324915 -3 58 C-2.01 58 -1.02 58 0 58 C0 58.66 0 59.32 0 60 C1.65 60 3.3 60 5 60 C5 59.34 5 58.68 5 58 C5.763125 57.938125 6.52625 57.87625 7.3125 57.8125 C10.86603592 56.73817519 11.28910977 55.18847725 13 52 C13.99 51.34 14.98 50.68 16 50 C16.30471206 47.42189701 16.41857771 45.13600582 16.375 42.5625 C16.38660156 41.88123047 16.39820312 41.19996094 16.41015625 40.49804688 C16.42492745 36.59050449 16.42492745 36.59050449 14.61328125 33.2578125 C14.08089844 32.84273437 13.54851562 32.42765625 13 32 C11.54321123 29.72468109 10.29838196 27.37290496 9 25 C8.34 25 7.68 25 7 25 C6.67 24.34 6.34 23.68 6 23 C3.69 23 1.38 23 -1 23 Z M-33 58 C-32 60 -32 60 -32 60 Z " fill="#874ACE" transform="translate(98,38)"/>
<path d="M0 0 C1.32 0 2.64 0 4 0 C5.91675521 0.53408879 7.81325027 1.14437626 9.6875 1.8125 C10.66074219 2.14894531 11.63398438 2.48539063 12.63671875 2.83203125 C13.41660156 3.21746094 14.19648438 3.60289063 15 4 C15.495 5.485 15.495 5.485 16 7 C16.66 7.33 17.32 7.66 18 8 C22.95313119 12.3014034 26.69514623 17.34175481 27.25 24 C27.1675 24.66 27.085 25.32 27 26 C27.66 26.33 28.32 26.66 29 27 C28.06011117 34.6757588 27.02223811 42.3332142 26 50 C11.81 50.33 -2.38 50.66 -17 51 C-16.34 52.65 -15.68 54.3 -15 56 C-11.94727535 56.89830839 -11.94727535 56.89830839 -9 57 C-9 57.66 -9 58.32 -9 59 C-8.40832031 58.91621094 -7.81664062 58.83242187 -7.20703125 58.74609375 C-2.90060543 58.19110576 0.75552644 57.76773348 5 59 C5 58.34 5 57.68 5 57 C5.7425 57.020625 6.485 57.04125 7.25 57.0625 C10.65948072 56.9850118 13.06558187 56.50968262 16.0625 54.875 C18 54 18 54 21 55 C21.6875 57.0625 21.6875 57.0625 22 59 C22.66 59 23.32 59 24 59 C24.22786458 60.98567708 24.45572917 62.97135417 24.68359375 64.95703125 C24.97170735 67.19396393 24.97170735 67.19396393 26 70 C25.5625 72.1875 25.5625 72.1875 25 74 C24.34 74 23.68 74 23 74 C22.505 75.485 22.505 75.485 22 77 C16.58344669 79.21640147 10.74789588 79.10084028 5 79 C4.01 79.495 4.01 79.495 3 80 C-11.13990316 80.63845512 -23.67943923 80.27657063 -35 71 C-44.78160196 60.47736758 -45.18081231 50.48244247 -45.125 36.6875 C-45.12886719 35.71232422 -45.13273438 34.73714844 -45.13671875 33.73242188 C-45.13542969 32.79333984 -45.13414062 31.85425781 -45.1328125 30.88671875 C-45.13168457 30.04326904 -45.13055664 29.19981934 -45.12939453 28.33081055 C-44.90077387 24.21261916 -43.57797611 20.78714266 -42 17 C-41.34 17 -40.68 17 -40 17 C-39.773125 16.278125 -39.54625 15.55625 -39.3125 14.8125 C-37.73664872 11.43567583 -35.79123384 9.44232961 -33 7 C-32.34 7 -31.68 7 -31 7 C-30.67 6.01 -30.34 5.02 -30 4 C-28.0390625 3.12109375 -28.0390625 3.12109375 -25.625 2.4375 C-22.54588761 1.54987314 -20.72662828 0.81775218 -18 -1 C-17.01 -1 -16.02 -1 -15 -1 C-15 -0.34 -15 0.32 -15 1 C-14.01 0.46375 -13.02 -0.0725 -12 -0.625 C-7.44776664 -2.6102539 -4.63664928 -1.44420223 0 0 Z M-10 19 C-10 19.66 -10 20.32 -10 21 C-10.78375 21.0825 -11.5675 21.165 -12.375 21.25 C-15.12283152 21.72323153 -15.12283152 21.72323153 -16.25 23.9375 C-16.4975 24.618125 -16.745 25.29875 -17 26 C-17.33 26.66 -17.66 27.32 -18 28 C-17.67 28.99 -17.34 29.98 -17 31 C-10.4 31 -3.8 31 3 31 C2.60529402 24.35667525 2.60529402 24.35667525 -0.125 21.0625 C-3.6696295 18.51961362 -5.730679 18.58143912 -10 19 Z M25 21 C26 24 26 24 26 24 Z M3 24 C4 27 4 27 4 27 Z " fill="#874CCD" transform="translate(249,40)"/>
<path d="M0 0 C2.02417134 0.95012124 4.02583732 1.94991347 6 3 C6.928125 3.226875 7.85625 3.45375 8.8125 3.6875 C17.34152347 7.19945084 22.1677846 13.91795486 25.91796875 22.08984375 C27.31082379 25.83597013 27.78290465 29.01991862 28 33 C28.33 33.99 28.66 34.98 29 36 C29.09225211 37.49774018 29.1300019 38.99942974 29.125 40.5 C29.12886719 41.66015625 29.12886719 41.66015625 29.1328125 42.84375 C29 45 29 45 28 48 C28 48.804375 28 49.60875 28 50.4375 C28 54.70495116 26.63007961 58.08780895 25 62 C24.34 62 23.68 62 23 62 C22.896875 62.556875 22.79375 63.11375 22.6875 63.6875 C21.01056315 69.32810576 17.97349265 72.08215692 13.125 75.25 C12.09632813 75.93578125 11.06765625 76.6215625 10.0078125 77.328125 C4.93091103 80.15009101 0.71161535 80 -5 80 C-6.03125 80.185625 -7.0625 80.37125 -8.125 80.5625 C-11.17842692 81.02715192 -13.00199952 80.62748847 -16 80 C-18.30857032 79.96322631 -20.60616314 79.99948568 -22.9140625 80.0625 C-25 80 -25 80 -28 79 C-28 78.34 -28 77.68 -28 77 C-29.0209375 76.9071875 -29.0209375 76.9071875 -30.0625 76.8125 C-36.5189959 75.02666071 -39.94648956 71.5037319 -43.3125 65.9375 C-44.23105273 64.30423774 -45.12871029 62.65895719 -46 61 C-46.58974609 59.94232422 -46.58974609 59.94232422 -47.19140625 58.86328125 C-48.30120797 56.30591207 -47.7297978 54.62727207 -47 52 C-47.66 52 -48.32 52 -49 52 C-48.690625 51.071875 -48.690625 51.071875 -48.375 50.125 C-48.25125 49.42375 -48.1275 48.7225 -48 48 C-48.66 47.34 -49.32 46.68 -50 46 C-50.265625 43.72265625 -50.265625 43.72265625 -50.25 41.0625 C-50.25515625 40.18722656 -50.2603125 39.31195313 -50.265625 38.41015625 C-50 36 -50 36 -48 33 C-48.185625 32.278125 -48.37125 31.55625 -48.5625 30.8125 C-49.53256912 24.5763414 -45.42810023 18.72038211 -42.28125 13.56640625 C-41 12 -41 12 -38 11 C-37.70867187 10.37351562 -37.41734375 9.74703125 -37.1171875 9.1015625 C-35.61802958 6.28146822 -33.99648147 5.69571106 -31.125 4.375 C-30.26132812 3.97023438 -29.39765625 3.56546875 -28.5078125 3.1484375 C-27.68023437 2.76945312 -26.85265625 2.39046875 -26 2 C-25.27554687 1.61070313 -24.55109375 1.22140625 -23.8046875 0.8203125 C-21.46845613 -0.24161085 -20.432304 0.391924 -18 1 C-17.401875 0.690625 -16.80375 0.38125 -16.1875 0.0625 C-11.30489102 -2.30905294 -5.15711332 -1.03142266 0 0 Z M-15 24 C-16.2684375 24.8353125 -16.2684375 24.8353125 -17.5625 25.6875 C-20.70252907 28.66650194 -20.75612664 30.77286181 -21 35 C-21.66 35 -22.32 35 -23 35 C-23.05423638 36.91635217 -23.09289963 38.83314925 -23.125 40.75 C-23.14820313 41.81734375 -23.17140625 42.8846875 -23.1953125 43.984375 C-23.00142753 46.97795891 -22.53046502 48.47695079 -21 51 C-20.319375 52.3303125 -20.319375 52.3303125 -19.625 53.6875 C-18.21797498 56.15419458 -18.21797498 56.15419458 -15.8125 56.8125 C-14.9153125 56.9053125 -14.9153125 56.9053125 -14 57 C-14 57.66 -14 58.32 -14 59 C-12.02 59 -10.04 59 -8 59 C-8 58.34 -8 57.68 -8 57 C-7.236875 56.938125 -6.47375 56.87625 -5.6875 56.8125 C-2.80623326 56.24093374 -2.80623326 56.24093374 -1.3125 53.625 C-0.879375 52.75875 -0.44625 51.8925 0 51 C0.66 50.01 1.32 49.02 2 48 C2.24270825 44.56692835 2.24270825 44.56692835 2.125 40.8125 C2.10695313 39.54019531 2.08890625 38.26789063 2.0703125 36.95703125 C2.04710937 35.98121094 2.02390625 35.00539063 2 34 C1.34 34 0.68 34 0 34 C-0.061875 33.0925 -0.12375 32.185 -0.1875 31.25 C-1.19220471 27.23118116 -2.68045629 26.3236806 -6 24 C-6.33 23.34 -6.66 22.68 -7 22 C-11.49304582 21.57496554 -11.49304582 21.57496554 -15 24 Z " fill="#854BCC" transform="translate(490,39)"/>
<path d="M0 0 C0.82371094 -0.01611328 1.64742187 -0.03222656 2.49609375 -0.04882812 C6.07198618 -0.05170727 8.88838425 0.1910342 12.296875 1.3359375 C14.73503845 3.80335891 14.8485879 5.66223892 14.8359375 9.06835938 C14.79339844 10.14827148 14.79339844 10.14827148 14.75 11.25 C14.75386719 12.32411133 14.75386719 12.32411133 14.7578125 13.41992188 C14.70028712 16.52341632 14.40717897 18.98148734 13.0703125 21.796875 C10.53910812 23.90440139 8.87607792 23.74938161 5.625 23.625 C4.15160156 23.58826172 4.15160156 23.58826172 2.6484375 23.55078125 C0.25 23.3125 0.25 23.3125 -0.75 22.3125 C-2.36724611 23.42539898 -2.36724611 23.42539898 -3.75 25.3125 C-4.11319309 28.28442762 -4.11319309 28.28442762 -3.9375 31.5 C-3.91042969 32.58667969 -3.88335937 33.67335937 -3.85546875 34.79296875 C-3.80326172 36.04013672 -3.80326172 36.04013672 -3.75 37.3125 C-2.70199219 37.34988281 -1.65398438 37.38726562 -0.57421875 37.42578125 C0.80472305 37.49144515 2.18362771 37.55789235 3.5625 37.625 C4.25279297 37.64755859 4.94308594 37.67011719 5.65429688 37.69335938 C8.6404024 37.85204131 10.7682717 37.9696228 13.2421875 39.73046875 C14.25 41.3125 14.25 41.3125 14.0625 43.3125 C13.25 45.3125 13.25 45.3125 11.25 48.3125 C10.82885802 50.98447035 10.82885802 50.98447035 10.6875 53.875 C10.34618321 59.12013359 10.34618321 59.12013359 9.25 61.3125 C2.815 61.8075 2.815 61.8075 -3.75 62.3125 C-4.08 79.4725 -4.41 96.6325 -4.75 114.3125 C-13.33 114.3125 -21.91 114.3125 -30.75 114.3125 C-31.99177521 111.82894959 -31.87036681 110.18142378 -31.86352539 107.40380859 C-31.86344986 106.38290131 -31.86337433 105.36199402 -31.86329651 104.31015015 C-31.85813522 103.20490997 -31.85297394 102.0996698 -31.84765625 100.9609375 C-31.8462413 99.8317691 -31.84482635 98.70260071 -31.84336853 97.53921509 C-31.83775744 93.92195012 -31.82520303 90.30474636 -31.8125 86.6875 C-31.80748643 84.23958423 -31.80292328 81.79166748 -31.79882812 79.34375 C-31.78778439 73.33330964 -31.77051229 67.32291521 -31.75 61.3125 C-36.04 61.3125 -40.33 61.3125 -44.75 61.3125 C-44.75 53.7225 -44.75 46.1325 -44.75 38.3125 C-40.46 38.3125 -36.17 38.3125 -31.75 38.3125 C-31.729375 36.270625 -31.70875 34.22875 -31.6875 32.125 C-31.67589844 30.97644531 -31.66429687 29.82789062 -31.65234375 28.64453125 C-31.63925454 25.40209875 -31.63925454 25.40209875 -32.35546875 22.66796875 C-33.07219797 18.3888824 -30.85055999 14.95037834 -28.75 11.3125 C-26.3125 8.5 -26.3125 8.5 -23.75 6.3125 C-23.0075 5.590625 -22.265 4.86875 -21.5 4.125 C-15.18812649 -0.03509845 -7.35474674 -0.02932515 0 0 Z M-29.75 15.3125 C-28.75 18.3125 -28.75 18.3125 -28.75 18.3125 Z M-5.75 23.3125 C-4.75 25.3125 -4.75 25.3125 -4.75 25.3125 Z M-6.75 25.3125 C-5.75 28.3125 -5.75 28.3125 -5.75 28.3125 Z " fill="#824BC9" transform="translate(52.75,2.6875)"/>
<path d="M0 0 C0.64066406 -0.16757812 1.28132813 -0.33515625 1.94140625 -0.5078125 C5.62972868 -1.3896505 8.73940405 0.30190746 12 2 C15 4.5625 15 4.5625 17 7 C17 7.66 17 8.32 17 9 C16.34 9 15.68 9 15 9 C15.495 10.485 15.495 10.485 16 12 C15.51171875 13.9375 15.51171875 13.9375 14.6875 16 C14.42324219 16.680625 14.15898437 17.36125 13.88671875 18.0625 C12.58094991 20.91563368 10.73822606 23.39266091 9 26 C8.113125 25.690625 7.22625 25.38125 6.3125 25.0625 C3.1361755 23.96689427 3.1361755 23.96689427 0.3125 23.5 C-2 23 -2 23 -5 21 C-8.32240324 21.3241369 -9.60776303 21.60776303 -12 24 C-12.825 24.28875 -13.65 24.5775 -14.5 24.875 C-17.42349625 26.19057331 -17.8726306 27.08762904 -19 30 C-19.33 30.33 -19.66 30.66 -20 31 C-19.98811788 33.76853462 -19.90062614 36.48852085 -19.75 39.25 C-19.72292969 40.01441406 -19.69585937 40.77882812 -19.66796875 41.56640625 C-19.42411306 46.12100116 -18.94518705 49.31677553 -16 53 C-12.93319201 54.82629794 -12.93319201 54.82629794 -10 56 C-10 56.66 -10 57.32 -10 58 C-9.2575 57.814375 -8.515 57.62875 -7.75 57.4375 C-5.05009037 57.00796892 -3.55368923 57.14877026 -1 58 C-1 57.34 -1 56.68 -1 56 C0.66666667 55.66666667 2.33333333 55.33333333 4 55 C4.886875 54.773125 5.77375 54.54625 6.6875 54.3125 C7.450625 54.209375 8.21375 54.10625 9 54 C12.29732471 57.29732471 13.54764356 61.29019082 15.125 65.625 C15.47820312 66.58664063 15.83140625 67.54828125 16.1953125 68.5390625 C17 71 17 71 17 73 C10.55877543 79.14163273 5.25300295 79.16506813 -3.375 79.125 C-4.6125 79.13080078 -4.6125 79.13080078 -5.875 79.13671875 C-10.68419395 79.12908511 -15.23784065 78.74445667 -20 78 C-21.32 78 -22.64 78 -24 78 C-25.67225729 77.69595322 -27.34080104 77.36871088 -29 77 C-29 76.34 -29 75.68 -29 75 C-29.680625 74.79375 -30.36125 74.5875 -31.0625 74.375 C-37.65656787 71.28841504 -42.09144976 66.63149454 -45 60 C-45.03824623 57.66698014 -45.04574284 55.33288492 -45 53 C-45.99 52.34 -46.98 51.68 -48 51 C-48.31845551 47.89505874 -47.99424641 45.98273923 -47 43 C-46.95711723 41.64651249 -46.95951966 40.29106149 -47 38.9375 C-47 35 -47 35 -46 33 C-46.66 33 -47.32 33 -48 33 C-47.91291331 31.54054712 -47.80473093 30.08234132 -47.6875 28.625 C-47.62949219 27.81289062 -47.57148438 27.00078125 -47.51171875 26.1640625 C-47 24 -47 24 -44 22 C-44.01417969 21.24589844 -44.02835938 20.49179687 -44.04296875 19.71484375 C-43.9674879 14.94582614 -40.82919652 12.16927039 -37.84765625 8.66796875 C-32.22578509 3.40083843 -24.66871711 -0.00789324 -17 -1 C-16.34 -0.67 -15.68 -0.34 -15 0 C-14.0925 -0.33 -13.185 -0.66 -12.25 -1 C-7.65698568 -2.41323518 -4.46532934 -1.48844311 0 0 Z M11 17 C12 20 12 20 12 20 Z M-22 34 C-22 37.63 -22 41.26 -22 45 C-21.67 45 -21.34 45 -21 45 C-21 41.37 -21 37.74 -21 34 C-21.33 34 -21.66 34 -22 34 Z M-21 49 C-20 51 -20 51 -20 51 Z M11 60 C12 63 12 63 12 63 Z " fill="#864BCB" transform="translate(190,40)"/>
<path d="M0 0 C0.66 0 1.32 0 2 0 C2.33 19.47 2.66 38.94 3 59 C3.66 59.33 4.32 59.66 5 60 C4.01 61.32 3.02 62.64 2 64 C1.34 63.67 0.68 63.34 0 63 C0 42.21 0 21.42 0 0 Z " fill="#F808FD" transform="translate(547,7)"/>
<path d="M0 0 C0.99 0.33 1.98 0.66 3 1 C2.67 18.49 2.34 35.98 2 54 C-0.18971746 50.71542381 -0.24583902 49.7824019 -0.22705078 45.9777832 C-0.22689972 44.95695145 -0.22674866 43.93611969 -0.22659302 42.88435364 C-0.21110916 41.23423531 -0.21110916 41.23423531 -0.1953125 39.55078125 C-0.1924826 38.4230278 -0.18965271 37.29527435 -0.18673706 36.13334656 C-0.17552916 32.52629042 -0.15042323 28.91948127 -0.125 25.3125 C-0.114971 22.86914421 -0.10584501 20.42578453 -0.09765625 17.98242188 C-0.07558783 11.98819677 -0.04210417 5.99411603 0 0 Z " fill="#412264" transform="translate(46,63)"/>
<path d="M0 0 C0.99 0.33 1.98 0.66 3 1 C2.67 9.25 2.34 17.5 2 26 C1.34 26 0.68 26 0 26 C0 17.42 0 8.84 0 0 Z " fill="#FF04FF" transform="translate(547,88)"/>
<path d="M0 0 C0.66 0.33 1.32 0.66 2 1 C1.855625 2.093125 1.71125 3.18625 1.5625 4.3125 C0.90689307 9.529258 0.45251777 14.76234747 0 20 C-0.33 20 -0.66 20 -1 20 C-1.02703562 17.41659616 -1.04685611 14.83347692 -1.0625 12.25 C-1.07087891 11.52039063 -1.07925781 10.79078125 -1.08789062 10.0390625 C-1.10391684 6.51329442 -0.95292713 3.38965084 0 0 Z " fill="#2A10CC" transform="translate(276,66)"/>
<path d="M0 0 C0 1.98 0 3.96 0 6 C-0.66 6 -1.32 6 -2 6 C-2.33 6.99 -2.66 7.98 -3 9 C-3.33 6.36 -3.66 3.72 -4 1 C-2 0 -2 0 0 0 Z " fill="#D619FF" transform="translate(362,76)"/>
<path d="M0 0 C0.99 0.33 1.98 0.66 3 1 C1.35 2.98 -0.3 4.96 -2 7 C-2.33 6.01 -2.66 5.02 -3 4 C-1.5625 1.8125 -1.5625 1.8125 0 0 Z " fill="#9351BE" transform="translate(155,46)"/>
<path d="M0 0 C0.33 0.66 0.66 1.32 1 2 C-0.8125 4.5 -0.8125 4.5 -3 7 C-3.99 7 -4.98 7 -6 7 C-4.77065985 3.31197956 -3.06140622 2.27643027 0 0 Z " fill="#8751B2" transform="translate(31,7)"/>
<path d="M0 0 C0.33 0 0.66 0 1 0 C1 4.62 1 9.24 1 14 C0.67 14 0.34 14 0 14 C0 9.38 0 4.76 0 0 Z " fill="#AA4FD4" transform="translate(112,73)"/>
<path d="M0 0 C0.33 0 0.66 0 1 0 C1 3.96 1 7.92 1 12 C0.67 12 0.34 12 0 12 C0 8.04 0 4.08 0 0 Z " fill="#9F60FF" transform="translate(438,73)"/>
<path d="M0 0 C0.33 0 0.66 0 1 0 C1 2.97 1 5.94 1 9 C0.67 9 0.34 9 0 9 C0 6.03 0 3.06 0 0 Z " fill="#FF00FF" transform="translate(203,75)"/>
<path d="M0 0 C0.66 1.32 1.32 2.64 2 4 C1.01 4.495 1.01 4.495 0 5 C0 3.35 0 1.7 0 0 Z " fill="#792ACE" transform="translate(357,65)"/>
<path d="M0 0 C0.33 0 0.66 0 1 0 C1 1.65 1 3.3 1 5 C0.34 4.01 -0.32 3.02 -1 2 C-0.67 1.34 -0.34 0.68 0 0 Z " fill="#B18DD4" transform="translate(63,88)"/>
<path d="M0 0 C0.66 0 1.32 0 2 0 C1.67 0.99 1.34 1.98 1 3 C0.67 2.01 0.34 1.02 0 0 Z " fill="#554455" transform="translate(143,93)"/>
<path d="" fill="#FF00FF" transform="translate(0,0)"/>
<path d="" fill="#BF40BF" transform="translate(0,0)"/>
<path d="" fill="#FF00FF" transform="translate(0,0)"/>
</svg>
