<?xml version="1.0" encoding="UTF-8"?>
<svg version="1.1" xmlns="http://www.w3.org/2000/svg" width="522" height="176">
<path d="M0 0 C1.59534282 1.34966003 3.12825579 2.7728173 4.640625 4.21484375 C4.18992642 9.01651706 2.23402706 11.21676653 -1.109375 14.58984375 C-1.97046875 15.48445313 -2.8315625 16.3790625 -3.71875 17.30078125 C-6.359375 19.21484375 -6.359375 19.21484375 -8.93359375 19.1796875 C-11.44787785 18.17964213 -13.27241323 17.03825396 -15.421875 15.40234375 C-25.61003555 8.4482539 -36.32523499 7.04519287 -48.359375 8.21484375 C-60.26666219 10.57120386 -70.36305389 17.30933809 -77.359375 27.21484375 C-84.30209804 38.79220372 -86.31071727 51.29454682 -83.70703125 64.53125 C-80.15195835 76.23400071 -73.79098158 85.68954091 -63.359375 92.21484375 C-52.38441942 97.76460061 -40.41563434 100.42742331 -28.328125 96.91015625 C-22.13360141 94.72240784 -16.75064819 91.93738952 -11.359375 88.21484375 C-10.369375 87.88484375 -9.379375 87.55484375 -8.359375 87.21484375 C-7.25791422 85.4145554 -7.25791422 85.4145554 -6.359375 83.21484375 C-5.75609375 82.06048828 -5.75609375 82.06048828 -5.140625 80.8828125 C-4.7178125 80.06425781 -4.295 79.24570313 -3.859375 78.40234375 C-3.4365625 77.59152344 -3.01375 76.78070313 -2.578125 75.9453125 C-1.00173013 72.58603328 -1.00173013 72.58603328 0.640625 66.21484375 C-13.219375 66.21484375 -27.079375 66.21484375 -41.359375 66.21484375 C-41.359375 59.61484375 -41.359375 53.01484375 -41.359375 46.21484375 C-20.899375 46.21484375 -0.439375 46.21484375 20.640625 46.21484375 C23.47716427 63.23407935 20.86836986 79.57587763 11.640625 94.21484375 C1.97382911 107.28923002 -11.53750764 114.99339068 -27.359375 118.21484375 C-47.79843767 120.91166452 -66.61053045 116.70721502 -83.359375 104.21484375 C-94.84160234 94.51465809 -103.81291306 80.16763048 -106.359375 65.21484375 C-107.91183305 46.4978606 -106.30125627 28.8016406 -94.2890625 13.59375 C-70.31592618 -13.84588512 -30.76609141 -23.27831751 0 0 Z " fill="#844CCD" transform="translate(109.359375,15.78515625)"/>
<path d="M0 0 C0 -1.32 0 -2.64 0 -4 C6.27 -4 12.54 -4 19 -4 C19.09088547 6.54551156 19.16405019 17.09075693 19.20724869 27.63657379 C19.2279967 32.53504658 19.25607634 37.43323422 19.30175781 42.33154297 C19.34567718 47.07134241 19.36923284 51.81087009 19.37950897 56.55085754 C19.38681862 58.34630096 19.40108866 60.14173193 19.42292023 61.9370575 C19.60657056 77.68654364 18.83955861 93.74370714 7.33984375 105.73046875 C-2.12581796 114.46302682 -13.0091196 116.46627189 -25.56640625 116.25 C-33.83253748 115.64814289 -40.33231544 112.80188996 -47 108 C-48.5159375 106.948125 -48.5159375 106.948125 -50.0625 105.875 C-54.37361086 102.1695824 -57.38853524 96.9911427 -60 92 C-60 91.01 -60 90.02 -60 89 C-57.77735746 87.9623658 -55.54874335 86.94503821 -53.3125 85.9375 C-52.68666016 85.64294922 -52.06082031 85.34839844 -51.41601562 85.04492188 C-48.57566829 83.78089295 -46.34957244 82.99016674 -43.22265625 83.078125 C-40.489247 84.21184131 -39.68523153 85.32443847 -38.125 87.8125 C-34.30697183 93.24734622 -30.74342848 95.32538644 -24.1875 96.9375 C-18.44490632 97.37237603 -12.57838251 96.15395741 -8.1015625 92.4140625 C-3.6935515 87.48999167 -1.85240312 82.79157655 -1.375 76.1875 C-1.30023438 75.21167969 -1.22546875 74.23585938 -1.1484375 73.23046875 C-1.09945312 72.49441406 -1.05046875 71.75835937 -1 71 C-1.53367187 71.40992187 -2.06734375 71.81984375 -2.6171875 72.2421875 C-11.10708275 78.38193874 -18.69301497 79.69832226 -29.05078125 78.53125 C-40.68073446 76.43631803 -49.55670707 69.80903844 -56.49609375 60.40625 C-58.93974744 56.4964041 -60.59306616 52.37964888 -62 48 C-62.19335938 47.40058594 -62.38671875 46.80117187 -62.5859375 46.18359375 C-65.01194389 33.38984306 -62.64333532 21.19049661 -55.640625 10.3125 C-49.48659785 1.6382522 -40.36289916 -4.40455236 -29.86328125 -6.6796875 C-18.63745887 -7.93550938 -9.58338077 -6.04169657 0 0 Z M-36.8125 18.875 C-41.38603847 25.40862639 -43.36121718 30.97885376 -43 39 C-41.38336431 45.92973615 -38.98015981 52.41613495 -32.83984375 56.40234375 C-27.24506502 59.52400545 -22.39240231 61.22530677 -16 60 C-9.85091439 58.0819366 -5.37339818 54.46867655 -2 49 C1.55862101 41.38922659 1.82961068 33.72618693 -0.72265625 25.73828125 C-3.50332169 19.41858706 -8.59591787 14.6090705 -15 12 C-23.58441818 10.8536336 -30.93381229 12.24621267 -36.8125 18.875 Z " fill="#854CCD" transform="translate(380,56)"/>
<path d="M0 0 C7.78148395 5.84554125 13.05971368 13.70841143 16.41796875 22.81640625 C16.45811774 24.48258926 16.46415009 26.15037952 16.41796875 27.81640625 C15.23879883 28.30520264 14.05962891 28.79399902 12.84472656 29.29760742 C8.41645857 31.13327281 3.98825017 32.96908192 -0.43994141 34.80493164 C-2.34650099 35.59533466 -4.25307615 36.38570012 -6.15966797 37.17602539 C-21.37609811 43.4835897 -21.37609811 43.4835897 -36.58203125 49.81640625 C-34.50655653 54.34643783 -31.71170577 56.59944938 -27.39453125 59.06640625 C-20.64843747 60.86536459 -14.51662171 60.52366291 -8.390625 57.109375 C-6.46970663 55.73610506 -4.98740025 54.24268691 -3.39453125 52.50390625 C-2.46640625 51.61703125 -1.53828125 50.73015625 -0.58203125 49.81640625 C3.99055385 49.97300163 7.05651055 52.33539673 10.73046875 54.87890625 C12.33341797 55.97912109 12.33341797 55.97912109 13.96875 57.1015625 C15.18111328 57.95041016 15.18111328 57.95041016 16.41796875 58.81640625 C13.5615704 66.91415692 6.90640103 71.99491735 -0.58203125 75.81640625 C-12.10709631 81.08500742 -24.70051627 80.70668952 -36.58203125 76.81640625 C-42.42258168 74.09860345 -47.37110609 70.72915227 -51.58203125 65.81640625 C-52.07316406 65.254375 -52.56429688 64.69234375 -53.0703125 64.11328125 C-60.83114586 54.63851694 -63.08336954 43.62715998 -62.3984375 31.58984375 C-61.20436429 21.27403599 -57.197324 11.09324155 -49.58203125 3.81640625 C-34.75568627 -7.46822535 -16.12228241 -10.37325147 0 0 Z M-36.51953125 19.75390625 C-40.27966121 24.4540687 -41.67186709 27.79740495 -41.58203125 33.81640625 C-37.60169173 32.23601052 -33.62298105 30.65155245 -29.64453125 29.06640625 C-28.52755859 28.62296875 -27.41058594 28.17953125 -26.25976562 27.72265625 C-19.97226706 25.21503219 -13.73820493 22.63213634 -7.58203125 19.81640625 C-9.33885124 15.99551973 -10.65817538 14.56961845 -14.58203125 12.81640625 C-23.49731211 10.39283475 -30.36671309 13.02784416 -36.51953125 19.75390625 Z " fill="#854CCD" transform="translate(499.58203125,55.18359375)"/>
<path d="M0 0 C1.30904297 0.65355469 1.30904297 0.65355469 2.64453125 1.3203125 C12.82921331 6.90890865 19.45650272 15.37595453 22.75 26.54296875 C25.83603578 40.36583736 23.50112616 52.96832641 16 65 C8.71653762 74.10432798 -0.7951689 79.83612595 -12.33203125 81.47265625 C-26.46038048 82.80436414 -38.15244147 79.80943179 -49.375 70.75 C-58.36281551 62.22932666 -62.01988835 51.27615201 -62.4375 39.125 C-62.1139829 26.28277768 -57.69676755 15.18945292 -48.375 6.3125 C-34.73573655 -4.98333788 -15.98255002 -8.07909122 0 0 Z M-36.3125 22.6875 C-40.81846254 29.34795282 -42.7555439 35.55774625 -41.5625 43.5859375 C-39.74247362 51.39688405 -35.59050928 56.49004847 -29 61 C-22.87956306 63.7201942 -16.24965058 63.58642662 -9.98046875 61.24609375 C-4.1600016 58.21539299 0.12452964 53.22514076 2.49609375 47.11328125 C4.22657398 39.85599595 3.94762269 31.47242731 0 25 C-3.84640042 20.07024649 -7.901864 16.7278052 -14 15 C-23.2251587 13.89353419 -30.30791302 15.3142204 -36.3125 22.6875 Z " fill="#844CCD" transform="translate(197,53)"/>
<path d="M0 0 C9.22640396 7.75442833 14.42985073 17.17266074 15.6875 29.24609375 C16.45735112 41.65994301 13.40070485 52.85852392 5.71484375 62.796875 C-2.61457456 71.79143742 -13.12521756 76.50122733 -25.3125 77.24609375 C-37.11356726 77.35240967 -48.2528403 73.97833078 -57.3125 66.24609375 C-67.31276617 55.96112249 -70.73502887 44.90529539 -70.58984375 30.7578125 C-69.67869562 19.22088056 -64.95529271 9.38125787 -56.5625 1.49609375 C-40.48249859 -11.7048217 -16.78023344 -12.72690003 0 0 Z M-44.625 17.87109375 C-49.00718869 24.32464485 -51.18878492 31.31661628 -49.875 39.08984375 C-47.87796363 46.74514982 -43.83117597 51.78529847 -37.3125 56.24609375 C-31.19206306 58.96628795 -24.56215058 58.83252037 -18.29296875 56.4921875 C-12.52083709 53.48665489 -8.16857043 48.49886211 -5.8203125 42.42578125 C-4.17023692 35.34314913 -4.11941267 27.39471374 -7.91015625 21.02734375 C-12.36418659 15.36985674 -17.60968123 10.85064145 -24.92578125 9.91015625 C-33.36168506 9.78807371 -39.1241087 11.21070085 -44.625 17.87109375 Z " fill="#844CCD" transform="translate(296.3125,57.75390625)"/>
<path d="M0 0 C6.6 0 13.2 0 20 0 C20 41.25 20 82.5 20 125 C13.4 125 6.8 125 0 125 C0 83.75 0 42.5 0 0 Z " fill="#844CCD" transform="translate(410,7)"/>
</svg>
