<?xml version="1.0" encoding="UTF-8"?>
<svg version="1.1" xmlns="http://www.w3.org/2000/svg" width="512" height="512">
<path d="M0 0 C1.91464265 -0.00542692 3.82928111 -0.01255277 5.74391174 -0.02124023 C10.92168398 -0.03940985 16.09913588 -0.03243202 21.2769134 -0.01972389 C26.70899586 -0.00956174 32.14105179 -0.01899862 37.57313538 -0.02526855 C46.69464007 -0.03253622 55.81601502 -0.02298099 64.9375 -0.00390625 C75.46446162 0.0178542 85.99111321 0.01081349 96.5180673 -0.01121187 C105.57486836 -0.02939874 114.63157641 -0.03190793 123.68838984 -0.0214572 C129.08942495 -0.0152395 134.49031464 -0.01433895 139.89134026 -0.02760315 C144.97143532 -0.03920867 150.05113311 -0.03105027 155.13118553 -0.00802612 C156.98907056 -0.0027638 158.84698936 -0.00421006 160.70486069 -0.01307678 C173.34519956 -0.06781351 184.63746269 0.28807486 194.32446289 9.51757812 C199.61072129 15.65491214 202.15835948 21.89845016 202.19429016 29.9425354 C202.20502312 31.59510849 202.20502312 31.59510849 202.2159729 33.28106689 C202.2186618 34.48527283 202.22135071 35.68947876 202.22412109 36.93017578 C202.23069229 38.20216827 202.23726349 39.47416077 202.24403381 40.78469849 C202.26503356 45.00033313 202.27543444 49.21596795 202.28540039 53.43164062 C202.2894499 54.8863362 202.29356688 56.34103158 202.29775047 57.79572678 C202.31679556 64.63331427 202.33102632 71.47089103 202.33936244 78.30849993 C202.34912354 86.18361746 202.37541618 94.05845306 202.41586334 101.93347132 C202.44610028 108.03132469 202.46083859 114.1290976 202.46414346 120.22702444 C202.4664859 123.86370265 202.47533989 127.50007946 202.50060463 131.13667679 C202.52838379 135.20083366 202.52403119 139.26436727 202.51708984 143.32861328 C202.53630493 145.1167041 202.53630493 145.1167041 202.5559082 146.94091797 C202.50079529 155.81949247 200.91974027 164.13175359 194.73461914 170.89257812 C194.20223633 171.4984375 193.66985352 172.10429687 193.12133789 172.72851562 C191.04711914 174.51757812 191.04711914 174.51757812 184.04711914 178.51757812 C183.71711914 257.05757813 183.38711914 335.59757813 183.04711914 416.51757812 C187.00711914 416.51757812 190.96711914 416.51757812 195.04711914 416.51757812 C199.70287857 417.73523828 201.37629356 418.47888046 203.98461914 422.51757812 C207.95295341 434.25110969 204.46628566 449.8244504 199.52758789 460.70117188 C192.64517822 473.7940937 182.22849827 484.73942837 167.96287441 489.55973387 C158.19726159 492.38205433 149.28442031 493.08802581 139.15869141 493.0255127 C137.50651026 493.03013277 135.85433323 493.03649305 134.20216465 493.04442167 C129.70427042 493.06098638 125.20671944 493.0529278 120.70882463 493.0404768 C115.84165759 493.03137547 110.97454696 493.04542109 106.10739136 493.05639648 C96.58927699 493.07413232 87.07128918 493.07036378 77.55316997 493.05874592 C69.81384799 493.04969239 62.07456135 493.04849589 54.3352356 493.05284119 C53.23145429 493.05345412 52.12767299 493.05406705 50.99044377 493.05469856 C48.74775274 493.05597753 46.50506172 493.05727438 44.26237071 493.05858892 C23.25945488 493.06998026 2.25660902 493.05690372 -18.74629533 493.03538746 C-36.7465073 493.01751781 -54.74661606 493.02062232 -72.74682617 493.0390625 C-93.67737685 493.06049477 -114.60786628 493.06888176 -135.5384264 493.05661345 C-137.77261669 493.05533932 -140.006807 493.05408184 -142.24099731 493.05284119 C-143.34010592 493.05222408 -144.43921453 493.05160698 -145.57162946 493.05097118 C-153.29678126 493.04752535 -161.02189404 493.05333005 -168.74703979 493.0627594 C-178.16840087 493.07400697 -187.58962873 493.07088147 -197.01097465 493.04963642 C-201.81289353 493.03916308 -206.61459074 493.03494044 -211.41650772 493.04823303 C-215.82085504 493.06024019 -220.22477731 493.05345876 -224.62908661 493.03232282 C-226.21368181 493.02789175 -227.79831367 493.03004332 -229.38288486 493.03982598 C-247.92442314 493.14542427 -262.80128054 488.91353595 -276.63256836 475.92773438 C-288.65421721 463.44060081 -292.70656305 448.5774532 -293.26538086 431.58007812 C-293.13819158 426.78221586 -292.57674287 423.58033221 -289.95288086 419.51757812 C-285.44495462 416.54426507 -282.05809126 416.38923783 -276.69897461 416.45117188 C-275.08333618 416.46555298 -275.08333618 416.46555298 -273.43505859 416.48022461 C-272.61593994 416.49255127 -271.79682129 416.50487793 -270.95288086 416.51757812 C-270.95656803 415.23082089 -270.9602552 413.94406366 -270.96405411 412.61831379 C-271.05078702 382.03606103 -271.11669362 351.45384162 -271.15714218 320.8714953 C-271.16214468 317.10288792 -271.167322 313.33428081 -271.17260742 309.56567383 C-271.17365666 308.81544894 -271.17470591 308.06522405 -271.17578694 307.29226508 C-271.19316646 295.1633368 -271.22469054 283.03448478 -271.26149204 270.90560166 C-271.29896991 258.44941695 -271.32113114 245.99327203 -271.32923484 233.53703326 C-271.33470847 225.85807521 -271.35196215 218.17933275 -271.38454673 210.5004411 C-271.40829832 204.60065462 -271.41068349 198.70097728 -271.40531158 192.80114174 C-271.40640812 190.38936541 -271.41431242 187.97758059 -271.42970276 185.56585312 C-271.5390656 167.53740522 -270.88486694 153.0591545 -257.85131836 139.29882812 C-244.81119697 126.94987925 -230.63213492 126.21810446 -213.58154297 126.29052734 C-211.71817023 126.29109208 -209.85479704 126.29077368 -207.99142456 126.28964233 C-202.95282266 126.28907026 -197.91431664 126.30080109 -192.87573695 126.31479025 C-187.60267423 126.32732179 -182.32960913 126.32847002 -177.05653381 126.33084106 C-167.08013443 126.33704871 -157.10377906 126.35344986 -147.12739903 126.37354004 C-135.76586489 126.39592131 -124.40432861 126.40689808 -113.0427779 126.41693091 C-89.67945452 126.43781671 -66.31617016 126.47297878 -42.95288086 126.51757812 C-42.97286636 124.62196136 -42.97286636 124.62196136 -42.99325562 122.68804932 C-43.11521293 110.7423937 -43.20498576 98.79686544 -43.26375389 86.85072708 C-43.29498373 80.70995256 -43.33730477 74.56968312 -43.40551758 68.42919922 C-43.47100655 62.49636667 -43.5066496 56.56401804 -43.52214432 50.63085175 C-43.53317766 48.37433003 -43.55472286 46.11783294 -43.5872612 43.86151886 C-43.92236489 19.64772195 -43.92236489 19.64772195 -35.14364624 9.40704346 C-25.04164381 -0.42793379 -13.18324834 -0.06284232 0 0 Z M-20.23204041 25.40162659 C-22.908585 30.2480859 -22.51774194 34.92323215 -22.48632812 40.37280273 C-22.4949437 41.57333786 -22.50355927 42.77387299 -22.51243591 44.01078796 C-22.53122915 47.29611806 -22.53199708 50.58081159 -22.52311444 53.86616588 C-22.51799705 56.61217204 -22.52530322 59.35808814 -22.53258651 62.10408503 C-22.54957684 68.58403745 -22.5460289 75.06375435 -22.52929688 81.54370117 C-22.5123773 88.22120551 -22.52820898 94.89805605 -22.56051975 101.57548898 C-22.58724025 107.31581255 -22.59448508 113.0559329 -22.58600467 118.79631239 C-22.58108234 122.22159909 -22.58325256 125.64649253 -22.60379219 129.07172966 C-22.62119965 132.89262493 -22.60672375 136.7121202 -22.58398438 140.53295898 C-22.59567657 141.66302368 -22.60736877 142.79308838 -22.61941528 143.95739746 C-22.58958522 150.53721142 -22.58958522 150.53721142 -19.60093689 156.20411682 C-15.65241464 159.65372413 -12.783192 159.63641716 -7.71069336 159.65820312 C-6.47963867 159.67753906 -5.24858398 159.696875 -3.98022461 159.71679688 C-1.38663014 159.75054735 1.20721265 159.76887228 3.80102539 159.77148438 C5.0346582 159.79597656 6.26829102 159.82046875 7.53930664 159.84570312 C9.23095947 159.85972168 9.23095947 159.85972168 10.95678711 159.87402344 C15.01084313 160.71827148 16.49753134 162.31485696 19.04711914 165.51757812 C19.92316891 168.21814227 20.18816217 170.7234715 20.25244141 173.55175781 C20.28235924 174.72251862 20.28235924 174.72251862 20.31288147 175.91693115 C20.32959396 176.7493634 20.34630646 177.58179565 20.36352539 178.43945312 C20.38430649 179.29943909 20.40508759 180.15942505 20.42649841 181.04547119 C20.49175653 183.7860941 20.55076831 186.52681087 20.60961914 189.26757812 C20.65282695 191.12826482 20.69644196 192.98894211 20.74047852 194.84960938 C20.84741356 199.40550335 20.94874765 203.96149152 21.04711914 208.51757812 C24.35165778 206.34817525 27.59096154 204.18663197 30.64086914 201.66992188 C31.27114014 201.15308838 31.90141113 200.63625488 32.55078125 200.10375977 C33.53896851 199.28766235 33.53896851 199.28766235 34.54711914 198.45507812 C39.64986374 194.27231783 44.77741058 190.13206259 49.98461914 186.08007812 C53.83182632 183.08589175 57.63355122 180.04770562 61.38305664 176.93164062 C62.12692627 176.31345459 62.8707959 175.69526855 63.63720703 175.05834961 C65.06946352 173.86398961 66.49859131 172.6658627 67.92382812 171.46313477 C69.2340463 170.36978029 70.55950253 169.29434078 71.90187073 168.2407074 C74.01772954 166.59509112 74.01772954 166.59509112 75.7088623 164.91113281 C83.53345901 158.29068032 93.53537678 159.72254104 103.18383789 159.81835938 C105.15201087 159.81472174 107.12018034 159.80801405 109.08833313 159.79838562 C114.24992249 159.7793763 119.41083625 159.79329932 124.5723877 159.81689453 C132.84301027 159.85137541 141.11346823 159.84546602 149.38410378 159.82076073 C152.26588105 159.81839464 155.14703367 159.83617042 158.0287323 159.85603333 C159.7987773 159.8562815 161.56882254 159.8558837 163.33886719 159.85473633 C164.13537186 159.86559769 164.93187653 159.87645905 165.7525177 159.88764954 C170.56036983 159.86266253 173.94716005 159.29628755 178.04711914 156.51757812 C180.55109742 153.02715682 181.42308946 150.60086001 181.43479919 146.3250885 C181.44470383 145.30035934 181.45460846 144.27563019 181.46481323 143.21984863 C181.45806076 141.54976746 181.45806076 141.54976746 181.45117188 139.84594727 C181.45803513 138.66491928 181.46489838 137.4838913 181.4719696 136.26707458 C181.48711782 133.03555198 181.48873623 129.80439162 181.48302722 126.57284856 C181.47993254 123.87159161 181.48603093 121.17038667 181.49206597 118.46913713 C181.50610363 112.09469634 181.5045564 105.72038959 181.49316406 99.34594727 C181.48168431 92.77759375 181.49575742 86.20964861 181.52256054 79.6413489 C181.54473785 73.99446273 181.55135036 68.34770456 181.54548413 62.70077795 C181.54211804 59.33143071 181.54450591 55.96234521 181.56173515 52.59303474 C181.5766039 48.83458154 181.56599675 45.07702846 181.54882812 41.31860352 C181.55849609 40.2072403 181.56816406 39.09587708 181.578125 37.95083618 C181.52010382 31.88832133 181.32824602 27.99818947 177.04711914 23.51757812 C172.90894005 21.35444447 169.02678392 21.23455693 164.45617676 21.26361084 C163.69997528 21.26049086 162.94377379 21.25737088 162.16465712 21.25415635 C159.63516372 21.24619014 157.10591113 21.25249459 154.57641602 21.25878906 C152.76115275 21.25607859 150.94589058 21.25251734 149.13063049 21.24816895 C144.20303464 21.2390494 139.27552251 21.24258743 134.34792519 21.24892712 C129.19194945 21.25398933 124.0359809 21.24929504 118.88000488 21.24615479 C110.22134107 21.24251579 101.56271137 21.2473125 92.90405273 21.25683594 C82.89236387 21.26772035 72.88075647 21.26419473 62.86906958 21.25318313 C54.27447484 21.24410836 45.67990463 21.24282591 37.08530664 21.24806046 C31.95158713 21.25117912 26.8179059 21.25159236 21.68418884 21.24498749 C16.85790632 21.23921193 12.03172886 21.24321483 7.20545769 21.254776 C5.43374239 21.25742145 3.66201826 21.25665945 1.89030647 21.25225067 C-0.52722806 21.24678927 -2.94442545 21.25363652 -5.36193848 21.26361084 C-6.06378911 21.2591494 -6.76563973 21.25468795 -7.48875856 21.25009131 C-12.66654737 21.29155413 -16.22407185 22.0884724 -20.23204041 25.40162659 Z M-243.82788086 156.51757812 C-244.38217773 157.17757812 -244.93647461 157.83757812 -245.50756836 158.51757812 C-250.55974151 165.50869341 -250.09906262 173.35681807 -250.07313538 181.6605072 C-250.0739898 182.6669585 -250.07484423 183.67340981 -250.07572454 184.71035963 C-250.0773684 188.07442142 -250.07187588 191.43843306 -250.06640625 194.80249023 C-250.06612412 197.21728514 -250.06628262 199.63208014 -250.06684875 202.046875 C-250.06707629 207.24148478 -250.0642444 212.43608328 -250.05861092 217.63068962 C-250.05047125 225.14114537 -250.04787817 232.65159505 -250.04662292 240.16205472 C-250.04443628 252.34835569 -250.0377867 264.53464994 -250.02832031 276.72094727 C-250.01913617 288.55623338 -250.01206024 300.39151768 -250.0078125 312.22680664 C-250.00754978 312.95678149 -250.00728705 313.68675634 -250.00701637 314.43885165 C-250.0057113 318.10105465 -250.0044476 321.76325767 -250.00320446 325.4254607 C-249.99284392 355.78950464 -249.97516162 386.15354045 -249.95288086 416.51757812 C-245.00288086 416.51757812 -240.05288086 416.51757812 -234.95288086 416.51757812 C-234.29288086 414.20757812 -233.63288086 411.89757812 -232.95288086 409.51757812 C-225.16709245 383.96286691 -208.6194481 363.10981281 -184.99438477 350.46972656 C-166.11276349 340.91834575 -147.49396119 339.8603231 -126.68774414 339.99609375 C-123.16112415 340.01888355 -119.63571146 340.00534811 -116.10913277 339.98232746 C-84.32534951 339.80619515 -58.05410844 346.04105794 -34.57788086 368.82226562 C-22.67027446 381.43275157 -14.55669058 396.64721655 -10.49584961 413.50585938 C-10.13702893 415.49957049 -10.13702893 415.49957049 -8.95288086 416.51757812 C-6.75062632 416.61457872 -4.54519422 416.63944522 -2.34080505 416.63783264 C-1.64335678 416.63868866 -0.94590851 416.63954468 -0.22732544 416.64042664 C2.13444514 416.64209157 4.49614597 416.63654249 6.85791016 416.63110352 C8.57013668 416.63079742 10.28236334 416.63093027 11.99458981 416.63146877 C16.59616326 416.63169532 21.19771091 416.62588302 25.79927826 416.61885834 C30.11101873 416.61317991 34.42275279 416.61289612 38.73449707 416.61218262 C51.3595412 416.60692709 63.98458049 416.59296605 76.60961914 416.58007812 C104.80399414 416.55945313 132.99836914 416.53882813 162.04711914 416.51757812 C162.04711914 338.63757813 162.04711914 260.75757813 162.04711914 180.51757812 C96.3695235 172.76627123 96.3695235 172.76627123 77.04711914 191.51757812 C74.81150422 193.30653777 72.56498147 195.08217905 70.29711914 196.83007812 C64.13161922 201.61849862 58.10095196 206.55922147 52.08544922 211.53417969 C47.66123909 215.19205072 43.21212838 218.81263964 38.71508789 222.38085938 C36.49774858 224.15667871 34.29516262 225.94756278 32.09790039 227.74804688 C31.38964111 228.3273999 30.68138184 228.90675293 29.95166016 229.50366211 C28.5505991 230.65070643 27.1512505 231.79984674 25.75390625 232.95141602 C14.30237022 242.31647339 14.30237022 242.31647339 6.04711914 241.51757812 C3.38106683 240.67566687 2.43715147 240.14291958 0.96548462 237.78338623 C-0.13693904 235.06346641 -0.23136003 232.94809148 -0.27172852 230.01464844 C-0.30153305 228.36338959 -0.30153305 228.36338959 -0.3319397 226.67877197 C-0.34926651 224.90515289 -0.34926651 224.90515289 -0.36694336 223.09570312 C-0.39599258 221.2730191 -0.39599258 221.2730191 -0.42562866 219.41351318 C-0.48541892 215.53160629 -0.53180832 211.64966973 -0.57788086 207.76757812 C-0.61606108 205.13605476 -0.65511284 202.50454388 -0.69506836 199.87304688 C-0.79112015 193.42133481 -0.8761695 186.96954756 -0.95288086 180.51757812 C-2.18699707 180.46424316 -3.42111328 180.4109082 -4.69262695 180.35595703 C-6.32887437 180.27737024 -7.96510396 180.19841182 -9.60131836 180.11914062 C-10.41270264 180.08506104 -11.22408691 180.05098145 -12.06005859 180.01586914 C-21.43731984 179.54486515 -28.39450547 176.97218812 -35.26538086 170.41992188 C-39.61829675 165.51281531 -41.04708513 160.67324044 -42.05444336 154.24804688 C-42.22540527 153.17321045 -42.39636719 152.09837402 -42.57250977 150.9909668 C-42.69803223 150.17474854 -42.82355469 149.35853027 -42.95288086 148.51757812 C-67.4572165 148.42411224 -91.96152539 148.35358779 -116.46600342 148.31032944 C-127.84401409 148.28970944 -139.22191396 148.26159945 -150.59985352 148.21582031 C-160.51755123 148.1759355 -170.43516869 148.15014123 -180.35294437 148.14122415 C-185.60373431 148.13601222 -190.85429467 148.12377376 -196.10501099 148.0946579 C-201.04947485 148.06746296 -205.99361504 148.05914143 -210.93814659 148.0651474 C-212.7505437 148.06404899 -214.56295187 148.05611947 -216.37528419 148.04075623 C-218.85580794 148.02076408 -221.33512026 148.02567193 -223.81567383 148.03656006 C-224.52776032 148.02490869 -225.23984682 148.01325733 -225.9735117 148.00125289 C-233.17650209 148.08632904 -239.26984307 150.93452706 -243.82788086 156.51757812 Z M-193.95288086 383.51757812 C-194.65413086 384.2059375 -195.35538086 384.89429688 -196.07788086 385.60351562 C-204.67089931 394.6328983 -209.38757827 404.63323615 -212.95288086 416.51757812 C-153.22288086 416.51757812 -93.49288086 416.51757812 -31.95288086 416.51757812 C-34.78290642 399.53742478 -46.53657469 384.80152589 -59.95288086 374.51757812 C-74.81242836 364.43496491 -90.44036497 360.38775342 -108.30053711 360.31445312 C-109.38942734 360.30875305 -110.47831757 360.30305298 -111.60020447 360.29718018 C-113.90061481 360.28776006 -116.20103846 360.28120812 -118.50146484 360.27734375 C-121.97965771 360.2676774 -125.45724925 360.23664075 -128.93530273 360.20507812 C-154.42205457 360.08272285 -175.28541155 365.15713956 -193.95288086 383.51757812 Z M-270.95288086 438.51757812 C-268.42035776 451.18019362 -265.29256585 458.58212664 -254.78491211 466.06054688 C-244.66577647 472.16784821 -233.56290318 471.80907123 -222.10110474 471.77827454 C-220.50060215 471.78129874 -218.900101 471.78518957 -217.29960239 471.7898671 C-212.9215275 471.80012109 -208.54353474 471.79797193 -204.1654532 471.79368651 C-199.43596664 471.79121457 -194.70649962 471.80023924 -189.97702026 471.807724 C-180.71927972 471.82045987 -171.46156819 471.82226609 -162.20382036 471.81992374 C-154.67746097 471.81813923 -147.15111038 471.81989307 -139.62475204 471.82414818 C-138.55273146 471.82474337 -137.48071087 471.82533856 -136.37620481 471.82595178 C-134.19825292 471.82716356 -132.02030104 471.82837769 -129.84234916 471.82959416 C-109.42710045 471.84046534 -89.01186827 471.83830916 -68.59661864 471.83220931 C-49.93001193 471.82704015 -31.26345741 471.83829635 -12.59686102 471.85730753 C6.58208891 471.8766904 25.76101416 471.88494116 44.93997395 471.88118428 C55.70266444 471.87927297 66.46531052 471.88175302 77.22799301 471.89589882 C86.39005679 471.90781927 95.5520488 471.90921 104.71411358 471.89710865 C109.38598109 471.89122476 114.05771738 471.89010704 118.72957611 471.90211105 C123.01176757 471.91298573 127.29371849 471.90984771 131.57589878 471.89584937 C133.11954464 471.89320681 134.66320945 471.89555503 136.20683669 471.90358523 C150.47244173 471.97260761 162.65388313 470.60158965 173.27368164 460.37304688 C179.98432015 453.21096541 181.80060661 448.48967836 183.04711914 438.51757812 C33.22711914 438.51757812 -116.59288086 438.51757812 -270.95288086 438.51757812 Z " fill="#854CCE" transform="translate(299.952880859375,9.482421875)"/>
<path d="M0 0 C14.90736543 14.27917823 24.50003477 30.22027983 24.98022461 51.34863281 C25.19598816 78.91309193 14.60227982 104.23727404 -4.6875 124.06640625 C-16.71897925 135.46160534 -30.61829433 142.07976828 -47.26171875 141.83203125 C-66.11212624 140.55281026 -79.19855131 130.43287313 -91.58984375 117.19140625 C-109.29968819 96.39548991 -115.77802397 70.41066449 -114.3125 43.625 C-112.59218995 27.25650538 -103.22390529 10.90894145 -90.72802734 0.27685547 C-64.35953477 -20.53703439 -26.11812142 -22.84837186 0 0 Z M-80.5625 20.6875 C-89.83429155 31.84798983 -94.51240735 45.16986614 -93.3125 59.625 C-90.2301875 80.31020655 -80.90718414 99.7966898 -64.3125 113 C-55.99798533 118.74991977 -48.53282834 121.16882009 -38.3125 119.625 C-21.87584404 114.22088855 -11.79682319 100.34318269 -4 85.6875 C2.58940234 71.73993172 6.61349993 54.71609299 1.6875 39.625 C-4.76972907 24.21261377 -13.66323941 14.13528894 -29.3125 7.625 C-47.37301558 1.275857 -67.48940535 7.18783605 -80.5625 20.6875 Z " fill="#854CCE" transform="translate(224.3125,199.375)"/>
<path d="M0 0 C0.89847656 -0.020625 1.79695313 -0.04125 2.72265625 -0.0625 C7.6734269 -0.09175123 11.13549911 -0.03130547 15.125 3.25 C17.25238138 5.96424521 18.05409561 7.7739277 18.5625 11.1875 C17.9925952 15.17683357 16.75285762 17.20721749 14.125 20.25 C9.27314446 22.38626475 4.82743517 22.5853578 -0.375 22.5625 C-1.10847656 22.57861328 -1.84195312 22.59472656 -2.59765625 22.61132812 C-8.24921506 22.61638319 -12.42928001 21.45114799 -16.75 17.5625 C-18.42307039 14.12341086 -18.64700359 10.94003551 -17.875 7.25 C-13.61033694 -0.34796293 -7.78550296 0.04429874 0 0 Z " fill="#854DCE" transform="translate(327.875,88.75)"/>
<path d="M0 0 C0.89847656 -0.020625 1.79695313 -0.04125 2.72265625 -0.0625 C7.6734269 -0.09175123 11.13549911 -0.03130547 15.125 3.25 C17.25238138 5.96424521 18.05409561 7.7739277 18.5625 11.1875 C17.9925952 15.17683357 16.75285762 17.20721749 14.125 20.25 C9.27314446 22.38626475 4.82743517 22.5853578 -0.375 22.5625 C-1.10847656 22.57861328 -1.84195312 22.59472656 -2.59765625 22.61132812 C-7.41966887 22.6156412 -10.68694581 21.87544182 -14.875 19.25 C-17.26898482 16.37721821 -17.83524433 14.52332022 -18.375 10.8125 C-17.70770551 6.05802675 -16.28202151 4.57778845 -12.875 1.25 C-8.59317238 -0.17727587 -4.48554564 0.02552231 0 0 Z " fill="#854CCD" transform="translate(430.875,88.75)"/>
<path d="M0 0 C0.93263672 -0.00708984 1.86527344 -0.01417969 2.82617188 -0.02148438 C7.78797677 0.02449101 11.48025862 0.10714834 15.4375 3.4375 C18.12446856 7.46795284 18.23624828 10.70148747 17.4375 15.4375 C15.84482444 18.50229003 13.89337107 20.95214827 10.50708008 22.08105469 C7.06324625 22.67418874 3.60894028 22.66341053 0.125 22.6875 C-0.60912109 22.708125 -1.34324219 22.72875 -2.09960938 22.75 C-7.32750889 22.7871102 -10.95057618 21.95362553 -15.5625 19.4375 C-18.05212727 15.58989422 -18.92555303 12.71975442 -18.125 8.25 C-17.45109956 5.26905301 -16.43523371 4.32206295 -14.125 2.2265625 C-9.30230381 -0.19536168 -5.31707759 -0.11438543 0 0 Z " fill="#854DCE" transform="translate(379.5625,88.5625)"/>
</svg>
