<?xml version="1.0" encoding="UTF-8"?>
<svg version="1.1" xmlns="http://www.w3.org/2000/svg" width="600" height="160">
<path d="M0 0 C18.15 0 36.3 0 55 0 C55 0.66 55 1.32 55 2 C55.58265625 1.95359375 56.1653125 1.9071875 56.765625 1.859375 C65.17684037 1.48906992 73.29025951 3.06312211 80 8.375 C86 16.25 86 16.25 86 20 C86.66 20 87.32 20 88 20 C88.86467388 23.99911669 88.92293706 27.51079254 88.6875 31.5625 C88.55517794 35.37919407 88.55517794 35.37919407 90.2265625 38.64453125 C91.76322512 39.83676949 93.381718 40.92114534 95 42 C97.59294033 45.45725378 98.36966019 47.6872978 98 52 C98.66 52 99.32 52 100 52 C100.02685095 54.47923801 100.04676547 56.9581884 100.0625 59.4375 C100.07087891 60.14455078 100.07925781 60.85160156 100.08789062 61.58007812 C100.09653588 63.38693559 100.05220011 65.19387603 100 67 C99.67 67.33 99.34 67.66 99 68 C98.61136435 70.12254855 98.23946791 72.24816828 97.875 74.375 C95.56546829 85.24858472 90.52858631 92.72035043 81.625 99.34375 C73.43545261 104.51096443 65.1792088 106.04507888 55.6875 106.5625 C54.94693359 106.60568359 54.20636719 106.64886719 53.44335938 106.69335938 C51.62908536 106.79870432 49.8145645 106.89978316 48 107 C44.01595647 114.64078603 43.62038509 122.94172413 42.62695312 131.39257812 C42.47291016 132.56626953 42.31886719 133.73996094 42.16015625 134.94921875 C41.96885132 136.54769653 41.96885132 136.54769653 41.77368164 138.1784668 C40.82831307 141.62612367 39.92191015 142.94239824 37 145 C33.91552734 145.48583984 33.91552734 145.48583984 30.3359375 145.4609375 C29.04945312 145.45707031 27.76296875 145.45320312 26.4375 145.44921875 C25.77105469 145.43681152 25.10460937 145.4244043 24.41796875 145.41162109 C22.37449542 145.37499096 20.33283065 145.3706027 18.2890625 145.37109375 C8.28065634 145.28065634 8.28065634 145.28065634 6 143 C6.0234375 139.9609375 6.0234375 139.9609375 6.375 136.375 C6.48585938 135.18648437 6.59671875 133.99796875 6.7109375 132.7734375 C6.80632813 131.85820312 6.90171875 130.94296875 7 130 C5.79670044 130.02356567 5.79670044 130.02356567 4.5690918 130.04760742 C0.94196596 130.10988583 -2.68504749 130.14896864 -6.3125 130.1875 C-7.57513672 130.21263672 -8.83777344 130.23777344 -10.13867188 130.26367188 C-11.95141602 130.27817383 -11.95141602 130.27817383 -13.80078125 130.29296875 C-15.47394409 130.31653442 -15.47394409 130.31653442 -17.1809082 130.34057617 C-20 130 -20 130 -21.88061523 128.68920898 C-23.75851249 125.85536577 -23.06105473 123.16812291 -22.75 119.875 C-22.64171875 118.61429687 -22.5334375 117.35359375 -22.421875 116.0546875 C-22 113 -22 113 -21 112 C-20.55468324 109.26979996 -20.163951 106.55088027 -19.80859375 103.80859375 C-19.69902847 102.98875504 -19.5894632 102.16891632 -19.47657776 101.32423401 C-19.12624418 98.6958329 -18.78181371 96.06669581 -18.4375 93.4375 C-18.20155917 91.65945377 -17.96523608 89.88145823 -17.72851562 88.10351562 C-17.14790028 83.73625363 -16.57257929 79.36832254 -16 75 C-15.34 75 -14.68 75 -14 75 C-13.96261719 74.10023437 -13.92523438 73.20046875 -13.88671875 72.2734375 C-13.45418898 63.80942354 -12.63819545 55.46225905 -11.5 47.0625 C-11.36940186 46.08522949 -11.23880371 45.10795898 -11.10424805 44.10107422 C-10.12796301 37.12796301 -10.12796301 37.12796301 -9 36 C-8.64100302 33.82226098 -8.33960769 31.63497854 -8.0625 29.4453125 C-7.97750244 28.78796112 -7.89250488 28.13060974 -7.80493164 27.45333862 C-7.53258696 25.34438673 -7.26582213 23.23478325 -7 21.125 C-6.73375331 19.0224201 -6.46624356 16.92003492 -6.19506836 14.81808472 C-5.94846204 12.90533718 -5.70654358 10.99198701 -5.46484375 9.07861328 C-5 6 -5 6 -4 3 C-1.9375 2.3125 -1.9375 2.3125 0 2 C0 1.34 0 0.68 0 0 Z " fill="#844CCD" transform="translate(39,8)"/>
<path d="M0 0 C0.76493774 -0.00191345 1.52987549 -0.0038269 2.31799316 -0.00579834 C3.93856128 -0.00715795 5.55914037 -0.00347715 7.1796875 0.00488281 C9.62005194 0.01546799 12.0596602 0.0050418 14.5 -0.0078125 C38.77773778 -0.03340083 38.77773778 -0.03340083 46.73046875 6.66796875 C48.59976522 8.76260507 49.15625 10.46703375 49.15625 13.265625 C49.81625 13.265625 50.47625 13.265625 51.15625 13.265625 C53.22610349 20.13228183 52.69639555 28.33497002 51.15625 35.265625 C50.49625 35.265625 49.83625 35.265625 49.15625 35.265625 C49.07375 36.27625 48.99125 37.286875 48.90625 38.328125 C48.04532839 44.31819928 44.8788437 49.45708169 40.15625 53.265625 C39.16625 53.265625 38.17625 53.265625 37.15625 53.265625 C36.82625 54.255625 36.49625 55.245625 36.15625 56.265625 C27.06125956 60.88217112 15.10176828 59.98313721 5.15625 60.265625 C2.98083902 65.60042031 1.70066774 70.24106785 1.09375 76.015625 C0.20918637 84.33894755 0.20918637 84.33894755 -1.84375 87.265625 C-5.54821553 88.50044684 -8.9880508 88.41120702 -12.84375 88.390625 C-13.56820312 88.39449219 -14.29265625 88.39835937 -15.0390625 88.40234375 C-18.23657879 88.39644427 -20.78957607 88.28368298 -23.84375 87.265625 C-23.94827045 81.49377351 -23.93183374 75.9478401 -22.84375 70.265625 C-22.34875 69.770625 -22.34875 69.770625 -21.84375 69.265625 C-21.41065911 66.54702993 -21.03198223 63.83955801 -20.6875 61.109375 C-20.5803064 60.29190796 -20.47311279 59.47444092 -20.3626709 58.63220215 C-20.01899305 56.01051695 -19.68073681 53.38817815 -19.34375 50.765625 C-18.90062461 47.3170631 -18.45205418 43.8692765 -18 40.421875 C-17.89892944 39.62084351 -17.79785889 38.81981201 -17.69372559 37.99450684 C-16.95655181 32.37842681 -16.95655181 32.37842681 -15.84375 31.265625 C-15.52177986 29.1482333 -15.25505448 27.02239406 -15.01171875 24.89453125 C-14.77291992 22.95030273 -14.77291992 22.95030273 -14.52929688 20.96679688 C-14.27735016 18.8959178 -14.03090108 16.82499797 -13.79956055 14.75170898 C-13.57450668 12.75569273 -13.32470316 10.76251587 -13.07421875 8.76953125 C-12.93395264 7.57142822 -12.79368652 6.3733252 -12.64916992 5.13891602 C-11.84375 2.265625 -11.84375 2.265625 -10.25708008 0.87573242 C-6.83737496 0.01120606 -3.50296751 -0.0194491 0 0 Z M9.15625 22.265625 C8.78864269 24.59380464 8.45383419 26.9274635 8.15625 29.265625 C7.82625 29.595625 7.49625 29.925625 7.15625 30.265625 C6.92432135 31.78031948 6.74409762 33.30317062 6.59375 34.828125 C6.50996094 35.65441406 6.42617187 36.48070313 6.33984375 37.33203125 C6.27925781 37.97011719 6.21867187 38.60820313 6.15625 39.265625 C15.69314501 39.96399749 15.69314501 39.96399749 24.15625 36.265625 C26.51760873 32.64487494 27.95458424 29.59943947 27.15625 25.265625 C25.24339988 22.71515817 23.88465533 21.50186457 20.84375 20.515625 C14.44385789 19.53977625 14.44385789 19.53977625 9.15625 22.265625 Z " fill="#844CCD" transform="translate(207.84375,45.734375)"/>
<path d="M0 0 C1.14740662 0.00137466 1.14740662 0.00137466 2.31799316 0.0027771 C3.93862095 0.00881315 5.55923758 0.02455953 7.1796875 0.04931641 C9.62022646 0.08540482 12.05922423 0.09033823 14.5 0.08984375 C38.75511847 0.19844159 38.75511847 0.19844159 46.15625 6.4609375 C46.775 6.9765625 47.39375 7.4921875 48.03125 8.0234375 C49.15625 9.4609375 49.15625 9.4609375 49.15625 12.4609375 C49.81625 12.4609375 50.47625 12.4609375 51.15625 12.4609375 C54.34953611 22.04079583 52.70459868 33.6232145 48.7109375 42.6484375 C45.05125863 49.26896209 39.71910259 55.73062123 32.25366211 58.05273438 C26.30128057 59.45377575 20.69196062 59.70226434 14.59375 59.5859375 C13.68044922 59.57691406 12.76714844 59.56789062 11.82617188 59.55859375 C9.60257681 59.53531003 7.37956323 59.5026146 5.15625 59.4609375 C4.95708984 60.63462891 4.95708984 60.63462891 4.75390625 61.83203125 C4.57730469 62.84394531 4.40070313 63.85585937 4.21875 64.8984375 C3.95771484 66.41244141 3.95771484 66.41244141 3.69140625 67.95703125 C3.15625 70.4609375 3.15625 70.4609375 2.15625 71.4609375 C1.77732087 74.63868971 1.43347912 77.81261437 1.16992188 81.00195312 C0.6208798 86.02107223 0.6208798 86.02107223 -1.3828125 87.91796875 C-5.06981414 88.73145006 -8.64163625 88.74906017 -12.40625 88.7109375 C-13.55770508 88.72253906 -13.55770508 88.72253906 -14.73242188 88.734375 C-18.61582821 88.72083217 -20.54399677 88.66077299 -23.84375 86.4609375 C-23.70345581 84.3147349 -23.55636836 82.16897532 -23.40625 80.0234375 C-23.32503906 78.82847656 -23.24382812 77.63351563 -23.16015625 76.40234375 C-22.84375 73.4609375 -22.84375 73.4609375 -21.84375 72.4609375 C-21.41065911 69.74234243 -21.03198223 67.03487051 -20.6875 64.3046875 C-20.5803064 63.48722046 -20.47311279 62.66975342 -20.3626709 61.82751465 C-20.01899305 59.20582945 -19.68073681 56.58349065 -19.34375 53.9609375 C-18.90062461 50.5123756 -18.45205418 47.064589 -18 43.6171875 C-17.89892944 42.81615601 -17.79785889 42.01512451 -17.69372559 41.18981934 C-16.95655181 35.57373931 -16.95655181 35.57373931 -15.84375 34.4609375 C-15.52130271 32.29399358 -15.25478299 30.1186839 -15.01171875 27.94140625 C-14.85169238 26.59561004 -14.69085924 25.24990956 -14.52929688 23.90429688 C-14.27796796 21.77866723 -14.03174327 19.65295805 -13.79956055 17.52514648 C-13.57348341 15.47421858 -13.32561079 13.42686495 -13.07421875 11.37890625 C-12.93395264 10.14938232 -12.79368652 8.9198584 -12.64916992 7.65307617 C-10.83964349 0.48133986 -6.74702127 -0.13297607 0 0 Z M11.15625 20.4609375 C9.34961627 24.4355317 8.73641925 28.15110878 8.15625 32.4609375 C7.82625 32.7909375 7.49625 33.1209375 7.15625 33.4609375 C7.11544217 35.46052114 7.11370644 37.46139004 7.15625 39.4609375 C8.88505982 39.51543588 10.61437712 39.55395438 12.34375 39.5859375 C13.78814453 39.62074219 13.78814453 39.62074219 15.26171875 39.65625 C18.33472805 39.44889445 20.4306302 38.88133092 23.15625 37.4609375 C24.51703035 34.93720849 24.51703035 34.93720849 25.15625 32.4609375 C25.81625 32.4609375 26.47625 32.4609375 27.15625 32.4609375 C27.79229976 27.03753044 27.79229976 27.03753044 25.46875 22.5234375 C20.71648013 20.33996215 16.34215018 20.35925318 11.15625 20.4609375 Z " fill="#844CCD" transform="translate(423.84375,45.5390625)"/>
<path d="M0 0 C0.81645996 -0.00217529 1.63291992 -0.00435059 2.47412109 -0.0065918 C7.33388079 0.12731489 9.87855413 0.99524878 14.0625 3.5625 C15.40024455 2.90472971 16.73294235 2.23666517 18.0625 1.5625 C20.35253906 1.33544922 20.35253906 1.33544922 22.828125 1.3671875 C23.71757812 1.37363281 24.60703125 1.38007812 25.5234375 1.38671875 C26.44382812 1.40347656 27.36421875 1.42023438 28.3125 1.4375 C29.24835938 1.44652344 30.18421875 1.45554687 31.1484375 1.46484375 C33.45338657 1.48836364 35.7578116 1.52123147 38.0625 1.5625 C38.25431946 15.73582706 38.25431946 15.73582706 37.0625 21.5625 C36.5675 22.0575 36.5675 22.0575 36.0625 22.5625 C35.64202976 25.11189741 35.27537654 27.64986324 34.94140625 30.2109375 C34.72610229 31.78908855 34.51060132 33.36721273 34.29492188 34.9453125 C33.95859528 37.44233475 33.62471741 39.93963875 33.29467773 42.4375 C32.97531548 44.84210991 32.6464358 47.24527186 32.31640625 49.6484375 C32.17254234 50.76887955 32.17254234 50.76887955 32.02577209 51.91195679 C31.53351898 55.46051516 31.08373032 57.53065452 29.0625 60.5625 C25.56154689 61.72948437 22.7502768 61.69518287 19.0625 61.6875 C17.825 61.69007813 16.5875 61.69265625 15.3125 61.6953125 C12.0625 61.5625 12.0625 61.5625 9.0625 60.5625 C8.4025 59.5725 7.7425 58.5825 7.0625 57.5625 C6.588125 58.01625 6.11375 58.47 5.625 58.9375 C-1.43669417 63.41564752 -10.42438495 63.24861895 -18.4375 62 C-24.97300397 60.40569886 -29.4023638 56.03852613 -32.875 50.4375 C-37.11721557 38.95856374 -35.0373371 27.74553781 -30.9375 16.5625 C-30.2775 16.5625 -29.6175 16.5625 -28.9375 16.5625 C-28.69 15.77875 -28.4425 14.995 -28.1875 14.1875 C-26.74255715 11.15312001 -25.88184181 10.89220275 -22.9375 9.5625 C-22.6075 8.5725 -22.2775 7.5825 -21.9375 6.5625 C-15.12910663 1.2426337 -8.39307738 0.00241597 0 0 Z M-8.75 24 C-11.77136365 27.53931171 -12.78384067 29.35517671 -13.375 34 C-13.20138083 37.63993543 -13.20138083 37.63993543 -11 40.4375 C-6.98473535 43.223602 -3.7860176 43.85307897 1.0625 43.5625 C4.72364961 42.6964973 7.39111808 41.27719689 10 38.5 C11.22277754 36.63851398 11.22277754 36.63851398 11.0625 34.5625 C11.7225 34.5625 12.3825 34.5625 13.0625 34.5625 C14.00036082 29.51240405 14.00036082 29.51240405 13.0625 24.5625 C12.4025 24.5625 11.7425 24.5625 11.0625 24.5625 C10.753125 23.634375 10.753125 23.634375 10.4375 22.6875 C8.49941574 19.69227887 6.4420295 19.40738238 3.0625 18.5625 C-1.59795786 18.5625 -5.36237814 21.06406106 -8.75 24 Z " fill="#844CCD" transform="translate(287.9375,72.4375)"/>
<path d="M0 0 C0.78181641 -0.02900391 1.56363281 -0.05800781 2.36914062 -0.08789062 C8.14289718 -0.15059642 11.40502295 1.07522915 16.1875 4.3125 C16.8475 3.3225 17.5075 2.3325 18.1875 1.3125 C20.25048828 0.97192383 20.25048828 0.97192383 22.7578125 1.01953125 C23.65371094 1.02919922 24.54960938 1.03886719 25.47265625 1.04882812 C26.87837891 1.0865332 26.87837891 1.0865332 28.3125 1.125 C29.25738281 1.13853516 30.20226562 1.15207031 31.17578125 1.16601562 C33.51358779 1.20143694 35.85026237 1.25082729 38.1875 1.3125 C41.12826255 7.19402511 38.39083413 17.84457905 37.1875 24.3125 C36.6925 24.8075 36.6925 24.8075 36.1875 25.3125 C35.85276125 27.46735712 35.57466019 29.63105725 35.3203125 31.796875 C35.1553791 33.13807393 34.99000009 34.47921812 34.82421875 35.8203125 C34.5670665 37.9372878 34.31342755 40.05449826 34.06787109 42.17285156 C33.82915014 44.21561407 33.57575594 46.25614522 33.3203125 48.296875 C33.17480957 49.52116211 33.02930664 50.74544922 32.87939453 52.00683594 C32.16688973 55.41096968 31.28725104 57.55384189 29.1875 60.3125 C25.68654689 61.47948437 22.8752768 61.44518287 19.1875 61.4375 C17.95 61.44007813 16.7125 61.44265625 15.4375 61.4453125 C12.1875 61.3125 12.1875 61.3125 9.1875 60.3125 C8.8575 59.3225 8.5275 58.3325 8.1875 57.3125 C7.67960937 57.58964844 7.17171875 57.86679688 6.6484375 58.15234375 C-2.80701928 63.12796801 -11.69774165 63.34692751 -21.8125 60.3125 C-25.14590532 58.95231737 -26.8204147 57.39852255 -28.9375 54.5 C-29.43507813 53.83355469 -29.93265625 53.16710937 -30.4453125 52.48046875 C-33.89250431 47.01420745 -34.14969436 42.3743773 -34.125 36.0625 C-34.14111328 35.25425781 -34.15722656 34.44601563 -34.17382812 33.61328125 C-34.17856755 27.68899568 -32.99346488 22.80823442 -30.8125 17.3125 C-30.1525 17.3125 -29.4925 17.3125 -28.8125 17.3125 C-28.565 16.36375 -28.3175 15.415 -28.0625 14.4375 C-26.8125 11.3125 -26.8125 11.3125 -24.6875 9.9375 C-24.06875 9.73125 -23.45 9.525 -22.8125 9.3125 C-22.8125 8.6525 -22.8125 7.9925 -22.8125 7.3125 C-20.765625 5.83984375 -20.765625 5.83984375 -18.0625 4.25 C-16.73992187 3.45916016 -16.73992187 3.45916016 -15.390625 2.65234375 C-10.36406478 0.04005564 -5.55590003 0.06769984 0 0 Z M-4.8125 20.3125 C-7.15308115 22.42057309 -9.17312506 24.61623866 -10.8125 27.3125 C-10.8125 28.3025 -10.8125 29.2925 -10.8125 30.3125 C-11.4725 30.3125 -12.1325 30.3125 -12.8125 30.3125 C-12.8125 32.2925 -12.8125 34.2725 -12.8125 36.3125 C-12.1525 36.3125 -11.4925 36.3125 -10.8125 36.3125 C-10.68875 36.93125 -10.565 37.55 -10.4375 38.1875 C-9.94052644 40.50370832 -9.94052644 40.50370832 -7.8125 42.3125 C-1.637554 43.94231846 3.10169306 43.5297963 8.69140625 40.515625 C10.49703097 39.28576586 10.49703097 39.28576586 11.1875 36.3125 C11.8475 35.9825 12.5075 35.6525 13.1875 35.3125 C14.4002585 30.70060148 14.82833087 26.64988617 12.75 22.3125 C7.23886098 18.0111232 1.60391549 17.34193727 -4.8125 20.3125 Z " fill="#834CCD" transform="translate(503.8125,72.6875)"/>
<path d="M0 0 C3.27066566 -0.08706892 6.54103365 -0.14041241 9.8125 -0.1875 C10.74126953 -0.21263672 11.67003906 -0.23777344 12.62695312 -0.26367188 C13.9659668 -0.27817383 13.9659668 -0.27817383 15.33203125 -0.29296875 C16.56530151 -0.31653442 16.56530151 -0.31653442 17.82348633 -0.34057617 C20.53842327 0.08425131 21.35151976 0.83794027 23 3 C24.16796875 6.1796875 24.16796875 6.1796875 25.1875 9.875 C25.53167969 11.08929688 25.87585938 12.30359375 26.23046875 13.5546875 C26.89541982 16.53177807 27.16686742 18.97337018 27 22 C27.66 22 28.32 22 29 22 C29.66 23.98 30.32 25.96 31 28 C31.66 26.68 32.32 25.36 33 24 C33.66 24 34.32 24 35 24 C35.2475 23.0925 35.495 22.185 35.75 21.25 C37.08438088 17.78060972 38.37947188 16.54345376 41 14 C43.57014511 9.62254344 43.57014511 9.62254344 45.91503906 5.12402344 C47.10568566 3.02835102 48.15588335 1.56596697 50 0 C53.63769761 -0.86330299 57.09994591 -0.66439216 60.8125 -0.4375 C61.79154297 -0.40591797 62.77058594 -0.37433594 63.77929688 -0.34179688 C66.18928203 -0.2595047 68.59308593 -0.1446501 71 0 C72.38462701 6.24229634 72.38462701 6.24229634 70.69921875 9.5625 C69.70341797 10.7690625 69.70341797 10.7690625 68.6875 12 C67.95789063 12.92683594 67.22828125 13.85367188 66.4765625 14.80859375 C65.87956543 15.56245361 65.87956543 15.56245361 65.27050781 16.33154297 C62.88111466 19.46934327 60.73470114 22.7724571 58.5625 26.0625 C58.12574951 26.71798828 57.68899902 27.37347656 57.23901367 28.04882812 C54.97578491 31.43938206 54.97578491 31.43938206 53 35 C52.34 35 51.68 35 51 35 C50.71125 35.763125 50.4225 36.52625 50.125 37.3125 C49 40 49 40 47 43 C46.34 43 45.68 43 45 43 C44.89429688 43.57878906 44.78859375 44.15757813 44.6796875 44.75390625 C43.9011107 47.32678936 42.79421417 48.84060161 41.125 50.9375 C38.82157713 53.84860981 36.90450811 56.81487436 35 60 C33.1259257 62.74321021 31.22699079 65.46589759 29.31640625 68.18359375 C27.56222686 70.69378312 25.88563174 73.19636814 24.34375 75.84375 C23 78 23 78 21 79 C19.49064528 79.09540346 17.97720917 79.13073487 16.46484375 79.1328125 C15.57345703 79.13410156 14.68207031 79.13539063 13.76367188 79.13671875 C12.3647168 79.13091797 12.3647168 79.13091797 10.9375 79.125 C10.00099609 79.12886719 9.06449219 79.13273437 8.09960938 79.13671875 C7.20951172 79.13542969 6.31941406 79.13414062 5.40234375 79.1328125 C4.17245728 79.13112061 4.17245728 79.13112061 2.91772461 79.12939453 C1 79 1 79 0 78 C-0.44289261 73.25568066 0.24817248 70.94232033 3.125 67.1875 C3.75664062 66.32769531 4.38828125 65.46789062 5.0390625 64.58203125 C6.29600969 62.92696732 7.56095026 61.27792573 8.8359375 59.63671875 C12.48559728 54.78160505 12.48559728 54.78160505 12.9375 48.9375 C12.64089534 47.62131682 12.32782913 46.30875535 12 45 C11.79449207 43.50236094 11.60646459 42.00220079 11.4375 40.5 C11.293125 39.345 11.14875 38.19 11 37 C10.34 37 9.68 37 9 37 C8.68546875 35.88882813 8.3709375 34.77765625 8.046875 33.6328125 C7.6157932 32.12986079 7.18341362 30.62728093 6.75 29.125 C6.52546143 28.34503662 6.30092285 27.56507324 6.06958008 26.76147461 C4.83626422 22.56279485 3.47930729 18.56356073 1.6875 14.5625 C0.21042165 11.13112112 -0.18890239 8.44463665 -0.10546875 4.71484375 C-0.0902417 3.82788818 -0.07501465 2.94093262 -0.05932617 2.02709961 C-0.03974854 1.35815674 -0.0201709 0.68921387 0 0 Z " fill="#844CCD" transform="translate(332,74)"/>
<path d="M0 0 C1.16499023 -0.01836914 1.16499023 -0.01836914 2.35351562 -0.03710938 C6.27482309 -0.04724195 8.22868745 -0.0350417 11.5625 2.1875 C10.93218371 8.03591421 10.22841943 13.86317181 9.40625 19.6875 C9.2990564 20.44925537 9.19186279 21.21101074 9.0814209 21.99584961 C8.85696948 23.58572064 8.63174356 25.1754825 8.40576172 26.76513672 C8.05948648 29.20876613 7.719189 31.65318608 7.37890625 34.09765625 C7.15922087 35.64848949 6.93918191 37.19927269 6.71875 38.75 C6.61767944 39.4821875 6.51660889 40.214375 6.41247559 40.96875 C5.67674323 46.07325677 5.67674323 46.07325677 4.5625 47.1875 C4.14154061 49.88278039 3.77490699 52.56698702 3.44140625 55.2734375 C3.22610696 56.94273356 3.01060584 58.6120036 2.79492188 60.28125 C2.45854241 62.92314337 2.12464961 65.56530623 1.79467773 68.20800781 C1.47542403 70.75157789 1.14650246 73.29375515 0.81640625 75.8359375 C0.72049698 76.62664642 0.62458771 77.41735535 0.52577209 78.23202515 C0.04712259 81.88066549 -0.3636732 84.0767598 -2.4375 87.1875 C-5.83861825 88.53555142 -9.3843336 88.32072677 -13 88.3125 C-14.13566406 88.31507813 -15.27132812 88.31765625 -16.44140625 88.3203125 C-19.4375 88.1875 -19.4375 88.1875 -22.4375 87.1875 C-22.72797884 78.37630858 -22.1309654 69.85260396 -20.4375 61.1875 C-19.9425 60.6925 -19.9425 60.6925 -19.4375 60.1875 C-19.00440911 57.46890493 -18.62573223 54.76143301 -18.28125 52.03125 C-18.1740564 51.21378296 -18.06686279 50.39631592 -17.9564209 49.55407715 C-17.61274305 46.93239195 -17.27448681 44.31005315 -16.9375 41.6875 C-16.49437461 38.2389381 -16.04580418 34.7911515 -15.59375 31.34375 C-15.49267944 30.54271851 -15.39160889 29.74168701 -15.28747559 28.91638184 C-14.55030181 23.30030181 -14.55030181 23.30030181 -13.4375 22.1875 C-13.16505993 20.64261769 -12.94705959 19.0880341 -12.75390625 17.53125 C-12.63080078 16.59152344 -12.50769531 15.65179688 -12.38085938 14.68359375 C-12.12701477 12.68668288 -11.87701199 10.68927987 -11.63085938 8.69140625 C-11.50646484 7.75167969 -11.38207031 6.81195313 -11.25390625 5.84375 C-11.09063843 4.54147461 -11.09063843 4.54147461 -10.92407227 3.21289062 C-10.68321899 2.21032227 -10.68321899 2.21032227 -10.4375 1.1875 C-7.16938198 -0.44655901 -3.58750593 0.00296243 0 0 Z " fill="#844CCC" transform="translate(565.4375,45.8125)"/>
</svg>
