<?xml version="1.0" encoding="UTF-8"?>
<svg version="1.1" xmlns="http://www.w3.org/2000/svg" width="512" height="512">
<path d="M0 0 C0.70015228 0.00087616 1.40030457 0.00175232 2.12167358 0.00265503 C31.52454613 0.1234584 60.23008882 8.61213867 82.5625 28.375 C83.43777344 29.14199219 84.31304687 29.90898437 85.21484375 30.69921875 C88.63508926 33.73776285 91.9902226 36.78909695 95.1875 40.0625 C97.19207914 42.01432706 99.11985802 43.5561207 101.375 45.1875 C116.23147925 56.21815658 123.37799347 71.44926054 126.5625 89.375 C127.49248031 98.4968902 127.73040527 107.63818186 127.82286072 116.80125999 C127.84436742 118.9161843 127.87132359 121.03098331 127.89953613 123.14582825 C127.96840001 128.38165734 128.02899926 133.61757348 128.08856201 138.85351562 C128.13952605 143.3169673 128.1942588 147.78033905 128.25437927 152.24367714 C128.28084625 154.32373801 128.30169988 156.40380733 128.3223877 158.4839325 C128.33910522 159.7398671 128.35582275 160.9958017 128.37304688 162.28979492 C128.39183899 163.94853889 128.39183899 163.94853889 128.41101074 165.64079285 C128.44733 168.46826004 128.44733 168.46826004 129.5625 171.375 C130.38505474 180.41135137 130.10495538 187.93779825 124.5625 195.375 C116.64209586 204.18381449 109.10693842 206.68895755 97.5625 207.375 C97.55863281 208.25285156 97.55863281 208.25285156 97.5546875 209.1484375 C96.49623491 232.64608499 82.66226389 253.6559286 66.55859375 269.828125 C64.26486847 271.77794101 62.56517048 273.00820052 59.97265625 274.359375 C56.26449058 276.33580089 53.3345718 278.11932689 50.5625 281.375 C48.98227408 287.89445187 49.7591213 294.7815902 50.5625 301.375 C51.64917969 301.66503906 51.64917969 301.66503906 52.7578125 301.9609375 C54.20800781 302.35152344 54.20800781 302.35152344 55.6875 302.75 C56.63882813 303.00523437 57.59015625 303.26046875 58.5703125 303.5234375 C61.5625 304.375 61.5625 304.375 64.31823063 305.41207981 C67.86354799 306.46435299 70.76886232 306.62823239 74.46299744 306.63328552 C75.4678327 306.63879908 75.4678327 306.63879908 76.49296767 306.64442402 C78.72447586 306.6543573 80.95573258 306.65026264 83.18725586 306.64624023 C84.79252893 306.65062996 86.39779971 306.65593301 88.00306702 306.66207886 C91.45374379 306.67356031 94.9043593 306.67903691 98.35505486 306.67996025 C103.8141168 306.68190414 109.27305237 306.69997451 114.73207092 306.72071838 C128.29048188 306.76986159 141.84892707 306.800789 155.40740967 306.82202148 C165.9471662 306.83855103 176.48681411 306.86137953 187.0264979 306.90504223 C192.45045277 306.92679827 197.87420119 306.93487837 203.29819667 306.93264949 C206.67574859 306.93431873 210.05316619 306.94838243 213.43066978 306.96586227 C214.99351778 306.97145127 216.55639374 306.9719567 218.11924362 306.96692467 C220.258141 306.96076129 222.39619476 306.97305315 224.53501892 306.98973083 C225.73016585 306.99174216 226.92531279 306.99375349 228.15667629 306.99582577 C234.10620597 307.65819368 239.35209709 310.05080242 243.5625 314.375 C248.60739677 321.71778642 248.17543625 330.19798839 248.08398438 338.73291016 C248.06241782 341.13415044 248.08391935 343.53244092 248.109375 345.93359375 C248.10673368 347.47136072 248.10161276 349.00912586 248.09375 350.546875 C248.10184692 351.25841736 248.10994385 351.96995972 248.11828613 352.70306396 C248.02781671 357.51976563 246.99848688 360.00722523 243.5625 363.375 C240.08795866 364.83796477 238.84169342 364.48775119 235.3125 363.0625 C232.5625 361.375 232.5625 361.375 231.5625 359.375 C231.40589117 356.75119687 231.3042092 354.14975148 231.24609375 351.5234375 C231.2149221 350.36238998 231.2149221 350.36238998 231.18312073 349.17788696 C231.11766552 346.70201608 231.05875913 344.22603798 231 341.75 C230.95681093 340.07290552 230.91319652 338.39582193 230.86914062 336.71875 C230.76198829 332.60427692 230.66070955 328.48969586 230.5625 324.375 C202.41686998 324.35167463 174.2712414 324.33402261 146.12560368 324.32318783 C133.05809774 324.3180241 119.99059779 324.31097994 106.9230957 324.29956055 C95.53796603 324.28961605 84.1528407 324.28314713 72.76770681 324.28091151 C66.73531554 324.279604 60.70293669 324.27651563 54.67054939 324.26926994 C48.99980143 324.26251342 43.32907108 324.26038228 37.65831947 324.26189232 C35.57047683 324.26161582 33.48263364 324.25960853 31.39479446 324.25579453 C28.55749084 324.25086302 25.72025482 324.25199969 22.88294983 324.25474548 C21.62665184 324.25037622 21.62665184 324.25037622 20.3449741 324.24591869 C16.65200874 323.90200041 16.65200874 323.90200041 13.5625 325.375 C13.46603972 327.20994486 13.44062656 329.04864587 13.44224548 330.88612366 C13.44087082 332.0823082 13.43949615 333.27849274 13.43807983 334.51092529 C13.44161943 335.84851099 13.44525425 337.18609644 13.44897461 338.52368164 C13.44925648 339.92282611 13.44909875 341.32197073 13.4485321 342.72111511 C13.44824412 346.53086459 13.45414102 350.34058286 13.46110606 354.15032506 C13.46733941 358.12751309 13.46794338 362.10470176 13.46913147 366.08189392 C13.47224484 373.61838539 13.48045831 381.15486243 13.49048096 388.69134754 C13.50164192 397.26919828 13.5071525 405.8470497 13.51217639 414.4249059 C13.52264092 432.07494546 13.54024047 449.72497157 13.5625 467.375 C41.56046917 467.42166087 69.55843254 467.45695977 97.55643272 467.47862434 C110.55553866 467.48894965 123.55462048 467.50303386 136.55371094 467.52587891 C147.87988667 467.54577448 159.20604493 467.55870731 170.53223765 467.56317699 C176.53281923 467.56579088 182.53335086 467.57196055 188.53391647 467.58646011 C194.17595445 467.59998354 199.81792164 467.60423331 205.45997429 467.60121536 C207.53611192 467.60176788 209.6122518 467.60577638 211.68837547 467.61341095 C214.51225861 467.6232903 217.33587075 467.62099471 220.15975952 467.61550903 C220.99048772 467.62133472 221.82121592 467.6271604 222.67711771 467.63316262 C227.08937546 467.79070317 227.08937546 467.79070317 230.5625 465.375 C230.75882127 462.89732222 230.83214999 460.52994023 230.81787109 458.05126953 C230.82149155 457.29662415 230.825112 456.54197876 230.82884216 455.76446533 C230.83574399 454.12316219 230.83824013 452.48183606 230.83689499 450.84051895 C230.83593205 448.24311984 230.84884414 445.64613723 230.86587524 443.04879761 C230.91221821 435.66326136 230.93675582 428.2777664 230.94335938 420.89208984 C230.94837062 416.37680946 230.97260236 411.86196223 231.00868607 407.34682846 C231.01849499 405.62526931 231.02081005 403.90365064 231.01551437 402.18207169 C231.00845363 399.77341615 231.02570445 397.36605292 231.04833984 394.95751953 C231.04016739 394.24568512 231.03199493 393.53385071 231.02357483 392.80044556 C231.0806308 389.38970273 231.34056181 387.65877533 233.46963501 384.93649292 C235.72711944 383.25217694 236.77917512 382.80706382 239.5625 382.8125 C240.5525 382.77962891 240.5525 382.77962891 241.5625 382.74609375 C244.75983162 383.75150467 245.77158367 385.59445667 247.5625 388.375 C247.92955543 391.15137774 248.07111096 393.51910903 248.01660156 396.28637695 C248.01718567 397.06739273 248.01776978 397.84840851 248.01837158 398.65309143 C248.01559435 401.22361358 247.98452075 403.79296276 247.953125 406.36328125 C247.9456613 408.1497484 247.93996897 409.93622375 247.93597412 411.72270203 C247.92072793 416.41646064 247.88145498 421.10972132 247.8371582 425.80328369 C247.79618354 430.59600082 247.77795842 435.38879869 247.7578125 440.18164062 C247.71495965 449.57964542 247.64672067 458.97728125 247.5625 468.375 C248.58766724 468.34672119 248.58766724 468.34672119 249.63354492 468.31787109 C250.53177979 468.30320801 251.43001465 468.28854492 252.35546875 468.2734375 C253.69001099 468.24515869 253.69001099 468.24515869 255.05151367 468.21630859 C259.48922946 468.49676705 262.01668747 470.7661788 265 473.87109375 C269.45283466 478.94378323 269.91262238 482.93998221 269.84375 489.45703125 C269.16622027 496.48640217 265.61720609 502.54006374 260.5625 507.375 C251.77470177 513.91773112 241.98388185 513.07041336 231.57446289 512.99023438 C229.6566926 512.99373949 227.73892524 512.99940246 225.82116699 513.00704956 C220.63764378 513.02124422 215.45465438 513.00429234 210.2711823 512.98076439 C204.84204037 512.96060762 199.41291955 512.9665371 193.98374939 512.96887207 C184.87571435 512.96881858 175.76788738 512.94910443 166.65991211 512.91699219 C156.12373681 512.88002561 145.58783316 512.87132811 135.05160147 512.8782897 C124.91210956 512.88458727 114.77271093 512.87385924 104.63323784 512.85432434 C100.31789256 512.84614136 96.0025949 512.8434424 91.68724251 512.84501648 C86.61377594 512.84589334 81.54056885 512.83173298 76.46717072 512.80578995 C74.60270635 512.79861054 72.73821441 512.79655301 70.87373924 512.79990768 C68.33518402 512.80360506 65.79739353 512.78893691 63.25892639 512.76940918 C62.5157512 512.77473711 61.772576 512.78006503 61.00688034 512.78555441 C56.04722003 512.71940811 56.04722003 512.71940811 53.60637569 510.98511505 C52.22606865 508.85607502 52.16225158 507.39984195 52.1875 504.875 C52.17976562 504.1015625 52.17203125 503.328125 52.1640625 502.53125 C52.68246725 499.72576546 53.23653175 499.03955064 55.5625 497.375 C58.12675171 497.08125792 60.44862993 496.97183392 63.0133667 496.99645996 C63.77869886 496.99192983 64.54403101 496.9873997 65.33255506 496.9827323 C67.90514297 496.97107591 70.47721415 496.98076828 73.04980469 496.99023438 C74.89108619 496.98613065 76.7323651 496.98067097 78.57363892 496.97395325 C82.54332312 496.9622106 86.51286822 496.95975026 90.48256683 496.96430969 C96.76052471 496.97110708 103.03829894 496.95527157 109.31622314 496.93591309 C122.64830549 496.89801008 135.98037204 496.88525571 149.3125 496.875 C163.69094603 496.86393107 178.06930782 496.84857125 192.44769597 496.80428743 C198.68703831 496.7859301 204.92617159 496.78203955 211.1655345 496.78922272 C215.05111889 496.79074559 218.93659894 496.77995378 222.822155 496.76584435 C224.62205232 496.76184463 226.42196952 496.7629617 228.22185898 496.76961708 C230.68272671 496.77801628 233.14287416 496.76798827 235.60369873 496.75354004 C236.31276076 496.76043397 237.02182279 496.76732791 237.75237155 496.77443075 C242.780472 496.71708752 246.16658528 495.64577533 250.5625 493.375 C252.74206572 490.43732446 252.5625 489.18936472 252.5625 485.375 C166.1025 485.045 79.6425 484.715 -9.4375 484.375 C-8.28427763 491.82332663 -8.28427763 491.82332663 -5.5625 494.3125 C-1.35002248 496.41873876 2.51236843 496.51599097 7.19140625 496.5859375 C8.47337891 496.61429687 9.75535156 496.64265625 11.07617188 496.671875 C13.10603732 496.71322548 15.13565092 496.75013761 17.16577148 496.77636719 C19.13287723 496.80394899 21.09968092 496.85092728 23.06640625 496.8984375 C24.24017822 496.91825684 25.4139502 496.93807617 26.62329102 496.95849609 C29.5625 497.375 29.5625 497.375 31.41772461 498.75634766 C33.00008534 500.99372271 33.36737458 502.64324411 33.5625 505.375 C32.6263375 508.47153751 31.85826678 510.07923322 29.5625 512.375 C27.0245365 512.57682913 24.59504849 512.65306903 22.05552673 512.64242554 C21.27204237 512.64695665 20.48855801 512.65148776 19.68133169 512.65615618 C17.04132032 512.66887257 14.40151333 512.66717515 11.76147461 512.66552734 C9.87432589 512.67150834 7.98717963 512.67831289 6.10003662 512.68588257 C0.96127189 512.70359981 -4.1774263 512.70824053 -9.31621861 512.70951414 C-13.60515437 512.71141063 -17.89407455 512.71876583 -22.18300432 512.72585833 C-32.30617428 512.74216389 -42.42930865 512.74702555 -52.55249023 512.74560547 C-62.99069162 512.74440549 -73.42868574 512.76547358 -83.8668347 512.7970928 C-92.82746098 512.82326792 -101.78801966 512.83397215 -110.74868387 512.83269465 C-116.10061219 512.8321851 -121.45235668 512.83786345 -126.8042469 512.85905075 C-131.84315956 512.8784522 -136.88171354 512.87854443 -141.92063904 512.86401749 C-143.76646894 512.86193021 -145.61232138 512.8666254 -147.45811272 512.8787384 C-159.32452906 512.95154225 -168.79862369 512.436699 -177.93359375 504.0859375 C-184.31576668 496.82517972 -185.12136071 488.04792952 -184.64663315 478.74425125 C-183.82805403 469.4706396 -181.63573147 460.29577855 -179.80078125 451.18359375 C-179.31868542 448.74626257 -178.83743295 446.30876444 -178.35697937 443.87110901 C-177.35079648 438.78187286 -176.33523635 433.69462633 -175.31274414 428.60864258 C-174.00909366 422.12080701 -172.72784821 415.62879057 -171.45348835 409.13514614 C-170.46431357 404.10684318 -169.46380282 399.08084693 -168.45989037 394.05546761 C-167.98337437 391.66375607 -167.51016502 389.27138307 -167.04046059 386.87832451 C-159.13875653 346.736095 -159.13875653 346.736095 -142.15258789 334.76464844 C-132.6732946 328.90971462 -122.5354266 325.69336265 -112 322.25 C-109.07647413 321.27824143 -106.15456236 320.30173387 -103.23272705 319.3249054 C-101.2491387 318.66201476 -99.26504593 318.00063167 -97.28045654 317.34074402 C-86.43319728 313.72786611 -75.65877658 309.91243336 -64.88967896 306.07391357 C-62.65385805 305.27734745 -60.41683794 304.48422877 -58.1796875 303.69140625 C-57.19069206 303.33631233 -57.19069206 303.33631233 -56.18171692 302.9740448 C-51.66340238 301.375 -51.66340238 301.375 -49.4375 301.375 C-48.45081651 289.96788699 -48.45081651 289.96788699 -52.53125 279.94140625 C-55.25671375 278.32095705 -55.25671375 278.32095705 -58.2578125 276.9609375 C-61.97690995 275.10595769 -64.62811487 272.83663668 -67.625 270 C-68.13039307 269.52353027 -68.63578613 269.04706055 -69.15649414 268.55615234 C-84.90407685 253.48967122 -98.76711605 231.94505455 -99.5390625 209.41015625 C-99.50554687 208.73855469 -99.47203125 208.06695312 -99.4375 207.375 C-100.7059375 207.22804687 -100.7059375 207.22804687 -102 207.078125 C-113.13555813 205.61025597 -119.50178226 203.43459933 -126.73828125 194.6484375 C-132.12683709 187.43892141 -132.23352402 180.12092625 -131.4375 171.375 C-131.10656342 170.59146149 -130.77562683 169.80792297 -130.43466187 169.00064087 C-129.35485647 166.15739018 -129.18632617 164.08971274 -129.18212891 161.06005859 C-129.17169052 159.50090225 -129.17169052 159.50090225 -129.16104126 157.9102478 C-129.16203827 156.7926004 -129.16303528 155.674953 -129.1640625 154.5234375 C-129.14374261 152.11978727 -129.12289133 149.71614149 -129.1015625 147.3125 C-129.07915759 143.55237085 -129.06256685 139.79241894 -129.05664062 136.03222656 C-128.98650038 109.59636977 -125.20887013 85.38285809 -111.4375 62.375 C-107.7169164 59.89461093 -105.83953429 59.91162797 -101.4375 60.375 C-99 61.875 -99 61.875 -97.4375 64.375 C-96.84402777 70.8892305 -98.17859803 74.85831673 -101.1875 80.5625 C-108.71288591 95.69093829 -111.5847668 110.60735732 -112.0625 127.4375 C-112.10117188 128.53126953 -112.13984375 129.62503906 -112.1796875 130.75195312 C-112.40875764 137.62814774 -112.4839784 144.49533582 -112.4375 151.375 C-111.78555664 151.22160156 -111.13361328 151.06820312 -110.46191406 150.91015625 C-106.63565707 150.00986049 -103.40507243 149.375 -99.4375 149.375 C-99.39625 148.42625 -99.355 147.4775 -99.3125 146.5 C-98.10654901 138.22583629 -91.93596924 130.37284425 -85.4375 125.375 C-79.31774706 121.73341595 -73.82658867 119.21173763 -66.64746094 119.30908203 C-65.69836853 119.31884064 -64.74927612 119.32859924 -63.77142334 119.33865356 C-62.23714691 119.36051224 -62.23714691 119.36051224 -60.671875 119.3828125 C-58.4791715 119.40035496 -56.28646284 119.41726066 -54.09375 119.43359375 C-50.65805487 119.46430442 -47.22262406 119.49952085 -43.78710938 119.54638672 C-13.80657077 119.93354109 12.54142882 114.14271505 36.5625 95.375 C42.57690665 90.90019284 46.87079468 88.63965532 54.5625 89.375 C60.40564327 91.07925012 63.12370514 95.29376731 66.6875 99.9375 C72.29024546 107.2210691 77.82884021 110.8668557 86.6875 112.8125 C91.8775675 114.00121383 94.4335914 115.05926399 97.5625 119.375 C98.66161549 122.67234646 98.6764456 125.10458745 98.66015625 128.57421875 C98.65693359 129.78271484 98.65371094 130.99121094 98.65039062 132.23632812 C98.64201172 133.49896484 98.63363281 134.76160156 98.625 136.0625 C98.62048828 137.33673828 98.61597656 138.61097656 98.61132812 139.92382812 C98.59952873 143.07426564 98.58306597 146.22460949 98.5625 149.375 C99.17738281 149.43558594 99.79226563 149.49617187 100.42578125 149.55859375 C101.23402344 149.64238281 102.04226563 149.72617188 102.875 149.8125 C103.67550781 149.89371094 104.47601563 149.97492188 105.30078125 150.05859375 C107.5625 150.375 107.5625 150.375 110.5625 151.375 C110.61399596 145.01110365 110.64855995 138.64726263 110.67236328 132.28320312 C110.68230595 130.12660719 110.6958648 127.9700243 110.71337891 125.81347656 C110.79670838 115.27474857 110.83974339 104.79679491 109.69140625 94.30859375 C109.61499908 93.60832062 109.53859192 92.90804749 109.45986938 92.18655396 C107.73261165 78.39520113 101.99600209 67.42286534 91.23828125 58.62109375 C89.40965866 57.22124424 89.40965866 57.22124424 86.6875 55.625 C83.74597742 53.50710374 81.94101258 51.56141213 79.625 48.8125 C63.45335907 30.48104058 38.48986999 20.22607158 14.5625 17.375 C9.78766762 17.09011761 5.0324957 17.04076997 0.25 17.0625 C-1.67030029 17.06987183 -1.67030029 17.06987183 -3.62939453 17.07739258 C-12.61284566 17.18889945 -20.7888164 17.79593148 -29.4375 20.375 C-31.28408203 20.90287109 -31.28408203 20.90287109 -33.16796875 21.44140625 C-49.28244364 26.2903366 -64.11361181 34.42284106 -76.375 46 C-79.4375 48.375 -79.4375 48.375 -83.125 49 C-87.0015224 48.26858068 -88.2210175 47.61447443 -90.4375 44.375 C-91.625 41.625 -91.625 41.625 -91.4375 38.375 C-79.65270008 19.18488662 -52.01348833 8.56760659 -31.29296875 3.19921875 C-20.79428295 0.95481885 -10.74654614 -0.03301134 0 0 Z M43.5 110.8125 C12.47888059 133.40813018 -24.59078276 139.15587737 -62.13818359 134.48730469 C-69.23435553 134.1407089 -74.4999374 137.76113533 -79.7109375 142.16796875 C-84.81234347 148.68899675 -84.88291333 155.82814585 -84.8359375 163.75 C-84.83880768 164.83273193 -84.84167786 165.91546387 -84.84463501 167.03100586 C-84.84666953 169.31706262 -84.8411827 171.60313704 -84.82861328 173.88916016 C-84.81267716 177.33667403 -84.82841865 180.78299303 -84.84765625 184.23046875 C-84.87457502 211.6785571 -79.34036744 236.2999514 -59.4375 256.375 C-45.2747188 269.8123141 -24.9693288 278.53374146 -5.4375 279.375 C-4.68726563 279.41496094 -3.93703125 279.45492187 -3.1640625 279.49609375 C19.71748279 280.12552137 40.08452286 271.48112144 56.87109375 256.28515625 C72.35175368 241.43103231 82.00269303 221.10811645 82.68275452 199.56567383 C82.68053391 198.25107178 82.67831329 196.93646973 82.67602539 195.58203125 C82.67624443 194.48300224 82.67624443 194.48300224 82.6764679 193.36177063 C82.67577823 190.97031563 82.66803076 188.57894118 82.66015625 186.1875 C82.6582887 184.5174158 82.65686639 182.84733104 82.65586853 181.17724609 C82.65206988 176.80432596 82.64226254 172.4314396 82.63116455 168.05853271 C82.62089311 163.58720354 82.61635868 159.11586885 82.61132812 154.64453125 C82.60063764 145.88800542 82.58359345 137.13150692 82.5625 128.375 C81.87194016 128.1720784 81.18138031 127.9691568 80.46989441 127.76008606 C79.56612564 127.49225815 78.66235687 127.22443024 77.73120117 126.94848633 C76.83439133 126.68368973 75.93758148 126.41889313 75.01359558 126.14607239 C65.25073512 123.0748449 57.49466424 116.82474642 52.60546875 107.9140625 C52.26128906 107.40617187 51.91710937 106.89828125 51.5625 106.375 C48.26517456 106.375 46.04804112 108.89034273 43.5 110.8125 Z M98.5625 165.375 C98.5625 173.955 98.5625 182.535 98.5625 191.375 C106.89761522 189.35224561 106.89761522 189.35224561 112.5625 184.375 C114.18295324 181.13409353 114.12351303 177.87806976 113.5625 174.375 C110.16977117 168.75579288 106.77265763 167.20750553 100.5625 165.375 C99.9025 165.375 99.2425 165.375 98.5625 165.375 Z M-112.07421875 169.62890625 C-114.62163985 172.30771297 -115.79983051 174.75983837 -116.0625 178.375 C-115.79983051 181.99016163 -114.62163985 184.44228703 -112.07421875 187.12109375 C-108.76997506 189.65250717 -104.63284896 191.375 -100.4375 191.375 C-100.4375 182.795 -100.4375 174.215 -100.4375 165.375 C-104.63284896 165.375 -108.76997506 167.09749283 -112.07421875 169.62890625 Z M21.85546875 291.86523438 C7.02698051 295.69059485 -7.74236537 295.12852579 -22.6328125 292.12890625 C-26.23396083 291.41533168 -29.80093717 290.86144931 -33.4375 290.375 C-33.4958721 294.72910978 -33.53122173 299.08311793 -33.5625 303.4375 C-33.57925781 304.66662109 -33.59601563 305.89574219 -33.61328125 307.16210938 C-33.87362848 317.86825088 -33.87362848 317.86825088 -29.1875 327.125 C-21.56738372 333.3596406 -13.02111432 334.72349507 -3.4375 334.375 C-3.41171875 333.6015625 -3.3859375 332.828125 -3.359375 332.03125 C-2.91797439 323.92552967 -1.95075142 317.79816805 4 312 C8.24268443 309.30951719 11.84589883 308.13698601 16.86328125 307.9609375 C17.83974609 307.92226563 18.81621094 307.88359375 19.82226562 307.84375 C20.82966797 307.8128125 21.83707031 307.781875 22.875 307.75 C23.90173828 307.71132813 24.92847656 307.67265625 25.98632812 307.6328125 C28.51143309 307.53885511 31.03694144 307.45585192 33.5625 307.375 C33.5625 301.435 33.5625 295.495 33.5625 289.375 C29.61448784 289.375 25.66482082 290.85393359 21.85546875 291.86523438 Z M-57.35498047 320.31518555 C-58.57410126 320.73950363 -59.79322205 321.16382172 -61.04928589 321.60099792 C-62.3844745 322.07108274 -63.71960691 322.54132721 -65.0546875 323.01171875 C-66.43161003 323.49333539 -67.80865676 323.97459712 -69.18582153 324.45552063 C-72.08029893 325.46739774 -74.97366369 326.48237464 -77.86621094 327.49975586 C-81.53679308 328.79071039 -85.2093444 330.0759401 -88.88268852 331.35901165 C-91.73353898 332.35517253 -94.58361433 333.35353542 -97.43344498 334.35260963 C-98.78459386 334.82620035 -100.13589463 335.29935803 -101.48736191 335.77203941 C-126.04938412 342.99692414 -126.04938412 342.99692414 -143.46124268 360.39697266 C-146.57371228 367.88706471 -148.13864914 375.56224519 -149.671875 383.5 C-149.95683105 384.93838919 -150.2425918 386.37661918 -150.52911377 387.81469727 C-151.27425328 391.56699376 -152.0074996 395.32151957 -152.73846436 399.07659912 C-153.33961257 402.15359224 -153.949501 405.22882301 -154.55978012 408.30401611 C-155.28765858 411.97291725 -156.01151609 415.642607 -156.734375 419.3125 C-156.87226189 420.01175598 -157.01014877 420.71101196 -157.15221405 421.43145752 C-157.53952754 423.40049221 -157.9236526 425.37015328 -158.30761719 427.33984375 C-158.63593536 429.02001587 -158.63593536 429.02001587 -158.97088623 430.73413086 C-159.49549812 433.25628635 -159.49549812 433.25628635 -159.4375 435.375 C-144.9175 435.375 -130.3975 435.375 -115.4375 435.375 C-115.1075 431.085 -114.7775 426.795 -114.4375 422.375 C-110.4375 419.375 -110.4375 419.375 -106.8125 419.5625 C-103.4375 420.375 -103.4375 420.375 -101.4375 422.375 C-100.14219495 425.949382 -100.27893091 429.5797097 -100.23217773 433.34667969 C-100.22214501 434.05092701 -100.21211229 434.75517433 -100.20177555 435.48076248 C-100.17047792 437.7527669 -100.14565561 440.02478883 -100.12109375 442.296875 C-100.10268223 443.70264239 -100.08384512 445.10840427 -100.0645752 446.51416016 C-99.99622662 451.71770826 -99.93611042 456.92136186 -99.875 462.125 C-99.730625 473.7575 -99.58625 485.39 -99.4375 497.375 C-74.3575 497.375 -49.2775 497.375 -23.4375 497.375 C-23.7675 496.055 -24.0975 494.735 -24.4375 493.375 C-25.0458866 485.74523368 -25.4698661 479.43964632 -20.4375 473.375 C-14.48662694 468.85233648 -11.55689471 469.18693947 -3.4375 468.375 C-3.4375 429.435 -3.4375 390.495 -3.4375 350.375 C-8.7175 349.715 -13.9975 349.055 -19.4375 348.375 C-29.4193512 345.66148705 -38.04725361 342.5842824 -43.875 333.625 C-46.5630812 328.72539493 -47.75650299 323.89342405 -48.4375 318.375 C-51.85873426 318.375 -54.124983 319.18442731 -57.35498047 320.31518555 Z M-162.4375 451.375 C-168.92283482 471.5506774 -168.92283482 471.5506774 -166.6875 491.875 C-162.65896961 496.35114488 -159.33843953 496.67880731 -153.4375 497.375 C-150.43757461 497.49931319 -147.4434807 497.4922293 -144.44140625 497.47265625 C-143.70144409 497.47164917 -142.96148193 497.47064209 -142.19909668 497.46960449 C-139.46604842 497.46441897 -136.73302246 497.45045815 -134 497.4375 C-127.874375 497.416875 -121.74875 497.39625 -115.4375 497.375 C-115.4375 482.195 -115.4375 467.015 -115.4375 451.375 C-130.9475 451.375 -146.4575 451.375 -162.4375 451.375 Z " fill="#854CCE" transform="translate(213.4375,-0.37499999999999994)"/>
<path d="M0 0 C6.69490553 3.41892862 10.68714902 8.77121933 14.125 15.3125 C14.9375 17.875 14.9375 17.875 15.125 20.3125 C15.2796875 21.859375 15.2796875 21.859375 15.4375 23.4375 C14.78394826 31.54154152 12.12474132 38.50168209 5.96484375 43.9453125 C0.02122241 48.36201626 -6.60800096 49.48625384 -13.875 49.3125 C-20.36815515 48.08296671 -26.62542392 45.47563632 -30.5390625 39.97265625 C-35.06127546 32.67496187 -36.78608715 26.92986596 -35.875 18.3125 C-34.00212177 11.95082122 -30.6715861 5.63511738 -24.8828125 2.09375 C-16.83378275 -2.03395757 -8.62702328 -3.58976808 0 0 Z M-19.25 19.0625 C-20.19197802 22.45362087 -19.72252199 24.92241203 -18.875 28.3125 C-16.76951873 31.27576994 -15.40070041 32.14472327 -11.9375 33.25 C-8.18839817 33.32651228 -6.77151146 32.6610228 -3.875 30.3125 C-1.57690539 27.47818331 -0.88876647 25.97329057 -0.8125 22.3125 C-2.26430013 18.21329964 -4.27070321 16.66915559 -7.875 14.3125 C-12.63867223 13.38300298 -16.28418242 15.28782308 -19.25 19.0625 Z " fill="#854CCE" transform="translate(345.875,371.6875)"/>
</svg>
