<?xml version="1.0" encoding="UTF-8"?>
<svg version="1.1" xmlns="http://www.w3.org/2000/svg" width="512" height="512">
<path d="M0 0 C45.69648164 -1.03875151 88.78078827 9.70933456 128.64208984 32.06201172 C129.30208984 32.39201172 129.96208984 32.72201172 130.64208984 33.06201172 C132.91120229 32.10964976 132.91120229 32.10964976 135.46240234 30.63232422 C136.46029785 30.08842041 137.45819336 29.5445166 138.48632812 28.98413086 C140.11030518 28.09455688 140.11030518 28.09455688 141.76708984 27.18701172 C172.59139381 10.77709418 207.60481254 0.91296988 242.64208984 0.06201172 C243.72756104 0.03131592 243.72756104 0.03131592 244.83496094 0 C286.49816704 -1.04742322 326.79645003 8.07379568 363.82958984 27.12451172 C364.77358643 27.60678223 365.71758301 28.08905273 366.69018555 28.5859375 C382.78377899 37.08005682 382.78377899 37.08005682 385.64208984 44.06201172 C385.89508951 46.4370383 385.89508951 46.4370383 385.89935875 49.12895012 C385.90580764 50.15733242 385.91225653 51.18571472 385.91890085 52.24526012 C385.91425504 53.93755219 385.91425504 53.93755219 385.90951538 55.66403198 C385.91404649 56.86378068 385.91857761 58.06352938 385.92324603 59.2996341 C385.93372904 62.63114716 385.93521371 65.96244461 385.93285728 69.2939589 C385.93244951 72.88641807 385.94348433 76.47884491 385.95297241 80.07128906 C385.969592 87.1099869 385.97508238 94.14865125 385.97619717 101.18736707 C385.97714716 106.90804942 385.98125499 112.62872071 385.98759842 118.34939957 C386.00521319 134.56461196 386.01443688 150.77979787 386.01293747 166.9950199 C386.01285756 167.86935864 386.01277765 168.74369739 386.01269531 169.64453125 C386.01261355 170.51993612 386.01253179 171.395341 386.01244755 172.29727329 C386.01163451 186.48703678 386.03077611 200.67669414 386.05897205 214.86642693 C386.08768758 229.43244996 386.10151309 243.99842121 386.09978449 258.56447327 C386.09912015 266.74379146 386.10463199 274.92299839 386.12614059 283.10229111 C386.14433489 290.06590177 386.14871421 297.02935075 386.13512175 303.99297486 C386.12858323 307.54617672 386.12850628 311.09906825 386.14582825 314.65224075 C386.1644111 318.50364632 386.15202744 322.35459666 386.13656616 326.20602417 C386.14685329 327.32975744 386.15714041 328.45349071 386.16773927 329.61127651 C386.11330078 335.72891133 385.7827716 339.42840359 381.64208984 344.06201172 C378.31054378 346.31970022 375.41722627 346.47080302 371.41943359 345.91357422 C367.19287292 344.61766673 363.69164818 342.25939114 359.9831543 339.9206543 C334.76231027 324.15801064 305.11767405 315.22273521 275.64208984 312.06201172 C274.62888672 311.95115234 273.61568359 311.84029297 272.57177734 311.72607422 C242.04727451 308.89548122 210.47702324 312.56782895 181.64208984 323.06201172 C180.88009277 323.33883789 180.1180957 323.61566406 179.33300781 323.90087891 C165.49900179 329.01230514 151.52295744 334.95096729 139.29052734 343.29638672 C135.01017743 346.14995333 131.72147216 346.51234871 126.64208984 346.06201172 C123.91053803 344.89176513 121.50124539 343.30803352 119.01708984 341.68701172 C92.16032454 325.12296203 62.0412779 315.20193052 30.64208984 312.06201172 C29.59537109 311.95115234 28.54865234 311.84029297 27.47021484 311.72607422 C-18.08654897 307.53303874 -65.26743129 318.47968352 -104.09228516 342.77294922 C-108.71366465 345.65732746 -111.93708829 346.77386246 -117.40869141 345.78076172 C-120.48705853 344.6456524 -121.76380176 342.85170142 -123.35791016 340.06201172 C-124.3414336 337.11144138 -124.48501226 335.20633639 -124.48933792 332.13094521 C-124.49317907 331.10742065 -124.49702021 330.0838961 -124.50097775 329.02935565 C-124.50011127 327.90145692 -124.49924479 326.77355819 -124.49835205 325.61148071 C-124.50132317 324.41596443 -124.5042943 323.22044814 -124.50735545 321.98870409 C-124.5145434 318.66445823 -124.51721536 315.34026403 -124.51795292 312.0160141 C-124.51980238 308.43310974 -124.52734912 304.85021661 -124.53408813 301.26731873 C-124.54767579 293.43063527 -124.5536967 285.59395693 -124.55809879 277.75726366 C-124.56086018 272.8657562 -124.56509732 267.97425072 -124.56960297 263.0827446 C-124.58179563 249.54426764 -124.59209532 236.00579228 -124.59547806 222.46730995 C-124.59580741 221.16733957 -124.59580741 221.16733957 -124.59614341 219.84110715 C-124.59647083 218.53799991 -124.59647083 218.53799991 -124.59680486 217.20856726 C-124.59724833 215.44812687 -124.59769489 213.68768648 -124.59814453 211.92724609 C-124.59836596 211.05400402 -124.59858739 210.18076195 -124.59881553 209.281058 C-124.60276495 195.1261431 -124.62022338 180.97127965 -124.64350405 166.81638463 C-124.66720334 152.28995404 -124.67967924 137.76354929 -124.68084598 123.23709905 C-124.68176348 115.07849475 -124.68753474 106.91995748 -124.70566559 98.76137161 C-124.72104732 91.81529982 -124.72619844 84.86931577 -124.71792749 77.92323019 C-124.71401426 74.37830732 -124.71498314 70.83356128 -124.72898483 67.28866005 C-124.74401677 63.4478665 -124.73587724 59.60732334 -124.72540283 55.76651001 C-124.73345924 54.64307273 -124.74151564 53.51963544 -124.74981618 52.3621546 C-124.74322634 51.33341455 -124.73663649 50.3046745 -124.72984695 49.24476051 C-124.73044404 48.35822088 -124.73104113 47.47168124 -124.73165631 46.55827677 C-124.00192982 41.68440529 -121.15229156 38.40940089 -117.35302734 35.41943359 C-112.79352015 32.31727255 -107.87725478 29.837058 -102.98291016 27.31201172 C-102.38965942 27.00553711 -101.79640869 26.6990625 -101.18518066 26.38330078 C-69.97971556 10.34776734 -35.14976085 0.92441906 0 0 Z M-102.35791016 52.06201172 C-102.45447072 53.47465413 -102.48162873 54.8921068 -102.48095798 56.30804539 C-102.48294903 57.22965287 -102.48494008 58.15126035 -102.48699147 59.10079533 C-102.48407862 60.12509284 -102.48116578 61.14939035 -102.47816467 62.20472717 C-102.4790191 63.28363942 -102.47987352 64.36255167 -102.48075384 65.47415823 C-102.48241183 69.11942598 -102.47688206 72.76464854 -102.47143555 76.40991211 C-102.47115372 79.01101175 -102.47131132 81.61211147 -102.47187805 84.21321106 C-102.47240347 89.82863401 -102.4692548 95.44404537 -102.46364021 101.05946541 C-102.45552764 109.1785098 -102.45291024 117.29754857 -102.45165222 125.41659658 C-102.44946132 138.58787421 -102.4428002 151.75914565 -102.43334961 164.93041992 C-102.42417648 177.72827117 -102.41709516 190.52612074 -102.4128418 203.32397461 C-102.41257907 204.11227872 -102.41231635 204.90058283 -102.41204567 205.71277494 C-102.41074067 209.66729911 -102.40947695 213.62182328 -102.40823376 217.57634747 C-102.39785996 250.40490672 -102.38024061 283.23345839 -102.35791016 316.06201172 C-101.36561071 315.62765415 -101.36561071 315.62765415 -100.35326481 315.18452168 C-97.32893241 313.8618155 -94.30351621 312.54160614 -91.27807617 311.22143555 C-90.23741249 310.76585518 -89.19674881 310.31027481 -88.12454987 309.84088898 C-81.26031443 306.84833713 -74.43011616 304.03736439 -67.29541016 301.74951172 C-66.30976074 301.42958252 -65.32411133 301.10965332 -64.30859375 300.7800293 C-5.05778122 282.01269652 58.97846457 287.46841207 114.84643555 314.24926758 C116.81059733 315.17545547 116.81059733 315.17545547 119.64208984 316.06201172 C119.64208984 228.94201172 119.64208984 141.82201172 119.64208984 52.06201172 C97.73582046 40.53239626 76.69117337 30.75462445 52.51708984 25.81201172 C51.41022827 25.58529785 51.41022827 25.58529785 50.28100586 25.35400391 C36.52117224 22.73364655 22.7527711 21.64820779 8.76708984 21.68701172 C8.01706696 21.68755554 7.26704407 21.68809937 6.49429321 21.68865967 C-24.78793784 21.79180468 -78.70924077 28.41334234 -102.35791016 52.06201172 Z M141.64208984 52.06201172 C141.19274809 54.07114768 141.19274809 54.07114768 141.27294636 56.43109322 C141.26697321 57.35469175 141.26100007 58.27829027 141.25484592 59.22987664 C141.26358444 60.2512613 141.27232297 61.27264597 141.28132629 62.32498169 C141.27876302 63.40474836 141.27619974 64.48451504 141.2735588 65.59700191 C141.26859113 69.23929584 141.28516317 72.88118134 141.30151367 76.5234375 C141.3023593 79.12468455 141.30188607 81.72593232 141.30018616 84.32717896 C141.2986108 89.93989467 141.30804725 95.55250601 141.32489967 101.16519547 C141.34924978 109.28024921 141.35709084 117.39525233 141.36086365 125.51033865 C141.36743441 138.67554086 141.38741249 151.8406874 141.41577148 165.00585938 C141.4432959 177.79687216 141.46453739 190.58786984 141.47729492 203.37890625 C141.47808309 204.16694764 141.47887126 204.95498902 141.47968332 205.76691045 C141.48359834 209.7201639 141.48738949 213.67341745 141.49111903 217.62667108 C141.5222344 250.43849182 141.57508716 283.25024433 141.64208984 316.06201172 C142.63466545 315.62765415 142.63466545 315.62765415 143.64729309 315.18452168 C146.67220213 313.86188471 149.69815028 312.54164143 152.72412109 311.22143555 C154.28555847 310.53806499 154.28555847 310.53806499 155.87854004 309.84088898 C162.72201369 306.85772114 169.53204526 304.03988453 176.64208984 301.74951172 C177.62443604 301.42958252 178.60678223 301.10965332 179.61889648 300.7800293 C229.21183744 285.08305389 283.3605221 286.0769334 332.51708984 302.87451172 C333.76075317 303.2983313 333.76075317 303.2983313 335.02954102 303.73071289 C344.85204047 307.25956821 354.07136751 311.75518667 363.64208984 316.06201172 C363.64208984 228.94201172 363.64208984 141.82201172 363.64208984 52.06201172 C341.73582046 40.53239626 320.69117337 30.75462445 296.51708984 25.81201172 C295.41022827 25.58529785 295.41022827 25.58529785 294.28100586 25.35400391 C280.52117224 22.73364655 266.7527711 21.64820779 252.76708984 21.68701172 C252.01706696 21.68755554 251.26704407 21.68809937 250.49429321 21.68865967 C213.44942688 21.81080547 172.86493147 31.24678396 141.64208984 52.06201172 Z " fill="#854DCE" transform="translate(125.35791015625,82.93798828125)"/>
</svg>
