<?xml version="1.0" encoding="UTF-8"?>
<svg version="1.1" xmlns="http://www.w3.org/2000/svg" width="600" height="161">
<path d="M0 0 C7.59 0 15.18 0 23 0 C23.66 1.32 24.32 2.64 25 4 C25.66 4 26.32 4 27 4 C27.33 23.8 27.66 43.6 28 64 C32.29 59.05 36.58 54.1 41 49 C46.58870968 42.56451613 46.58870968 42.56451613 48 41 C48.38776611 40.48050781 48.77553223 39.96101563 49.17504883 39.42578125 C51.90864742 37.29010021 54.13923006 37.6448802 57.56640625 37.671875 C58.85611328 37.67703125 60.14582031 37.6821875 61.47460938 37.6875 C62.14516357 37.6978125 62.81571777 37.708125 63.5065918 37.71875 C65.55861585 37.74994096 67.60987161 37.75972565 69.66210938 37.765625 C79.69180541 37.84590271 79.69180541 37.84590271 82 39 C82.35853314 42.68700501 82.38673363 44.45486567 80.20703125 47.52734375 C79.02173828 48.72037109 79.02173828 48.72037109 77.8125 49.9375 C75.04936155 52.81306662 72.4682742 55.55828776 70.25 58.875 C68.06738642 61.90640775 65.91152119 63.71799691 63 66 C62.649375 66.70125 62.29875 67.4025 61.9375 68.125 C61 70 61 70 59 70.9375 C56.2254202 72.41149552 56.03609065 74.09894618 55 77 C54.02596587 78.35241831 53.02920979 79.68908239 52 81 C56.07194429 86.72273252 60.50583669 91.84410011 65.3918457 96.87402344 C69 100.67733106 69 100.67733106 69 104 C69.61875 104.2475 70.2375 104.495 70.875 104.75 C73.37818306 106.22246063 73.83045281 107.41028837 75 110 C75.66 110.33 76.32 110.66 77 111 C77 111.66 77 112.32 77 113 C77.9590625 113.37125 77.9590625 113.37125 78.9375 113.75 C81 115 81 115 81.75 116.75 C82.0538261 119.48443489 82 122.24873766 82 125 C72.1 125.33 62.2 125.66 52 126 C52 125.34 52 124.68 52 124 C51.071875 123.9071875 51.071875 123.9071875 50.125 123.8125 C49.42375 123.544375 48.7225 123.27625 48 123 C47.31867549 121.33927151 46.65257873 119.672233 46 118 C44.67532254 117.3162955 43.34136367 116.65035814 42 116 C40.99329788 114.33737298 39.99435654 112.67003978 39 111 C37.70236603 109.44859487 36.36797743 107.92724815 35 106.4375 C32.48315497 103.68708413 30.24778023 100.99704031 28 98 C27.67 106.58 27.34 115.16 27 124 C24.25475448 125.37262276 22.03780705 125.1296881 18.96875 125.1328125 C17.76605469 125.13410156 16.56335938 125.13539063 15.32421875 125.13671875 C14.06222656 125.13285156 12.80023437 125.12898438 11.5 125.125 C10.23800781 125.12886719 8.97601562 125.13273437 7.67578125 125.13671875 C6.47308594 125.13542969 5.27039063 125.13414062 4.03125 125.1328125 C2.92330078 125.13168457 1.81535156 125.13055664 0.67382812 125.12939453 C-2 125 -2 125 -4 124 C-4 84.4 -4 44.8 -4 4 C-3.34 4 -2.68 4 -2 4 C-1.34 2.68 -0.68 1.36 0 0 Z " fill="#874ACB" transform="translate(505,12)"/>
<path d="M0 0 C1.33209011 0.56543786 2.66537331 1.12807564 4 1.6875 C4.99 2.120625 5.98 2.55375 7 3 C7.57427734 2.0253479 7.57427734 2.0253479 8.16015625 1.03100586 C10 -1 10 -1 12.49609375 -1.50170898 C13.46675781 -1.49985596 14.43742187 -1.49800293 15.4375 -1.49609375 C16.49710937 -1.49673828 17.55671875 -1.49738281 18.6484375 -1.49804688 C19.75445312 -1.47806641 20.86046875 -1.45808594 22 -1.4375 C23.10601562 -1.44458984 24.21203125 -1.45167969 25.3515625 -1.45898438 C33.3708239 -1.39557172 33.3708239 -1.39557172 35.63471985 0.027771 C37.76771083 3.10900431 37.39150774 6.34578647 37.34057617 9.9597168 C37.34123329 11.17469345 37.34123329 11.17469345 37.34190369 12.41421509 C37.33981284 15.09279444 37.31646814 17.77074868 37.29296875 20.44921875 C37.28737384 22.30580809 37.28310325 24.16240185 37.28010559 26.01899719 C37.26864854 30.90666929 37.23917394 35.79407415 37.20599365 40.68164062 C37.17531132 45.66858301 37.16160418 50.65556856 37.14648438 55.64257812 C37.11430508 65.42850286 37.06309831 75.21422921 37 85 C32.65149046 87.17425477 26.77642634 86.18496474 22 86.1875 C20.78570312 86.19974609 19.57140625 86.21199219 18.3203125 86.22460938 C16.58394531 86.22750977 16.58394531 86.22750977 14.8125 86.23046875 C13.21341797 86.23663208 13.21341797 86.23663208 11.58203125 86.24291992 C9 86 9 86 7 84 C3.98694043 84.38878188 2.60314689 85.26456874 0 87 C-2.04296875 87.4140625 -2.04296875 87.4140625 -4.1875 87.625 C-5.445625 87.74875 -6.70375 87.8725 -8 88 C-8 88.33 -8 88.66 -8 89 C-11.96 89 -15.92 89 -20 89 C-20 88.34 -20 87.68 -20 87 C-21.11375 87.309375 -21.11375 87.309375 -22.25 87.625 C-26.60295724 88.21858508 -29.50989315 85.75428716 -33.125 83.5 C-33.80820312 83.0771875 -34.49140625 82.654375 -35.1953125 82.21875 C-37 81 -37 81 -39 79 C-39.60585938 78.76410156 -40.21171875 78.52820313 -40.8359375 78.28515625 C-44.03681152 76.38427619 -45.68421237 73.51983243 -47.625 70.4375 C-48.02525391 69.81069336 -48.42550781 69.18388672 -48.83789062 68.53808594 C-51.78141605 63.75424286 -53.2525652 59.60576102 -54 54 C-54.33 53.34 -54.66 52.68 -55 52 C-55.06935891 50.66830891 -55.0845585 49.33331363 -55.0625 48 C-55.05347656 47.29875 -55.04445313 46.5975 -55.03515625 45.875 C-55.02355469 45.25625 -55.01195312 44.6375 -55 44 C-55 41.35621643 -55.05242825 38.71363809 -55.09765625 36.0703125 C-54.92700772 32.45256377 -53.79355532 29.29427605 -52.5 25.9375 C-51.6154653 23.6332871 -50.7810752 21.34322561 -50 19 C-49.34 19 -48.68 19 -48 19 C-47.79375 18.319375 -47.5875 17.63875 -47.375 16.9375 C-45.57152999 13.08463226 -43.18720542 9.83646032 -40 7 C-37.8046875 6.296875 -37.8046875 6.296875 -36 6 C-36 5.34 -36 4.68 -36 4 C-35.01 4 -34.02 4 -33 4 C-33 3.34 -33 2.68 -33 2 C-32.195625 1.87625 -31.39125 1.7525 -30.5625 1.625 C-29.716875 1.41875 -28.87125 1.2125 -28 1 C-27.67 0.34 -27.34 -0.32 -27 -1 C-18.13032344 -4.54787062 -8.55531607 -4.06698109 0 0 Z M35 12 C35 13.98 35 15.96 35 18 C35.33 18 35.66 18 36 18 C36 16.02 36 14.04 36 12 C35.67 12 35.34 12 35 12 Z M35 21 C35 22.98 35 24.96 35 27 C35.33 27 35.66 27 36 27 C36 25.02 36 23.04 36 21 C35.67 21 35.34 21 35 21 Z M-15 26 C-15 26.66 -15 27.32 -15 28 C-15.99 27.67 -16.98 27.34 -18 27 C-18 27.66 -18 28.32 -18 29 C-18.928125 29.3403125 -18.928125 29.3403125 -19.875 29.6875 C-22.62260139 31.38454792 -22.93210179 33.02514071 -24 36 C-24.99 36.495 -24.99 36.495 -26 37 C-26.33 37.99 -26.66 38.98 -27 40 C-27.33 40 -27.66 40 -28 40 C-28.16677282 43.41656024 -28.16677282 43.41656024 -28 47 C-27.34 47.66 -26.68 48.32 -26 49 C-25.25781484 50.28423051 -24.53013409 51.57689056 -23.8125 52.875 C-21.22169238 57.01727962 -18.74223923 59.56820854 -14 61 C-9.16960976 61.51434711 -4.68023006 61.3233754 0 60 C0 59.34 0 58.68 0 58 C0.78375 57.731875 1.5675 57.46375 2.375 57.1875 C5.28114923 56.15185568 5.28114923 56.15185568 7 53 C7.47499843 49.89112583 7.41627436 46.76639509 7.4375 43.625 C7.47037109 42.77421875 7.50324219 41.9234375 7.53710938 41.046875 C7.57605571 36.5007758 7.46755197 34.6036362 4.59765625 30.8984375 C2.26711608 28.80331766 2.26711608 28.80331766 0 29 C-0.33 28.34 -0.66 27.68 -1 27 C-4.08142868 25.89651541 -7.00234962 25.89476776 -10.25 25.9375 C-11.14203125 25.94652344 -12.0340625 25.95554687 -12.953125 25.96484375 C-13.62859375 25.97644531 -14.3040625 25.98804687 -15 26 Z M35 30 C35 31.65 35 33.3 35 35 C35.33 35 35.66 35 36 35 C36 33.35 36 31.7 36 30 C35.67 30 35.34 30 35 30 Z M35 37 C36 39 36 39 36 39 Z M35 41 C36 44 36 44 36 44 Z M35 46 C36 48 36 48 36 48 Z M35 50 C36 53 36 53 36 53 Z M35 55 C36 57 36 57 36 57 Z M35 59 C36 61 36 61 36 61 Z M35 64 C36 66 36 66 36 66 Z M35 68 C36 70 36 70 36 70 Z M35 73 C36 75 36 75 36 75 Z M35 80 C36 83 36 83 36 83 Z " fill="#854BCC" transform="translate(365,51)"/>
<path d="M0 0 C1.92392578 0.00966797 1.92392578 0.00966797 3.88671875 0.01953125 C8.58082999 0.24968722 11.98943731 1.45827492 16.3125 3.1875 C16.98539063 3.38085938 17.65828125 3.57421875 18.3515625 3.7734375 C24.3122216 5.51452349 28.57492963 8.19864647 33.3125 12.1875 C32.7583493 16.15891333 31.87745692 19.50524841 30.3125 23.1875 C30.02375 24.198125 29.735 25.20875 29.4375 26.25 C28.22191898 29.42401711 26.85614902 30.98300418 24.3125 33.1875 C21.72659253 32.25370008 19.60872042 31.42860965 17.46484375 29.68359375 C14.97438277 27.95247477 13.10196645 27.54620208 10.125 27.0625 C5.39861599 26.27361599 5.39861599 26.27361599 4.3125 25.1875 C2.01634446 24.94930772 2.01634446 24.94930772 -0.625 24.9375 C-1.52089844 24.91171875 -2.41679687 24.8859375 -3.33984375 24.859375 C-4.11457031 24.96765625 -4.88929688 25.0759375 -5.6875 25.1875 C-6.3475 26.1775 -7.0075 27.1675 -7.6875 28.1875 C-2.86830911 32.58763081 3.7079 33.89898444 9.9375 35.1875 C14.04292711 36.05180044 17.55578138 37.30914069 21.3125 39.1875 C21.6425 39.8475 21.9725 40.5075 22.3125 41.1875 C22.93125 41.496875 23.55 41.80625 24.1875 42.125 C26.42966922 43.24608461 27.62244727 44.35660954 29.3125 46.1875 C29.9725 46.785625 30.6325 47.38375 31.3125 48 C34.20042842 51.15867171 36.3853342 53.98330708 36.23828125 58.43359375 C36.04350742 59.97407772 35.81257798 61.51059366 35.5390625 63.0390625 C35.18493138 65.20602213 35.18493138 65.20602213 35.859375 67.3359375 C36.00890625 67.94695312 36.1584375 68.55796875 36.3125 69.1875 C34.9375 71.1875 34.9375 71.1875 33.3125 73.1875 C33.17972656 73.80625 33.04695313 74.425 32.91015625 75.0625 C31.44048279 80.28800562 26.35832291 84.35511034 22.25 87.625 C19.15465212 89.27146164 16.77704797 89.8109187 13.3125 90.1875 C10.5304084 90.6673482 10.5304084 90.6673482 8.3125 92.1875 C5.48993509 92.28757008 2.6972681 92.32625598 -0.125 92.3125 C-0.91455078 92.31636719 -1.70410156 92.32023437 -2.51757812 92.32421875 C-8.43423867 92.31413067 -8.43423867 92.31413067 -10.6875 91.1875 C-11.47125 91.1875 -12.255 91.1875 -13.0625 91.1875 C-19.74229895 91.1875 -26.53590888 88.30877289 -31.6875 84.1875 C-32.739375 83.713125 -33.79125 83.23875 -34.875 82.75 C-37.6875 81.1875 -37.6875 81.1875 -38.45556641 79.33081055 C-38.87723525 75.43414653 -36.78528521 72.40023396 -35.0625 69 C-34.71832031 68.26330078 -34.37414062 67.52660156 -34.01953125 66.76757812 C-31.38744434 61.48883555 -31.38744434 61.48883555 -28.1015625 60.07421875 C-25.6875 60.1875 -25.6875 60.1875 -22.6875 62.1875 C-22.6875 62.8475 -22.6875 63.5075 -22.6875 64.1875 C-21.5325 64.290625 -20.3775 64.39375 -19.1875 64.5 C-16.12717273 64.86509167 -13.63611156 65.52835582 -10.8125 66.75 C-6.2417366 68.58372524 -1.54910453 69.03083956 3.3125 68.1875 C4.67696356 67.23041225 6.01593137 66.23472851 7.3125 65.1875 C7.9725 65.1875 8.6325 65.1875 9.3125 65.1875 C9.3125 64.5275 9.3125 63.8675 9.3125 63.1875 C5.3238045 61.37445659 1.63292168 60.79387497 -2.6875 60.1875 C-4.69901741 59.55643571 -6.70113702 58.89376239 -8.6875 58.1875 C-10.63665434 57.67154738 -12.58473112 57.20985976 -14.5546875 56.78125 C-16.7812606 56.16139815 -18.63717701 55.31120233 -20.6875 54.25 C-21.3475 53.91097656 -22.0075 53.57195312 -22.6875 53.22265625 C-23.3475 52.88105469 -24.0075 52.53945312 -24.6875 52.1875 C-25.35394531 51.91550781 -26.02039063 51.64351562 -26.70703125 51.36328125 C-29.36683878 49.78418447 -30.63530961 47.85599527 -32.375 45.3125 C-33.27798828 44.01699219 -33.27798828 44.01699219 -34.19921875 42.6953125 C-36.66992462 38.53207584 -36.80712655 35.2361304 -36.75 30.4375 C-36.74097656 29.45265625 -36.73195312 28.4678125 -36.72265625 27.453125 C-36.71105469 26.70546875 -36.69945312 25.9578125 -36.6875 25.1875 C-36.0275 25.1875 -35.3675 25.1875 -34.6875 25.1875 C-35.0175 24.1975 -35.3475 23.2075 -35.6875 22.1875 C-34.61328125 19.8125 -34.61328125 19.8125 -33 17.1875 C-32.48050781 16.32125 -31.96101562 15.455 -31.42578125 14.5625 C-29.69221245 12.19393858 -28.1736174 10.72676617 -25.6875 9.1875 C-25.0275 9.1875 -24.3675 9.1875 -23.6875 9.1875 C-23.3575 8.1975 -23.0275 7.2075 -22.6875 6.1875 C-20.08507586 4.53929805 -18.82501221 4.1875 -15.6875 4.1875 C-15.3575 3.5275 -15.0275 2.8675 -14.6875 2.1875 C-9.6711046 0.37549406 -5.37208884 -0.05975023 0 0 Z M-32.6875 66.1875 C-31.6875 68.1875 -31.6875 68.1875 -31.6875 68.1875 Z " fill="#874BCC" transform="translate(229.6875,47.8125)"/>
<path d="M0 0 C1.64548828 0.00966797 1.64548828 0.00966797 3.32421875 0.01953125 C5.8469391 0.16133122 7.90697119 0.47905855 10.3125 1.1875 C11.97769519 1.52810811 13.64407466 1.86308396 15.3125 2.1875 C15.3125 2.8475 15.3125 3.5075 15.3125 4.1875 C16.02792969 4.29191406 16.74335938 4.39632812 17.48046875 4.50390625 C26.92008192 6.78243357 34.29390898 14.17654054 39.3125 22.1875 C40.0234375 24.48828125 40.0234375 24.48828125 40.3125 26.1875 C35.92070194 30.47473144 31.45647356 33.35099659 26 36.0625 C25.37722168 36.3726001 24.75444336 36.6827002 24.11279297 37.00219727 C19.59415683 39.1875 19.59415683 39.1875 17.3125 39.1875 C16.61125 38.445 15.91 37.7025 15.1875 36.9375 C10.70558063 32.65044669 6.26433712 29.93110522 -0.0625 30 C-1.856875 30.0928125 -1.856875 30.0928125 -3.6875 30.1875 C-4.3475 29.8575 -5.0075 29.5275 -5.6875 29.1875 C-5.6875 29.8475 -5.6875 30.5075 -5.6875 31.1875 C-8.64937272 33.35954 -11.19435991 35.02311997 -14.6875 36.1875 C-15.13278908 38.74791223 -15.54407388 41.30655332 -15.9375 43.875 C-16.06640625 44.59623047 -16.1953125 45.31746094 -16.328125 46.06054688 C-16.87939881 49.83332703 -16.95843485 51.75052764 -14.921875 55.03515625 C-14.18453125 55.74542969 -13.4471875 56.45570312 -12.6875 57.1875 C-11.9140625 57.95320313 -11.9140625 57.95320313 -11.125 58.734375 C-6.08180898 62.95530662 -3.12299655 63.3274021 3.3125 63.1875 C3.9725 63.1875 4.6325 63.1875 5.3125 63.1875 C9.2204815 61.1966415 11.94796367 59.55203633 15.0625 56.4375 C15.805 55.695 16.5475 54.9525 17.3125 54.1875 C20.3125 54.1875 20.3125 54.1875 23.3125 55.1875 C23.3125 55.8475 23.3125 56.5075 23.3125 57.1875 C24.12847656 57.34412109 24.12847656 57.34412109 24.9609375 57.50390625 C27.87091482 58.34982989 30.2846768 59.66272953 32.9375 61.125 C33.89914062 61.64964844 34.86078125 62.17429688 35.8515625 62.71484375 C38.3125 64.1875 38.3125 64.1875 40.3125 66.1875 C40.15538035 71.00032292 37.69596765 73.41532209 34.5 76.8125 C33.62730469 77.75351563 32.75460937 78.69453125 31.85546875 79.6640625 C26.28928019 85.1875 26.28928019 85.1875 23.3125 85.1875 C22.85617187 85.64769531 22.39984375 86.10789062 21.9296875 86.58203125 C18.61876272 89.86896382 13.87360106 91.08993118 9.3125 91.375 C8.3225 91.2821875 8.3225 91.2821875 7.3125 91.1875 C7.3125 91.5175 7.3125 91.8475 7.3125 92.1875 C5.00006208 92.21435412 2.6875373 92.23382841 0.375 92.25 C-0.91277344 92.26160156 -2.20054687 92.27320313 -3.52734375 92.28515625 C-6.6875 92.1875 -6.6875 92.1875 -7.6875 91.1875 C-8.6775 91.084375 -9.6675 90.98125 -10.6875 90.875 C-15.41263866 90.28558561 -19.44479665 88.25593814 -23.6875 86.1875 C-23.6875 85.5275 -23.6875 84.8675 -23.6875 84.1875 C-24.43128906 83.92710937 -25.17507813 83.66671875 -25.94140625 83.3984375 C-33.79489233 79.93530708 -38.11892982 72.51724554 -41.64453125 65.03125 C-42.95971573 61.44527883 -42.92769677 58.95058268 -42.6875 55.1875 C-43.41259766 54.52234375 -43.41259766 54.52234375 -44.15234375 53.84375 C-46.31375183 51.51184917 -46.0879847 49.88037059 -46.0625 46.75 C-46.07023437 45.80253906 -46.07796875 44.85507813 -46.0859375 43.87890625 C-45.63079091 40.80443565 -44.58682187 39.57811313 -42.6875 37.1875 C-42.749375 36.176875 -42.81125 35.16625 -42.875 34.125 C-42.43588984 24.90368663 -35.99324487 17.60707368 -29.5390625 11.484375 C-20.96384483 4.57721337 -11.12741198 -0.14485388 0 0 Z M-41.6875 60.1875 C-40.6875 62.1875 -40.6875 62.1875 -40.6875 62.1875 Z " fill="#864BCB" transform="translate(454.6875,47.8125)"/>
<path d="M0 0 C1.00023193 0.00523682 2.00046387 0.01047363 3.03100586 0.01586914 C4.1105957 0.0190918 5.19018555 0.02231445 6.30249023 0.02563477 C8.00695312 0.03820313 8.00695312 0.03820313 9.74584961 0.05102539 C11.45611328 0.05779297 11.45611328 0.05779297 13.20092773 0.06469727 C16.02845312 0.07652792 18.85587601 0.09301129 21.68334961 0.11352539 C23.51569738 3.25065817 23.93282634 5.52763126 23.93058777 9.14347839 C23.93478226 10.15723038 23.93897675 11.17098236 23.94329834 12.2154541 C23.93486908 13.87465881 23.93486908 13.87465881 23.92626953 15.56738281 C23.92816788 16.73678909 23.93006622 17.90619537 23.93202209 19.11103821 C23.93573013 22.98042481 23.92502671 26.8496242 23.91381836 30.71899414 C23.91262667 33.40131407 23.91212252 36.08362611 23.91242981 38.76594543 C23.91149382 44.38728167 23.90281656 50.00856385 23.88916016 55.62988281 C23.8734124 62.13625864 23.86816287 68.64257537 23.86889571 75.14896888 C23.86950511 81.40350809 23.86440916 87.658028 23.8561039 93.91256142 C23.85291109 96.57723061 23.85073999 99.24187708 23.85021019 101.90654564 C23.84805447 105.62034494 23.83932768 109.33406841 23.82861328 113.04785156 C23.82929306 114.71616531 23.82929306 114.71616531 23.82998657 116.41818237 C23.82572159 117.42347488 23.8214566 118.4287674 23.81706238 119.46452332 C23.81538653 120.34332751 23.81371069 121.22213171 23.81198406 122.12756634 C23.68334961 124.11352539 23.68334961 124.11352539 22.68334961 125.11352539 C20.75667454 125.20100746 18.826831 125.22049873 16.89819336 125.21118164 C15.14345703 125.20634766 15.14345703 125.20634766 13.35327148 125.20141602 C11.50572266 125.18884766 11.50572266 125.18884766 9.62084961 125.17602539 C7.7675 125.16925781 7.7675 125.16925781 5.87670898 125.16235352 C2.81220844 125.15052147 -0.25219761 125.13403712 -3.31665039 125.11352539 C-3.33997948 108.96320619 -3.35762962 92.81289243 -3.36846256 76.66256046 C-3.3736255 69.16419475 -3.38066815 61.66583948 -3.39208984 54.16748047 C-3.40203676 47.63422035 -3.40850384 41.1009678 -3.41073889 34.56770033 C-3.41204598 31.10630732 -3.41513175 27.64493597 -3.42238045 24.18354988 C-3.43039446 20.32565013 -3.43064152 16.46777182 -3.43017578 12.60986328 C-3.43377106 11.45396698 -3.43736633 10.29807068 -3.44107056 9.10714722 C-3.43969589 8.06241745 -3.43832123 7.01768768 -3.43690491 5.94129944 C-3.4378267 5.02780259 -3.43874849 4.11430574 -3.43969822 3.17312717 C-3.26339194 0.2220737 -2.95916158 0.14501108 0 0 Z " fill="#844FCE" transform="translate(278.316650390625,11.886474609375)"/>
<path d="M0 0 C0.97135895 -0.00619858 1.9427179 -0.01239716 2.94351196 -0.01878357 C4.99260459 -0.02586798 7.04175494 -0.02273188 9.09082031 -0.01000977 C12.21007425 0.00383308 15.32631262 -0.03020873 18.4453125 -0.06835938 C20.44270906 -0.06931091 22.44010935 -0.06744992 24.4375 -0.0625 C25.36170746 -0.07575821 26.28591492 -0.08901642 27.23812866 -0.10267639 C34.41454683 -0.00058038 39.2478052 2.07170103 44.41220093 7.07981873 C48.00914292 11.1266874 48.71455827 13.71684908 49.1015625 18.94140625 C48.69934197 24.77360392 46.53028158 28.17107894 42.44580078 32.20239258 C37.35213379 36.5534985 32.83115517 36.53863349 26.34375 36.390625 C25.25949738 36.39020706 24.17524475 36.38978912 23.05813599 36.38935852 C20.77707906 36.38101161 18.49602766 36.35565565 16.21533203 36.31420898 C12.72973475 36.25396108 9.24776325 36.25264323 5.76171875 36.25976562 C3.5390357 36.24436022 1.31637286 36.22559464 -0.90625 36.203125 C-1.94387482 36.20181076 -2.98149963 36.20049652 -4.05056763 36.19914246 C-10.05899194 36.06173663 -13.5571308 35.53846953 -18.1484375 31.56640625 C-21.23521023 28.31278094 -22.74197365 26.03750858 -23.1484375 21.56640625 C-23.29539062 20.55900391 -23.29539062 20.55900391 -23.4453125 19.53125 C-23.76733786 15.92085026 -23.71417051 13.49512402 -21.796875 10.34765625 C-15.33517043 2.71885967 -9.89084064 -0.05284887 0 0 Z " fill="#854CCA" transform="translate(110.1484375,85.43359375)"/>
<path d="M0 0 C0.97040222 -0.01140015 1.94080444 -0.02280029 2.94061279 -0.0345459 C4.99145169 -0.05340513 7.04235064 -0.06649767 9.09326172 -0.07421875 C12.21040231 -0.09360094 15.32488591 -0.15566055 18.44140625 -0.21875 C20.44008861 -0.23181512 22.43878972 -0.24231408 24.4375 -0.25 C25.35968323 -0.2746936 26.28186646 -0.29938721 27.23199463 -0.3248291 C34.2661693 -0.2770746 38.62972796 1.89522467 43.984375 6.40625 C48.13133821 10.86423545 49.31483981 14.21745444 49.19140625 20.35546875 C48.68799015 25.34213766 46.17523563 28.44810223 42.609375 31.71875 C39.831054 33.9673064 37.66497407 35.29799709 33.984375 35.40625 C33.654375 35.07625 33.324375 34.74625 32.984375 34.40625 C31.60191099 34.36344133 30.21716288 34.39114775 28.83520508 34.44799805 C27.95371292 34.4810051 27.07222076 34.51401215 26.16401672 34.54801941 C25.20368027 34.58760269 24.24334381 34.62718597 23.25390625 34.66796875 C21.23375569 34.73597513 19.21357192 34.80300108 17.19335938 34.86914062 C13.99776317 34.97828487 10.80287973 35.09350128 7.6081543 35.22583008 C4.53207589 35.35055207 1.45605254 35.44882081 -1.62109375 35.54296875 C-2.57130905 35.58862473 -3.52152435 35.6342807 -4.50053406 35.68132019 C-10.25086704 35.83225155 -13.47467272 35.30504741 -18.015625 31.40625 C-18.62543213 30.92212646 -19.23523926 30.43800293 -19.86352539 29.93920898 C-22.27553697 26.72983821 -21.48309995 22.31916901 -21.453125 18.46875 C-21.4830957 17.1084668 -21.4830957 17.1084668 -21.51367188 15.72070312 C-21.50879113 9.08777116 -21.50879113 9.08777116 -19.11328125 5.77734375 C-17.015625 4.40625 -17.015625 4.40625 -15.015625 4.40625 C-15.015625 3.74625 -15.015625 3.08625 -15.015625 2.40625 C-10.14353265 -0.12754268 -5.35960131 0.04896944 0 0 Z " fill="#844DCB" transform="translate(34.015625,47.59375)"/>
<path d="M0 0 C2.22909871 -0.02714735 4.45829367 -0.04646254 6.6875 -0.0625 C7.92886719 -0.07410156 9.17023438 -0.08570313 10.44921875 -0.09765625 C18.10084899 0.11278463 18.10084899 0.11278463 20.765625 2.7421875 C21.25546875 3.44601563 21.7453125 4.14984375 22.25 4.875 C23.00023437 5.92300781 23.00023437 5.92300781 23.765625 6.9921875 C25.72859202 10.18511488 26.12956337 12.80421646 26.16113281 16.46801758 C26.17074036 17.36937943 26.1803479 18.27074127 26.19024658 19.19941711 C26.19449646 20.17130478 26.19874634 21.14319244 26.203125 22.14453125 C26.20882507 23.14707443 26.21452515 24.14961761 26.22039795 25.18254089 C26.2298466 27.30503281 26.2363814 29.42753938 26.24023438 31.55004883 C26.24993112 34.78948726 26.28095248 38.02828884 26.3125 41.26757812 C26.31903113 43.3307254 26.32428117 45.39387721 26.328125 47.45703125 C26.3404718 48.42284622 26.3528186 49.38866119 26.36553955 50.38374329 C26.34301571 57.21961604 25.11451054 62.27690521 20.1875 67.3125 C16.16393995 71.13637965 12.38214295 71 7 71 C1.83389249 70.77039522 -0.73236991 68.95519844 -4.484375 65.66796875 C-7.51062356 62.33753541 -8.25062901 59.46727562 -8.25878906 55.01953125 C-8.26509338 54.03170654 -8.27139771 53.04388184 -8.27789307 52.02612305 C-8.2738446 50.96562744 -8.26979614 49.90513184 -8.265625 48.8125 C-8.26753845 47.71784424 -8.2694519 46.62318848 -8.27142334 45.49536133 C-8.27278368 43.18212657 -8.2690978 40.86888413 -8.26074219 38.55566406 C-8.25004078 35.01349755 -8.26064285 31.47183822 -8.2734375 27.9296875 C-8.27211588 25.68229055 -8.26955343 23.43489391 -8.265625 21.1875 C-8.26967346 20.12700439 -8.27372192 19.06650879 -8.27789307 17.97387695 C-8.27158875 16.98605225 -8.26528442 15.99822754 -8.25878906 14.98046875 C-8.25719788 14.11317139 -8.25560669 13.24587402 -8.25396729 12.35229492 C-7.9809272 9.82334401 -7.27220565 8.18372019 -6 6 C-5.34 6 -4.68 6 -4 6 C-3.34 4.68 -2.68 3.36 -2 2 C-1.34 2 -0.68 2 0 2 C0 1.34 0 0.68 0 0 Z " fill="#894ACD" transform="translate(95,12)"/>
<path d="M0 0 C6.22941835 3.13046656 11.73400574 7.20201722 14 14 C14.10103901 15.48687835 14.14829193 16.97776552 14.16113281 18.46801758 C14.17074036 19.36937943 14.1803479 20.27074127 14.19024658 21.19941711 C14.19449646 22.17130478 14.19874634 23.14319244 14.203125 24.14453125 C14.20882507 25.14707443 14.21452515 26.14961761 14.22039795 27.18254089 C14.2298466 29.30503281 14.2363814 31.42753938 14.24023438 33.55004883 C14.24993112 36.78948726 14.28095248 40.02828884 14.3125 43.26757812 C14.31903113 45.3307254 14.32428117 47.39387721 14.328125 49.45703125 C14.3404718 50.42284622 14.3528186 51.38866119 14.36553955 52.38374329 C14.34813972 57.66450325 14.02906229 61.46236929 11 66 C8.875 67.1875 8.875 67.1875 7 68 C6.67 68.99 6.34 69.98 6 71 C3.4784979 71.08172936 0.95970083 71.14083373 -1.5625 71.1875 C-2.26697266 71.21263672 -2.97144531 71.23777344 -3.69726562 71.26367188 C-8.88003315 71.33532304 -12.36264182 70.32172598 -17 68 C-17 67.01 -17 66.02 -17 65 C-17.48699371 64.54317841 -17.97398743 64.08635681 -18.47573853 63.61569214 C-20.53965599 61.42797351 -20.37999235 60.12269327 -20.38818359 57.14892578 C-20.39764008 56.16425323 -20.40709656 55.17958069 -20.4168396 54.16506958 C-20.41076691 53.10254974 -20.40469421 52.04002991 -20.3984375 50.9453125 C-20.40130768 49.85161346 -20.40417786 48.75791443 -20.40713501 47.631073 C-20.40917769 45.31605513 -20.40363365 43.00102007 -20.39111328 40.68603516 C-20.37509396 37.14576447 -20.39093995 33.60664083 -20.41015625 30.06640625 C-20.40817325 27.81770581 -20.40432841 25.56900609 -20.3984375 23.3203125 C-20.40451019 22.26184113 -20.41058289 21.20336975 -20.4168396 20.11282349 C-20.3561863 13.75675812 -19.84976253 9.92748332 -15.28125 5.234375 C-14.6934375 4.74453125 -14.105625 4.2546875 -13.5 3.75 C-12.9121875 3.24984375 -12.324375 2.7496875 -11.71875 2.234375 C-7.98853523 -0.44459742 -4.43488185 -0.50071247 0 0 Z " fill="#854BCA" transform="translate(69,86)"/>
<path d="M0 0 C0.76376953 -0.020625 1.52753906 -0.04125 2.31445312 -0.0625 C5.52225968 -0.0848346 8.04855388 0.05867115 11.0703125 1.18359375 C13.58145159 4.66106123 13.09749462 8.39539143 13 12.5625 C13.00708984 13.40490234 13.01417969 14.24730469 13.02148438 15.11523438 C12.96039144 21.12583949 12.02129382 25.47074727 7.9140625 30.11328125 C1.94797486 35.12101545 1.94797486 35.12101545 -2.4375 35.25 C-2.9325 34.755 -2.9325 34.755 -3.4375 34.25 C-5.17 34.4975 -5.17 34.4975 -6.9375 34.75 C-8.67 34.9975 -8.67 34.9975 -10.4375 35.25 C-10.7675 34.92 -11.0975 34.59 -11.4375 34.25 C-12.406875 33.87875 -13.37625 33.5075 -14.375 33.125 C-17.4375 31.25 -17.4375 31.25 -18.6015625 28.14453125 C-19.48513157 24.02809032 -19.83956677 20.25543169 -19.875 16.0625 C-19.92430664 15.01545898 -19.92430664 15.01545898 -19.97460938 13.94726562 C-19.99609375 11.89453125 -19.99609375 11.89453125 -19.4375 8.25 C-17.01171875 5.8671875 -17.01171875 5.8671875 -14.4375 4.25 C-13.90125 3.693125 -13.365 3.13625 -12.8125 2.5625 C-9.37784832 -0.71603114 -4.43540153 0.02979279 0 0 Z " fill="#844BC8" transform="translate(32.4375,85.75)"/>
<path d="M0 0 C1.8871875 0.0309375 1.8871875 0.0309375 3.8125 0.0625 C3.8125 0.7225 3.8125 1.3825 3.8125 2.0625 C4.56015625 2.14757813 5.3078125 2.23265625 6.078125 2.3203125 C9.36892124 3.21352862 10.41072281 4.33822933 12.5625 6.9375 C13.15546875 7.63617188 13.7484375 8.33484375 14.359375 9.0546875 C17.25039444 13.04926812 17.30187738 17.30466432 16.8125 22.0625 C15.08507462 26.86090383 12.09599917 31.19750164 7.8125 34.0625 C2.84482529 35.35937083 -1.93534942 35.03291521 -7 34.6875 C-7.77537109 34.64367187 -8.55074219 34.59984375 -9.34960938 34.5546875 C-15.0546875 34.1953125 -15.0546875 34.1953125 -16.1875 33.0625 C-16.7098574 29.70770099 -16.89129769 26.32278004 -17.125 22.9375 C-17.21845703 21.9990625 -17.31191406 21.060625 -17.40820312 20.09375 C-17.73883163 15.01700271 -17.6416417 11.89655063 -14.31640625 7.8828125 C-12.69750977 6.21142578 -12.69750977 6.21142578 -11.1875 5.0625 C-10.5275 5.0625 -9.8675 5.0625 -9.1875 5.0625 C-8.919375 4.423125 -8.65125 3.78375 -8.375 3.125 C-6.40503157 -0.29652411 -3.60267551 -0.05906025 0 0 Z " fill="#854BCA" transform="translate(142.1875,47.9375)"/>
<path d="M0 0 C2.22909871 -0.02714735 4.45829367 -0.04646254 6.6875 -0.0625 C7.92886719 -0.07410156 9.17023438 -0.08570313 10.44921875 -0.09765625 C18.10084899 0.11278463 18.10084899 0.11278463 20.765625 2.7421875 C21.25546875 3.44601563 21.7453125 4.14984375 22.25 4.875 C23.00023437 5.92300781 23.00023437 5.92300781 23.765625 6.9921875 C25.73499119 10.19552365 26.12231469 12.77511096 26.09765625 16.44921875 C26.09443359 17.29677734 26.09121094 18.14433594 26.08789062 19.01757812 C26.07532227 20.33918945 26.07532227 20.33918945 26.0625 21.6875 C26.05798828 22.58017578 26.05347656 23.47285156 26.04882812 24.39257812 C26.03704983 26.59511987 26.02060164 28.79752599 26 31 C22.39385182 32.80307409 17.92566483 32.03221225 13.94140625 31.9609375 C9.78633339 31.9020951 9.78633339 31.9020951 5.7109375 32.6015625 C4 33 4 33 0.5 31.375 C-3.68263974 28.75411845 -6.44791788 26.07030796 -7.75 21.1875 C-8.65017668 9.71024735 -8.65017668 9.71024735 -6 6 C-4 3.75 -4 3.75 -2 2 C-1.34 2 -0.68 2 0 2 C0 1.34 0 0.68 0 0 Z " fill="#844CCC" transform="translate(57,12)"/>
<path d="M0 0 C7.88478453 0.0195586 14.03938817 0.1353409 20.05200195 5.80615234 C23.76667273 9.92528585 25.40580826 13.46410314 25.7902832 18.94287109 C25.5480862 22.27307992 25.10065905 23.55969168 23.5402832 26.38037109 C23.22833008 27.01458984 22.91637695 27.64880859 22.5949707 28.30224609 C21.07707033 30.65448906 19.9486437 31.89955484 17.5402832 33.38037109 C11.27523988 34.17633971 3.52753191 34.66920277 -2.4597168 32.38037109 C-6.64485958 28.0978994 -8.4384553 25.19962961 -8.47167969 19.23144531 C-8.40657321 16.71483931 -8.28549378 14.20648144 -8.1472168 11.69287109 C-8.11176758 10.82597656 -8.07631836 9.95908203 -8.03979492 9.06591797 C-7.99661133 8.23769531 -7.95342773 7.40947266 -7.90893555 6.55615234 C-7.8711499 5.80245361 -7.83336426 5.04875488 -7.79443359 4.2722168 C-7.00148222 -0.20960682 -3.88391888 0.08436248 0 0 Z " fill="#864ACC" transform="translate(95.459716796875,123.61962890625)"/>
<path d="M0 0 C0.33 0 0.66 0 1 0 C1 13.2 1 26.4 1 40 C0.67 40 0.34 40 0 40 C0 26.8 0 13.6 0 0 Z " fill="#F800F8" transform="translate(86,27)"/>
<path d="M0 0 C0.33 0 0.66 0 1 0 C1 12.54 1 25.08 1 38 C0.67 38 0.34 38 0 38 C0 25.46 0 12.92 0 0 Z " fill="#FF00FF" transform="translate(48,104)"/>
<path d="M0 0 C9.57 0 19.14 0 29 0 C29 0.33 29 0.66 29 1 C19.43 1 9.86 1 0 1 C0 0.67 0 0.34 0 0 Z " fill="#7B007B" transform="translate(558,138)"/>
<path d="M0 0 C-0.17625835 2.37948772 -0.69719773 3.70225849 -2.40234375 5.37890625 C-3.90649092 6.62115486 -5.45129851 7.81376056 -7 9 C-7 5 -7 5 -4.625 2.25 C-2 0 -2 0 0 0 Z " fill="#AC43D7" transform="translate(21,88)"/>
<path d="M0 0 C7.59 0 15.18 0 23 0 C23 0.33 23 0.66 23 1 C15.41 1 7.82 1 0 1 C0 0.67 0 0.34 0 0 Z " fill="#850085" transform="translate(505,138)"/>
<path d="M0 0 C7.59 0 15.18 0 23 0 C23 0.33 23 0.66 23 1 C15.41 1 7.82 1 0 1 C0 0.67 0 0.34 0 0 Z " fill="#850085" transform="translate(375,138)"/>
<path d="M0 0 C7.59 0 15.18 0 23 0 C23 0.33 23 0.66 23 1 C15.41 1 7.82 1 0 1 C0 0.67 0 0.34 0 0 Z " fill="#850085" transform="translate(277,138)"/>
<path d="M0 0 C0.66 0 1.32 0 2 0 C1.34 3.96 0.68 7.92 0 12 C-0.33 12 -0.66 12 -1 12 C-1.02687279 10.18757948 -1.04633715 8.37504767 -1.0625 6.5625 C-1.07410156 5.55316406 -1.08570313 4.54382813 -1.09765625 3.50390625 C-1 1 -1 1 0 0 Z " fill="#BB35E8" transform="translate(410,88)"/>
<path d="M0 0 C0.66 0.66 1.32 1.32 2 2 C-0.97 4.475 -0.97 4.475 -4 7 C-4.33 6.34 -4.66 5.68 -5 5 C-3.35 3.35 -1.7 1.7 0 0 Z " fill="#BB52DF" transform="translate(55,91)"/>
<path d="M0 0 C-0.75 1.9375 -0.75 1.9375 -2 4 C-4.125 4.75 -4.125 4.75 -6 5 C-3.74193548 0 -3.74193548 0 0 0 Z " fill="#7345E4" transform="translate(206,57)"/>
<path d="M0 0 C0.33 0.99 0.66 1.98 1 3 C-1.97 5.475 -1.97 5.475 -5 8 C-4.6875 6.0625 -4.6875 6.0625 -4 4 C-3.01 3.67 -2.02 3.34 -1 3 C-0.67 2.01 -0.34 1.02 0 0 Z " fill="#A535D6" transform="translate(134,50)"/>
<path d="M0 0 C0.33 0 0.66 0 1 0 C1 4.95 1 9.9 1 15 C0.67 15 0.34 15 0 15 C0 10.05 0 5.1 0 0 Z " fill="#FF00FF" transform="translate(124,65)"/>
<path d="M0 0 C0.33 0 0.66 0 1 0 C1 4.62 1 9.24 1 14 C0.67 14 0.34 14 0 14 C0 9.38 0 4.76 0 0 Z " fill="#EC00EC" transform="translate(86,129)"/>
<path d="M0 0 C0.33 1.32 0.66 2.64 1 4 C0.34 3.01 -0.32 2.02 -1 1 C-0.67 0.67 -0.34 0.34 0 0 Z " fill="#3B2ACC" transform="translate(411,103)"/>
<path d="M0 0 C0.33 0.99 0.66 1.98 1 3 C0.34 3 -0.32 3 -1 3 C-0.67 2.01 -0.34 1.02 0 0 Z " fill="#773B88" transform="translate(411,82)"/>
<path d="" fill="#7F00BF" transform="translate(0,0)"/>
<path d="" fill="#FF00FF" transform="translate(0,0)"/>
<path d="" fill="#7F007F" transform="translate(0,0)"/>
<path d="" fill="#000000" transform="translate(0,0)"/>
<path d="" fill="#FF00FF" transform="translate(0,0)"/>
<path d="" fill="#000000" transform="translate(0,0)"/>
<path d="" fill="#8080FF" transform="translate(0,0)"/>
<path d="" fill="#FF00FF" transform="translate(0,0)"/>
<path d="" fill="#FF00FF" transform="translate(0,0)"/>
</svg>
