<?xml version="1.0" encoding="UTF-8"?>
<svg version="1.1" xmlns="http://www.w3.org/2000/svg" width="512" height="512">
<path d="M0 0 C0.91686081 -0.00852997 1.83372162 -0.01705994 2.77836609 -0.02584839 C4.27621391 -0.02448883 4.27621391 -0.02448883 5.80432129 -0.02310181 C6.86161942 -0.02981903 7.91891754 -0.03653625 9.008255 -0.04345703 C12.50607998 -0.06246807 16.00371348 -0.06636252 19.50158691 -0.06851196 C21.93009521 -0.07493663 24.35860272 -0.08166474 26.78710938 -0.08868408 C31.87798864 -0.10066385 36.96880001 -0.10436407 42.05969238 -0.10317993 C48.59032528 -0.10297646 55.12052441 -0.13030551 61.65105438 -0.16472435 C66.6661378 -0.18693297 71.68111572 -0.19101936 76.69624329 -0.18996048 C79.10445148 -0.19232452 81.51266224 -0.20119286 83.92082214 -0.21662521 C87.28464412 -0.23616688 90.64751607 -0.23049363 94.01135254 -0.21841431 C95.00991776 -0.22965332 96.00848297 -0.24089233 97.03730774 -0.25247192 C103.74508146 -0.19109798 103.74508146 -0.19109798 107.02636719 2.07904053 C109.06790278 5.31303531 108.94201532 7.5281767 108.40783691 11.26742554 C106.98443604 13.45779419 106.98443604 13.45779419 104.40783691 15.26742554 C101.16675041 15.84883824 97.96684447 15.77231621 94.68225098 15.7215271 C93.69655624 15.72211121 92.71086151 15.72269531 91.69529724 15.72329712 C88.43766041 15.72051069 85.18093887 15.68939144 81.92346191 15.65805054 C79.66473897 15.65059016 77.40600956 15.64489627 75.14727783 15.64089966 C69.20247526 15.62562747 63.25806364 15.58633151 57.31341553 15.54208374 C51.24728687 15.5011655 45.18109505 15.48289598 39.11486816 15.46273804 C27.21232502 15.41983909 15.31017464 15.3494758 3.40783691 15.26742554 C3.40783691 24.83742554 3.40783691 34.40742554 3.40783691 44.26742554 C156.52783691 44.26742554 309.64783691 44.26742554 467.40783691 44.26742554 C467.40783691 34.69742554 467.40783691 25.12742554 467.40783691 15.26742554 C461.12247139 15.27741829 461.12247139 15.27741829 454.71012878 15.28761292 C416.31675354 15.34726446 377.92338378 15.39207416 339.52997236 15.42062153 C334.50171162 15.42437381 329.473451 15.42825676 324.44519043 15.43222046 C322.9435869 15.43340086 322.9435869 15.43340086 321.41164795 15.4346051 C305.18590963 15.44767188 288.96020308 15.4713327 272.73448362 15.49888393 C256.09503852 15.52690277 239.4556101 15.54359433 222.81614238 15.54969102 C212.54226032 15.55381479 202.26846805 15.56685613 191.99461363 15.59117494 C184.95688602 15.6069887 177.91920508 15.61183583 170.88146099 15.60792967 C166.81631778 15.6060013 162.75133185 15.60903189 158.68621635 15.62504196 C154.96847574 15.63957762 151.25099906 15.64041955 147.53324661 15.63012222 C145.54317324 15.62824262 143.55310323 15.64123815 141.56307429 15.65466946 C140.39016363 15.64869632 139.21725296 15.64272317 138.00879955 15.63656902 C136.99228823 15.63770818 135.9757769 15.63884735 134.92846221 15.64002103 C132.40783691 15.26742554 132.40783691 15.26742554 130.61246425 13.92404157 C128.77127869 11.39202405 128.53197927 9.37098447 128.40783691 6.26742554 C129.54563563 3.94010997 130.57624405 2.0990184 132.40783691 0.26742554 C134.22659288 0.16630501 136.0493208 0.13634221 137.87088299 0.13320446 C139.06397853 0.12874662 140.25707406 0.12428877 141.48632401 0.11969584 C142.82732372 0.11978515 144.16832343 0.11997503 145.50932312 0.12025452 C146.92071758 0.1169578 148.33211109 0.11323264 149.74350339 0.10911304 C153.6404016 0.09906276 157.5372844 0.09537139 161.43419373 0.09272373 C165.62997416 0.08882954 169.82574229 0.07925053 174.02151489 0.07051086 C184.16433475 0.05071992 194.30715565 0.0406763 204.44999 0.03178307 C209.22249779 0.02740392 213.99500446 0.0220361 218.76751137 0.0167942 C234.62635029 -0.00022174 250.4851885 -0.01471637 266.34403515 -0.02195454 C270.462389 -0.02386454 274.58074285 -0.02578486 278.69909668 -0.02774048 C279.72273818 -0.02822422 280.74637968 -0.02870796 281.80104063 -0.02920636 C298.38683181 -0.03750827 314.9725509 -0.06284628 331.55831059 -0.09532116 C348.57409941 -0.12836721 365.58985157 -0.14640113 382.60567266 -0.14959878 C392.16443397 -0.1517663 401.7230902 -0.16055014 411.2818203 -0.18605995 C419.42210861 -0.20773359 427.56226634 -0.21583392 435.70258024 -0.20609317 C439.85725426 -0.20153856 444.0116587 -0.20350169 448.16629601 -0.22285461 C451.96934352 -0.240417 455.7719234 -0.23954544 459.57497541 -0.22395732 C461.60354882 -0.22043938 463.63212675 -0.2366592 465.66063279 -0.25356179 C476.68200796 -0.17515159 476.68200796 -0.17515159 481.40783691 4.26742554 C483.33947799 7.07581246 483.66200354 9.31137652 483.68249512 12.6812439 C483.69202713 13.5457164 483.70155914 14.4101889 483.71138 15.30085754 C483.71001289 16.69003136 483.71001289 16.69003136 483.70861816 18.10726929 C483.71290329 19.06637711 483.71718842 20.02548492 483.72160339 21.01365662 C483.72734126 23.04021414 483.72785096 25.06679227 483.72351074 27.09335327 C483.72035199 30.19014706 483.74381271 33.28598428 483.76916504 36.38265991 C483.77143824 38.35336183 483.77214143 40.32406632 483.77111816 42.29476929 C483.78032791 43.21886093 483.78953766 44.14295258 483.79902649 45.095047 C483.76434631 49.9257404 483.71350289 53.45492985 480.40783691 57.26742554 C475.40783691 60.26742554 475.40783691 60.26742554 463.40783691 60.26742554 C463.40783691 169.82742554 463.40783691 279.38742554 463.40783691 392.26742554 C466.04783691 392.26742554 468.68783691 392.26742554 471.40783691 392.26742554 C473.79846191 392.71273804 473.79846191 392.71273804 475.65783691 393.39242554 C476.28174316 393.60125366 476.90564941 393.81008179 477.54846191 394.02523804 C480.36791446 395.90882188 482.0379357 398.21671801 483.40783691 401.26742554 C483.97139202 404.61815086 483.94553299 407.91116222 483.90393066 411.30258179 C483.90538589 412.25885971 483.90684113 413.21513763 483.90834045 414.20039368 C483.90668564 416.21503762 483.89517136 418.22969475 483.87438965 420.24423218 C483.84539766 423.32347382 483.85379727 426.40099623 483.86682129 429.48031616 C483.8605844 431.44191305 483.85219385 433.40350452 483.84143066 435.36508179 C483.8443663 436.28289932 483.84730194 437.20071686 483.85032654 438.14634705 C483.77953094 442.9528879 483.68455895 446.47094451 480.40783691 450.26742554 C476.29303315 453.36050609 472.73524175 453.70809452 467.74353027 453.68734741 C466.98844681 453.69581696 466.23336334 453.7042865 465.45539856 453.7130127 C462.9693195 453.73633734 460.48386067 453.73740622 457.99768066 453.73617554 C456.26562758 453.74327815 454.53357684 453.7509773 452.80152893 453.75924683 C449.17600963 453.77267991 445.55070809 453.77426493 441.9251709 453.7684021 C437.2787372 453.76249669 432.63334505 453.79313699 427.987113 453.83351898 C424.41230132 453.85935914 420.83774201 453.86227698 417.26284981 453.85862732 C415.54961077 453.86032098 413.83636038 453.86998723 412.12321281 453.88777161 C409.72901262 453.9098979 407.33694163 453.90029545 404.94274902 453.88265991 C404.23562775 453.89592316 403.52850647 453.9091864 402.79995728 453.92285156 C399.10984682 453.85966309 397.66793211 453.51764477 394.96815491 450.92037964 C393.060087 447.67615853 392.77739609 445.9712654 393.40783691 442.26742554 C395.27493602 439.96466998 396.76431433 438.58918683 399.40783691 437.26742554 C401.56262621 437.17560471 403.7203341 437.14992092 405.8770752 437.15390015 C406.87237747 437.15368111 406.87237747 437.15368111 407.88778687 437.15345764 C410.08460745 437.15415523 412.28134361 437.1619404 414.47814941 437.16976929 C415.99986729 437.17163402 417.52158576 437.17305766 419.04330444 437.17405701 C423.05134738 437.17787787 427.05935417 437.18770449 431.06738281 437.19876099 C435.15612295 437.20898436 439.24486893 437.21355661 443.33361816 437.21859741 C451.3583762 437.22932714 459.3830979 437.24692046 467.40783691 437.26742554 C467.40783691 427.69742554 467.40783691 418.12742554 467.40783691 408.26742554 C314.28783691 408.26742554 161.16783691 408.26742554 3.40783691 408.26742554 C3.40783691 417.83742554 3.40783691 427.40742554 3.40783691 437.26742554 C10.23151192 437.25743279 10.23151192 437.25743279 17.19303894 437.24723816 C58.88430208 437.1875739 100.57556017 437.14277064 142.26685665 437.11422955 C147.7281568 437.11047731 153.18945684 437.10659436 158.65075684 437.10263062 C159.73802906 437.10184368 160.82530129 437.10105675 161.94552115 437.10024597 C179.56344348 437.08718279 197.18133651 437.06352393 214.79924145 437.03596715 C232.86929206 437.00793833 250.9393273 436.99125463 269.00939876 436.98516005 C280.16463361 436.98103837 291.31978568 436.96800822 302.47499505 436.94367614 C310.1187173 436.92785009 317.76239658 436.92301806 325.40613403 436.9269214 C329.81986605 436.92884784 334.23345315 436.92584088 338.64715958 436.90980911 C342.68573807 436.89524664 346.72407372 436.89444927 350.76266322 436.90472885 C352.22573526 436.90599997 353.68882225 436.90216343 355.15186473 436.89277599 C357.13716602 436.8807755 359.122559 436.88900239 361.10787487 436.89828205 C362.76364537 436.89657331 362.76364537 436.89657331 364.45286578 436.89483005 C367.8135181 437.31857831 369.69848134 438.26618553 372.40783691 440.26742554 C373.8344591 443.12066991 373.71817559 445.10197103 373.40783691 448.26742554 C372.1395874 450.9311676 372.1395874 450.9311676 369.40783691 453.26742554 C365.40984773 454.02103071 361.44407175 453.89771343 357.3873291 453.83505249 C356.1577951 453.83578262 354.92826111 453.83651276 353.66146851 453.83726501 C350.29344239 453.83437894 346.92695011 453.8093133 343.55919552 453.77439523 C340.03851278 453.74313052 336.51780942 453.74020094 332.99700928 453.73426819 C326.33166049 453.71872993 319.66672194 453.67770223 313.00155377 453.62752074 C305.41278798 453.5716263 297.82400256 453.54414061 290.23508215 453.51904356 C274.62575636 453.46678591 259.01686566 453.37783702 243.40783691 453.26742554 C243.40783691 456.56742554 243.40783691 459.86742554 243.40783691 463.26742554 C244.29471191 463.51492554 245.18158691 463.76242554 246.09533691 464.01742554 C252.86478562 466.57193448 256.10398374 471.0790544 259.40783691 477.26742554 C261.78335781 484.39398824 261.51367487 492.91999084 258.40783691 499.76742554 C254.76237079 506.06413976 249.27857981 510.02412295 242.40783691 512.26742554 C233.53560865 513.29656068 225.6638049 512.81610694 218.40783691 507.26742554 C211.51535045 500.14518952 209.93821177 493.48570142 210.09143066 483.72055054 C210.75063631 476.52625682 213.96707957 471.93093183 219.40783691 467.26742554 C224.92135043 463.26742554 224.92135043 463.26742554 227.40783691 463.26742554 C227.40783691 459.96742554 227.40783691 456.66742554 227.40783691 453.26742554 C226.21677999 453.27019092 225.02572306 453.2729563 223.79857349 453.27580547 C195.53136003 453.3407656 167.2641485 453.39024036 138.99687685 453.42062153 C135.51838489 453.42437369 132.03989309 453.42825665 128.56140137 453.43222046 C127.86889029 453.43300739 127.17637922 453.43379432 126.46288296 453.4346051 C115.24681291 453.44766242 104.03078894 453.47131804 92.81474624 453.49888393 C81.30780617 453.52692909 69.80089855 453.54337532 58.29392499 453.54969102 C51.82988442 453.55360745 45.36594841 453.56283408 38.9019413 453.58461571 C32.82075856 453.60494178 26.73972369 453.61126715 20.65851021 453.60674858 C18.42398526 453.60757552 16.18945549 453.61356411 13.95495987 453.62504196 C10.90869917 453.63992514 7.86299985 453.63639419 4.81672668 453.62818909 C3.92859089 453.63692761 3.04045509 453.64566614 2.12540609 453.65466946 C-2.61831733 453.62003452 -5.73125504 453.33309272 -9.59216309 450.26742554 C-13.44988257 445.79778829 -13.04370425 440.97628132 -13.02575684 435.36508179 C-13.03099869 434.40976059 -13.03624054 433.45443939 -13.04164124 432.47016907 C-13.04805232 430.45378591 -13.04673629 428.43736531 -13.03820801 426.42098999 C-13.02970125 423.34373042 -13.05846723 420.26832985 -13.09020996 417.19125366 C-13.09182226 415.22836359 -13.09124389 413.26547025 -13.08825684 411.30258179 C-13.09949081 410.38678848 -13.11072479 409.47099518 -13.12229919 408.52745056 C-13.0602099 402.80680338 -12.33103966 399.66118554 -8.59216309 395.26742554 C-6.73278809 394.02523804 -6.73278809 394.02523804 -4.84216309 393.39242554 C-3.92177246 393.05598022 -3.92177246 393.05598022 -2.98278809 392.71273804 C0.4253097 392.07789629 3.9411159 392.26742554 7.40783691 392.26742554 C7.40783691 282.70742554 7.40783691 173.14742554 7.40783691 60.26742554 C3.44783691 60.26742554 -0.51216309 60.26742554 -4.59216309 60.26742554 C-10.8275876 56.52617083 -10.8275876 56.52617083 -12.59216309 52.26742554 C-13.02608549 48.96377338 -13.03640334 45.69367482 -13.02575684 42.36508179 C-13.03099869 41.40976059 -13.03624054 40.45443939 -13.04164124 39.47016907 C-13.04805232 37.45378591 -13.04673629 35.43736531 -13.03820801 33.42098999 C-13.02970125 30.34373042 -13.05846723 27.26832985 -13.09020996 24.19125366 C-13.09182226 22.22836359 -13.09124389 20.26547025 -13.08825684 18.30258179 C-13.09949081 17.38678848 -13.11072479 16.47099518 -13.12229919 15.52745056 C-13.06204109 9.97552182 -12.43047299 6.5880052 -8.59216309 2.26742554 C-5.64739396 0.45541089 -3.43431112 0.01448036 0 0 Z M23.40783691 60.26742554 C23.40783691 169.82742554 23.40783691 279.38742554 23.40783691 392.26742554 C163.32783691 392.26742554 303.24783691 392.26742554 447.40783691 392.26742554 C447.40783691 282.70742554 447.40783691 173.14742554 447.40783691 60.26742554 C307.48783691 60.26742554 167.56783691 60.26742554 23.40783691 60.26742554 Z M228.47033691 480.26742554 C226.17736295 483.6026604 225.64609957 485.36749609 225.93127441 489.32992554 C226.8050685 492.88239986 228.42400862 494.27820667 231.40783691 496.26742554 C234.24752331 496.96589679 236.56815052 496.96589679 239.40783691 496.26742554 C242.39812371 494.27390101 243.98593107 492.86487058 244.91955566 489.32992554 C245.11060332 487.08829977 245.01948934 485.43442271 244.40783691 483.26742554 C241.36398936 479.7038967 239.46470726 478.45284139 234.84533691 477.64242554 C231.30644082 478.04565846 231.30644082 478.04565846 228.47033691 480.26742554 Z " fill="#854CCE" transform="translate(20.5921630859375,-0.267425537109375)"/>
<path d="M0 0 C0.79899216 -0.0066568 1.59798431 -0.0133136 2.42118835 -0.02017212 C4.10978907 -0.03028233 5.7984296 -0.03498964 7.48706055 -0.03466797 C10.05520476 -0.0390302 12.62161402 -0.0753341 15.18945312 -0.11328125 C16.83462958 -0.11915219 18.47981415 -0.12311973 20.125 -0.125 C21.26597893 -0.14655655 21.26597893 -0.14655655 22.43000793 -0.16854858 C28.62293775 -0.11615587 32.77925114 1.66741385 37.46875 5.86328125 C41.30485873 10.75669204 43.00892673 14.61469543 43.02241516 20.83213806 C43.02949997 21.92418045 43.03658478 23.01622284 43.04388428 24.14135742 C43.04140686 25.32955078 43.03892944 26.51774414 43.03637695 27.74194336 C43.04148788 29.00099991 43.04659882 30.26005646 43.05186462 31.55726624 C43.06523308 35.00357374 43.06583573 38.44977143 43.06330132 41.89609981 C43.06223018 44.77628952 43.06711862 47.65645716 43.07190675 50.53664213 C43.0829944 57.33295733 43.08344347 64.12921725 43.07739258 70.92553711 C43.07135209 77.93006752 43.08366729 84.9343971 43.10496265 91.93889326 C43.12259155 97.95943318 43.128578 103.97990926 43.1253249 110.00047404 C43.12351401 113.59334276 43.12612881 117.18606821 43.14003944 120.7789135 C43.15497498 124.78625356 43.14563647 128.79318603 43.1340332 132.80053711 C43.14167694 133.98670624 43.14932068 135.17287537 43.15719604 136.39498901 C43.11419702 143.10669524 42.79219107 148.05063 38.04296875 153.19921875 C37.45515625 153.67746094 36.86734375 154.15570313 36.26171875 154.6484375 C35.67390625 155.13957031 35.08609375 155.63070312 34.48046875 156.13671875 C31.15093837 158.4598229 28.16727631 158.46469471 24.24028015 158.47637939 C23.09208801 158.48208954 21.94389587 158.48779968 20.76091003 158.49368286 C19.50007095 158.49480072 18.23923187 158.49591858 16.94018555 158.49707031 C15.59974023 158.50169935 14.25929623 158.50672413 12.91885376 158.51211548 C9.27618323 158.5252336 5.63353113 158.53168333 1.99084067 158.53612614 C-0.28551433 158.53905793 -2.56186431 158.54316295 -4.83821678 158.54763031 C-11.96199244 158.56130396 -19.0857566 158.57097115 -26.20954448 158.5748322 C-34.42991047 158.57931219 -42.65011011 158.59685777 -50.87042552 158.6258328 C-57.22636928 158.64745772 -63.58226627 158.65753692 -69.93824643 158.65887332 C-73.73348109 158.65992081 -77.52855937 158.66581653 -81.32375526 158.68369293 C-84.89509241 158.70018765 -88.46615585 158.70232249 -92.03751755 158.69355392 C-93.9686609 158.69241805 -95.89979523 158.7061248 -97.83088684 158.7203064 C-104.71712936 158.68714988 -109.81577976 158.49296194 -115.1015625 153.6171875 C-115.57980469 153.029375 -116.05804688 152.4415625 -116.55078125 151.8359375 C-117.04191406 151.248125 -117.53304687 150.6603125 -118.0390625 150.0546875 C-120.37669383 146.70433641 -120.37702582 143.65995967 -120.4152832 139.70629883 C-120.42811844 138.55112259 -120.44095367 137.39594635 -120.45417786 136.20576477 C-120.46156479 134.95579208 -120.46895172 133.7058194 -120.4765625 132.41796875 C-120.48867012 130.48844612 -120.48867012 130.48844612 -120.50102234 128.51994324 C-120.5160386 125.79381442 -120.52588047 123.06771154 -120.53344727 120.34155273 C-120.54448203 116.86590635 -120.57885124 113.39090544 -120.61861897 109.91548634 C-120.65121296 106.58300759 -120.65557533 103.25059449 -120.6640625 99.91796875 C-120.68157059 98.67811722 -120.69907867 97.43826569 -120.71711731 96.1608429 C-120.69819312 88.58657518 -120.22968454 82.61198818 -114.8261261 76.82307434 C-109.35667093 71.93883692 -104.43672259 71.03818722 -97.3125 71.140625 C-96.56490921 71.1434549 -95.81731842 71.14628479 -95.04707336 71.14920044 C-92.67314245 71.16034281 -90.299597 71.18543588 -87.92578125 71.2109375 C-86.31055235 71.22097501 -84.69531749 71.23009951 -83.08007812 71.23828125 C-79.13266531 71.26026261 -75.18553851 71.29475093 -71.23828125 71.3359375 C-71.25922852 70.62050781 -71.28017578 69.90507812 -71.30175781 69.16796875 C-71.38548958 65.89077098 -71.43712176 62.61379909 -71.48828125 59.3359375 C-71.52179688 58.21058594 -71.5553125 57.08523437 -71.58984375 55.92578125 C-71.67714817 48.46125307 -71.125012 42.40219695 -65.79003906 36.82080078 C-60.32967731 32.035682 -56.32670435 31.0417514 -49.19140625 31.140625 C-48.03460358 31.14486984 -48.03460358 31.14486984 -46.85443115 31.14920044 C-44.39888793 31.16036737 -41.94371365 31.18546521 -39.48828125 31.2109375 C-37.82031778 31.22097182 -36.15234857 31.23009689 -34.484375 31.23828125 C-30.40220228 31.26029525 -26.32030425 31.29480083 -22.23828125 31.3359375 C-22.25713379 30.23531982 -22.27598633 29.13470215 -22.29541016 28.00073242 C-22.31065726 26.54346153 -22.32544422 25.08618577 -22.33984375 23.62890625 C-22.35345947 22.90505737 -22.3670752 22.1812085 -22.38110352 21.4354248 C-22.42990975 14.84846077 -21.3443584 10.5499799 -16.77734375 5.82421875 C-11.32286332 0.99271197 -7.15235275 0.02076182 0 0 Z M-6.23828125 18.3359375 C-6.53675585 20.61050337 -6.53675585 20.61050337 -6.47879028 23.28396606 C-6.48153961 24.3300705 -6.48428894 25.37617493 -6.48712158 26.45397949 C-6.47993103 27.60628052 -6.47274048 28.75858154 -6.46533203 29.94580078 C-6.46562408 31.15553558 -6.46591614 32.36527039 -6.46621704 33.61166382 C-6.46506035 36.93385036 -6.45501252 40.25579001 -6.44106913 43.57793283 C-6.42858803 47.04795006 -6.42739334 50.51797038 -6.42501831 53.98800659 C-6.41879581 60.56117537 -6.40237463 67.13427783 -6.38231933 73.70741737 C-6.35998423 81.1897788 -6.34897292 88.67214336 -6.33892846 96.15452981 C-6.31800904 111.54837082 -6.28281817 126.94214562 -6.23828125 142.3359375 C-1.6993042 142.36059142 2.83963418 142.37877539 7.37866211 142.39086914 C8.92391641 142.3959089 10.46916591 142.4027407 12.0144043 142.41137695 C14.23096904 142.42345826 16.44747093 142.42916923 18.6640625 142.43359375 C19.70626198 142.44133568 19.70626198 142.44133568 20.76951599 142.44923401 C22.43401205 142.44943027 24.09837374 142.39782879 25.76171875 142.3359375 C27.40234842 140.69530783 26.89123545 138.82188028 26.89543152 136.55958557 C26.8996965 135.52616028 26.90396149 134.49273499 26.90835571 133.42799377 C26.90790253 132.2845903 26.90744934 131.14118683 26.90698242 129.96313477 C26.91034103 128.76651215 26.91369965 127.56988953 26.91716003 126.33700562 C26.92505574 123.04569389 26.92833897 119.75444522 26.92897582 116.46312833 C26.92992333 113.71946147 26.9335998 110.97580071 26.93714792 108.23213619 C26.9453 101.76111827 26.94773147 95.29011426 26.94702148 88.8190918 C26.94642052 82.13498293 26.95697438 75.45095472 26.97276515 68.76686627 C26.98582336 63.03607284 26.99120611 57.30530584 26.99056607 51.57449764 C26.99031057 48.14827992 26.99319019 44.72213382 27.00374413 41.29593086 C27.01518701 37.47663317 27.01068884 33.65744685 27.00463867 29.83813477 C27.01025818 28.69675552 27.01587769 27.55537628 27.02166748 26.37940979 C27.01747299 25.34316467 27.0132785 24.30691956 27.00895691 23.23927307 C27.00950168 22.33537118 27.01004644 21.43146929 27.01060772 20.50017643 C26.96460092 18.12435865 26.96460092 18.12435865 24.76171875 16.3359375 C21.78304646 16.02376431 21.78304646 16.02376431 18.29296875 16.0703125 C17.00003906 16.06773437 15.70710938 16.06515625 14.375 16.0625 C13.36300537 16.06878418 13.36300537 16.06878418 12.33056641 16.07519531 C10.26955718 16.0858968 8.20941956 16.07529807 6.1484375 16.0625 C4.85550781 16.06507813 3.56257813 16.06765625 2.23046875 16.0703125 C1.03873047 16.07256836 -0.15300781 16.07482422 -1.38085938 16.07714844 C-4.36963559 16.04032866 -4.36963559 16.04032866 -6.23828125 18.3359375 Z M-53.23828125 47.3359375 C-55.88081234 49.97846859 -55.47453459 51.89157174 -55.48712158 55.48667908 C-55.47993103 56.34910721 -55.47274048 57.21153534 -55.46533203 58.10009766 C-55.46562408 59.00747177 -55.46591614 59.91484589 -55.46621704 60.84971619 C-55.46482023 63.85824036 -55.44924253 66.86651892 -55.43359375 69.875 C-55.42986487 71.95722315 -55.42701731 74.03944805 -55.42501831 76.12167358 C-55.41737202 81.60934267 -55.397715 87.09690634 -55.37561035 92.58453369 C-55.35517334 98.18134129 -55.34602119 103.77816587 -55.3359375 109.375 C-55.31447003 120.362033 -55.27927979 131.34896 -55.23828125 142.3359375 C-44.34828125 142.3359375 -33.45828125 142.3359375 -22.23828125 142.3359375 C-22.23828125 110.9859375 -22.23828125 79.6359375 -22.23828125 47.3359375 C-32.46828125 47.3359375 -42.69828125 47.3359375 -53.23828125 47.3359375 Z M-104.23828125 89.3359375 C-104.53759571 91.63346794 -104.53759571 91.63346794 -104.48120117 94.32055664 C-104.4842778 95.35825699 -104.48735443 96.39595734 -104.49052429 97.46510315 C-104.48333878 98.58908005 -104.47615326 99.71305695 -104.46875 100.87109375 C-104.46829178 102.02008652 -104.46783356 103.16907928 -104.46736145 104.35289001 C-104.46433651 106.78483104 -104.45644304 109.21677009 -104.4440918 111.64868164 C-104.42584052 115.3862997 -104.42358202 119.12367017 -104.42382812 122.86132812 C-104.41891297 125.21875216 -104.41308466 127.5761745 -104.40625 129.93359375 C-104.40513718 131.05959488 -104.40402435 132.18559601 -104.40287781 133.34571838 C-104.39649796 134.38026657 -104.3901181 135.41481476 -104.38354492 136.48071289 C-104.37973312 137.39623428 -104.37592133 138.31175568 -104.37199402 139.25502014 C-104.46891121 141.32541044 -104.46891121 141.32541044 -103.23828125 142.3359375 C-100.86287074 142.42432398 -98.51594545 142.45131273 -96.140625 142.43359375 C-94.84374756 142.43109619 -93.54687012 142.42859863 -92.21069336 142.42602539 C-90.54917236 142.41692139 -88.88765137 142.40781738 -87.17578125 142.3984375 C-81.91640625 142.3778125 -76.65703125 142.3571875 -71.23828125 142.3359375 C-71.23828125 124.1859375 -71.23828125 106.0359375 -71.23828125 87.3359375 C-76.31203125 87.2946875 -81.38578125 87.2534375 -86.61328125 87.2109375 C-88.21349121 87.19272949 -89.81370117 87.17452148 -91.46240234 87.15576172 C-92.71617676 87.1507666 -93.96995117 87.14577148 -95.26171875 87.140625 C-96.54997559 87.13015137 -97.83823242 87.11967773 -99.16552734 87.10888672 C-102.34528931 87.00756086 -102.34528931 87.00756086 -104.23828125 89.3359375 Z " fill="#854CCE" transform="translate(197.23828125,198.6640625)"/>
<path d="M0 0 C1.16639511 -0.01134979 2.33279022 -0.02269958 3.53453064 -0.03439331 C4.81047592 -0.03146271 6.0864212 -0.0285321 7.40103149 -0.0255127 C8.7613342 -0.03285391 10.12163067 -0.04144029 11.48191833 -0.05117798 C15.17417049 -0.07339913 18.86619951 -0.07632434 22.55850935 -0.07443047 C25.64245701 -0.07431078 28.72635738 -0.08287443 31.81029189 -0.09120798 C39.08747806 -0.11044474 46.36454952 -0.11332513 53.64175415 -0.10656738 C61.14455118 -0.0999282 68.64685638 -0.12278495 76.14955366 -0.15988111 C82.59471416 -0.19059 89.03971656 -0.20193682 95.48494875 -0.1980443 C99.33279202 -0.19597775 103.18025269 -0.2014406 107.02802658 -0.22593689 C110.6479846 -0.24822125 114.26714408 -0.24631333 117.88710594 -0.22600937 C119.84448913 -0.2209805 121.8018873 -0.24060644 123.75917053 -0.26101685 C133.35520663 -0.16924477 133.35520663 -0.16924477 137.05596924 2.80786133 C141.65624361 8.15226342 140.57975039 14.58151399 140.63247681 21.31481934 C140.64900346 22.86087125 140.67625059 24.40684779 140.71450806 25.95251465 C140.76954072 28.18875501 140.7911901 30.42320603 140.80581665 32.66003418 C140.82848602 33.34462708 140.8511554 34.02921997 140.87451172 34.73455811 C140.85005425 40.3449124 139.1001421 42.59606224 135.28237915 46.39440918 C132.67320264 47.69899744 130.75953309 47.52623635 127.83650208 47.53485107 C126.67982529 47.54056122 125.5231485 47.54627136 124.3314209 47.55215454 C122.41838669 47.55383133 122.41838669 47.55383133 120.46670532 47.55554199 C119.1149329 47.56016948 117.76316179 47.56519404 116.41139221 47.57058716 C112.73360677 47.58372084 109.05583959 47.59015812 105.37803435 47.59459782 C103.08075384 47.59752729 100.78347833 47.60163188 98.48620033 47.60610199 C91.2999528 47.61978014 84.11371669 47.62944495 76.92745703 47.63330388 C68.62953099 47.63778407 60.33176971 47.65532872 52.03389376 47.68430448 C45.62193532 47.70591801 39.21002325 47.716008 32.79802877 47.717345 C28.96760022 47.71839337 25.13732649 47.72430766 21.30693626 47.74216461 C17.70278516 47.75863949 14.09890533 47.7608038 10.49473 47.7520256 C8.54310765 47.75088765 6.59149434 47.76461 4.6399231 47.77877808 C2.8922187 47.77042435 2.8922187 47.77042435 1.10920715 47.76190186 C-0.40647213 47.7641017 -0.40647213 47.7641017 -1.95277119 47.76634598 C-5.21972065 47.32686504 -7.07512146 46.33988044 -9.71762085 44.39440918 C-13.72103443 38.03090462 -13.16354952 31.21582378 -13.09262085 23.89440918 C-13.10422241 22.69687012 -13.11582397 21.49933105 -13.1277771 20.26550293 C-13.10675534 13.93795415 -13.04308529 8.87164473 -9.71762085 3.39440918 C-6.53860381 0.39240696 -4.31615059 0.01587848 0 0 Z M3.28237915 15.39440918 C3.28237915 20.67440918 3.28237915 25.95440918 3.28237915 31.39440918 C43.21237915 31.39440918 83.14237915 31.39440918 124.28237915 31.39440918 C124.28237915 26.11440918 124.28237915 20.83440918 124.28237915 15.39440918 C84.35237915 15.39440918 44.42237915 15.39440918 3.28237915 15.39440918 Z " fill="#854CCD" transform="translate(295.7176208496094,203.6055908203125)"/>
<path d="M0 0 C2.23178094 2.84010032 2.69228219 4.85620704 3.29882812 8.40454102 C3.61110352 10.16507813 3.61110352 10.16507813 3.9296875 11.96118164 C4.13013672 13.18385742 4.33058594 14.4065332 4.53710938 15.66625977 C4.74916016 16.87733398 4.96121094 18.0884082 5.1796875 19.33618164 C5.75850806 22.67216005 6.31053245 26.01116006 6.84960938 29.35375977 C6.97754883 30.11897949 7.10548828 30.88419922 7.23730469 31.67260742 C7.85508242 35.56583048 7.95671004 37.90577686 5.84960938 41.35375977 C2.94612366 43.77333119 1.52310007 44.38069939 -2.27539062 44.22875977 C-5.30903979 43.30547524 -6.21314264 42.76853667 -8.15039062 40.35375977 C-8.88085937 38.09204102 -8.88085937 38.09204102 -9.33789062 35.66625977 C-9.49644531 34.85801758 -9.655 34.04977539 -9.81835938 33.21704102 C-9.92792969 32.6021582 -10.0375 31.98727539 -10.15039062 31.35375977 C-10.81039062 31.35375977 -11.47039062 31.35375977 -12.15039062 31.35375977 C-13.43495498 32.75078999 -13.43495498 32.75078999 -14.69726562 34.62329102 C-15.20555908 35.33807617 -15.71385254 36.05286133 -16.23754883 36.78930664 C-16.78628662 37.57370117 -17.33502441 38.3580957 -17.90039062 39.16625977 C-19.07531801 40.81921078 -20.25112926 42.47153383 -21.42773438 44.12329102 C-22.03858887 44.98390137 -22.64944336 45.84451172 -23.27880859 46.73120117 C-50.72222334 85.18634873 -50.72222334 85.18634873 -62.15039062 87.35375977 C-72.64072839 88.30422661 -80.21420323 86.95774129 -89.44335938 82.16235352 C-94.19056693 79.81734737 -97.62288623 78.95825554 -102.91210938 79.50610352 C-106.96474294 81.0408705 -110.12622425 83.51675743 -112.23277283 87.29518127 C-113.20508974 89.60927439 -114.05757534 91.93823726 -114.87695312 94.31079102 C-115.34939957 95.60348152 -115.34939957 95.60348152 -115.83139038 96.92228699 C-116.83012048 99.66435344 -117.80370175 102.41450828 -118.77539062 105.16625977 C-119.75887437 107.90537793 -120.74759201 110.64249597 -121.74081421 113.37809753 C-122.35529187 115.07531902 -122.96347362 116.77483857 -123.56411743 118.477005 C-128.18561251 131.38898165 -128.18561251 131.38898165 -132.15039062 135.35375977 C-139.07776493 136.02415083 -139.07776493 136.02415083 -142.65039062 133.79125977 C-144.74438652 130.38851644 -144.45416573 128.34415935 -144.15039062 124.35375977 C-143.25924852 120.99978154 -142.05863483 117.78709923 -140.82617188 114.54516602 C-140.48289352 113.61961411 -140.13961517 112.69406219 -139.78593445 111.74046326 C-139.05919345 109.78942367 -138.32680069 107.84048108 -137.58911133 105.89355469 C-136.46983152 102.93460881 -135.37234708 99.96824711 -134.27734375 97.00024414 C-133.56574437 95.09806788 -132.85289404 93.19635903 -132.13867188 91.29516602 C-131.81449783 90.41784317 -131.49032379 89.54052032 -131.15632629 88.63661194 C-127.26621144 78.45163849 -121.88559101 69.46910659 -111.95507812 64.18579102 C-101.91379713 60.35282892 -92.71068386 62.14267822 -83.15039062 66.35375977 C-82.36664063 66.73532227 -81.58289063 67.11688477 -80.77539062 67.51000977 C-75.58941474 70.03097027 -70.94930641 71.52835767 -65.15039062 70.35375977 C-55.30341231 65.43027061 -48.95450886 53.00196542 -42.68554688 44.26000977 C-38.39424245 38.28529586 -34.02099242 32.37158572 -29.64404297 26.45947266 C-29.08539551 25.70400146 -28.52674805 24.94853027 -27.95117188 24.17016602 C-27.45786377 23.5044458 -26.96455566 22.83872559 -26.45629883 22.15283203 C-25.31520294 20.58081191 -24.22790158 18.97002621 -23.15039062 17.35375977 C-23.73046875 17.49813477 -24.31054688 17.64250977 -24.90820312 17.79125977 C-36.06422282 20.44219514 -36.06422282 20.44219514 -41.02539062 17.85375977 C-43.6080129 14.81538062 -43.70925985 13.21271703 -43.71679688 9.35375977 C-42.89366108 6.44723887 -41.45667065 5.28324046 -39.15039062 3.35375977 C-36.26879883 2.44067383 -36.26879883 2.44067383 -32.95117188 1.86938477 C-31.74138672 1.65668945 -30.53160156 1.44399414 -29.28515625 1.22485352 C-28.02380859 1.01989258 -26.76246094 0.81493164 -25.46289062 0.60375977 C-24.22087891 0.38333008 -22.97886719 0.16290039 -21.69921875 -0.06420898 C-4.0237229 -3.08037733 -4.0237229 -3.08037733 0 0 Z " fill="#854CCE" transform="translate(221.150390625,98.646240234375)"/>
<path d="M0 0 C1.7896241 -0.01279495 1.7896241 -0.01279495 3.61540222 -0.02584839 C5.57375504 -0.02448883 5.57375504 -0.02448883 7.57167053 -0.02310181 C8.96314861 -0.02908739 10.35462336 -0.03589301 11.74609375 -0.04345703 C15.52294943 -0.06111967 19.29971448 -0.06581247 23.07660747 -0.0670886 C25.43655448 -0.06851043 27.79647846 -0.07278057 30.15641975 -0.07808304 C38.39022917 -0.09658303 46.62397384 -0.10475355 54.85780334 -0.10317993 C62.5320877 -0.101978 70.20609105 -0.12309033 77.88030428 -0.15466726 C84.47065553 -0.18081784 91.06091491 -0.19154777 97.65131766 -0.19026911 C101.58682833 -0.18975919 105.52208917 -0.19545923 109.45754814 -0.21662521 C113.15865211 -0.23598774 116.85926737 -0.23614617 120.56038857 -0.22159195 C122.56447845 -0.21850364 124.56856828 -0.23519351 126.57258606 -0.25247192 C127.76848862 -0.24408295 128.96439117 -0.23569397 130.1965332 -0.22705078 C131.23388579 -0.22814032 132.27123838 -0.22922985 133.3400259 -0.2303524 C136.89808092 0.39731917 138.58939847 1.78101138 141.16175842 4.26742554 C141.79066467 6.26742554 141.79066467 6.26742554 141.72425842 8.26742554 C141.72554749 8.92742554 141.72683655 9.58742554 141.72816467 10.26742554 C140.90321042 13.18036746 139.49270276 14.3641307 137.16175842 16.26742554 C134.43183899 16.76799679 134.43183899 16.76799679 131.24085999 16.76863098 C129.42382568 16.78338219 129.42382568 16.78338219 127.57008362 16.7984314 C126.2308474 16.78905974 124.89161399 16.77928043 123.55238342 16.76913452 C122.13957684 16.77291825 120.72677397 16.77841873 119.3139801 16.7855072 C115.47920228 16.79947243 111.64487258 16.78828489 107.81011963 16.77179599 C103.79744614 16.75794832 99.78479874 16.76440524 95.77210999 16.76792908 C89.03342972 16.77063143 82.29492756 16.75715352 75.55628967 16.73397827 C67.76499782 16.70736829 59.97400376 16.70562129 52.18268204 16.71736664 C44.68832336 16.72814516 37.19407242 16.72195678 29.69972229 16.70781136 C26.50999913 16.70205218 23.32035482 16.70213368 20.13063049 16.70687675 C16.37456543 16.71164847 12.61882651 16.70153714 8.86282349 16.6799221 C7.48416239 16.67435666 6.10546994 16.67388675 4.72680664 16.67887497 C2.84541612 16.68482855 0.96399392 16.67048831 -0.91734314 16.65510559 C-1.97036621 16.6526757 -3.02338928 16.6502458 -4.10832214 16.64774227 C-7.24775805 16.21037405 -8.61219471 15.50137746 -10.83824158 13.26742554 C-11.71105306 9.83852327 -12.16746986 7.37482977 -11.15074158 3.95492554 C-8.18777708 0.14539976 -4.58112405 0.014807 0 0 Z " fill="#854CCE" transform="translate(294.83824157714844,301.7325744628906)"/>
<path d="M0 0 C1.2113562 -0.00990463 2.4227124 -0.01980927 3.67077637 -0.03001404 C5.01001078 -0.02577609 6.34924421 -0.02121824 7.68847656 -0.01637268 C9.10128317 -0.02207596 10.51408516 -0.02904006 11.92687988 -0.03717041 C15.76156643 -0.05512047 19.5960244 -0.05393019 23.43074036 -0.04822803 C26.63168361 -0.04513923 29.83258276 -0.05122507 33.03351974 -0.05726677 C40.58390721 -0.07131606 48.13418153 -0.06974701 55.68457031 -0.05836487 C63.47590264 -0.04687912 71.26689095 -0.06096587 79.05817795 -0.08776134 C85.74703777 -0.10990471 92.4357895 -0.11655894 99.12468338 -0.11068493 C103.11994922 -0.10731134 107.11499444 -0.10975701 111.11022949 -0.12693596 C114.86634214 -0.14238183 118.6219442 -0.13847642 122.3780365 -0.11963081 C123.75670777 -0.11593851 125.13541669 -0.11907215 126.51405334 -0.1295166 C128.39539809 -0.14268181 130.27687431 -0.12879856 132.15820312 -0.11352539 C133.73773773 -0.11321146 133.73773773 -0.11321146 135.34918213 -0.1128912 C138.76623022 0.51367529 139.94465901 1.7042539 142.07910156 4.38768005 C142.64550781 6.38768005 142.64550781 6.38768005 142.64160156 8.38768005 C142.66351563 9.04768005 142.68542969 9.70768005 142.70800781 10.38768005 C141.72291299 13.52040395 139.75653466 14.58676365 137.07910156 16.38768005 C134.25736904 16.88545799 134.25736904 16.88545799 131.11387634 16.88215637 C129.91797379 16.89054535 128.72207123 16.89893433 127.4899292 16.90757751 C126.18638489 16.8963385 124.88284058 16.88509949 123.53979492 16.8735199 C122.14654687 16.8756669 120.75330058 16.87954628 119.36006165 16.88502502 C115.58317306 16.8947059 111.80675831 16.87943178 108.02992702 16.85911894 C104.07599232 16.84153228 100.12207191 16.84507331 96.16810608 16.84584045 C89.52955206 16.84396839 82.89118107 16.82661643 76.25268555 16.79930115 C68.57786294 16.76783839 60.90324065 16.75730546 53.22835821 16.75877225 C45.0557568 16.76012322 36.88323261 16.74624171 28.7106545 16.72787905 C26.35610552 16.72361694 24.00156901 16.72219677 21.64701653 16.72140121 C17.9476266 16.71939186 14.24840479 16.7071785 10.54907036 16.68706894 C8.54364621 16.6784424 6.53818758 16.67956173 4.53274536 16.68095398 C3.33966263 16.67242401 2.1465799 16.66389404 0.91734314 16.65510559 C-0.11963243 16.6517539 -1.15660799 16.64840221 -2.22500706 16.64494896 C-4.97785898 16.38224431 -6.60073664 15.85878041 -8.92089844 14.38768005 C-11.00248864 11.7113498 -10.91677434 10.27014338 -10.79589844 6.82518005 C-9.92089844 3.38768005 -9.92089844 3.38768005 -8.23626709 1.69706631 C-5.30927717 0.04179626 -3.35689909 0.00774619 0 0 Z " fill="#854DCE" transform="translate(293.9208984375,96.61231994628906)"/>
<path d="M0 0 C1.21564636 -0.0071553 2.43129272 -0.01431061 3.68377686 -0.02168274 C5.04334997 -0.02452329 6.40292335 -0.02723499 7.76249695 -0.02983093 C9.18470935 -0.03609274 10.60692009 -0.04273929 12.02912903 -0.04974365 C15.90317606 -0.06718028 19.77721073 -0.07771272 23.65128732 -0.08594918 C26.06999888 -0.09109389 28.48870656 -0.09716986 30.90741539 -0.10346031 C38.47008618 -0.12252014 46.03274715 -0.13674936 53.59543735 -0.14507228 C62.33432989 -0.1548475 71.07296932 -0.18117094 79.81177264 -0.22157317 C86.55999702 -0.25170487 93.30814874 -0.26653836 100.0564391 -0.26985329 C104.08978593 -0.27220727 108.12286261 -0.2812122 112.15613747 -0.30631447 C115.95074193 -0.32954885 119.74489751 -0.33384744 123.5395546 -0.32355309 C124.93275251 -0.32305647 126.32597217 -0.32941408 127.71910286 -0.34310913 C129.62027074 -0.36075336 131.5216324 -0.35136096 133.42285156 -0.34057617 C134.48714543 -0.34296453 135.5514393 -0.34535288 136.6479845 -0.34781361 C140.11603696 0.27552864 141.29809737 1.36322441 143.40190125 4.14717102 C143.8518417 7.74669464 143.95789923 10.09839177 142.24226379 13.33459568 C139.67633779 15.86177936 138.08405739 15.64767908 134.51860046 15.64837646 C133.29034546 15.6582106 132.06209045 15.66804474 130.7966156 15.67817688 C129.43327055 15.6688046 128.06992826 15.65902528 126.70658875 15.64888 C125.27260304 15.65266249 123.83862099 15.65816195 122.40464783 15.66525269 C118.50789924 15.67923407 114.61159086 15.66801906 110.71486664 15.65154147 C106.64032632 15.63770873 102.56581202 15.64414902 98.49125671 15.64767456 C91.6482482 15.6503781 84.80541494 15.63688884 77.96244812 15.61372375 C70.0467585 15.58711303 62.13136195 15.58536633 54.21564293 15.59711212 C46.60648721 15.60788484 38.99743769 15.60170684 31.38829041 15.58755684 C28.14750158 15.58179261 24.90679035 15.58188312 21.66600037 15.58662224 C17.8508576 15.59138851 14.03603646 15.58130524 10.2209549 15.55966759 C8.81929865 15.55409471 7.41761153 15.55363903 6.01595306 15.55862045 C4.10569552 15.56455888 2.1954067 15.55025494 0.28520203 15.53485107 C-0.78479034 15.53242118 -1.85478271 15.52999128 -2.9571991 15.52748775 C-5.59809875 15.14717102 -5.59809875 15.14717102 -7.41111755 13.80262852 C-9.22941241 11.26669126 -9.47432274 9.2415713 -9.59809875 6.14717102 C-6.92700211 0.68356426 -5.93288796 0.02384779 0 0 Z " fill="#854CCE" transform="translate(292.5980987548828,131.8528289794922)"/>
<path d="M0 0 C1.21564636 -0.0071553 2.43129272 -0.01431061 3.68377686 -0.02168274 C5.04334997 -0.02452329 6.40292335 -0.02723499 7.76249695 -0.02983093 C9.18470935 -0.03609274 10.60692009 -0.04273929 12.02912903 -0.04974365 C15.90317606 -0.06718028 19.77721073 -0.07771272 23.65128732 -0.08594918 C26.06999888 -0.09109389 28.48870656 -0.09716986 30.90741539 -0.10346031 C38.47008618 -0.12252014 46.03274715 -0.13674936 53.59543735 -0.14507228 C62.33432989 -0.1548475 71.07296932 -0.18117094 79.81177264 -0.22157317 C86.55999702 -0.25170487 93.30814874 -0.26653836 100.0564391 -0.26985329 C104.08978593 -0.27220727 108.12286261 -0.2812122 112.15613747 -0.30631447 C115.95074193 -0.32954885 119.74489751 -0.33384744 123.5395546 -0.32355309 C124.93275251 -0.32305647 126.32597217 -0.32941408 127.71910286 -0.34310913 C129.62027074 -0.36075336 131.5216324 -0.35136096 133.42285156 -0.34057617 C134.48714543 -0.34296453 135.5514393 -0.34535288 136.6479845 -0.34781361 C140.11631061 0.27557783 141.29499482 1.36568923 143.40190125 4.14717102 C143.90190125 7.64717102 143.90190125 7.64717102 143.40190125 11.14717102 C141.29701432 13.9235097 140.11490193 15.01730757 136.65357113 15.64774227 C135.06102678 15.6480562 135.06102678 15.6480562 133.43630981 15.64837646 C132.2150943 15.6582106 130.99387878 15.66804474 129.73565674 15.67817688 C128.38538844 15.66880526 127.03512293 15.65902596 125.68486023 15.64888 C124.26057908 15.65266366 122.83630161 15.65816408 121.41203308 15.66525269 C117.54633291 15.67921758 113.68107729 15.66803116 109.81540179 15.65154147 C105.7715639 15.63769621 101.72775196 15.64415035 97.68389893 15.64767456 C90.8939446 15.6503768 84.10416703 15.63689897 77.31425476 15.61372375 C69.46045966 15.58710315 61.60695992 15.58537021 53.75313514 15.59711212 C46.20110822 15.60788448 38.6491883 15.60170782 31.09716988 15.58755684 C27.88150063 15.58179338 24.66590959 15.58188249 21.45023918 15.58662224 C17.66545084 15.59138837 13.88098671 15.58130588 10.09626007 15.55966759 C8.70589097 15.5540949 7.31549074 15.55363885 5.9251194 15.55862045 C4.03024202 15.56455915 2.13533311 15.55025456 0.24050903 15.53485107 C-0.82081017 15.53242118 -1.88212938 15.52999128 -2.97560978 15.52748775 C-5.59809875 15.14717102 -5.59809875 15.14717102 -7.40832424 13.80262852 C-9.23035588 11.26744568 -9.4742677 9.24294744 -9.59809875 6.14717102 C-6.92700211 0.68356426 -5.93288796 0.02384779 0 0 Z " fill="#844CCE" transform="translate(292.5980987548828,267.8528289794922)"/>
<path d="M0 0 C0.69641602 -0.00525696 1.39283203 -0.01051392 2.11035156 -0.01593018 C4.40713074 -0.02910935 6.70321406 -0.02039999 9 -0.01025391 C10.59895968 -0.01227525 12.19791847 -0.0151872 13.796875 -0.01895142 C17.14592273 -0.02337193 20.49473022 -0.01695265 23.84375 -0.00292969 C28.13463464 0.01416223 32.42495632 0.00431956 36.71582031 -0.01364708 C40.01697016 -0.02449239 43.31798674 -0.02103518 46.61914062 -0.0132637 C48.20117255 -0.01126375 49.78321662 -0.01371378 51.36523438 -0.02070236 C53.57714851 -0.02832937 55.78815351 -0.01669632 58 0 C59.8871875 0.00358017 59.8871875 0.00358017 61.8125 0.00723267 C65.23280449 0.41600699 66.63680527 0.91773715 69 3.38818359 C69.87281149 6.81708586 70.32922829 9.28077936 69.3125 12.70068359 C67.66381045 14.8204273 66.5131039 15.41177428 64 16.38818359 C60.88842773 16.64215088 60.88842773 16.64215088 57.18359375 16.64697266 C56.50668488 16.65047729 55.829776 16.65398193 55.13235474 16.65759277 C52.90063137 16.66637647 50.66922645 16.66057297 48.4375 16.65380859 C46.88338154 16.65515621 45.3292635 16.65709756 43.77514648 16.65960693 C40.52030416 16.66255364 37.26557172 16.65827518 34.01074219 16.64892578 C29.84103143 16.63753146 25.67157815 16.64409337 21.50187683 16.65607071 C18.29339665 16.66330158 15.08497739 16.66099574 11.87649536 16.65581512 C10.33912119 16.65448202 8.80174147 16.65611446 7.26437378 16.66077423 C5.11490244 16.66585968 2.96584669 16.6581012 0.81640625 16.64697266 C-0.40618896 16.64538147 -1.62878418 16.64379028 -2.88842773 16.64215088 C-5.87098806 16.39871358 -7.52678594 16.01502464 -10 14.38818359 C-12.0815902 11.71185334 -11.99587591 10.27064692 -11.875 6.82568359 C-11 3.38818359 -11 3.38818359 -9.3828125 1.69760132 C-6.14164206 -0.08350652 -3.6921992 0.00700444 0 0 Z " fill="#854DCE" transform="translate(295,336.61181640625)"/>
<path d="M0 0 C0.67690887 -0.00350464 1.35381775 -0.00700928 2.05123901 -0.01062012 C4.28296238 -0.01940382 6.5143673 -0.01360032 8.74609375 -0.00683594 C10.30021221 -0.00818356 11.85433025 -0.0101249 13.40844727 -0.01263428 C16.66328959 -0.01558098 19.91802203 -0.01130253 23.17285156 -0.00195312 C27.34256232 0.0094412 31.5120156 0.00287929 35.68171692 -0.00909805 C38.8901971 -0.01632893 42.09861636 -0.01402309 45.30709839 -0.00884247 C46.84447256 -0.00750937 48.38185228 -0.0091418 49.91921997 -0.01380157 C52.06869131 -0.01888703 54.21774706 -0.01112855 56.3671875 0 C57.58978271 0.00159119 58.81237793 0.00318237 60.07202148 0.00482178 C63.05458181 0.24825908 64.71037969 0.63194802 67.18359375 2.25878906 C69.26518395 4.93511932 69.17946966 6.37632574 69.05859375 9.82128906 C68.18359375 13.25878906 68.18359375 13.25878906 66.56640625 14.94937134 C63.32523581 16.73047918 60.87579295 16.63996821 57.18359375 16.64697266 C56.48717773 16.65222961 55.79076172 16.65748657 55.07324219 16.66290283 C52.77646301 16.67608201 50.48037969 16.66737265 48.18359375 16.65722656 C46.58463407 16.65924791 44.98567528 16.66215986 43.38671875 16.66592407 C40.03767102 16.67034458 36.68886353 16.66392531 33.33984375 16.64990234 C29.04895911 16.63281043 24.75863743 16.6426531 20.46777344 16.66061974 C17.16662359 16.67146505 13.86560701 16.66800784 10.56445312 16.66023636 C8.9824212 16.65823641 7.40037713 16.66068643 5.81835938 16.66767502 C3.60644524 16.67530203 1.39544024 16.66366898 -0.81640625 16.64697266 C-2.70359375 16.64339249 -2.70359375 16.64339249 -4.62890625 16.63973999 C-8.04921074 16.23096566 -9.45321152 15.72923551 -11.81640625 13.25878906 C-12.68921774 9.8298868 -13.14563454 7.3661933 -12.12890625 3.94628906 C-8.93007862 -0.16648931 -4.91292259 0.00639408 0 0 Z " fill="#854DCE" transform="translate(295.81640625,165.7412109375)"/>
<path d="M0 0 C0.98782471 -0.01268417 1.97564941 -0.02536835 2.9934082 -0.03843689 C4.58415161 -0.03403343 4.58415161 -0.03403343 6.20703125 -0.02954102 C7.84901489 -0.03740379 7.84901489 -0.03740379 9.52416992 -0.04542542 C11.83739372 -0.05184577 14.15065016 -0.05050848 16.46386719 -0.04199219 C20.00644915 -0.0334787 23.54742095 -0.06225112 27.08984375 -0.09399414 C29.3372391 -0.09560612 31.58463731 -0.09502869 33.83203125 -0.09204102 C34.89252686 -0.10327499 35.95302246 -0.11450897 37.0456543 -0.12608337 C44.37590689 -0.05647108 44.37590689 -0.05647108 47.68334961 2.31005859 C49.11286457 4.55031984 49.58718858 5.76350175 49.58203125 8.40405273 C49.60394531 9.06405273 49.62585938 9.72405273 49.6484375 10.40405273 C48.60803509 13.71266162 46.97493221 14.61140987 44.01953125 16.40405273 C40.40244522 16.98059458 36.82760303 16.91692507 33.171875 16.86499023 C32.12302628 16.86407379 31.07417755 16.86315735 29.99354553 16.86221313 C27.78040022 16.85618106 25.56726292 16.84044698 23.35424805 16.81567383 C19.96567739 16.77914594 16.57820021 16.77465476 13.18945312 16.77514648 C11.03775096 16.76531574 8.8860562 16.75365892 6.734375 16.73999023 C5.21395851 16.73665176 5.21395851 16.73665176 3.66282654 16.73324585 C2.71827103 16.72048615 1.77371552 16.70772644 0.80053711 16.69458008 C-0.02821426 16.68695648 -0.85696564 16.67933289 -1.71083069 16.67147827 C-4.2191654 16.37592773 -5.83231491 15.71388157 -7.98046875 14.40405273 C-10.06205895 11.72772248 -9.97634466 10.28651606 -9.85546875 6.84155273 C-8.98046875 3.40405273 -8.98046875 3.40405273 -7.23706055 1.71446228 C-4.59690736 0.1813175 -3.0368613 0.01891867 0 0 Z " fill="#854DCE" transform="translate(386.98046875,336.595947265625)"/>
</svg>
