<?xml version="1.0" encoding="UTF-8"?>
<svg version="1.1" xmlns="http://www.w3.org/2000/svg" width="497" height="133">
<path d="M0 0 C1.20870758 -0.00945648 2.41741516 -0.01891296 3.66275024 -0.02865601 C4.96690887 -0.02258331 6.2710675 -0.01651062 7.61474609 -0.01025391 C8.97512976 -0.01227702 10.33551236 -0.01519044 11.69589233 -0.01895142 C14.54899406 -0.02337263 17.40181391 -0.01695664 20.25488281 -0.00292969 C23.8860636 0.01406492 27.5165743 0.00438258 31.14772987 -0.01364708 C33.96016327 -0.02457444 36.77244236 -0.02099635 39.58488083 -0.0132637 C41.56657093 -0.01032534 43.54826735 -0.0193418 45.52993774 -0.02865601 C57.10877257 0.0605369 66.33312615 1.70812615 74.76318359 10.13818359 C79.9079148 17.569462 79.85123992 26.26192051 78.38818359 34.95068359 C77.18538536 39.97413505 74.34841635 43.53903132 71.01318359 47.38818359 C72.06505859 48.17193359 73.11693359 48.95568359 74.20068359 49.76318359 C80.51130817 55.25457902 83.11345525 61.71312654 83.95068359 69.95068359 C84.2817119 78.22639137 83.38236253 84.82585379 78.01318359 91.38818359 C69.77479042 99.82751318 58.38895181 101.36897687 47.05957031 101.53344727 C44.77069647 101.54670806 42.4817823 101.55396561 40.19287109 101.55615234 C38.9754422 101.55948074 37.75801331 101.56280914 36.50369263 101.5662384 C33.9402911 101.57128322 31.37688305 101.57364749 28.81347656 101.57348633 C24.89425922 101.57568019 20.97532024 101.59388233 17.05615234 101.61279297 C14.56005955 101.61572592 12.06396543 101.61771137 9.56787109 101.61865234 C7.81456985 101.62943062 7.81456985 101.62943062 6.02584839 101.64042664 C-6.77053114 101.60446886 -6.77053114 101.60446886 -9.98681641 98.38818359 C-10.10339988 95.45192395 -10.1548433 92.53887906 -10.16381836 89.6015625 C-10.17038956 88.67964615 -10.17696075 87.7577298 -10.18373108 86.80787659 C-10.20351408 83.74349904 -10.21513699 80.67917058 -10.22509766 77.61474609 C-10.22917318 76.5713142 -10.23324871 75.52788231 -10.23744774 74.45283127 C-10.25832859 68.93160955 -10.27262227 63.41041286 -10.28198242 57.88916016 C-10.29305866 52.17331537 -10.32746693 46.45785864 -10.36715412 40.74215126 C-10.39324194 36.3584824 -10.40166721 31.97490713 -10.4052639 27.59116745 C-10.4101492 25.48355866 -10.42181793 23.37595457 -10.4403019 21.26842117 C-10.46452973 18.32316176 -10.46375847 15.37892132 -10.45678711 12.43359375 C-10.46959717 11.55763046 -10.48240723 10.68166718 -10.49560547 9.77915955 C-10.4451667 3.95339003 -10.4451667 3.95339003 -8.33161926 1.34710693 C-5.40976532 0.15219456 -3.16082781 0.00710123 0 0 Z M12.01318359 17.38818359 C12.01318359 25.63818359 12.01318359 33.88818359 12.01318359 42.38818359 C16.87008996 42.45731194 21.7252678 42.51696511 26.58227539 42.55297852 C28.23207404 42.56800165 29.88183317 42.58842619 31.53149414 42.61450195 C33.91220896 42.65117258 36.29239267 42.66797462 38.67333984 42.68115234 C39.76751976 42.70437813 39.76751976 42.70437813 40.88380432 42.72807312 C45.97242204 42.72971986 49.48759685 41.75401134 54.01318359 39.38818359 C56.48346912 35.98042129 57.10272152 32.0630695 56.88037109 27.90380859 C56.23546269 24.31577274 55.63995316 22.03517153 53.07568359 19.38818359 C48.63566677 17.23544817 44.66964161 17.25827198 39.84521484 17.29052734 C39.05040207 17.29194229 38.25558929 17.29335724 37.43669128 17.29481506 C34.89965034 17.30040982 32.36269784 17.31296132 29.82568359 17.32568359 C28.10498174 17.33069927 26.38427851 17.33526206 24.66357422 17.33935547 C20.4467159 17.34952638 16.23004869 17.36910276 12.01318359 17.38818359 Z M12.01318359 62.38818359 C11.33251932 64.78425543 11.33251932 64.78425543 11.52490234 67.37255859 C11.54101562 68.30712891 11.55712891 69.24169922 11.57373047 70.20458984 C11.615625 71.17267578 11.65751953 72.14076172 11.70068359 73.13818359 C11.72324219 74.12173828 11.74580078 75.10529297 11.76904297 76.11865234 C11.82789554 78.5433783 11.91004929 80.96500343 12.01318359 83.38818359 C17.74232162 83.46253351 23.47117661 83.51688031 29.20068359 83.55297852 C31.14832453 83.56803259 33.09593175 83.5884804 35.04345703 83.61450195 C37.84855487 83.65103413 40.65320313 83.66794392 43.45849609 83.68115234 C44.32435333 83.6966362 45.19021057 83.71212006 46.08230591 83.72807312 C51.15118122 83.72947314 54.61950351 83.20850365 59.01318359 80.38818359 C61.24974155 77.3546912 61.28352437 74.59020455 61.26318359 70.88818359 C61.26833984 69.94974609 61.27349609 69.01130859 61.27880859 68.04443359 C60.99617248 65.21807244 60.64329966 63.705698 59.01318359 61.38818359 C54.74975612 58.09440738 50.80414427 57.9347196 45.60693359 57.95458984 C44.80461304 57.94934799 44.00229248 57.94410614 43.17565918 57.93870544 C41.48463088 57.93230128 39.79355794 57.93360143 38.10253906 57.94213867 C35.52116392 57.95065726 32.94199711 57.92185412 30.36083984 57.89013672 C28.71370509 57.88852467 27.06656643 57.88910231 25.41943359 57.89208984 C24.65159546 57.88085587 23.88375732 57.86962189 23.09265137 57.85804749 C18.14843181 57.92208804 15.32008515 58.62710148 12.01318359 62.38818359 Z " fill="#854CCE" transform="translate(152.98681640625,14.61181640625)"/>
<path d="M0 0 C1.8181295 -0.00956978 1.8181295 -0.00956978 3.67298889 -0.01933289 C4.99060715 -0.02044571 6.3082254 -0.02155853 7.66577148 -0.02270508 C9.03140803 -0.0259194 10.39704423 -0.0292836 11.76268005 -0.03279114 C14.63183386 -0.03878719 17.50095755 -0.04063081 20.37011719 -0.04003906 C24.02596533 -0.039938 27.6816168 -0.05353 31.33741856 -0.07081127 C34.16264205 -0.08200245 36.98781929 -0.08395602 39.81306267 -0.08342934 C41.80976174 -0.08516721 43.80644636 -0.09597234 45.80311584 -0.10697937 C56.44204667 -0.08045746 66.74580514 0.65341814 75.17358398 7.79760742 C81.70531633 14.49366008 83.32731439 22.11987682 83.53686523 31.27026367 C83.26360825 40.08280158 81.77407673 47.11243963 76.22436523 54.14526367 C72.55851426 57.54288165 69.31553052 60.14526367 64.22436523 60.14526367 C67.55888325 66.43508001 71.05369663 72.60953075 74.72436523 78.70776367 C75.1069751 79.34641357 75.48958496 79.98506348 75.88378906 80.64306641 C77.60636642 83.50766372 79.35241179 86.34299018 81.16967773 89.14916992 C81.72397461 90.01413086 82.27827148 90.8790918 82.84936523 91.77026367 C83.33663086 92.5050293 83.82389648 93.23979492 84.32592773 93.99682617 C85.47389362 96.74196198 85.04226456 98.33681418 84.22436523 101.14526367 C80.99567778 101.29110431 77.76784159 101.37950473 74.53686523 101.45776367 C73.62485352 101.4996582 72.7128418 101.54155273 71.77319336 101.5847168 C67.55238446 101.66145878 65.02498636 101.6793875 61.45483398 99.29760742 C58.31338205 94.85776204 55.75158946 90.20596969 53.22436523 85.39526367 C52.20380649 83.48365872 51.1829761 81.57219876 50.16186523 79.66088867 C49.67331055 78.73727539 49.18475586 77.81366211 48.68139648 76.86206055 C46.88405456 73.51071656 45.0073642 70.20777367 43.10717773 66.91381836 C42.22436523 65.14526367 42.22436523 65.14526367 42.22436523 63.14526367 C38.49432414 63.22638075 34.76588924 63.33920442 31.03686523 63.45776367 C29.98176758 63.48032227 28.92666992 63.50288086 27.83959961 63.52612305 C26.81801758 63.56157227 25.79643555 63.59702148 24.74389648 63.63354492 C23.80650635 63.659729 22.86911621 63.68591309 21.90332031 63.71289062 C18.74467449 64.22268391 16.81044024 65.28749207 14.22436523 67.14526367 C12.7523051 70.08938394 12.98629331 73.10812282 12.90795898 76.34057617 C12.88717789 77.04801971 12.86639679 77.75546326 12.84498596 78.48434448 C12.77955445 80.74621792 12.7206355 83.00820829 12.66186523 85.27026367 C12.61867391 86.80282789 12.57505941 88.33538025 12.53100586 89.86791992 C12.42387968 93.6269144 12.32259433 97.3860266 12.22436523 101.14526367 C9.12027717 101.20333411 6.01632883 101.23888281 2.91186523 101.27026367 C1.59025391 101.29540039 1.59025391 101.29540039 0.24194336 101.32104492 C-0.60561523 101.32749023 -1.45317383 101.33393555 -2.32641602 101.34057617 C-3.10670166 101.3510498 -3.8869873 101.36152344 -4.69091797 101.37231445 C-6.77563477 101.14526367 -6.77563477 101.14526367 -9.77563477 99.14526367 C-10.0723491 96.1464224 -10.17445447 93.35395333 -10.14794922 90.3527832 C-10.15159988 89.44208069 -10.15525055 88.53137817 -10.15901184 87.59307861 C-10.16714253 84.57122362 -10.15348422 81.54990072 -10.13891602 78.52807617 C-10.13839762 76.43301392 -10.13891452 74.33795117 -10.14042664 72.2428894 C-10.14033679 67.84617883 -10.12988456 63.44965115 -10.11181641 59.05297852 C-10.08915683 53.41470701 -10.08857885 47.7767036 -10.09533405 42.13839912 C-10.098675 37.80957656 -10.09204107 33.4808152 -10.08220482 29.15200424 C-10.07835262 27.07316279 -10.07720469 24.99431454 -10.07879066 22.91547012 C-10.07916127 20.00902589 -10.06654134 17.10292578 -10.05029297 14.1965332 C-10.05277039 13.33508698 -10.0552478 12.47364075 -10.05780029 11.58609009 C-10.05071548 10.79255127 -10.04363068 9.99901245 -10.03633118 9.181427 C-10.03427831 8.49452349 -10.03222544 7.80761997 -10.03011036 7.0999012 C-9.7245556 4.7529225 -9.0084132 3.15808188 -7.77563477 1.14526367 C-5.0894812 -0.19781311 -3.00779805 0.0107167 0 0 Z M12.22436523 17.14526367 C12.22436523 26.71526367 12.22436523 36.28526367 12.22436523 46.14526367 C17.65087432 46.21434229 23.07584207 46.27401263 28.50244141 46.31005859 C30.34624416 46.32509355 32.19001145 46.345527 34.03369141 46.37158203 C36.69239073 46.40819928 39.35061494 46.42504311 42.00952148 46.43823242 C42.82646988 46.45371628 43.64341827 46.46920013 44.48512268 46.4851532 C49.81673647 46.4867015 53.48958069 45.64188419 58.22436523 43.14526367 C61.35825528 39.29912589 61.43772134 33.55144642 61.01342773 28.76635742 C60.32180104 24.80581586 59.68597134 22.6442973 56.91186523 19.64526367 C51.73134811 16.75381225 46.44862651 17.00935977 40.64233398 17.04760742 C39.82815506 17.04902237 39.01397614 17.05043732 38.17512512 17.05189514 C35.58733367 17.0574705 32.99963032 17.07001843 30.41186523 17.08276367 C28.65210086 17.08778186 26.89233513 17.09234421 25.13256836 17.09643555 C20.82977315 17.10657886 16.52716723 17.12615898 12.22436523 17.14526367 Z " fill="#854CCE" transform="translate(402.775634765625,14.854736328125)"/>
<path d="M0 0 C3.64581687 -0.02887512 7.29160463 -0.04675585 10.9375 -0.0625 C12.49887695 -0.07506836 12.49887695 -0.07506836 14.09179688 -0.08789062 C15.57583008 -0.09272461 15.57583008 -0.09272461 17.08984375 -0.09765625 C18.46450806 -0.10551147 18.46450806 -0.10551147 19.86694336 -0.11352539 C22 0 22 0 23 1 C23.10280734 3.03832133 23.13572859 5.08019057 23.1418457 7.12109375 C23.14888016 8.43335938 23.15591461 9.745625 23.16316223 11.09765625 C23.16497812 11.80422363 23.16679401 12.51079102 23.16866493 13.23876953 C23.17582476 15.45094305 23.19149155 17.662894 23.21000671 19.875 C23.26246946 26.16679656 23.31036429 32.45847818 23.32592773 38.75048828 C23.33606629 42.59686449 23.36554796 46.44269086 23.40724754 50.28884888 C23.41949044 51.74947937 23.42469116 53.21018784 23.42244911 54.67086792 C23.38624963 66.40202988 23.38624963 66.40202988 28 77 C35.97938478 83.91546681 45.98849195 83.6492819 56 83 C62.53002982 82.05981246 66.68982626 80.19204807 70.84375 75.01171875 C73.58462724 70.24296275 74.2545166 65.71188311 74.30297852 60.27612305 C74.31962051 58.9584343 74.33626251 57.64074554 74.35340881 56.28312683 C74.36196696 54.85932449 74.3704647 53.43552179 74.37890625 52.01171875 C74.39509309 50.54294237 74.41227433 49.07417665 74.43040466 47.60542297 C74.47593392 43.75406808 74.51083067 39.90269881 74.54260254 36.0512085 C74.59464284 29.86910826 74.65948248 23.68716332 74.73081779 17.50525856 C74.75369437 15.34423357 74.7699304 13.18322868 74.78553772 11.0221405 C74.79902756 9.72021255 74.8125174 8.41828461 74.82641602 7.0769043 C74.84068382 5.34865669 74.84068382 5.34865669 74.85523987 3.585495 C75 1 75 1 76 0 C77.63472882 -0.08700342 79.27314055 -0.10701063 80.91015625 -0.09765625 C81.89951172 -0.09443359 82.88886719 -0.09121094 83.90820312 -0.08789062 C84.94912109 -0.07951172 85.99003906 -0.07113281 87.0625 -0.0625 C88.62967773 -0.05573242 88.62967773 -0.05573242 90.22851562 -0.04882812 C92.8190666 -0.03699913 95.40950559 -0.02051689 98 0 C98.04654352 8.43261 98.08198026 16.86516543 98.10362434 25.29787254 C98.11401759 29.21441594 98.12809428 33.13087081 98.15087891 37.04736328 C98.17276768 40.83398929 98.18460207 44.62053067 98.18975449 48.40721512 C98.19342169 49.84474645 98.20058197 51.28227367 98.21146011 52.71976852 C98.3105077 66.36334214 97.33911673 79.19948366 88.21484375 90.140625 C75.44177662 102.2055344 58.95565887 102.57067693 42.42578125 102.30859375 C30.41004978 101.88738774 19.30271331 99.01198151 10 91 C2.9391166 82.80821536 -0.13284109 73.72680682 -0.11352539 63.0065918 C-0.11374443 61.98137169 -0.11374443 61.98137169 -0.1139679 60.93544006 C-0.11327462 58.68999999 -0.10550974 56.44464423 -0.09765625 54.19921875 C-0.09578999 52.63694809 -0.09436707 51.07467685 -0.09336853 49.5124054 C-0.08955972 45.41069916 -0.07974346 41.30902861 -0.06866455 37.20733643 C-0.0584152 33.01778649 -0.05386337 28.82823075 -0.04882812 24.63867188 C-0.03811967 16.42576491 -0.02106297 8.2128869 0 0 Z " fill="#834BCE" transform="translate(7,15)"/>
<path d="M0 0 C0.80037689 -0.00058411 1.60075378 -0.00116821 2.42538452 -0.00177002 C5.06626014 0.00101281 7.7060017 0.03211322 10.34667969 0.06347656 C12.17941674 0.07093827 14.01216178 0.07663153 15.84490967 0.08062744 C20.66526371 0.09588935 25.48513454 0.13517594 30.30529785 0.17944336 C35.2252753 0.22038406 40.14533094 0.23863589 45.06542969 0.25878906 C54.71668349 0.30166967 64.36757888 0.36992775 74.01855469 0.45410156 C74.51355469 1.44410156 74.51355469 1.44410156 75.01855469 2.45410156 C74.13362194 4.87155029 73.194859 7.17336107 72.14355469 9.51660156 C71.72009766 10.49209961 71.72009766 10.49209961 71.28808594 11.48730469 C69.17631211 16.29634414 69.17631211 16.29634414 68.01855469 17.45410156 C66.20800443 17.54786209 64.39378267 17.57154266 62.58081055 17.56762695 C61.41968246 17.56755142 60.25855438 17.56747589 59.0622406 17.56739807 C57.16696373 17.55965614 57.16696373 17.55965614 55.23339844 17.55175781 C53.94744278 17.55034286 52.66148712 17.54892792 51.33656311 17.54747009 C47.91212026 17.54364574 44.4877196 17.53381618 41.06329346 17.52276611 C37.5711728 17.51255021 34.07904535 17.50797209 30.58691406 17.50292969 C23.73077516 17.49219383 16.87467129 17.4745977 10.01855469 17.45410156 C10.01855469 25.37410156 10.01855469 33.29410156 10.01855469 41.45410156 C25.52855469 41.45410156 41.03855469 41.45410156 57.01855469 41.45410156 C58.3643744 45.49156071 57.21012524 47.17565781 55.64355469 51.07910156 C55.18207031 52.24699219 54.72058594 53.41488281 54.24511719 54.61816406 C53.01855469 57.45410156 53.01855469 57.45410156 52.01855469 58.45410156 C49.56971147 58.57712456 47.14470423 58.64018102 44.69433594 58.66503906 C43.1754453 58.69312661 41.65656525 58.72179118 40.13769531 58.75097656 C37.73934436 58.79211214 35.34118691 58.82898971 32.94262695 58.85546875 C30.63027793 58.88322172 28.31883245 58.92911258 26.00683594 58.97753906 C25.29723221 58.98079193 24.58762848 58.9840448 23.85652161 58.98739624 C19.21031234 59.10108674 15.96628858 59.99724917 12.01855469 62.45410156 C8.87389431 68.74342232 10.38813129 76.43214617 10.01855469 83.45410156 C31.46855469 83.45410156 52.91855469 83.45410156 75.01855469 83.45410156 C71.34439738 95.70129257 71.34439738 95.70129257 69.01855469 100.45410156 C66.10169117 101.91253332 63.53502645 101.58948279 60.27734375 101.59936523 C59.58443237 101.60272385 58.891521 101.60608246 58.1776123 101.60954285 C55.87978333 101.61906503 53.58202718 101.62099688 51.28417969 101.62207031 C49.68715383 101.62528305 48.09012826 101.62864713 46.49310303 101.63215637 C43.14057738 101.63815153 39.78807751 101.63999598 36.43554688 101.6394043 C32.14716984 101.63930289 27.85895917 101.65293126 23.57062149 101.67017651 C20.26942186 101.68131846 16.9682621 101.6833228 13.66704559 101.68279457 C12.08666157 101.68397229 10.50627644 101.6883824 8.92591095 101.69612694 C6.70960517 101.70596707 4.49365574 101.70303263 2.27734375 101.69702148 C0.38776947 101.69915901 0.38776947 101.69915901 -1.53997803 101.70133972 C-5.03750296 101.45007433 -7.75987784 100.82458484 -10.98144531 99.45410156 C-12.64300029 96.13099161 -12.14696913 92.40804267 -12.15844727 88.75341797 C-12.16501846 87.85246902 -12.17158966 86.95152008 -12.17835999 86.02326965 C-12.19811323 83.03406701 -12.20975908 80.0449146 -12.21972656 77.05566406 C-12.22380209 76.03646252 -12.22787762 75.01726097 -12.23207664 73.96717453 C-12.2529444 68.57447257 -12.267244 63.18179612 -12.27661133 57.7890625 C-12.28768714 52.21122403 -12.32209864 46.63378326 -12.36178303 41.05608559 C-12.38788932 36.77360273 -12.39629775 32.49121557 -12.39989281 28.20866013 C-12.40477299 26.15211674 -12.41642744 24.09557803 -12.4349308 22.03911209 C-12.45919858 19.1636091 -12.45838006 16.28914759 -12.45141602 13.41357422 C-12.46422607 12.56147873 -12.47703613 11.70938324 -12.49023438 10.83146667 C-12.45828652 7.21918087 -12.34495615 5.05536854 -10.45091248 1.92251587 C-7.00586184 -0.12600768 -3.89134071 -0.07437972 0 0 Z " fill="#864CCE" transform="translate(284.9814453125,14.5458984375)"/>
</svg>
